G04 #@! TF.FileFunction,Legend,Top*
%FSLAX46Y46*%
G04 Gerber Fmt 4.6, Leading zero omitted, Abs format (unit mm)*
G04 Created by KiCad (PCBNEW 4.0.7-e2-6376~58~ubuntu17.04.1) date Mon Nov 20 18:02:35 2017*
%MOMM*%
%LPD*%
G01*
G04 APERTURE LIST*
%ADD10C,0.100000*%
%ADD11C,0.300000*%
%ADD12C,0.150000*%
%ADD13C,0.120000*%
G04 APERTURE END LIST*
D10*
D11*
X128178571Y-121214286D02*
X126678571Y-121214286D01*
X128107143Y-121214286D02*
X128178571Y-121357143D01*
X128178571Y-121642857D01*
X128107143Y-121785715D01*
X128035714Y-121857143D01*
X127892857Y-121928572D01*
X127464286Y-121928572D01*
X127321429Y-121857143D01*
X127250000Y-121785715D01*
X127178571Y-121642857D01*
X127178571Y-121357143D01*
X127250000Y-121214286D01*
X128178571Y-120285714D02*
X128107143Y-120428572D01*
X128035714Y-120500000D01*
X127892857Y-120571429D01*
X127464286Y-120571429D01*
X127321429Y-120500000D01*
X127250000Y-120428572D01*
X127178571Y-120285714D01*
X127178571Y-120071429D01*
X127250000Y-119928572D01*
X127321429Y-119857143D01*
X127464286Y-119785714D01*
X127892857Y-119785714D01*
X128035714Y-119857143D01*
X128107143Y-119928572D01*
X128178571Y-120071429D01*
X128178571Y-120285714D01*
X128178571Y-119142857D02*
X127178571Y-119142857D01*
X127321429Y-119142857D02*
X127250000Y-119071429D01*
X127178571Y-118928571D01*
X127178571Y-118714286D01*
X127250000Y-118571429D01*
X127392857Y-118500000D01*
X128178571Y-118500000D01*
X127392857Y-118500000D02*
X127250000Y-118428571D01*
X127178571Y-118285714D01*
X127178571Y-118071429D01*
X127250000Y-117928571D01*
X127392857Y-117857143D01*
X128178571Y-117857143D01*
X128107143Y-116571429D02*
X128178571Y-116714286D01*
X128178571Y-117000000D01*
X128107143Y-117142857D01*
X127964286Y-117214286D01*
X127392857Y-117214286D01*
X127250000Y-117142857D01*
X127178571Y-117000000D01*
X127178571Y-116714286D01*
X127250000Y-116571429D01*
X127392857Y-116500000D01*
X127535714Y-116500000D01*
X127678571Y-117214286D01*
X127178571Y-115857143D02*
X128178571Y-115857143D01*
X127321429Y-115857143D02*
X127250000Y-115785715D01*
X127178571Y-115642857D01*
X127178571Y-115428572D01*
X127250000Y-115285715D01*
X127392857Y-115214286D01*
X128178571Y-115214286D01*
X128035714Y-114500000D02*
X128107143Y-114428572D01*
X128178571Y-114500000D01*
X128107143Y-114571429D01*
X128035714Y-114500000D01*
X128178571Y-114500000D01*
X128178571Y-113785714D02*
X127178571Y-113785714D01*
X126678571Y-113785714D02*
X126750000Y-113857143D01*
X126821429Y-113785714D01*
X126750000Y-113714286D01*
X126678571Y-113785714D01*
X126821429Y-113785714D01*
X127178571Y-113071428D02*
X128678571Y-113071428D01*
X127250000Y-113071428D02*
X127178571Y-112928571D01*
X127178571Y-112642857D01*
X127250000Y-112500000D01*
X127321429Y-112428571D01*
X127464286Y-112357142D01*
X127892857Y-112357142D01*
X128035714Y-112428571D01*
X128107143Y-112500000D01*
X128178571Y-112642857D01*
X128178571Y-112928571D01*
X128107143Y-113071428D01*
X128178571Y-111071428D02*
X127392857Y-111071428D01*
X127250000Y-111142857D01*
X127178571Y-111285714D01*
X127178571Y-111571428D01*
X127250000Y-111714285D01*
X128107143Y-111071428D02*
X128178571Y-111214285D01*
X128178571Y-111571428D01*
X128107143Y-111714285D01*
X127964286Y-111785714D01*
X127821429Y-111785714D01*
X127678571Y-111714285D01*
X127607143Y-111571428D01*
X127607143Y-111214285D01*
X127535714Y-111071428D01*
X127178571Y-110499999D02*
X128178571Y-110142856D01*
X127178571Y-109785714D01*
X128107143Y-108642857D02*
X128178571Y-108785714D01*
X128178571Y-109071428D01*
X128107143Y-109214285D01*
X127964286Y-109285714D01*
X127392857Y-109285714D01*
X127250000Y-109214285D01*
X127178571Y-109071428D01*
X127178571Y-108785714D01*
X127250000Y-108642857D01*
X127392857Y-108571428D01*
X127535714Y-108571428D01*
X127678571Y-109285714D01*
X128107143Y-107285714D02*
X128178571Y-107428571D01*
X128178571Y-107714285D01*
X128107143Y-107857143D01*
X128035714Y-107928571D01*
X127892857Y-108000000D01*
X127464286Y-108000000D01*
X127321429Y-107928571D01*
X127250000Y-107857143D01*
X127178571Y-107714285D01*
X127178571Y-107428571D01*
X127250000Y-107285714D01*
X128035714Y-106642857D02*
X128107143Y-106571429D01*
X128178571Y-106642857D01*
X128107143Y-106714286D01*
X128035714Y-106642857D01*
X128178571Y-106642857D01*
X127178571Y-105928571D02*
X128178571Y-105928571D01*
X127321429Y-105928571D02*
X127250000Y-105857143D01*
X127178571Y-105714285D01*
X127178571Y-105500000D01*
X127250000Y-105357143D01*
X127392857Y-105285714D01*
X128178571Y-105285714D01*
X128107143Y-104000000D02*
X128178571Y-104142857D01*
X128178571Y-104428571D01*
X128107143Y-104571428D01*
X127964286Y-104642857D01*
X127392857Y-104642857D01*
X127250000Y-104571428D01*
X127178571Y-104428571D01*
X127178571Y-104142857D01*
X127250000Y-104000000D01*
X127392857Y-103928571D01*
X127535714Y-103928571D01*
X127678571Y-104642857D01*
X127178571Y-103500000D02*
X127178571Y-102928571D01*
X126678571Y-103285714D02*
X127964286Y-103285714D01*
X128107143Y-103214286D01*
X128178571Y-103071428D01*
X128178571Y-102928571D01*
X136857144Y-132607143D02*
X138000001Y-132607143D01*
X137428572Y-133178571D02*
X137428572Y-132035714D01*
X139500001Y-133178571D02*
X138642858Y-133178571D01*
X139071430Y-133178571D02*
X139071430Y-131678571D01*
X138928573Y-131892857D01*
X138785715Y-132035714D01*
X138642858Y-132107143D01*
X140071429Y-131821429D02*
X140142858Y-131750000D01*
X140285715Y-131678571D01*
X140642858Y-131678571D01*
X140785715Y-131750000D01*
X140857144Y-131821429D01*
X140928572Y-131964286D01*
X140928572Y-132107143D01*
X140857144Y-132321429D01*
X140000001Y-133178571D01*
X140928572Y-133178571D01*
X141357143Y-131678571D02*
X141857143Y-133178571D01*
X142357143Y-131678571D01*
X140214285Y-129178571D02*
X140499999Y-129178571D01*
X140642857Y-129250000D01*
X140785714Y-129392857D01*
X140857142Y-129678571D01*
X140857142Y-130178571D01*
X140785714Y-130464286D01*
X140642857Y-130607143D01*
X140499999Y-130678571D01*
X140214285Y-130678571D01*
X140071428Y-130607143D01*
X139928571Y-130464286D01*
X139857142Y-130178571D01*
X139857142Y-129678571D01*
X139928571Y-129392857D01*
X140071428Y-129250000D01*
X140214285Y-129178571D01*
X141500000Y-129892857D02*
X142000000Y-129892857D01*
X142214286Y-130678571D02*
X141500000Y-130678571D01*
X141500000Y-129178571D01*
X142214286Y-129178571D01*
X141000000Y-108178571D02*
X140285714Y-108178571D01*
X140285714Y-106678571D01*
X141500000Y-107392857D02*
X142000000Y-107392857D01*
X142214286Y-108178571D02*
X141500000Y-108178571D01*
X141500000Y-106678571D01*
X142214286Y-106678571D01*
X139500000Y-105535714D02*
X139428571Y-105607143D01*
X139214285Y-105678571D01*
X139071428Y-105678571D01*
X138857143Y-105607143D01*
X138714285Y-105464286D01*
X138642857Y-105321429D01*
X138571428Y-105035714D01*
X138571428Y-104821429D01*
X138642857Y-104535714D01*
X138714285Y-104392857D01*
X138857143Y-104250000D01*
X139071428Y-104178571D01*
X139214285Y-104178571D01*
X139428571Y-104250000D01*
X139500000Y-104321429D01*
X140857143Y-105678571D02*
X140142857Y-105678571D01*
X140142857Y-104178571D01*
X141357143Y-105678571D02*
X141357143Y-104178571D01*
X142214286Y-105678571D02*
X141571429Y-104821429D01*
X142214286Y-104178571D02*
X141357143Y-105035714D01*
X139142857Y-103107143D02*
X139357143Y-103178571D01*
X139714286Y-103178571D01*
X139857143Y-103107143D01*
X139928572Y-103035714D01*
X140000000Y-102892857D01*
X140000000Y-102750000D01*
X139928572Y-102607143D01*
X139857143Y-102535714D01*
X139714286Y-102464286D01*
X139428572Y-102392857D01*
X139285714Y-102321429D01*
X139214286Y-102250000D01*
X139142857Y-102107143D01*
X139142857Y-101964286D01*
X139214286Y-101821429D01*
X139285714Y-101750000D01*
X139428572Y-101678571D01*
X139785714Y-101678571D01*
X140000000Y-101750000D01*
X140642857Y-103178571D02*
X140642857Y-101678571D01*
X141000000Y-101678571D01*
X141214285Y-101750000D01*
X141357143Y-101892857D01*
X141428571Y-102035714D01*
X141500000Y-102321429D01*
X141500000Y-102535714D01*
X141428571Y-102821429D01*
X141357143Y-102964286D01*
X141214285Y-103107143D01*
X141000000Y-103178571D01*
X140642857Y-103178571D01*
X142142857Y-103178571D02*
X142142857Y-101678571D01*
X139071428Y-99250000D02*
X138928571Y-99178571D01*
X138714285Y-99178571D01*
X138500000Y-99250000D01*
X138357142Y-99392857D01*
X138285714Y-99535714D01*
X138214285Y-99821429D01*
X138214285Y-100035714D01*
X138285714Y-100321429D01*
X138357142Y-100464286D01*
X138500000Y-100607143D01*
X138714285Y-100678571D01*
X138857142Y-100678571D01*
X139071428Y-100607143D01*
X139142857Y-100535714D01*
X139142857Y-100035714D01*
X138857142Y-100035714D01*
X139785714Y-100678571D02*
X139785714Y-99178571D01*
X140642857Y-100678571D01*
X140642857Y-99178571D01*
X141357143Y-100678571D02*
X141357143Y-99178571D01*
X141714286Y-99178571D01*
X141928571Y-99250000D01*
X142071429Y-99392857D01*
X142142857Y-99535714D01*
X142214286Y-99821429D01*
X142214286Y-100035714D01*
X142142857Y-100321429D01*
X142071429Y-100464286D01*
X141928571Y-100607143D01*
X141714286Y-100678571D01*
X141357143Y-100678571D01*
X138285715Y-97607143D02*
X139428572Y-97607143D01*
X138857143Y-98178571D02*
X138857143Y-97035714D01*
X140857144Y-96678571D02*
X140142858Y-96678571D01*
X140071429Y-97392857D01*
X140142858Y-97321429D01*
X140285715Y-97250000D01*
X140642858Y-97250000D01*
X140785715Y-97321429D01*
X140857144Y-97392857D01*
X140928572Y-97535714D01*
X140928572Y-97892857D01*
X140857144Y-98035714D01*
X140785715Y-98107143D01*
X140642858Y-98178571D01*
X140285715Y-98178571D01*
X140142858Y-98107143D01*
X140071429Y-98035714D01*
X141357143Y-96678571D02*
X141857143Y-98178571D01*
X142357143Y-96678571D01*
D12*
X115675000Y-133999000D02*
X115675000Y-126001000D01*
X115535000Y-133994000D02*
X115535000Y-126006000D01*
X115395000Y-133984000D02*
X115395000Y-126016000D01*
X115255000Y-133969000D02*
X115255000Y-126031000D01*
X115115000Y-133949000D02*
X115115000Y-126051000D01*
X114975000Y-133924000D02*
X114975000Y-130222000D01*
X114975000Y-129778000D02*
X114975000Y-126076000D01*
X114835000Y-133894000D02*
X114835000Y-130550000D01*
X114835000Y-129450000D02*
X114835000Y-126106000D01*
X114695000Y-133858000D02*
X114695000Y-130719000D01*
X114695000Y-129281000D02*
X114695000Y-126142000D01*
X114555000Y-133817000D02*
X114555000Y-130832000D01*
X114555000Y-129168000D02*
X114555000Y-126183000D01*
X114415000Y-133771000D02*
X114415000Y-130910000D01*
X114415000Y-129090000D02*
X114415000Y-126229000D01*
X114275000Y-133718000D02*
X114275000Y-130961000D01*
X114275000Y-129039000D02*
X114275000Y-126282000D01*
X114135000Y-133659000D02*
X114135000Y-130991000D01*
X114135000Y-129009000D02*
X114135000Y-126341000D01*
X113995000Y-133594000D02*
X113995000Y-131000000D01*
X113995000Y-129000000D02*
X113995000Y-126406000D01*
X113855000Y-133523000D02*
X113855000Y-130989000D01*
X113855000Y-129011000D02*
X113855000Y-126477000D01*
X113715000Y-133444000D02*
X113715000Y-130959000D01*
X113715000Y-129041000D02*
X113715000Y-126556000D01*
X113575000Y-133357000D02*
X113575000Y-130905000D01*
X113575000Y-129095000D02*
X113575000Y-126643000D01*
X113435000Y-133262000D02*
X113435000Y-130825000D01*
X113435000Y-129175000D02*
X113435000Y-126738000D01*
X113295000Y-133158000D02*
X113295000Y-130709000D01*
X113295000Y-129291000D02*
X113295000Y-126842000D01*
X113155000Y-133044000D02*
X113155000Y-130535000D01*
X113155000Y-129465000D02*
X113155000Y-126956000D01*
X113015000Y-132919000D02*
X113015000Y-130173000D01*
X113015000Y-129827000D02*
X113015000Y-127081000D01*
X112875000Y-132781000D02*
X112875000Y-127219000D01*
X112735000Y-132629000D02*
X112735000Y-127371000D01*
X112595000Y-132459000D02*
X112595000Y-127541000D01*
X112455000Y-132268000D02*
X112455000Y-127732000D01*
X112315000Y-132050000D02*
X112315000Y-127950000D01*
X112175000Y-131794000D02*
X112175000Y-128206000D01*
X112035000Y-131483000D02*
X112035000Y-128517000D01*
X111895000Y-131067000D02*
X111895000Y-128933000D01*
X111755000Y-130200000D02*
X111755000Y-129800000D01*
X115000000Y-130000000D02*
G75*
G03X115000000Y-130000000I-1000000J0D01*
G01*
X119787500Y-130000000D02*
G75*
G03X119787500Y-130000000I-4037500J0D01*
G01*
X115675000Y-103999000D02*
X115675000Y-96001000D01*
X115535000Y-103994000D02*
X115535000Y-96006000D01*
X115395000Y-103984000D02*
X115395000Y-96016000D01*
X115255000Y-103969000D02*
X115255000Y-96031000D01*
X115115000Y-103949000D02*
X115115000Y-96051000D01*
X114975000Y-103924000D02*
X114975000Y-100222000D01*
X114975000Y-99778000D02*
X114975000Y-96076000D01*
X114835000Y-103894000D02*
X114835000Y-100550000D01*
X114835000Y-99450000D02*
X114835000Y-96106000D01*
X114695000Y-103858000D02*
X114695000Y-100719000D01*
X114695000Y-99281000D02*
X114695000Y-96142000D01*
X114555000Y-103817000D02*
X114555000Y-100832000D01*
X114555000Y-99168000D02*
X114555000Y-96183000D01*
X114415000Y-103771000D02*
X114415000Y-100910000D01*
X114415000Y-99090000D02*
X114415000Y-96229000D01*
X114275000Y-103718000D02*
X114275000Y-100961000D01*
X114275000Y-99039000D02*
X114275000Y-96282000D01*
X114135000Y-103659000D02*
X114135000Y-100991000D01*
X114135000Y-99009000D02*
X114135000Y-96341000D01*
X113995000Y-103594000D02*
X113995000Y-101000000D01*
X113995000Y-99000000D02*
X113995000Y-96406000D01*
X113855000Y-103523000D02*
X113855000Y-100989000D01*
X113855000Y-99011000D02*
X113855000Y-96477000D01*
X113715000Y-103444000D02*
X113715000Y-100959000D01*
X113715000Y-99041000D02*
X113715000Y-96556000D01*
X113575000Y-103357000D02*
X113575000Y-100905000D01*
X113575000Y-99095000D02*
X113575000Y-96643000D01*
X113435000Y-103262000D02*
X113435000Y-100825000D01*
X113435000Y-99175000D02*
X113435000Y-96738000D01*
X113295000Y-103158000D02*
X113295000Y-100709000D01*
X113295000Y-99291000D02*
X113295000Y-96842000D01*
X113155000Y-103044000D02*
X113155000Y-100535000D01*
X113155000Y-99465000D02*
X113155000Y-96956000D01*
X113015000Y-102919000D02*
X113015000Y-100173000D01*
X113015000Y-99827000D02*
X113015000Y-97081000D01*
X112875000Y-102781000D02*
X112875000Y-97219000D01*
X112735000Y-102629000D02*
X112735000Y-97371000D01*
X112595000Y-102459000D02*
X112595000Y-97541000D01*
X112455000Y-102268000D02*
X112455000Y-97732000D01*
X112315000Y-102050000D02*
X112315000Y-97950000D01*
X112175000Y-101794000D02*
X112175000Y-98206000D01*
X112035000Y-101483000D02*
X112035000Y-98517000D01*
X111895000Y-101067000D02*
X111895000Y-98933000D01*
X111755000Y-100200000D02*
X111755000Y-99800000D01*
X115000000Y-100000000D02*
G75*
G03X115000000Y-100000000I-1000000J0D01*
G01*
X119787500Y-100000000D02*
G75*
G03X119787500Y-100000000I-4037500J0D01*
G01*
X99880000Y-107380000D02*
X99880000Y-111825000D01*
X99880000Y-118175000D02*
X99880000Y-122620000D01*
X99880000Y-111825000D02*
X101150000Y-111825000D01*
X101150000Y-111825000D02*
X101150000Y-118175000D01*
X101150000Y-118175000D02*
X99880000Y-118175000D01*
X99880000Y-107380000D02*
X117660000Y-107380000D01*
X117660000Y-107380000D02*
X117660000Y-122620000D01*
X117660000Y-122620000D02*
X99880000Y-122620000D01*
X143450000Y-97500000D02*
X143450000Y-95950000D01*
X143450000Y-95950000D02*
X146550000Y-95950000D01*
X146550000Y-95950000D02*
X146550000Y-97500000D01*
X146270000Y-98770000D02*
X146270000Y-108930000D01*
X146270000Y-108930000D02*
X143730000Y-108930000D01*
X143730000Y-108930000D02*
X143730000Y-98770000D01*
X146270000Y-98770000D02*
X143730000Y-98770000D01*
X146270000Y-131270000D02*
X146270000Y-133810000D01*
X146550000Y-128450000D02*
X146550000Y-130000000D01*
X146270000Y-131270000D02*
X143730000Y-131270000D01*
X143450000Y-130000000D02*
X143450000Y-128450000D01*
X143450000Y-128450000D02*
X146550000Y-128450000D01*
X143730000Y-131270000D02*
X143730000Y-133810000D01*
X143730000Y-133810000D02*
X146270000Y-133810000D01*
D13*
X134410000Y-133830000D02*
X134410000Y-128630000D01*
X129270000Y-133830000D02*
X134410000Y-133830000D01*
X126670000Y-128630000D02*
X134410000Y-128630000D01*
X129270000Y-133830000D02*
X129270000Y-131230000D01*
X129270000Y-131230000D02*
X126670000Y-131230000D01*
X126670000Y-131230000D02*
X126670000Y-128630000D01*
X128000000Y-133830000D02*
X126670000Y-133830000D01*
X126670000Y-133830000D02*
X126670000Y-132500000D01*
D12*
X115583334Y-135657143D02*
X115535715Y-135704762D01*
X115392858Y-135752381D01*
X115297620Y-135752381D01*
X115154762Y-135704762D01*
X115059524Y-135609524D01*
X115011905Y-135514286D01*
X114964286Y-135323810D01*
X114964286Y-135180952D01*
X115011905Y-134990476D01*
X115059524Y-134895238D01*
X115154762Y-134800000D01*
X115297620Y-134752381D01*
X115392858Y-134752381D01*
X115535715Y-134800000D01*
X115583334Y-134847619D01*
X115964286Y-134847619D02*
X116011905Y-134800000D01*
X116107143Y-134752381D01*
X116345239Y-134752381D01*
X116440477Y-134800000D01*
X116488096Y-134847619D01*
X116535715Y-134942857D01*
X116535715Y-135038095D01*
X116488096Y-135180952D01*
X115916667Y-135752381D01*
X116535715Y-135752381D01*
X115583334Y-105657143D02*
X115535715Y-105704762D01*
X115392858Y-105752381D01*
X115297620Y-105752381D01*
X115154762Y-105704762D01*
X115059524Y-105609524D01*
X115011905Y-105514286D01*
X114964286Y-105323810D01*
X114964286Y-105180952D01*
X115011905Y-104990476D01*
X115059524Y-104895238D01*
X115154762Y-104800000D01*
X115297620Y-104752381D01*
X115392858Y-104752381D01*
X115535715Y-104800000D01*
X115583334Y-104847619D01*
X115916667Y-104752381D02*
X116535715Y-104752381D01*
X116202381Y-105133333D01*
X116345239Y-105133333D01*
X116440477Y-105180952D01*
X116488096Y-105228571D01*
X116535715Y-105323810D01*
X116535715Y-105561905D01*
X116488096Y-105657143D01*
X116440477Y-105704762D01*
X116345239Y-105752381D01*
X116059524Y-105752381D01*
X115964286Y-105704762D01*
X115916667Y-105657143D01*
X106452381Y-115333333D02*
X107166667Y-115333333D01*
X107309524Y-115380953D01*
X107404762Y-115476191D01*
X107452381Y-115619048D01*
X107452381Y-115714286D01*
X107452381Y-114333333D02*
X107452381Y-114904762D01*
X107452381Y-114619048D02*
X106452381Y-114619048D01*
X106595238Y-114714286D01*
X106690476Y-114809524D01*
X106738095Y-114904762D01*
X126122381Y-131968095D02*
X125122381Y-131968095D01*
X125122381Y-131587142D01*
X125170000Y-131491904D01*
X125217619Y-131444285D01*
X125312857Y-131396666D01*
X125455714Y-131396666D01*
X125550952Y-131444285D01*
X125598571Y-131491904D01*
X125646190Y-131587142D01*
X125646190Y-131968095D01*
X125122381Y-131063333D02*
X125122381Y-130444285D01*
X125503333Y-130777619D01*
X125503333Y-130634761D01*
X125550952Y-130539523D01*
X125598571Y-130491904D01*
X125693810Y-130444285D01*
X125931905Y-130444285D01*
X126027143Y-130491904D01*
X126074762Y-130539523D01*
X126122381Y-130634761D01*
X126122381Y-130920476D01*
X126074762Y-131015714D01*
X126027143Y-131063333D01*
M02*
