G04 #@! TF.FileFunction,Copper,L1,Top,Signal*
%FSLAX46Y46*%
G04 Gerber Fmt 4.6, Leading zero omitted, Abs format (unit mm)*
G04 Created by KiCad (PCBNEW 4.0.7-e2-6376~58~ubuntu17.04.1) date Mon Nov 20 18:02:35 2017*
%MOMM*%
%LPD*%
G01*
G04 APERTURE LIST*
%ADD10C,0.100000*%
%ADD11C,1.300000*%
%ADD12R,1.300000X1.300000*%
%ADD13C,1.500000*%
%ADD14R,2.032000X1.727200*%
%ADD15O,2.032000X1.727200*%
%ADD16R,2.032000X2.032000*%
%ADD17O,2.032000X2.032000*%
%ADD18R,1.700000X1.700000*%
%ADD19O,1.700000X1.700000*%
%ADD20C,0.635000*%
%ADD21C,0.381000*%
%ADD22C,0.250000*%
G04 APERTURE END LIST*
D10*
D11*
X114000000Y-130000000D03*
D12*
X117500000Y-130000000D03*
D11*
X114000000Y-100000000D03*
D12*
X117500000Y-100000000D03*
D13*
X116390000Y-119445000D03*
X113850000Y-118175000D03*
X116390000Y-116905000D03*
X113850000Y-115635000D03*
X116390000Y-114365000D03*
X113850000Y-113095000D03*
X116390000Y-111825000D03*
X113850000Y-110555000D03*
D14*
X145000000Y-97500000D03*
D15*
X145000000Y-100040000D03*
X145000000Y-102580000D03*
X145000000Y-105120000D03*
X145000000Y-107660000D03*
D16*
X145000000Y-130000000D03*
D17*
X145000000Y-132540000D03*
D18*
X128000000Y-132500000D03*
D19*
X128000000Y-129960000D03*
X130540000Y-132500000D03*
X130540000Y-129960000D03*
X133080000Y-132500000D03*
X133080000Y-129960000D03*
D11*
X128000000Y-126750000D03*
X123000000Y-108500000D03*
X132000000Y-115000000D03*
X132000000Y-119000000D03*
D20*
X128000000Y-126750000D02*
X128000000Y-129960000D01*
D21*
X132000000Y-119000000D02*
X132000000Y-115000000D01*
D22*
G36*
X149300000Y-136800000D02*
X100700000Y-136800000D01*
X100700000Y-132940638D01*
X102774615Y-132940638D01*
X103112637Y-133758715D01*
X103737993Y-134385163D01*
X104555479Y-134724613D01*
X105440638Y-134725385D01*
X106258715Y-134387363D01*
X106885163Y-133762007D01*
X107224613Y-132944521D01*
X107225385Y-132059362D01*
X107056241Y-131650000D01*
X126512756Y-131650000D01*
X126512756Y-133350000D01*
X126556337Y-133581611D01*
X126693219Y-133794332D01*
X126902076Y-133937038D01*
X127150000Y-133987244D01*
X128850000Y-133987244D01*
X129081611Y-133943663D01*
X129294332Y-133806781D01*
X129437038Y-133597924D01*
X129455035Y-133509050D01*
X129497017Y-133571880D01*
X129975542Y-133891619D01*
X130540000Y-134003897D01*
X131104458Y-133891619D01*
X131582983Y-133571880D01*
X131810000Y-133232124D01*
X132037017Y-133571880D01*
X132515542Y-133891619D01*
X133080000Y-134003897D01*
X133644458Y-133891619D01*
X134122983Y-133571880D01*
X134442722Y-133093355D01*
X134552791Y-132540000D01*
X143326851Y-132540000D01*
X143451765Y-133167984D01*
X143807489Y-133700362D01*
X144339867Y-134056086D01*
X144967851Y-134181000D01*
X145032149Y-134181000D01*
X145660133Y-134056086D01*
X146192511Y-133700362D01*
X146548235Y-133167984D01*
X146673149Y-132540000D01*
X146548235Y-131912016D01*
X146316563Y-131565294D01*
X146460332Y-131472781D01*
X146603038Y-131263924D01*
X146653244Y-131016000D01*
X146653244Y-128984000D01*
X146609663Y-128752389D01*
X146472781Y-128539668D01*
X146263924Y-128396962D01*
X146016000Y-128346756D01*
X143984000Y-128346756D01*
X143752389Y-128390337D01*
X143539668Y-128527219D01*
X143396962Y-128736076D01*
X143346756Y-128984000D01*
X143346756Y-131016000D01*
X143390337Y-131247611D01*
X143527219Y-131460332D01*
X143682622Y-131566514D01*
X143451765Y-131912016D01*
X143326851Y-132540000D01*
X134552791Y-132540000D01*
X134555000Y-132528897D01*
X134555000Y-132471103D01*
X134442722Y-131906645D01*
X134122983Y-131428120D01*
X133826358Y-131229922D01*
X133839304Y-131224560D01*
X134265432Y-130837728D01*
X134511088Y-130317270D01*
X134393108Y-130089000D01*
X133209000Y-130089000D01*
X133209000Y-130109000D01*
X132951000Y-130109000D01*
X132951000Y-130089000D01*
X132931000Y-130089000D01*
X132931000Y-129831000D01*
X132951000Y-129831000D01*
X132951000Y-128647575D01*
X133209000Y-128647575D01*
X133209000Y-129831000D01*
X134393108Y-129831000D01*
X134511088Y-129602730D01*
X134265432Y-129082272D01*
X133839304Y-128695440D01*
X133437268Y-128528922D01*
X133209000Y-128647575D01*
X132951000Y-128647575D01*
X132722732Y-128528922D01*
X132320696Y-128695440D01*
X131894568Y-129082272D01*
X131819284Y-129241771D01*
X131582983Y-128888120D01*
X131104458Y-128568381D01*
X130540000Y-128456103D01*
X129975542Y-128568381D01*
X129497017Y-128888120D01*
X129270000Y-129227876D01*
X129042983Y-128888120D01*
X128942500Y-128820980D01*
X128942500Y-127610695D01*
X129080262Y-127473173D01*
X129274778Y-127004726D01*
X129275221Y-126497499D01*
X129081523Y-126028714D01*
X128723173Y-125669738D01*
X128254726Y-125475222D01*
X127747499Y-125474779D01*
X127278714Y-125668477D01*
X126919738Y-126026827D01*
X126725222Y-126495274D01*
X126724779Y-127002501D01*
X126918477Y-127471286D01*
X127057500Y-127610552D01*
X127057500Y-128820980D01*
X126957017Y-128888120D01*
X126637278Y-129366645D01*
X126525000Y-129931103D01*
X126525000Y-129988897D01*
X126637278Y-130553355D01*
X126957017Y-131031880D01*
X126977089Y-131045292D01*
X126918389Y-131056337D01*
X126705668Y-131193219D01*
X126562962Y-131402076D01*
X126512756Y-131650000D01*
X107056241Y-131650000D01*
X106887363Y-131241285D01*
X106541477Y-130894795D01*
X113287639Y-130894795D01*
X113344026Y-131122339D01*
X113823460Y-131287936D01*
X114329771Y-131257456D01*
X114655974Y-131122339D01*
X114712361Y-130894795D01*
X114000000Y-130182434D01*
X113287639Y-130894795D01*
X106541477Y-130894795D01*
X106262007Y-130614837D01*
X105444521Y-130275387D01*
X104559362Y-130274615D01*
X103741285Y-130612637D01*
X103114837Y-131237993D01*
X102775387Y-132055479D01*
X102774615Y-132940638D01*
X100700000Y-132940638D01*
X100700000Y-129823460D01*
X112712064Y-129823460D01*
X112742544Y-130329771D01*
X112877661Y-130655974D01*
X113105205Y-130712361D01*
X113817566Y-130000000D01*
X114182434Y-130000000D01*
X114894795Y-130712361D01*
X115122339Y-130655974D01*
X115287936Y-130176540D01*
X115257456Y-129670229D01*
X115124814Y-129350000D01*
X116212756Y-129350000D01*
X116212756Y-130650000D01*
X116256337Y-130881611D01*
X116393219Y-131094332D01*
X116602076Y-131237038D01*
X116850000Y-131287244D01*
X118150000Y-131287244D01*
X118381611Y-131243663D01*
X118594332Y-131106781D01*
X118737038Y-130897924D01*
X118787244Y-130650000D01*
X118787244Y-129350000D01*
X118743663Y-129118389D01*
X118606781Y-128905668D01*
X118397924Y-128762962D01*
X118150000Y-128712756D01*
X116850000Y-128712756D01*
X116618389Y-128756337D01*
X116405668Y-128893219D01*
X116262962Y-129102076D01*
X116212756Y-129350000D01*
X115124814Y-129350000D01*
X115122339Y-129344026D01*
X114894795Y-129287639D01*
X114182434Y-130000000D01*
X113817566Y-130000000D01*
X113105205Y-129287639D01*
X112877661Y-129344026D01*
X112712064Y-129823460D01*
X100700000Y-129823460D01*
X100700000Y-129105205D01*
X113287639Y-129105205D01*
X114000000Y-129817566D01*
X114712361Y-129105205D01*
X114655974Y-128877661D01*
X114176540Y-128712064D01*
X113670229Y-128742544D01*
X113344026Y-128877661D01*
X113287639Y-129105205D01*
X100700000Y-129105205D01*
X100700000Y-121160589D01*
X105249610Y-121160589D01*
X105591431Y-121987858D01*
X106223813Y-122621345D01*
X107050484Y-122964608D01*
X107945589Y-122965390D01*
X108772858Y-122623569D01*
X109406345Y-121991187D01*
X109749608Y-121164516D01*
X109750390Y-120269411D01*
X109408569Y-119442142D01*
X109109266Y-119142316D01*
X113065118Y-119142316D01*
X113133821Y-119380204D01*
X113649549Y-119562534D01*
X114195794Y-119533624D01*
X114566179Y-119380204D01*
X114634882Y-119142316D01*
X113850000Y-118357434D01*
X113065118Y-119142316D01*
X109109266Y-119142316D01*
X108776187Y-118808655D01*
X107949516Y-118465392D01*
X107054411Y-118464610D01*
X106227142Y-118806431D01*
X105593655Y-119438813D01*
X105250392Y-120265484D01*
X105249610Y-121160589D01*
X100700000Y-121160589D01*
X100700000Y-117974549D01*
X112462466Y-117974549D01*
X112491376Y-118520794D01*
X112644796Y-118891179D01*
X112882684Y-118959882D01*
X113667566Y-118175000D01*
X114032434Y-118175000D01*
X114817316Y-118959882D01*
X115055204Y-118891179D01*
X115237534Y-118375451D01*
X115208624Y-117829206D01*
X115055204Y-117458821D01*
X114817316Y-117390118D01*
X114032434Y-118175000D01*
X113667566Y-118175000D01*
X112882684Y-117390118D01*
X112644796Y-117458821D01*
X112462466Y-117974549D01*
X100700000Y-117974549D01*
X100700000Y-116602316D01*
X113065118Y-116602316D01*
X113133821Y-116840204D01*
X113302614Y-116899879D01*
X113133821Y-116969796D01*
X113065118Y-117207684D01*
X113850000Y-117992566D01*
X114634882Y-117207684D01*
X114566179Y-116969796D01*
X114397386Y-116910121D01*
X114566179Y-116840204D01*
X114634882Y-116602316D01*
X113850000Y-115817434D01*
X113065118Y-116602316D01*
X100700000Y-116602316D01*
X100700000Y-115434549D01*
X112462466Y-115434549D01*
X112491376Y-115980794D01*
X112644796Y-116351179D01*
X112882684Y-116419882D01*
X113667566Y-115635000D01*
X114032434Y-115635000D01*
X114817316Y-116419882D01*
X115055204Y-116351179D01*
X115237534Y-115835451D01*
X115208624Y-115289206D01*
X115055204Y-114918821D01*
X114817316Y-114850118D01*
X114032434Y-115635000D01*
X113667566Y-115635000D01*
X112882684Y-114850118D01*
X112644796Y-114918821D01*
X112462466Y-115434549D01*
X100700000Y-115434549D01*
X100700000Y-114062316D01*
X113065118Y-114062316D01*
X113133821Y-114300204D01*
X113302614Y-114359879D01*
X113133821Y-114429796D01*
X113065118Y-114667684D01*
X113850000Y-115452566D01*
X114634882Y-114667684D01*
X114566179Y-114429796D01*
X114397386Y-114370121D01*
X114566179Y-114300204D01*
X114634882Y-114062316D01*
X113850000Y-113277434D01*
X113065118Y-114062316D01*
X100700000Y-114062316D01*
X100700000Y-112894549D01*
X112462466Y-112894549D01*
X112491376Y-113440794D01*
X112644796Y-113811179D01*
X112882684Y-113879882D01*
X113667566Y-113095000D01*
X114032434Y-113095000D01*
X114817316Y-113879882D01*
X115055204Y-113811179D01*
X115237534Y-113295451D01*
X115208624Y-112749206D01*
X115055204Y-112378821D01*
X114817316Y-112310118D01*
X114032434Y-113095000D01*
X113667566Y-113095000D01*
X112882684Y-112310118D01*
X112644796Y-112378821D01*
X112462466Y-112894549D01*
X100700000Y-112894549D01*
X100700000Y-109730589D01*
X105249610Y-109730589D01*
X105591431Y-110557858D01*
X106223813Y-111191345D01*
X107050484Y-111534608D01*
X107945589Y-111535390D01*
X107977230Y-111522316D01*
X113065118Y-111522316D01*
X113133821Y-111760204D01*
X113302614Y-111819879D01*
X113133821Y-111889796D01*
X113065118Y-112127684D01*
X113850000Y-112912566D01*
X114634882Y-112127684D01*
X114626109Y-112097305D01*
X115014762Y-112097305D01*
X115223652Y-112602857D01*
X115610108Y-112989989D01*
X115863001Y-113094999D01*
X115612143Y-113198652D01*
X115225011Y-113585108D01*
X115015239Y-114090296D01*
X115014762Y-114637305D01*
X115223652Y-115142857D01*
X115610108Y-115529989D01*
X115863001Y-115634999D01*
X115612143Y-115738652D01*
X115225011Y-116125108D01*
X115015239Y-116630296D01*
X115014762Y-117177305D01*
X115223652Y-117682857D01*
X115610108Y-118069989D01*
X115863001Y-118174999D01*
X115612143Y-118278652D01*
X115225011Y-118665108D01*
X115015239Y-119170296D01*
X115014762Y-119717305D01*
X115223652Y-120222857D01*
X115610108Y-120609989D01*
X116115296Y-120819761D01*
X116662305Y-120820238D01*
X117167857Y-120611348D01*
X117554989Y-120224892D01*
X117764761Y-119719704D01*
X117765238Y-119172695D01*
X117556348Y-118667143D01*
X117169892Y-118280011D01*
X116916999Y-118175001D01*
X117167857Y-118071348D01*
X117554989Y-117684892D01*
X117764761Y-117179704D01*
X117765238Y-116632695D01*
X117556348Y-116127143D01*
X117169892Y-115740011D01*
X116916999Y-115635001D01*
X117167857Y-115531348D01*
X117447191Y-115252501D01*
X130724779Y-115252501D01*
X130918477Y-115721286D01*
X131184500Y-115987774D01*
X131184500Y-118012527D01*
X130919738Y-118276827D01*
X130725222Y-118745274D01*
X130724779Y-119252501D01*
X130918477Y-119721286D01*
X131276827Y-120080262D01*
X131745274Y-120274778D01*
X132252501Y-120275221D01*
X132721286Y-120081523D01*
X133080262Y-119723173D01*
X133274778Y-119254726D01*
X133275221Y-118747499D01*
X133081523Y-118278714D01*
X132815500Y-118012226D01*
X132815500Y-117940638D01*
X142774615Y-117940638D01*
X143112637Y-118758715D01*
X143737993Y-119385163D01*
X144555479Y-119724613D01*
X145440638Y-119725385D01*
X146258715Y-119387363D01*
X146885163Y-118762007D01*
X147224613Y-117944521D01*
X147225385Y-117059362D01*
X146887363Y-116241285D01*
X146262007Y-115614837D01*
X145444521Y-115275387D01*
X144559362Y-115274615D01*
X143741285Y-115612637D01*
X143114837Y-116237993D01*
X142775387Y-117055479D01*
X142774615Y-117940638D01*
X132815500Y-117940638D01*
X132815500Y-115987473D01*
X133080262Y-115723173D01*
X133274778Y-115254726D01*
X133275221Y-114747499D01*
X133081523Y-114278714D01*
X132723173Y-113919738D01*
X132254726Y-113725222D01*
X131747499Y-113724779D01*
X131278714Y-113918477D01*
X130919738Y-114276827D01*
X130725222Y-114745274D01*
X130724779Y-115252501D01*
X117447191Y-115252501D01*
X117554989Y-115144892D01*
X117764761Y-114639704D01*
X117765238Y-114092695D01*
X117556348Y-113587143D01*
X117169892Y-113200011D01*
X116916999Y-113095001D01*
X117167857Y-112991348D01*
X117554989Y-112604892D01*
X117764761Y-112099704D01*
X117765238Y-111552695D01*
X117556348Y-111047143D01*
X117169892Y-110660011D01*
X116664704Y-110450239D01*
X116117695Y-110449762D01*
X115612143Y-110658652D01*
X115225011Y-111045108D01*
X115015239Y-111550296D01*
X115014762Y-112097305D01*
X114626109Y-112097305D01*
X114566179Y-111889796D01*
X114397386Y-111830121D01*
X114566179Y-111760204D01*
X114634882Y-111522316D01*
X113850000Y-110737434D01*
X113065118Y-111522316D01*
X107977230Y-111522316D01*
X108772858Y-111193569D01*
X109406345Y-110561187D01*
X109492148Y-110354549D01*
X112462466Y-110354549D01*
X112491376Y-110900794D01*
X112644796Y-111271179D01*
X112882684Y-111339882D01*
X113667566Y-110555000D01*
X114032434Y-110555000D01*
X114817316Y-111339882D01*
X115055204Y-111271179D01*
X115237534Y-110755451D01*
X115208624Y-110209206D01*
X115055204Y-109838821D01*
X114817316Y-109770118D01*
X114032434Y-110555000D01*
X113667566Y-110555000D01*
X112882684Y-109770118D01*
X112644796Y-109838821D01*
X112462466Y-110354549D01*
X109492148Y-110354549D01*
X109749608Y-109734516D01*
X109749736Y-109587684D01*
X113065118Y-109587684D01*
X113850000Y-110372566D01*
X114634882Y-109587684D01*
X114566179Y-109349796D01*
X114050451Y-109167466D01*
X113504206Y-109196376D01*
X113133821Y-109349796D01*
X113065118Y-109587684D01*
X109749736Y-109587684D01*
X109750390Y-108839411D01*
X109408569Y-108012142D01*
X108776187Y-107378655D01*
X107949516Y-107035392D01*
X107054411Y-107034610D01*
X106227142Y-107376431D01*
X105593655Y-108008813D01*
X105250392Y-108835484D01*
X105249610Y-109730589D01*
X100700000Y-109730589D01*
X100700000Y-102580000D01*
X143326851Y-102580000D01*
X143440164Y-103149663D01*
X143762852Y-103632599D01*
X144088215Y-103850000D01*
X143762852Y-104067401D01*
X143440164Y-104550337D01*
X143326851Y-105120000D01*
X143440164Y-105689663D01*
X143762852Y-106172599D01*
X144088215Y-106390000D01*
X143762852Y-106607401D01*
X143440164Y-107090337D01*
X143326851Y-107660000D01*
X143440164Y-108229663D01*
X143762852Y-108712599D01*
X144245788Y-109035287D01*
X144815451Y-109148600D01*
X145184549Y-109148600D01*
X145754212Y-109035287D01*
X146237148Y-108712599D01*
X146559836Y-108229663D01*
X146673149Y-107660000D01*
X146559836Y-107090337D01*
X146237148Y-106607401D01*
X145911785Y-106390000D01*
X146237148Y-106172599D01*
X146559836Y-105689663D01*
X146673149Y-105120000D01*
X146559836Y-104550337D01*
X146237148Y-104067401D01*
X145911785Y-103850000D01*
X146237148Y-103632599D01*
X146559836Y-103149663D01*
X146673149Y-102580000D01*
X146559836Y-102010337D01*
X146237148Y-101527401D01*
X145919087Y-101314879D01*
X146343768Y-100934502D01*
X146595392Y-100410495D01*
X146596962Y-100399404D01*
X146478490Y-100169000D01*
X145129000Y-100169000D01*
X145129000Y-100189000D01*
X144871000Y-100189000D01*
X144871000Y-100169000D01*
X143521510Y-100169000D01*
X143403038Y-100399404D01*
X143404608Y-100410495D01*
X143656232Y-100934502D01*
X144080913Y-101314879D01*
X143762852Y-101527401D01*
X143440164Y-102010337D01*
X143326851Y-102580000D01*
X100700000Y-102580000D01*
X100700000Y-100894795D01*
X113287639Y-100894795D01*
X113344026Y-101122339D01*
X113823460Y-101287936D01*
X114329771Y-101257456D01*
X114655974Y-101122339D01*
X114712361Y-100894795D01*
X114000000Y-100182434D01*
X113287639Y-100894795D01*
X100700000Y-100894795D01*
X100700000Y-99823460D01*
X112712064Y-99823460D01*
X112742544Y-100329771D01*
X112877661Y-100655974D01*
X113105205Y-100712361D01*
X113817566Y-100000000D01*
X114182434Y-100000000D01*
X114894795Y-100712361D01*
X115122339Y-100655974D01*
X115287936Y-100176540D01*
X115257456Y-99670229D01*
X115124814Y-99350000D01*
X116212756Y-99350000D01*
X116212756Y-100650000D01*
X116256337Y-100881611D01*
X116393219Y-101094332D01*
X116602076Y-101237038D01*
X116850000Y-101287244D01*
X118150000Y-101287244D01*
X118381611Y-101243663D01*
X118594332Y-101106781D01*
X118737038Y-100897924D01*
X118787244Y-100650000D01*
X118787244Y-99350000D01*
X118743663Y-99118389D01*
X118606781Y-98905668D01*
X118397924Y-98762962D01*
X118150000Y-98712756D01*
X116850000Y-98712756D01*
X116618389Y-98756337D01*
X116405668Y-98893219D01*
X116262962Y-99102076D01*
X116212756Y-99350000D01*
X115124814Y-99350000D01*
X115122339Y-99344026D01*
X114894795Y-99287639D01*
X114182434Y-100000000D01*
X113817566Y-100000000D01*
X113105205Y-99287639D01*
X112877661Y-99344026D01*
X112712064Y-99823460D01*
X100700000Y-99823460D01*
X100700000Y-97940638D01*
X102774615Y-97940638D01*
X103112637Y-98758715D01*
X103737993Y-99385163D01*
X104555479Y-99724613D01*
X105440638Y-99725385D01*
X106258715Y-99387363D01*
X106541365Y-99105205D01*
X113287639Y-99105205D01*
X114000000Y-99817566D01*
X114712361Y-99105205D01*
X114655974Y-98877661D01*
X114176540Y-98712064D01*
X113670229Y-98742544D01*
X113344026Y-98877661D01*
X113287639Y-99105205D01*
X106541365Y-99105205D01*
X106885163Y-98762007D01*
X107224613Y-97944521D01*
X107225385Y-97059362D01*
X107050621Y-96636400D01*
X143346756Y-96636400D01*
X143346756Y-98363600D01*
X143390337Y-98595211D01*
X143527219Y-98807932D01*
X143736076Y-98950638D01*
X143848394Y-98973383D01*
X143656232Y-99145498D01*
X143404608Y-99669505D01*
X143403038Y-99680596D01*
X143521510Y-99911000D01*
X144871000Y-99911000D01*
X144871000Y-99891000D01*
X145129000Y-99891000D01*
X145129000Y-99911000D01*
X146478490Y-99911000D01*
X146596962Y-99680596D01*
X146595392Y-99669505D01*
X146343768Y-99145498D01*
X146153400Y-98974990D01*
X146247611Y-98957263D01*
X146460332Y-98820381D01*
X146603038Y-98611524D01*
X146653244Y-98363600D01*
X146653244Y-96636400D01*
X146609663Y-96404789D01*
X146472781Y-96192068D01*
X146263924Y-96049362D01*
X146016000Y-95999156D01*
X143984000Y-95999156D01*
X143752389Y-96042737D01*
X143539668Y-96179619D01*
X143396962Y-96388476D01*
X143346756Y-96636400D01*
X107050621Y-96636400D01*
X106887363Y-96241285D01*
X106262007Y-95614837D01*
X105444521Y-95275387D01*
X104559362Y-95274615D01*
X103741285Y-95612637D01*
X103114837Y-96237993D01*
X102775387Y-97055479D01*
X102774615Y-97940638D01*
X100700000Y-97940638D01*
X100700000Y-93200000D01*
X149300000Y-93200000D01*
X149300000Y-136800000D01*
X149300000Y-136800000D01*
G37*
X149300000Y-136800000D02*
X100700000Y-136800000D01*
X100700000Y-132940638D01*
X102774615Y-132940638D01*
X103112637Y-133758715D01*
X103737993Y-134385163D01*
X104555479Y-134724613D01*
X105440638Y-134725385D01*
X106258715Y-134387363D01*
X106885163Y-133762007D01*
X107224613Y-132944521D01*
X107225385Y-132059362D01*
X107056241Y-131650000D01*
X126512756Y-131650000D01*
X126512756Y-133350000D01*
X126556337Y-133581611D01*
X126693219Y-133794332D01*
X126902076Y-133937038D01*
X127150000Y-133987244D01*
X128850000Y-133987244D01*
X129081611Y-133943663D01*
X129294332Y-133806781D01*
X129437038Y-133597924D01*
X129455035Y-133509050D01*
X129497017Y-133571880D01*
X129975542Y-133891619D01*
X130540000Y-134003897D01*
X131104458Y-133891619D01*
X131582983Y-133571880D01*
X131810000Y-133232124D01*
X132037017Y-133571880D01*
X132515542Y-133891619D01*
X133080000Y-134003897D01*
X133644458Y-133891619D01*
X134122983Y-133571880D01*
X134442722Y-133093355D01*
X134552791Y-132540000D01*
X143326851Y-132540000D01*
X143451765Y-133167984D01*
X143807489Y-133700362D01*
X144339867Y-134056086D01*
X144967851Y-134181000D01*
X145032149Y-134181000D01*
X145660133Y-134056086D01*
X146192511Y-133700362D01*
X146548235Y-133167984D01*
X146673149Y-132540000D01*
X146548235Y-131912016D01*
X146316563Y-131565294D01*
X146460332Y-131472781D01*
X146603038Y-131263924D01*
X146653244Y-131016000D01*
X146653244Y-128984000D01*
X146609663Y-128752389D01*
X146472781Y-128539668D01*
X146263924Y-128396962D01*
X146016000Y-128346756D01*
X143984000Y-128346756D01*
X143752389Y-128390337D01*
X143539668Y-128527219D01*
X143396962Y-128736076D01*
X143346756Y-128984000D01*
X143346756Y-131016000D01*
X143390337Y-131247611D01*
X143527219Y-131460332D01*
X143682622Y-131566514D01*
X143451765Y-131912016D01*
X143326851Y-132540000D01*
X134552791Y-132540000D01*
X134555000Y-132528897D01*
X134555000Y-132471103D01*
X134442722Y-131906645D01*
X134122983Y-131428120D01*
X133826358Y-131229922D01*
X133839304Y-131224560D01*
X134265432Y-130837728D01*
X134511088Y-130317270D01*
X134393108Y-130089000D01*
X133209000Y-130089000D01*
X133209000Y-130109000D01*
X132951000Y-130109000D01*
X132951000Y-130089000D01*
X132931000Y-130089000D01*
X132931000Y-129831000D01*
X132951000Y-129831000D01*
X132951000Y-128647575D01*
X133209000Y-128647575D01*
X133209000Y-129831000D01*
X134393108Y-129831000D01*
X134511088Y-129602730D01*
X134265432Y-129082272D01*
X133839304Y-128695440D01*
X133437268Y-128528922D01*
X133209000Y-128647575D01*
X132951000Y-128647575D01*
X132722732Y-128528922D01*
X132320696Y-128695440D01*
X131894568Y-129082272D01*
X131819284Y-129241771D01*
X131582983Y-128888120D01*
X131104458Y-128568381D01*
X130540000Y-128456103D01*
X129975542Y-128568381D01*
X129497017Y-128888120D01*
X129270000Y-129227876D01*
X129042983Y-128888120D01*
X128942500Y-128820980D01*
X128942500Y-127610695D01*
X129080262Y-127473173D01*
X129274778Y-127004726D01*
X129275221Y-126497499D01*
X129081523Y-126028714D01*
X128723173Y-125669738D01*
X128254726Y-125475222D01*
X127747499Y-125474779D01*
X127278714Y-125668477D01*
X126919738Y-126026827D01*
X126725222Y-126495274D01*
X126724779Y-127002501D01*
X126918477Y-127471286D01*
X127057500Y-127610552D01*
X127057500Y-128820980D01*
X126957017Y-128888120D01*
X126637278Y-129366645D01*
X126525000Y-129931103D01*
X126525000Y-129988897D01*
X126637278Y-130553355D01*
X126957017Y-131031880D01*
X126977089Y-131045292D01*
X126918389Y-131056337D01*
X126705668Y-131193219D01*
X126562962Y-131402076D01*
X126512756Y-131650000D01*
X107056241Y-131650000D01*
X106887363Y-131241285D01*
X106541477Y-130894795D01*
X113287639Y-130894795D01*
X113344026Y-131122339D01*
X113823460Y-131287936D01*
X114329771Y-131257456D01*
X114655974Y-131122339D01*
X114712361Y-130894795D01*
X114000000Y-130182434D01*
X113287639Y-130894795D01*
X106541477Y-130894795D01*
X106262007Y-130614837D01*
X105444521Y-130275387D01*
X104559362Y-130274615D01*
X103741285Y-130612637D01*
X103114837Y-131237993D01*
X102775387Y-132055479D01*
X102774615Y-132940638D01*
X100700000Y-132940638D01*
X100700000Y-129823460D01*
X112712064Y-129823460D01*
X112742544Y-130329771D01*
X112877661Y-130655974D01*
X113105205Y-130712361D01*
X113817566Y-130000000D01*
X114182434Y-130000000D01*
X114894795Y-130712361D01*
X115122339Y-130655974D01*
X115287936Y-130176540D01*
X115257456Y-129670229D01*
X115124814Y-129350000D01*
X116212756Y-129350000D01*
X116212756Y-130650000D01*
X116256337Y-130881611D01*
X116393219Y-131094332D01*
X116602076Y-131237038D01*
X116850000Y-131287244D01*
X118150000Y-131287244D01*
X118381611Y-131243663D01*
X118594332Y-131106781D01*
X118737038Y-130897924D01*
X118787244Y-130650000D01*
X118787244Y-129350000D01*
X118743663Y-129118389D01*
X118606781Y-128905668D01*
X118397924Y-128762962D01*
X118150000Y-128712756D01*
X116850000Y-128712756D01*
X116618389Y-128756337D01*
X116405668Y-128893219D01*
X116262962Y-129102076D01*
X116212756Y-129350000D01*
X115124814Y-129350000D01*
X115122339Y-129344026D01*
X114894795Y-129287639D01*
X114182434Y-130000000D01*
X113817566Y-130000000D01*
X113105205Y-129287639D01*
X112877661Y-129344026D01*
X112712064Y-129823460D01*
X100700000Y-129823460D01*
X100700000Y-129105205D01*
X113287639Y-129105205D01*
X114000000Y-129817566D01*
X114712361Y-129105205D01*
X114655974Y-128877661D01*
X114176540Y-128712064D01*
X113670229Y-128742544D01*
X113344026Y-128877661D01*
X113287639Y-129105205D01*
X100700000Y-129105205D01*
X100700000Y-121160589D01*
X105249610Y-121160589D01*
X105591431Y-121987858D01*
X106223813Y-122621345D01*
X107050484Y-122964608D01*
X107945589Y-122965390D01*
X108772858Y-122623569D01*
X109406345Y-121991187D01*
X109749608Y-121164516D01*
X109750390Y-120269411D01*
X109408569Y-119442142D01*
X109109266Y-119142316D01*
X113065118Y-119142316D01*
X113133821Y-119380204D01*
X113649549Y-119562534D01*
X114195794Y-119533624D01*
X114566179Y-119380204D01*
X114634882Y-119142316D01*
X113850000Y-118357434D01*
X113065118Y-119142316D01*
X109109266Y-119142316D01*
X108776187Y-118808655D01*
X107949516Y-118465392D01*
X107054411Y-118464610D01*
X106227142Y-118806431D01*
X105593655Y-119438813D01*
X105250392Y-120265484D01*
X105249610Y-121160589D01*
X100700000Y-121160589D01*
X100700000Y-117974549D01*
X112462466Y-117974549D01*
X112491376Y-118520794D01*
X112644796Y-118891179D01*
X112882684Y-118959882D01*
X113667566Y-118175000D01*
X114032434Y-118175000D01*
X114817316Y-118959882D01*
X115055204Y-118891179D01*
X115237534Y-118375451D01*
X115208624Y-117829206D01*
X115055204Y-117458821D01*
X114817316Y-117390118D01*
X114032434Y-118175000D01*
X113667566Y-118175000D01*
X112882684Y-117390118D01*
X112644796Y-117458821D01*
X112462466Y-117974549D01*
X100700000Y-117974549D01*
X100700000Y-116602316D01*
X113065118Y-116602316D01*
X113133821Y-116840204D01*
X113302614Y-116899879D01*
X113133821Y-116969796D01*
X113065118Y-117207684D01*
X113850000Y-117992566D01*
X114634882Y-117207684D01*
X114566179Y-116969796D01*
X114397386Y-116910121D01*
X114566179Y-116840204D01*
X114634882Y-116602316D01*
X113850000Y-115817434D01*
X113065118Y-116602316D01*
X100700000Y-116602316D01*
X100700000Y-115434549D01*
X112462466Y-115434549D01*
X112491376Y-115980794D01*
X112644796Y-116351179D01*
X112882684Y-116419882D01*
X113667566Y-115635000D01*
X114032434Y-115635000D01*
X114817316Y-116419882D01*
X115055204Y-116351179D01*
X115237534Y-115835451D01*
X115208624Y-115289206D01*
X115055204Y-114918821D01*
X114817316Y-114850118D01*
X114032434Y-115635000D01*
X113667566Y-115635000D01*
X112882684Y-114850118D01*
X112644796Y-114918821D01*
X112462466Y-115434549D01*
X100700000Y-115434549D01*
X100700000Y-114062316D01*
X113065118Y-114062316D01*
X113133821Y-114300204D01*
X113302614Y-114359879D01*
X113133821Y-114429796D01*
X113065118Y-114667684D01*
X113850000Y-115452566D01*
X114634882Y-114667684D01*
X114566179Y-114429796D01*
X114397386Y-114370121D01*
X114566179Y-114300204D01*
X114634882Y-114062316D01*
X113850000Y-113277434D01*
X113065118Y-114062316D01*
X100700000Y-114062316D01*
X100700000Y-112894549D01*
X112462466Y-112894549D01*
X112491376Y-113440794D01*
X112644796Y-113811179D01*
X112882684Y-113879882D01*
X113667566Y-113095000D01*
X114032434Y-113095000D01*
X114817316Y-113879882D01*
X115055204Y-113811179D01*
X115237534Y-113295451D01*
X115208624Y-112749206D01*
X115055204Y-112378821D01*
X114817316Y-112310118D01*
X114032434Y-113095000D01*
X113667566Y-113095000D01*
X112882684Y-112310118D01*
X112644796Y-112378821D01*
X112462466Y-112894549D01*
X100700000Y-112894549D01*
X100700000Y-109730589D01*
X105249610Y-109730589D01*
X105591431Y-110557858D01*
X106223813Y-111191345D01*
X107050484Y-111534608D01*
X107945589Y-111535390D01*
X107977230Y-111522316D01*
X113065118Y-111522316D01*
X113133821Y-111760204D01*
X113302614Y-111819879D01*
X113133821Y-111889796D01*
X113065118Y-112127684D01*
X113850000Y-112912566D01*
X114634882Y-112127684D01*
X114626109Y-112097305D01*
X115014762Y-112097305D01*
X115223652Y-112602857D01*
X115610108Y-112989989D01*
X115863001Y-113094999D01*
X115612143Y-113198652D01*
X115225011Y-113585108D01*
X115015239Y-114090296D01*
X115014762Y-114637305D01*
X115223652Y-115142857D01*
X115610108Y-115529989D01*
X115863001Y-115634999D01*
X115612143Y-115738652D01*
X115225011Y-116125108D01*
X115015239Y-116630296D01*
X115014762Y-117177305D01*
X115223652Y-117682857D01*
X115610108Y-118069989D01*
X115863001Y-118174999D01*
X115612143Y-118278652D01*
X115225011Y-118665108D01*
X115015239Y-119170296D01*
X115014762Y-119717305D01*
X115223652Y-120222857D01*
X115610108Y-120609989D01*
X116115296Y-120819761D01*
X116662305Y-120820238D01*
X117167857Y-120611348D01*
X117554989Y-120224892D01*
X117764761Y-119719704D01*
X117765238Y-119172695D01*
X117556348Y-118667143D01*
X117169892Y-118280011D01*
X116916999Y-118175001D01*
X117167857Y-118071348D01*
X117554989Y-117684892D01*
X117764761Y-117179704D01*
X117765238Y-116632695D01*
X117556348Y-116127143D01*
X117169892Y-115740011D01*
X116916999Y-115635001D01*
X117167857Y-115531348D01*
X117447191Y-115252501D01*
X130724779Y-115252501D01*
X130918477Y-115721286D01*
X131184500Y-115987774D01*
X131184500Y-118012527D01*
X130919738Y-118276827D01*
X130725222Y-118745274D01*
X130724779Y-119252501D01*
X130918477Y-119721286D01*
X131276827Y-120080262D01*
X131745274Y-120274778D01*
X132252501Y-120275221D01*
X132721286Y-120081523D01*
X133080262Y-119723173D01*
X133274778Y-119254726D01*
X133275221Y-118747499D01*
X133081523Y-118278714D01*
X132815500Y-118012226D01*
X132815500Y-117940638D01*
X142774615Y-117940638D01*
X143112637Y-118758715D01*
X143737993Y-119385163D01*
X144555479Y-119724613D01*
X145440638Y-119725385D01*
X146258715Y-119387363D01*
X146885163Y-118762007D01*
X147224613Y-117944521D01*
X147225385Y-117059362D01*
X146887363Y-116241285D01*
X146262007Y-115614837D01*
X145444521Y-115275387D01*
X144559362Y-115274615D01*
X143741285Y-115612637D01*
X143114837Y-116237993D01*
X142775387Y-117055479D01*
X142774615Y-117940638D01*
X132815500Y-117940638D01*
X132815500Y-115987473D01*
X133080262Y-115723173D01*
X133274778Y-115254726D01*
X133275221Y-114747499D01*
X133081523Y-114278714D01*
X132723173Y-113919738D01*
X132254726Y-113725222D01*
X131747499Y-113724779D01*
X131278714Y-113918477D01*
X130919738Y-114276827D01*
X130725222Y-114745274D01*
X130724779Y-115252501D01*
X117447191Y-115252501D01*
X117554989Y-115144892D01*
X117764761Y-114639704D01*
X117765238Y-114092695D01*
X117556348Y-113587143D01*
X117169892Y-113200011D01*
X116916999Y-113095001D01*
X117167857Y-112991348D01*
X117554989Y-112604892D01*
X117764761Y-112099704D01*
X117765238Y-111552695D01*
X117556348Y-111047143D01*
X117169892Y-110660011D01*
X116664704Y-110450239D01*
X116117695Y-110449762D01*
X115612143Y-110658652D01*
X115225011Y-111045108D01*
X115015239Y-111550296D01*
X115014762Y-112097305D01*
X114626109Y-112097305D01*
X114566179Y-111889796D01*
X114397386Y-111830121D01*
X114566179Y-111760204D01*
X114634882Y-111522316D01*
X113850000Y-110737434D01*
X113065118Y-111522316D01*
X107977230Y-111522316D01*
X108772858Y-111193569D01*
X109406345Y-110561187D01*
X109492148Y-110354549D01*
X112462466Y-110354549D01*
X112491376Y-110900794D01*
X112644796Y-111271179D01*
X112882684Y-111339882D01*
X113667566Y-110555000D01*
X114032434Y-110555000D01*
X114817316Y-111339882D01*
X115055204Y-111271179D01*
X115237534Y-110755451D01*
X115208624Y-110209206D01*
X115055204Y-109838821D01*
X114817316Y-109770118D01*
X114032434Y-110555000D01*
X113667566Y-110555000D01*
X112882684Y-109770118D01*
X112644796Y-109838821D01*
X112462466Y-110354549D01*
X109492148Y-110354549D01*
X109749608Y-109734516D01*
X109749736Y-109587684D01*
X113065118Y-109587684D01*
X113850000Y-110372566D01*
X114634882Y-109587684D01*
X114566179Y-109349796D01*
X114050451Y-109167466D01*
X113504206Y-109196376D01*
X113133821Y-109349796D01*
X113065118Y-109587684D01*
X109749736Y-109587684D01*
X109750390Y-108839411D01*
X109408569Y-108012142D01*
X108776187Y-107378655D01*
X107949516Y-107035392D01*
X107054411Y-107034610D01*
X106227142Y-107376431D01*
X105593655Y-108008813D01*
X105250392Y-108835484D01*
X105249610Y-109730589D01*
X100700000Y-109730589D01*
X100700000Y-102580000D01*
X143326851Y-102580000D01*
X143440164Y-103149663D01*
X143762852Y-103632599D01*
X144088215Y-103850000D01*
X143762852Y-104067401D01*
X143440164Y-104550337D01*
X143326851Y-105120000D01*
X143440164Y-105689663D01*
X143762852Y-106172599D01*
X144088215Y-106390000D01*
X143762852Y-106607401D01*
X143440164Y-107090337D01*
X143326851Y-107660000D01*
X143440164Y-108229663D01*
X143762852Y-108712599D01*
X144245788Y-109035287D01*
X144815451Y-109148600D01*
X145184549Y-109148600D01*
X145754212Y-109035287D01*
X146237148Y-108712599D01*
X146559836Y-108229663D01*
X146673149Y-107660000D01*
X146559836Y-107090337D01*
X146237148Y-106607401D01*
X145911785Y-106390000D01*
X146237148Y-106172599D01*
X146559836Y-105689663D01*
X146673149Y-105120000D01*
X146559836Y-104550337D01*
X146237148Y-104067401D01*
X145911785Y-103850000D01*
X146237148Y-103632599D01*
X146559836Y-103149663D01*
X146673149Y-102580000D01*
X146559836Y-102010337D01*
X146237148Y-101527401D01*
X145919087Y-101314879D01*
X146343768Y-100934502D01*
X146595392Y-100410495D01*
X146596962Y-100399404D01*
X146478490Y-100169000D01*
X145129000Y-100169000D01*
X145129000Y-100189000D01*
X144871000Y-100189000D01*
X144871000Y-100169000D01*
X143521510Y-100169000D01*
X143403038Y-100399404D01*
X143404608Y-100410495D01*
X143656232Y-100934502D01*
X144080913Y-101314879D01*
X143762852Y-101527401D01*
X143440164Y-102010337D01*
X143326851Y-102580000D01*
X100700000Y-102580000D01*
X100700000Y-100894795D01*
X113287639Y-100894795D01*
X113344026Y-101122339D01*
X113823460Y-101287936D01*
X114329771Y-101257456D01*
X114655974Y-101122339D01*
X114712361Y-100894795D01*
X114000000Y-100182434D01*
X113287639Y-100894795D01*
X100700000Y-100894795D01*
X100700000Y-99823460D01*
X112712064Y-99823460D01*
X112742544Y-100329771D01*
X112877661Y-100655974D01*
X113105205Y-100712361D01*
X113817566Y-100000000D01*
X114182434Y-100000000D01*
X114894795Y-100712361D01*
X115122339Y-100655974D01*
X115287936Y-100176540D01*
X115257456Y-99670229D01*
X115124814Y-99350000D01*
X116212756Y-99350000D01*
X116212756Y-100650000D01*
X116256337Y-100881611D01*
X116393219Y-101094332D01*
X116602076Y-101237038D01*
X116850000Y-101287244D01*
X118150000Y-101287244D01*
X118381611Y-101243663D01*
X118594332Y-101106781D01*
X118737038Y-100897924D01*
X118787244Y-100650000D01*
X118787244Y-99350000D01*
X118743663Y-99118389D01*
X118606781Y-98905668D01*
X118397924Y-98762962D01*
X118150000Y-98712756D01*
X116850000Y-98712756D01*
X116618389Y-98756337D01*
X116405668Y-98893219D01*
X116262962Y-99102076D01*
X116212756Y-99350000D01*
X115124814Y-99350000D01*
X115122339Y-99344026D01*
X114894795Y-99287639D01*
X114182434Y-100000000D01*
X113817566Y-100000000D01*
X113105205Y-99287639D01*
X112877661Y-99344026D01*
X112712064Y-99823460D01*
X100700000Y-99823460D01*
X100700000Y-97940638D01*
X102774615Y-97940638D01*
X103112637Y-98758715D01*
X103737993Y-99385163D01*
X104555479Y-99724613D01*
X105440638Y-99725385D01*
X106258715Y-99387363D01*
X106541365Y-99105205D01*
X113287639Y-99105205D01*
X114000000Y-99817566D01*
X114712361Y-99105205D01*
X114655974Y-98877661D01*
X114176540Y-98712064D01*
X113670229Y-98742544D01*
X113344026Y-98877661D01*
X113287639Y-99105205D01*
X106541365Y-99105205D01*
X106885163Y-98762007D01*
X107224613Y-97944521D01*
X107225385Y-97059362D01*
X107050621Y-96636400D01*
X143346756Y-96636400D01*
X143346756Y-98363600D01*
X143390337Y-98595211D01*
X143527219Y-98807932D01*
X143736076Y-98950638D01*
X143848394Y-98973383D01*
X143656232Y-99145498D01*
X143404608Y-99669505D01*
X143403038Y-99680596D01*
X143521510Y-99911000D01*
X144871000Y-99911000D01*
X144871000Y-99891000D01*
X145129000Y-99891000D01*
X145129000Y-99911000D01*
X146478490Y-99911000D01*
X146596962Y-99680596D01*
X146595392Y-99669505D01*
X146343768Y-99145498D01*
X146153400Y-98974990D01*
X146247611Y-98957263D01*
X146460332Y-98820381D01*
X146603038Y-98611524D01*
X146653244Y-98363600D01*
X146653244Y-96636400D01*
X146609663Y-96404789D01*
X146472781Y-96192068D01*
X146263924Y-96049362D01*
X146016000Y-95999156D01*
X143984000Y-95999156D01*
X143752389Y-96042737D01*
X143539668Y-96179619D01*
X143396962Y-96388476D01*
X143346756Y-96636400D01*
X107050621Y-96636400D01*
X106887363Y-96241285D01*
X106262007Y-95614837D01*
X105444521Y-95275387D01*
X104559362Y-95274615D01*
X103741285Y-95612637D01*
X103114837Y-96237993D01*
X102775387Y-97055479D01*
X102774615Y-97940638D01*
X100700000Y-97940638D01*
X100700000Y-93200000D01*
X149300000Y-93200000D01*
X149300000Y-136800000D01*
M02*
