M48
;DRILL file {KiCad 4.0.7-e2-6376~58~ubuntu17.04.1} date Mon Nov 20 18:02:54 2017
;FORMAT={-:-/ absolute / inch / decimal}
FMAT,2
INCH,TZ
T1C0.020
T2C0.024
T3C0.031
T4C0.039
T5C0.040
%
G90
G05
M72
T1
X4.8425Y-4.2717
X5.0394Y-4.9902
X5.1969Y-4.5276
X5.1969Y-4.685
T2
X4.4823Y-4.3526
X4.4823Y-4.4526
X4.4823Y-4.5526
X4.4823Y-4.6526
X4.5823Y-4.4026
X4.5823Y-4.5026
X4.5823Y-4.6026
X4.5823Y-4.7026
T3
X4.4882Y-3.937
X4.4882Y-5.1181
X4.626Y-3.937
X4.626Y-5.1181
T4
X5.0394Y-5.1165
X5.0394Y-5.2165
X5.1394Y-5.1165
X5.1394Y-5.2165
X5.2394Y-5.1165
X5.2394Y-5.2165
T5
X5.7087Y-3.8386
X5.7087Y-3.9386
X5.7087Y-4.0386
X5.7087Y-4.1386
X5.7087Y-4.2386
X5.7087Y-5.1181
X5.7087Y-5.2181
T0
M30
