G04 #@! TF.FileFunction,Soldermask,Bot*
%FSLAX46Y46*%
G04 Gerber Fmt 4.6, Leading zero omitted, Abs format (unit mm)*
G04 Created by KiCad (PCBNEW 4.0.7-e2-6376~58~ubuntu17.04.1) date Mon Nov 20 18:02:35 2017*
%MOMM*%
%LPD*%
G01*
G04 APERTURE LIST*
%ADD10C,0.100000*%
%ADD11R,1.600000X1.150000*%
%ADD12C,1.700000*%
%ADD13R,1.700000X1.700000*%
%ADD14R,1.543000X0.908000*%
%ADD15C,3.650000*%
%ADD16C,1.900000*%
%ADD17R,2.432000X2.127200*%
%ADD18O,2.432000X2.127200*%
%ADD19R,2.432000X2.432000*%
%ADD20O,2.432000X2.432000*%
%ADD21R,2.100000X2.100000*%
%ADD22O,2.100000X2.100000*%
%ADD23C,3.600000*%
G04 APERTURE END LIST*
D10*
D11*
X126450000Y-108500000D03*
X124550000Y-108500000D03*
D12*
X114000000Y-130000000D03*
D13*
X117500000Y-130000000D03*
D12*
X114000000Y-100000000D03*
D13*
X117500000Y-100000000D03*
D14*
X128802000Y-111190000D03*
X128802000Y-112460000D03*
X128802000Y-113730000D03*
X128802000Y-115000000D03*
X128802000Y-116270000D03*
X128802000Y-117540000D03*
X128802000Y-118810000D03*
X122452000Y-118810000D03*
X122452000Y-117540000D03*
X122452000Y-115000000D03*
X122452000Y-113730000D03*
X122452000Y-112460000D03*
X122452000Y-111190000D03*
X122452000Y-116270000D03*
D15*
X107500000Y-120715000D03*
X107500000Y-109285000D03*
D16*
X116390000Y-119445000D03*
X113850000Y-118175000D03*
X116390000Y-116905000D03*
X113850000Y-115635000D03*
X116390000Y-114365000D03*
X113850000Y-113095000D03*
X116390000Y-111825000D03*
X113850000Y-110555000D03*
D17*
X145000000Y-97500000D03*
D18*
X145000000Y-100040000D03*
X145000000Y-102580000D03*
X145000000Y-105120000D03*
X145000000Y-107660000D03*
D19*
X145000000Y-130000000D03*
D20*
X145000000Y-132540000D03*
D21*
X128000000Y-132500000D03*
D22*
X128000000Y-129960000D03*
X130540000Y-132500000D03*
X130540000Y-129960000D03*
X133080000Y-132500000D03*
X133080000Y-129960000D03*
D23*
X105000000Y-97500000D03*
X105000000Y-132500000D03*
X145000000Y-117500000D03*
M02*
