G04 #@! TF.FileFunction,Copper,L2,Bot,Signal*
%FSLAX46Y46*%
G04 Gerber Fmt 4.6, Leading zero omitted, Abs format (unit mm)*
G04 Created by KiCad (PCBNEW 4.0.7-e2-6376~58~ubuntu17.04.1) date Mon Nov 20 18:02:35 2017*
%MOMM*%
%LPD*%
G01*
G04 APERTURE LIST*
%ADD10C,0.100000*%
%ADD11R,1.200000X0.750000*%
%ADD12C,1.300000*%
%ADD13R,1.300000X1.300000*%
%ADD14R,1.143000X0.508000*%
%ADD15C,1.500000*%
%ADD16R,2.032000X1.727200*%
%ADD17O,2.032000X1.727200*%
%ADD18R,2.032000X2.032000*%
%ADD19O,2.032000X2.032000*%
%ADD20R,1.700000X1.700000*%
%ADD21O,1.700000X1.700000*%
%ADD22C,0.508000*%
%ADD23C,0.635000*%
%ADD24C,1.270000*%
%ADD25C,0.381000*%
%ADD26C,0.254000*%
G04 APERTURE END LIST*
D10*
D11*
X126450000Y-108500000D03*
X124550000Y-108500000D03*
D12*
X114000000Y-130000000D03*
D13*
X117500000Y-130000000D03*
D12*
X114000000Y-100000000D03*
D13*
X117500000Y-100000000D03*
D14*
X128802000Y-111190000D03*
X128802000Y-112460000D03*
X128802000Y-113730000D03*
X128802000Y-115000000D03*
X128802000Y-116270000D03*
X128802000Y-117540000D03*
X128802000Y-118810000D03*
X122452000Y-118810000D03*
X122452000Y-117540000D03*
X122452000Y-115000000D03*
X122452000Y-113730000D03*
X122452000Y-112460000D03*
X122452000Y-111190000D03*
X122452000Y-116270000D03*
D15*
X116390000Y-119445000D03*
X113850000Y-118175000D03*
X116390000Y-116905000D03*
X113850000Y-115635000D03*
X116390000Y-114365000D03*
X113850000Y-113095000D03*
X116390000Y-111825000D03*
X113850000Y-110555000D03*
D16*
X145000000Y-97500000D03*
D17*
X145000000Y-100040000D03*
X145000000Y-102580000D03*
X145000000Y-105120000D03*
X145000000Y-107660000D03*
D18*
X145000000Y-130000000D03*
D19*
X145000000Y-132540000D03*
D20*
X128000000Y-132500000D03*
D21*
X128000000Y-129960000D03*
X130540000Y-132500000D03*
X130540000Y-129960000D03*
X133080000Y-132500000D03*
X133080000Y-129960000D03*
D12*
X128000000Y-126750000D03*
X123000000Y-108500000D03*
X132000000Y-115000000D03*
X132000000Y-119000000D03*
D22*
X127750000Y-111190000D02*
X126450000Y-111190000D01*
X126500000Y-111000000D02*
X126450000Y-111000000D01*
X126500000Y-111140000D02*
X126500000Y-111000000D01*
X126450000Y-111190000D02*
X126500000Y-111140000D01*
D23*
X126450000Y-108500000D02*
X126450000Y-109950000D01*
X126450000Y-111000000D02*
X126450000Y-109950000D01*
X126450000Y-125200000D02*
X126450000Y-111000000D01*
X128000000Y-126750000D02*
X126450000Y-125200000D01*
X126450000Y-108500000D02*
X126450000Y-104950000D01*
X120000000Y-102500000D02*
X117500000Y-100000000D01*
X124000000Y-102500000D02*
X120000000Y-102500000D01*
X126450000Y-104950000D02*
X124000000Y-102500000D01*
D24*
X117500000Y-100000000D02*
X128500000Y-100000000D01*
X131000000Y-97500000D02*
X145000000Y-97500000D01*
X128500000Y-100000000D02*
X131000000Y-97500000D01*
X116390000Y-111825000D02*
X116390000Y-105110000D01*
X116390000Y-105110000D02*
X117500000Y-104000000D01*
X117500000Y-104000000D02*
X117500000Y-100000000D01*
D22*
X128802000Y-111190000D02*
X127750000Y-111190000D01*
X127750000Y-111190000D02*
X127690000Y-111190000D01*
X124550000Y-108500000D02*
X123000000Y-108500000D01*
X122452000Y-111190000D02*
X123810000Y-111190000D01*
X124550000Y-110450000D02*
X124550000Y-108500000D01*
X123810000Y-111190000D02*
X124550000Y-110450000D01*
D24*
X117500000Y-130000000D02*
X117500000Y-133500000D01*
X142540000Y-135000000D02*
X145000000Y-132540000D01*
X119000000Y-135000000D02*
X142540000Y-135000000D01*
X117500000Y-133500000D02*
X119000000Y-135000000D01*
X116390000Y-119445000D02*
X116390000Y-123890000D01*
X117500000Y-125000000D02*
X117500000Y-130000000D01*
X116390000Y-123890000D02*
X117500000Y-125000000D01*
D25*
X128802000Y-112460000D02*
X132040000Y-112460000D01*
X141920000Y-102580000D02*
X145000000Y-102580000D01*
X132040000Y-112460000D02*
X141920000Y-102580000D01*
X128802000Y-113730000D02*
X133270000Y-113730000D01*
X141880000Y-105120000D02*
X145000000Y-105120000D01*
X133270000Y-113730000D02*
X141880000Y-105120000D01*
X133080000Y-132500000D02*
X134500000Y-132500000D01*
X132000000Y-115000000D02*
X128802000Y-115000000D01*
X132500000Y-119000000D02*
X132000000Y-119000000D01*
X135000000Y-121500000D02*
X132500000Y-119000000D01*
X135000000Y-132000000D02*
X135000000Y-121500000D01*
X134500000Y-132500000D02*
X135000000Y-132000000D01*
X128802000Y-116270000D02*
X136390000Y-116270000D01*
X136390000Y-116270000D02*
X145000000Y-107660000D01*
X128802000Y-117540000D02*
X136540000Y-117540000D01*
X145000000Y-126000000D02*
X145000000Y-130000000D01*
X136540000Y-117540000D02*
X145000000Y-126000000D01*
X130540000Y-129960000D02*
X130540000Y-123040000D01*
X128802000Y-121302000D02*
X128802000Y-118810000D01*
X130540000Y-123040000D02*
X128802000Y-121302000D01*
X122452000Y-118810000D02*
X122452000Y-129452000D01*
X125500000Y-132500000D02*
X128000000Y-132500000D01*
X122452000Y-129452000D02*
X125500000Y-132500000D01*
X129250000Y-128500000D02*
X128750000Y-128000000D01*
X124040000Y-117540000D02*
X124500000Y-118000000D01*
X124500000Y-118000000D02*
X124500000Y-127000000D01*
X124500000Y-127000000D02*
X125500000Y-128000000D01*
X125500000Y-128000000D02*
X128500000Y-128000000D01*
X124040000Y-117540000D02*
X122452000Y-117540000D01*
X128750000Y-128000000D02*
X128500000Y-128000000D01*
X130500000Y-132500000D02*
X129250000Y-131250000D01*
D26*
X129250000Y-128500000D02*
X129250000Y-131250000D01*
D25*
X130540000Y-132500000D02*
X130500000Y-132500000D01*
X116390000Y-114365000D02*
X119365000Y-114365000D01*
X120000000Y-115000000D02*
X122452000Y-115000000D01*
X119365000Y-114365000D02*
X120000000Y-115000000D01*
X119000000Y-116905000D02*
X119595000Y-116905000D01*
X120230000Y-116270000D02*
X122452000Y-116270000D01*
X119595000Y-116905000D02*
X120230000Y-116270000D01*
X119095000Y-116905000D02*
X119000000Y-116905000D01*
X119000000Y-116905000D02*
X116390000Y-116905000D01*
M02*
