<?xml version="1.0" standalone="no"?>
 <!DOCTYPE svg PUBLIC "-//W3C//DTD SVG 1.1//EN" 
 "http://www.w3.org/Graphics/SVG/1.1/DTD/svg11.dtd"> 
<svg xmlns="http://www.w3.org/2000/svg" version="1.1" 
    width="29.7002cm" height="21.0007cm" viewBox="0 0 116930 82680 ">
<title>SVG Picture created as usbuart-B.Cu.svg date 2016/10/05 22:36:57 </title>
  <desc>Picture generated by PCBNEW </desc>
<g style="fill:#000000; fill-opacity:1;stroke:#000000; stroke-opacity:1;
stroke-linecap:round; stroke-linejoin:round; "
 transform="translate(0 0) scale(1 1)">
</g>
<g style="fill:#000000; fill-opacity:0.0; 
stroke:#000000; stroke-width:-0.000393701; stroke-opacity:1; 
stroke-linecap:round; stroke-linejoin:round;">
</g>
<g style="fill:#000000; fill-opacity:0.0; 
stroke:#000000; stroke-width:59.0551; stroke-opacity:1; 
stroke-linecap:round; stroke-linejoin:round;">
<path d="M48250 47000
L46000 47000
" />
<path d="M46000 39500
L48250 39500
" />
<path d="M64000 39500
L48250 39500
" />
<path d="M64000 47000
L64000 39500
" />
<path d="M63500 47000
L64000 47000
" />
<path d="M48250 47000
L63500 47000
" />
<path d="M46000 39500
L46000 47000
" />
</g>
<g style="fill:#000000; fill-opacity:1.0; 
stroke:#000000; stroke-width:0; stroke-opacity:1; 
stroke-linecap:round; stroke-linejoin:round;">
<circle cx="54500" cy="45484.3" r="255.906" /> 
</g>
<g style="fill:#000000; fill-opacity:1.0; 
stroke:#000000; stroke-width:39.3701; stroke-opacity:1; 
stroke-linecap:round; stroke-linejoin:round;">
</g>
<g style="fill:#000000; fill-opacity:1.0; 
stroke:#000000; stroke-width:0; stroke-opacity:1; 
stroke-linecap:round; stroke-linejoin:round;">
<polyline style="fill-rule:evenodd;"
points="54244,44244
54755,44244
54755,44755
54244,44755
54244,44244
" /> 
<polyline style="fill-rule:evenodd;"
points="56897,41860
56602,41860
56602,41387
56897,41387
56897,41860
" /> 
<polyline style="fill-rule:evenodd;"
points="56897,41112
56602,41112
56602,40639
56897,40639
56897,41112
" /> 
<polyline style="fill-rule:evenodd;"
points="57647,41860
57352,41860
57352,41387
57647,41387
57647,41860
" /> 
<polyline style="fill-rule:evenodd;"
points="57647,41112
57352,41112
57352,40639
57647,40639
57647,41112
" /> 
<polyline style="fill-rule:evenodd;"
points="60893,41643
60106,41643
60106,40856
60893,40856
60893,41643
" /> 
<circle cx="61500" cy="41250" r="393.701" /> 
</g>
<g style="fill:#000000; fill-opacity:1.0; 
stroke:#000000; stroke-width:39.3701; stroke-opacity:1; 
stroke-linecap:round; stroke-linejoin:round;">
</g>
<g style="fill:#000000; fill-opacity:1.0; 
stroke:#000000; stroke-width:0; stroke-opacity:1; 
stroke-linecap:round; stroke-linejoin:round;">
<polyline style="fill-rule:evenodd;"
points="58893,41643
58106,41643
58106,40856
58893,40856
58893,41643
" /> 
<circle cx="59500" cy="41250" r="393.701" /> 
</g>
<g style="fill:#000000; fill-opacity:1.0; 
stroke:#000000; stroke-width:39.3701; stroke-opacity:1; 
stroke-linecap:round; stroke-linejoin:round;">
</g>
<g style="fill:#000000; fill-opacity:1.0; 
stroke:#000000; stroke-width:0; stroke-opacity:1; 
stroke-linecap:round; stroke-linejoin:round;">
<circle cx="52000" cy="42750" r="300" /> 
</g>
<g style="fill:#000000; fill-opacity:1.0; 
stroke:#000000; stroke-width:39.3701; stroke-opacity:1; 
stroke-linecap:round; stroke-linejoin:round;">
</g>
<g style="fill:#000000; fill-opacity:1.0; 
stroke:#000000; stroke-width:0; stroke-opacity:1; 
stroke-linecap:round; stroke-linejoin:round;">
<circle cx="52000" cy="43750" r="300" /> 
</g>
<g style="fill:#000000; fill-opacity:1.0; 
stroke:#000000; stroke-width:39.3701; stroke-opacity:1; 
stroke-linecap:round; stroke-linejoin:round;">
</g>
<g style="fill:#000000; fill-opacity:1.0; 
stroke:#000000; stroke-width:0; stroke-opacity:1; 
stroke-linecap:round; stroke-linejoin:round;">
<circle cx="51213" cy="43750" r="300" /> 
</g>
<g style="fill:#000000; fill-opacity:1.0; 
stroke:#000000; stroke-width:39.3701; stroke-opacity:1; 
stroke-linecap:round; stroke-linejoin:round;">
</g>
<g style="fill:#000000; fill-opacity:1.0; 
stroke:#000000; stroke-width:0; stroke-opacity:1; 
stroke-linecap:round; stroke-linejoin:round;">
<circle cx="51213" cy="42750" r="300" /> 
</g>
<g style="fill:#000000; fill-opacity:1.0; 
stroke:#000000; stroke-width:39.3701; stroke-opacity:1; 
stroke-linecap:round; stroke-linejoin:round;">
</g>
<g style="fill:#000000; fill-opacity:1.0; 
stroke:#000000; stroke-width:0; stroke-opacity:1; 
stroke-linecap:round; stroke-linejoin:round;">
<circle cx="50150" cy="40888" r="531.5" /> 
</g>
<g style="fill:#000000; fill-opacity:1.0; 
stroke:#000000; stroke-width:39.3701; stroke-opacity:1; 
stroke-linecap:round; stroke-linejoin:round;">
</g>
<g style="fill:#000000; fill-opacity:1.0; 
stroke:#000000; stroke-width:0; stroke-opacity:1; 
stroke-linecap:round; stroke-linejoin:round;">
<circle cx="50150" cy="45612" r="531.5" /> 
</g>
<g style="fill:#000000; fill-opacity:1.0; 
stroke:#000000; stroke-width:39.3701; stroke-opacity:1; 
stroke-linecap:round; stroke-linejoin:round;">
</g>
<g style="fill:#000000; fill-opacity:1.0; 
stroke:#000000; stroke-width:0; stroke-opacity:1; 
stroke-linecap:round; stroke-linejoin:round;">
<polyline style="fill-rule:evenodd;"
points="54090,41400
53410,41400
53410,40600
54090,40600
54090,41400
" /> 
</g>
<g style="fill:#000000; fill-opacity:1.0; 
stroke:#000000; stroke-width:680; stroke-opacity:1; 
stroke-linecap:round; stroke-linejoin:round;">
</g>
<g style="fill:#000000; fill-opacity:0.0; 
stroke:#000000; stroke-width:680; stroke-opacity:1; 
stroke-linecap:round; stroke-linejoin:round;">
<path d="M54750 41060
L54750 40940
" />
<path d="M55750 41060
L55750 40940
" />
</g>
<g style="fill:#000000; fill-opacity:0.0; 
stroke:#000000; stroke-width:0; stroke-opacity:1; 
stroke-linecap:round; stroke-linejoin:round;">
</g>
<g style="fill:#000000; fill-opacity:1.0; 
stroke:#000000; stroke-width:0; stroke-opacity:1; 
stroke-linecap:round; stroke-linejoin:round;">
<polyline style="fill-rule:evenodd;"
points="62350,43090
62350,42410
63150,42410
63150,43090
62350,43090
" /> 
</g>
<g style="fill:#000000; fill-opacity:1.0; 
stroke:#000000; stroke-width:680; stroke-opacity:1; 
stroke-linecap:round; stroke-linejoin:round;">
</g>
<g style="fill:#000000; fill-opacity:0.0; 
stroke:#000000; stroke-width:680; stroke-opacity:1; 
stroke-linecap:round; stroke-linejoin:round;">
<path d="M62690 43750
L62810 43750
" />
<path d="M62690 44750
L62810 44750
" />
<path d="M62690 45750
L62810 45750
" />
</g>
<g style="fill:#000000; fill-opacity:0.0; 
stroke:#000000; stroke-width:0; stroke-opacity:1; 
stroke-linecap:round; stroke-linejoin:round;">
</g>
<g style="fill:#000000; fill-opacity:1.0; 
stroke:#000000; stroke-width:0; stroke-opacity:1; 
stroke-linecap:round; stroke-linejoin:round;">
<polyline style="fill-rule:evenodd;"
points="61005,43826
60494,43826
60494,43236
61005,43236
61005,43826
" /> 
<polyline style="fill-rule:evenodd;"
points="61005,42763
60494,42763
60494,42173
61005,42173
61005,42763
" /> 
<polyline style="fill-rule:evenodd;"
points="61755,43826
61244,43826
61244,43236
61755,43236
61755,43826
" /> 
<polyline style="fill-rule:evenodd;"
points="61755,42763
61244,42763
61244,42173
61755,42173
61755,42763
" /> 
<polyline style="fill-rule:evenodd;"
points="59751,45761
59574,45761
59574,45072
59751,45072
59751,45761
" /> 
<polyline style="fill-rule:evenodd;"
points="59496,45761
59318,45761
59318,45072
59496,45072
59496,45761
" /> 
<polyline style="fill-rule:evenodd;"
points="59240,45761
59062,45761
59062,45072
59240,45072
59240,45761
" /> 
<polyline style="fill-rule:evenodd;"
points="58984,45761
58807,45761
58807,45072
58984,45072
58984,45761
" /> 
<polyline style="fill-rule:evenodd;"
points="58728,45761
58551,45761
58551,45072
58728,45072
58728,45761
" /> 
<polyline style="fill-rule:evenodd;"
points="58472,45761
58295,45761
58295,45072
58472,45072
58472,45761
" /> 
<polyline style="fill-rule:evenodd;"
points="58216,45761
58039,45761
58039,45072
58216,45072
58216,45761
" /> 
<polyline style="fill-rule:evenodd;"
points="57960,45761
57783,45761
57783,45072
57960,45072
57960,45761
" /> 
<polyline style="fill-rule:evenodd;"
points="57704,45761
57527,45761
57527,45072
57704,45072
57704,45761
" /> 
<polyline style="fill-rule:evenodd;"
points="57448,45761
57271,45761
57271,45072
57448,45072
57448,45761
" /> 
<polyline style="fill-rule:evenodd;"
points="57192,45761
57015,45761
57015,45072
57192,45072
57192,45761
" /> 
<polyline style="fill-rule:evenodd;"
points="56937,45761
56759,45761
56759,45072
56937,45072
56937,45761
" /> 
<polyline style="fill-rule:evenodd;"
points="56681,45761
56503,45761
56503,45072
56681,45072
56681,45761
" /> 
<polyline style="fill-rule:evenodd;"
points="56425,45761
56248,45761
56248,45072
56425,45072
56425,45761
" /> 
<polyline style="fill-rule:evenodd;"
points="56425,42927
56248,42927
56248,42238
56425,42238
56425,42927
" /> 
<polyline style="fill-rule:evenodd;"
points="56681,42927
56503,42927
56503,42238
56681,42238
56681,42927
" /> 
<polyline style="fill-rule:evenodd;"
points="56937,42927
56759,42927
56759,42238
56937,42238
56937,42927
" /> 
<polyline style="fill-rule:evenodd;"
points="57192,42927
57015,42927
57015,42238
57192,42238
57192,42927
" /> 
<polyline style="fill-rule:evenodd;"
points="57448,42927
57271,42927
57271,42238
57448,42238
57448,42927
" /> 
<polyline style="fill-rule:evenodd;"
points="57704,42927
57527,42927
57527,42238
57704,42238
57704,42927
" /> 
<polyline style="fill-rule:evenodd;"
points="57960,42927
57783,42927
57783,42238
57960,42238
57960,42927
" /> 
<polyline style="fill-rule:evenodd;"
points="58216,42927
58039,42927
58039,42238
58216,42238
58216,42927
" /> 
<polyline style="fill-rule:evenodd;"
points="58472,42927
58295,42927
58295,42238
58472,42238
58472,42927
" /> 
<polyline style="fill-rule:evenodd;"
points="58728,42927
58551,42927
58551,42238
58728,42238
58728,42927
" /> 
<polyline style="fill-rule:evenodd;"
points="58984,42927
58807,42927
58807,42238
58984,42238
58984,42927
" /> 
<polyline style="fill-rule:evenodd;"
points="59240,42927
59062,42927
59062,42238
59240,42238
59240,42927
" /> 
<polyline style="fill-rule:evenodd;"
points="59496,42927
59318,42927
59318,42238
59496,42238
59496,42927
" /> 
<polyline style="fill-rule:evenodd;"
points="59751,42927
59574,42927
59574,42238
59751,42238
59751,42927
" /> 
<circle cx="53750" cy="43250" r="314.961" /> 
</g>
<g style="fill:#000000; fill-opacity:1.0; 
stroke:#000000; stroke-width:39.3701; stroke-opacity:1; 
stroke-linecap:round; stroke-linejoin:round;">
</g>
<g style="fill:#000000; fill-opacity:1.0; 
stroke:#000000; stroke-width:0; stroke-opacity:1; 
stroke-linecap:round; stroke-linejoin:round;">
<circle cx="53750" cy="42000" r="314.961" /> 
</g>
<g style="fill:#000000; fill-opacity:1.0; 
stroke:#000000; stroke-width:39.3701; stroke-opacity:1; 
stroke-linecap:round; stroke-linejoin:round;">
</g>
<g style="fill:#000000; fill-opacity:1.0; 
stroke:#000000; stroke-width:0; stroke-opacity:1; 
stroke-linecap:round; stroke-linejoin:round;">
<circle cx="54750" cy="43500" r="314.961" /> 
</g>
<g style="fill:#000000; fill-opacity:1.0; 
stroke:#000000; stroke-width:39.3701; stroke-opacity:1; 
stroke-linecap:round; stroke-linejoin:round;">
</g>
<g style="fill:#000000; fill-opacity:1.0; 
stroke:#000000; stroke-width:0; stroke-opacity:1; 
stroke-linecap:round; stroke-linejoin:round;">
<circle cx="54750" cy="42000" r="314.961" /> 
</g>
<g style="fill:#000000; fill-opacity:1.0; 
stroke:#000000; stroke-width:39.3701; stroke-opacity:1; 
stroke-linecap:round; stroke-linejoin:round;">
</g>
<g style="fill:#000000; fill-opacity:1.0; 
stroke:#000000; stroke-width:100; stroke-opacity:1; 
stroke-linecap:round; stroke-linejoin:round;">
</g>
<g style="fill:#000000; fill-opacity:0.0; 
stroke:#000000; stroke-width:100; stroke-opacity:1; 
stroke-linecap:round; stroke-linejoin:round;">
<path d="M61000 46500
L61500 46500
" />
<path d="M58127 46377
L58250 46500
" />
<path d="M58250 46500
L61000 46500
" />
<path d="M58127 45417
L58127 46377
" />
<path d="M62000 45750
L62750 45750
" />
<path d="M62000 46000
L62000 45750
" />
<path d="M61500 46500
L62000 46000
" />
<path d="M56750 40875
L57500 40875
" />
<path d="M57104 42582
L57104 40895
" />
<path d="M57124 40875
L57500 40875
" />
<path d="M57104 40895
L57124 40875
" />
<path d="M57872 42582
L57872 41122
" />
<path d="M57872 41122
L57625 40875
" />
<path d="M57625 40875
L57500 40875
" />
<path d="M58895 42582
L58895 43104
" />
<path d="M57872 43122
L57872 42582
" />
<path d="M58000 43250
L57872 43122
" />
<path d="M58750 43250
L58000 43250
" />
<path d="M58895 43104
L58750 43250
" />
<path d="M58127 45417
L58127 46372
" />
<path d="M58127 46372
L58000 46500
" />
</g>
<g style="fill:#000000; fill-opacity:0.0; 
stroke:#000000; stroke-width:150; stroke-opacity:1; 
stroke-linecap:round; stroke-linejoin:round;">
<path d="M55250 43000
L55500 43250
" />
<path d="M55500 43250
L56000 43750
" />
<path d="M56000 43750
L57250 43750
" />
<path d="M57616 43383
L57500 43500
" />
</g>
<g style="fill:#000000; fill-opacity:0.0; 
stroke:#000000; stroke-width:100; stroke-opacity:1; 
stroke-linecap:round; stroke-linejoin:round;">
<path d="M57616 42582
L57616 43383
" />
</g>
<g style="fill:#000000; fill-opacity:0.0; 
stroke:#000000; stroke-width:150; stroke-opacity:1; 
stroke-linecap:round; stroke-linejoin:round;">
<path d="M55250 43000
L55000 43000
" />
<path d="M57500 43500
L57250 43750
" />
<path d="M54000 43250
L53750 43250
" />
<path d="M54000 43250
L54250 43000
" />
<path d="M54250 43000
L55000 43000
" />
</g>
<g style="fill:#000000; fill-opacity:0.0; 
stroke:#000000; stroke-width:250; stroke-opacity:1; 
stroke-linecap:round; stroke-linejoin:round;">
<path d="M53750 43250
L53750 43500
" />
<path d="M53750 43500
L54500 44250
" />
<path d="M53750 41000
L53750 42000
" />
<path d="M54500 44250
L54500 44500
" />
</g>
<g style="fill:#000000; fill-opacity:0.0; 
stroke:#000000; stroke-width:500; stroke-opacity:1; 
stroke-linecap:round; stroke-linejoin:round;">
<path d="M52000 43750
L52750 44500
" />
<path d="M52750 44500
L53750 44500
" />
<path d="M53750 44500
L54500 44500
" />
</g>
<g style="fill:#000000; fill-opacity:0.0; 
stroke:#000000; stroke-width:100; stroke-opacity:1; 
stroke-linecap:round; stroke-linejoin:round;">
<path d="M57500 41624
L57500 41750
" />
<path d="M57500 41750
L57616 41866
" />
<path d="M57616 41866
L57616 42582
" />
</g>
<g style="fill:#000000; fill-opacity:0.0; 
stroke:#000000; stroke-width:150; stroke-opacity:1; 
stroke-linecap:round; stroke-linejoin:round;">
<path d="M56750 41624
L56624 41624
" />
<path d="M56624 41624
L55750 40750
" />
</g>
<g style="fill:#000000; fill-opacity:0.0; 
stroke:#000000; stroke-width:100; stroke-opacity:1; 
stroke-linecap:round; stroke-linejoin:round;">
<path d="M56848 42582
L56848 41722
" />
<path d="M56848 41722
L56750 41624
" />
<path d="M59900 41850
L60500 41250
" />
<path d="M58383 42150
L58383 42066
" />
<path d="M58600 41850
L59900 41850
" />
<path d="M58383 42066
L58600 41850
" />
<path d="M58383 42582
L58383 42150
" />
<path d="M58383 42150
L58383 42116
" />
<path d="M60750 42250
L61000 42000
" />
<path d="M61000 42000
L61500 41500
" />
<path d="M60750 42250
L60750 42468
" />
<path d="M61500 41250
L61500 41500
" />
<path d="M58127 42582
L58127 41622
" />
<path d="M58127 41622
L58500 41250
" />
<path d="M62000 41750
L62250 41500
" />
<path d="M61750 40500
L62000 40750
" />
<path d="M60000 40500
L61750 40500
" />
<path d="M59500 41000
L60000 40500
" />
<path d="M62000 41750
L61500 42250
" />
<path d="M62250 41000
L62000 40750
" />
<path d="M62250 41500
L62250 41000
" />
<path d="M61500 42468
L61500 42250
" />
<path d="M59500 41250
L59500 41000
" />
<path d="M52000 42750
L55500 42750
" />
<path d="M55500 42750
L56000 43250
" />
<path d="M56592 43150
L56592 43157
" />
<path d="M56592 43157
L56400 43350
" />
<path d="M56100 43350
L56000 43250
" />
<path d="M56000 43250
L55900 43150
" />
<path d="M56400 43350
L56100 43350
" />
<path d="M56592 43150
L56592 42582
" />
<path d="M53000 42250
L53250 42500
" />
<path d="M52500 42250
L53000 42250
" />
<path d="M51213 42537
L51500 42250
" />
<path d="M51500 42250
L52500 42250
" />
<path d="M56336 42086
L56336 42582
" />
<path d="M56250 42000
L56336 42086
" />
<path d="M55750 42000
L56250 42000
" />
<path d="M55500 42250
L55750 42000
" />
<path d="M55250 42500
L55500 42250
" />
<path d="M53250 42500
L55250 42500
" />
<path d="M51213 42750
L51213 42537
" />
</g>
<g style="fill:#000000; fill-opacity:0.0; 
stroke:#000000; stroke-width:2000; stroke-opacity:1; 
stroke-linecap:round; stroke-linejoin:round;">
<path d="M50150 40888
L49638 40888
" />
<path d="M49638 40888
L49500 40750
" />
<path d="M50150 45612
L49638 45612
" />
<path d="M49638 45612
L49500 45750
" />
</g>
<g style="fill:#000000; fill-opacity:0.0; 
stroke:#000000; stroke-width:1000; stroke-opacity:1; 
stroke-linecap:round; stroke-linejoin:round;">
<path d="M50150 45612
L50112 45612
" />
<path d="M50112 45612
L49500 45000
" />
<path d="M49500 45000
L49500 41538
" />
<path d="M49500 41538
L50150 40888
" />
</g>
<g style="fill:#000000; fill-opacity:0.0; 
stroke:#000000; stroke-width:250; stroke-opacity:1; 
stroke-linecap:round; stroke-linejoin:round;">
<path d="M61500 43531
L61718 43531
" />
<path d="M61718 43531
L62500 42750
" />
<path d="M62500 42750
L62750 42750
" />
<path d="M55750 44250
L55500 44250
" />
<path d="M59250 44250
L59968 43531
" />
<path d="M60750 43531
L59968 43531
" />
<path d="M54750 43500
L55250 44000
" />
<path d="M54750 42000
L54750 41000
" />
<path d="M55750 44250
L59000 44250
" />
<path d="M59000 44250
L59250 44250
" />
<path d="M55500 44250
L55250 44000
" />
<path d="M61500 43531
L60750 43531
" />
</g>
<g style="fill:#000000; fill-opacity:0.0; 
stroke:#000000; stroke-width:100; stroke-opacity:1; 
stroke-linecap:round; stroke-linejoin:round;">
<path d="M58895 45417
L58895 44250
" />
<path d="M62750 43750
L62500 43750
" />
<path d="M62500 43750
L61500 44750
" />
<path d="M59663 45417
L60832 45417
" />
<path d="M61500 44750
L61000 45250
" />
<path d="M60832 45417
L61000 45250
" />
<path d="M62750 44750
L62000 44750
" />
<path d="M62000 44750
L60500 46250
" />
<path d="M58639 45417
L58639 46139
" />
<path d="M60500 46250
L58750 46250
" />
<path d="M58639 46139
L58750 46250
" />
</g>
<g style="fill:#000000; fill-opacity:1.0; 
stroke:#000000; stroke-width:150; stroke-opacity:1; 
stroke-linecap:round; stroke-linejoin:round;">
<polyline style="fill-rule:evenodd;"
points="63580,46580
60782,46580
60811,46561
61501,45870
62086,45870
62112,45962
62237,46167
62431,46308
62665,46365
62725,46365
62725,45775
62775,45775
62775,46365
62835,46365
63068,46308
63262,46167
63387,45962
63413,45870
63355,45775
62775,45775
62725,45775
62144,45775
62086,45870
61501,45870
62137,45234
62158,45266
62247,45325
62237,45332
62112,45537
62086,45629
62144,45725
62725,45725
62725,45717
62775,45717
62775,45725
63355,45725
63413,45629
63387,45537
63262,45332
63252,45325
63341,45266
63499,45029
63555,44750
63499,44470
63352,44250
63499,44029
63555,43750
63499,43470
63431,43368
63516,43244
63547,43090
63547,42410
63520,42265
63435,42132
63304,42043
63150,42012
62359,42012
62561,41811
62656,41668
62689,41500
62689,41499
62689,41000
62689,41000
62656,40831
62561,40688
62061,40188
61918,40093
61750,40060
60000,40060
59831,40093
59688,40188
59411,40466
59344,40466
59138,40551
59048,40490
58893,40458
58106,40458
57961,40485
57898,40526
57880,40483
57803,40406
57702,40364
57593,40364
57525,40433
57525,40850
57532,40850
57532,40900
57525,40900
57525,40908
57475,40908
57475,40900
57146,40900
57125,40922
57103,40900
56775,40900
56775,40908
56725,40908
56725,40900
56717,40900
56717,40850
56725,40850
56725,40433
56775,40433
56775,40850
57103,40850
57125,40829
57146,40850
57475,40850
57475,40433
57406,40364
57297,40364
57196,40406
57125,40478
57053,40406
56952,40364
56843,40364
56775,40433
56725,40433
56656,40364
56547,40364
56446,40406
56369,40483
56349,40532
56266,40408
56029,40250
55750,40194
55470,40250
55250,40397
55029,40250
54750,40194
54470,40250
54368,40318
54244,40233
54090,40202
53410,40202
53265,40229
53132,40314
53043,40445
53012,40600
53012,41400
53039,41544
53122,41673
53060,41822
53000,41810
51500,41810
51331,41843
51188,41938
51061,42065
50822,42164
50628,42358
50523,42612
50522,42886
50627,43140
50821,43334
50868,43353
50865,43366
51213,43714
51218,43709
51253,43744
51248,43750
51253,43755
51218,43790
51213,43785
50865,44133
50888,44238
51100,44325
51329,44324
51519,44245
51608,44334
51729,44384
52297,44952
52505,45091
52750,45139
54120,45139
54148,45168
54047,45186
53968,45382
53969,45593
54047,45781
54148,45800
54464,45484
54459,45478
54494,45443
54500,45448
54505,45443
54540,45478
54535,45484
54851,45800
54952,45781
55031,45586
55030,45374
54952,45186
54851,45168
54891,45127
54900,45126
55033,45040
55122,44910
55153,44755
55153,44625
55302,44725
55335,44732
55500,44764
55500,44764
56006,44764
55970,44787
55881,44918
55850,45072
55850,45761
55877,45906
55963,46039
56093,46128
56248,46159
56425,46159
56466,46151
56503,46159
56681,46159
56721,46151
56759,46159
56937,46159
56977,46151
57015,46159
57192,46159
57233,46151
57271,46159
57448,46159
57489,46151
57527,46159
57704,46159
57745,46151
57783,46159
57960,46159
58105,46132
58126,46118
58140,46128
58199,46140
58233,46308
58233,46308
58328,46450
58438,46561
58467,46580
51142,46580
51434,46143
51495,45835
54183,45835
54202,45936
54398,46015
54609,46014
54797,45936
54816,45835
54500,45519
54183,45835
51495,45835
51539,45612
51434,45080
51132,44629
50681,44327
50389,44269
50389,43637
50637,43637
50638,43866
50724,44074
50829,44097
51177,43750
50829,43402
50724,43425
50637,43637
50389,43637
50389,42230
50681,42172
51132,41870
51434,41419
51539,40888
51434,40356
51142,39919
63580,39919
63580,46580
" /> 
</g>
<g style="fill:#FFFFFF; fill-opacity:1.0; 
stroke:#FFFFFF; stroke-width:150; stroke-opacity:1; 
stroke-linecap:round; stroke-linejoin:round;">
</g>
<g style="fill:#FFFFFF; fill-opacity:1.0; 
stroke:#FFFFFF; stroke-width:0; stroke-opacity:1; 
stroke-linecap:round; stroke-linejoin:round;">
<circle cx="53750" cy="43250" r="68.8976" /> 
</g>
<g style="fill:#FFFFFF; fill-opacity:1.0; 
stroke:#FFFFFF; stroke-width:39.3701; stroke-opacity:1; 
stroke-linecap:round; stroke-linejoin:round;">
</g>
<g style="fill:#FFFFFF; fill-opacity:1.0; 
stroke:#FFFFFF; stroke-width:0; stroke-opacity:1; 
stroke-linecap:round; stroke-linejoin:round;">
<circle cx="53750" cy="42000" r="68.8976" /> 
</g>
<g style="fill:#FFFFFF; fill-opacity:1.0; 
stroke:#FFFFFF; stroke-width:39.3701; stroke-opacity:1; 
stroke-linecap:round; stroke-linejoin:round;">
</g>
<g style="fill:#FFFFFF; fill-opacity:1.0; 
stroke:#FFFFFF; stroke-width:0; stroke-opacity:1; 
stroke-linecap:round; stroke-linejoin:round;">
<circle cx="54750" cy="43500" r="68.8976" /> 
</g>
<g style="fill:#FFFFFF; fill-opacity:1.0; 
stroke:#FFFFFF; stroke-width:39.3701; stroke-opacity:1; 
stroke-linecap:round; stroke-linejoin:round;">
</g>
<g style="fill:#FFFFFF; fill-opacity:1.0; 
stroke:#FFFFFF; stroke-width:0; stroke-opacity:1; 
stroke-linecap:round; stroke-linejoin:round;">
<circle cx="54750" cy="42000" r="68.8976" /> 
</g>
<g style="fill:#FFFFFF; fill-opacity:1.0; 
stroke:#FFFFFF; stroke-width:39.3701; stroke-opacity:1; 
stroke-linecap:round; stroke-linejoin:round;">
</g>
<g style="fill:#FFFFFF; fill-opacity:1.0; 
stroke:#FFFFFF; stroke-width:0; stroke-opacity:1; 
stroke-linecap:round; stroke-linejoin:round;">
<circle cx="54500" cy="45484.3" r="68.8976" /> 
</g>
<g style="fill:#FFFFFF; fill-opacity:1.0; 
stroke:#FFFFFF; stroke-width:39.3701; stroke-opacity:1; 
stroke-linecap:round; stroke-linejoin:round;">
</g>
<g style="fill:#FFFFFF; fill-opacity:1.0; 
stroke:#FFFFFF; stroke-width:0; stroke-opacity:1; 
stroke-linecap:round; stroke-linejoin:round;">
<circle cx="54500" cy="44500" r="68.8976" /> 
</g>
<g style="fill:#FFFFFF; fill-opacity:1.0; 
stroke:#FFFFFF; stroke-width:39.3701; stroke-opacity:1; 
stroke-linecap:round; stroke-linejoin:round;">
</g>
<g style="fill:#FFFFFF; fill-opacity:1.0; 
stroke:#FFFFFF; stroke-width:0; stroke-opacity:1; 
stroke-linecap:round; stroke-linejoin:round;">
<circle cx="60500" cy="41250" r="68.8976" /> 
</g>
<g style="fill:#FFFFFF; fill-opacity:1.0; 
stroke:#FFFFFF; stroke-width:39.3701; stroke-opacity:1; 
stroke-linecap:round; stroke-linejoin:round;">
</g>
<g style="fill:#FFFFFF; fill-opacity:1.0; 
stroke:#FFFFFF; stroke-width:0; stroke-opacity:1; 
stroke-linecap:round; stroke-linejoin:round;">
<circle cx="61500" cy="41250" r="68.8976" /> 
</g>
<g style="fill:#FFFFFF; fill-opacity:1.0; 
stroke:#FFFFFF; stroke-width:39.3701; stroke-opacity:1; 
stroke-linecap:round; stroke-linejoin:round;">
</g>
<g style="fill:#FFFFFF; fill-opacity:1.0; 
stroke:#FFFFFF; stroke-width:0; stroke-opacity:1; 
stroke-linecap:round; stroke-linejoin:round;">
<circle cx="58500" cy="41250" r="68.8976" /> 
</g>
<g style="fill:#FFFFFF; fill-opacity:1.0; 
stroke:#FFFFFF; stroke-width:39.3701; stroke-opacity:1; 
stroke-linecap:round; stroke-linejoin:round;">
</g>
<g style="fill:#FFFFFF; fill-opacity:1.0; 
stroke:#FFFFFF; stroke-width:0; stroke-opacity:1; 
stroke-linecap:round; stroke-linejoin:round;">
<circle cx="59500" cy="41250" r="68.8976" /> 
</g>
<g style="fill:#FFFFFF; fill-opacity:1.0; 
stroke:#FFFFFF; stroke-width:39.3701; stroke-opacity:1; 
stroke-linecap:round; stroke-linejoin:round;">
</g>
<g style="fill:#FFFFFF; fill-opacity:1.0; 
stroke:#FFFFFF; stroke-width:0; stroke-opacity:1; 
stroke-linecap:round; stroke-linejoin:round;">
<circle cx="52000" cy="42750" r="68.8976" /> 
</g>
<g style="fill:#FFFFFF; fill-opacity:1.0; 
stroke:#FFFFFF; stroke-width:39.3701; stroke-opacity:1; 
stroke-linecap:round; stroke-linejoin:round;">
</g>
<g style="fill:#FFFFFF; fill-opacity:1.0; 
stroke:#FFFFFF; stroke-width:0; stroke-opacity:1; 
stroke-linecap:round; stroke-linejoin:round;">
<circle cx="52000" cy="43750" r="68.8976" /> 
</g>
<g style="fill:#FFFFFF; fill-opacity:1.0; 
stroke:#FFFFFF; stroke-width:39.3701; stroke-opacity:1; 
stroke-linecap:round; stroke-linejoin:round;">
</g>
<g style="fill:#FFFFFF; fill-opacity:1.0; 
stroke:#FFFFFF; stroke-width:0; stroke-opacity:1; 
stroke-linecap:round; stroke-linejoin:round;">
<circle cx="51213" cy="43750" r="68.8976" /> 
</g>
<g style="fill:#FFFFFF; fill-opacity:1.0; 
stroke:#FFFFFF; stroke-width:39.3701; stroke-opacity:1; 
stroke-linecap:round; stroke-linejoin:round;">
</g>
<g style="fill:#FFFFFF; fill-opacity:1.0; 
stroke:#FFFFFF; stroke-width:0; stroke-opacity:1; 
stroke-linecap:round; stroke-linejoin:round;">
<circle cx="51213" cy="42750" r="68.8976" /> 
</g>
<g style="fill:#FFFFFF; fill-opacity:1.0; 
stroke:#FFFFFF; stroke-width:39.3701; stroke-opacity:1; 
stroke-linecap:round; stroke-linejoin:round;">
</g>
<g style="fill:#FFFFFF; fill-opacity:1.0; 
stroke:#FFFFFF; stroke-width:0; stroke-opacity:1; 
stroke-linecap:round; stroke-linejoin:round;">
<circle cx="50150" cy="40888" r="68.8976" /> 
</g>
<g style="fill:#FFFFFF; fill-opacity:1.0; 
stroke:#FFFFFF; stroke-width:39.3701; stroke-opacity:1; 
stroke-linecap:round; stroke-linejoin:round;">
</g>
<g style="fill:#FFFFFF; fill-opacity:1.0; 
stroke:#FFFFFF; stroke-width:0; stroke-opacity:1; 
stroke-linecap:round; stroke-linejoin:round;">
<circle cx="50150" cy="45612" r="68.8976" /> 
</g>
<g style="fill:#FFFFFF; fill-opacity:1.0; 
stroke:#FFFFFF; stroke-width:39.3701; stroke-opacity:1; 
stroke-linecap:round; stroke-linejoin:round;">
</g>
<g style="fill:#FFFFFF; fill-opacity:1.0; 
stroke:#FFFFFF; stroke-width:0; stroke-opacity:1; 
stroke-linecap:round; stroke-linejoin:round;">
<circle cx="53750" cy="41000" r="68.8976" /> 
</g>
<g style="fill:#FFFFFF; fill-opacity:1.0; 
stroke:#FFFFFF; stroke-width:39.3701; stroke-opacity:1; 
stroke-linecap:round; stroke-linejoin:round;">
</g>
<g style="fill:#FFFFFF; fill-opacity:1.0; 
stroke:#FFFFFF; stroke-width:0; stroke-opacity:1; 
stroke-linecap:round; stroke-linejoin:round;">
<circle cx="54750" cy="41000" r="68.8976" /> 
</g>
<g style="fill:#FFFFFF; fill-opacity:1.0; 
stroke:#FFFFFF; stroke-width:39.3701; stroke-opacity:1; 
stroke-linecap:round; stroke-linejoin:round;">
</g>
<g style="fill:#FFFFFF; fill-opacity:1.0; 
stroke:#FFFFFF; stroke-width:0; stroke-opacity:1; 
stroke-linecap:round; stroke-linejoin:round;">
<circle cx="55750" cy="41000" r="68.8976" /> 
</g>
<g style="fill:#FFFFFF; fill-opacity:1.0; 
stroke:#FFFFFF; stroke-width:39.3701; stroke-opacity:1; 
stroke-linecap:round; stroke-linejoin:round;">
</g>
<g style="fill:#FFFFFF; fill-opacity:1.0; 
stroke:#FFFFFF; stroke-width:0; stroke-opacity:1; 
stroke-linecap:round; stroke-linejoin:round;">
<circle cx="62750" cy="42750" r="68.8976" /> 
</g>
<g style="fill:#FFFFFF; fill-opacity:1.0; 
stroke:#FFFFFF; stroke-width:39.3701; stroke-opacity:1; 
stroke-linecap:round; stroke-linejoin:round;">
</g>
<g style="fill:#FFFFFF; fill-opacity:1.0; 
stroke:#FFFFFF; stroke-width:0; stroke-opacity:1; 
stroke-linecap:round; stroke-linejoin:round;">
<circle cx="62750" cy="43750" r="68.8976" /> 
</g>
<g style="fill:#FFFFFF; fill-opacity:1.0; 
stroke:#FFFFFF; stroke-width:39.3701; stroke-opacity:1; 
stroke-linecap:round; stroke-linejoin:round;">
</g>
<g style="fill:#FFFFFF; fill-opacity:1.0; 
stroke:#FFFFFF; stroke-width:0; stroke-opacity:1; 
stroke-linecap:round; stroke-linejoin:round;">
<circle cx="62750" cy="44750" r="68.8976" /> 
</g>
<g style="fill:#FFFFFF; fill-opacity:1.0; 
stroke:#FFFFFF; stroke-width:39.3701; stroke-opacity:1; 
stroke-linecap:round; stroke-linejoin:round;">
</g>
<g style="fill:#FFFFFF; fill-opacity:1.0; 
stroke:#FFFFFF; stroke-width:0; stroke-opacity:1; 
stroke-linecap:round; stroke-linejoin:round;">
<circle cx="62750" cy="45750" r="68.8976" /> 
</g>
<g style="fill:#FFFFFF; fill-opacity:1.0; 
stroke:#FFFFFF; stroke-width:39.3701; stroke-opacity:1; 
stroke-linecap:round; stroke-linejoin:round;">
</g>
<g style="fill:#000000; fill-opacity:1.0; 
stroke:#000000; stroke-width:39.3701; stroke-opacity:1; 
stroke-linecap:round; stroke-linejoin:round;">
</g> 
</svg>
