M48
;DRILL file {KiCad 4.0.7-e2-6376~58~ubuntu17.04.1} date Sun Oct 29 20:56:22 2017
;FORMAT={-:-/ absolute / inch / decimal}
FMAT,2
INCH,TZ
T1C0.118
T2C0.126
%
G90
G05
M72
T1
X2.777Y-1.0827
X2.777Y-4.4291
X3.227Y-1.0827
X3.227Y-4.4291
X3.4167Y-1.0827
X3.4167Y-4.4291
X3.8667Y-1.0827
X3.8667Y-4.4291
X4.4291Y-1.2514
X4.4291Y-1.7014
X4.4291Y-1.8911
X4.4291Y-2.3411
X4.4291Y-2.5309
X4.4291Y-2.9809
X4.4291Y-3.1707
X4.4291Y-3.6207
X4.4291Y-3.8104
X4.4291Y-4.2604
T2
X0.9843Y-0.9843
X0.9843Y-4.5276
X4.5276Y-0.9843
X4.5276Y-4.5276
T0
M30
