G04 #@! TF.FileFunction,Soldermask,Bot*
%FSLAX46Y46*%
G04 Gerber Fmt 4.6, Leading zero omitted, Abs format (unit mm)*
G04 Created by KiCad (PCBNEW 4.0.7-e2-6376~58~ubuntu17.04.1) date Sun Oct 29 20:56:10 2017*
%MOMM*%
%LPD*%
G01*
G04 APERTURE LIST*
%ADD10C,0.100000*%
%ADD11R,2.432000X2.127200*%
%ADD12O,2.432000X2.127200*%
%ADD13R,2.127200X2.432000*%
%ADD14O,2.127200X2.432000*%
%ADD15C,1.700000*%
%ADD16R,1.700000X1.700000*%
%ADD17O,6.400000X3.400000*%
%ADD18C,3.650000*%
%ADD19C,1.900000*%
%ADD20R,2.100000X2.100000*%
%ADD21O,2.100000X2.100000*%
%ADD22C,3.600000*%
G04 APERTURE END LIST*
D10*
D11*
X25000000Y-102500000D03*
D12*
X25000000Y-99960000D03*
X25000000Y-97420000D03*
X25000000Y-94880000D03*
X25000000Y-92340000D03*
X25000000Y-89800000D03*
X25000000Y-87260000D03*
X25000000Y-84720000D03*
D13*
X56250000Y-115000000D03*
D14*
X53710000Y-115000000D03*
X51170000Y-115000000D03*
X48630000Y-115000000D03*
X46090000Y-115000000D03*
X43550000Y-115000000D03*
X41010000Y-115000000D03*
X38470000Y-115000000D03*
D13*
X37500000Y-25000000D03*
D14*
X40040000Y-25000000D03*
X42580000Y-25000000D03*
X45120000Y-25000000D03*
X47660000Y-25000000D03*
X50200000Y-25000000D03*
X52740000Y-25000000D03*
X55280000Y-25000000D03*
D11*
X25000000Y-75000000D03*
D12*
X25000000Y-72460000D03*
X25000000Y-69920000D03*
X25000000Y-67380000D03*
D11*
X25000000Y-55000000D03*
D12*
X25000000Y-52460000D03*
X25000000Y-49920000D03*
X25000000Y-47380000D03*
X25000000Y-44840000D03*
X25000000Y-42300000D03*
X25000000Y-39760000D03*
X25000000Y-37220000D03*
D15*
X81500000Y-91000000D03*
D16*
X79000000Y-91000000D03*
D15*
X81500000Y-49000000D03*
D16*
X79000000Y-49000000D03*
D17*
X79000000Y-67460000D03*
X79000000Y-62380000D03*
X79000000Y-72540000D03*
X79000000Y-77620000D03*
D15*
X66000000Y-72500000D03*
D16*
X66000000Y-70000000D03*
D18*
X112500000Y-96785000D03*
X112500000Y-108215000D03*
D19*
X103610000Y-98055000D03*
X106150000Y-99325000D03*
X103610000Y-100595000D03*
X106150000Y-101865000D03*
X103610000Y-103135000D03*
X106150000Y-104405000D03*
X103610000Y-105675000D03*
X106150000Y-106945000D03*
D18*
X98215000Y-112500000D03*
X86785000Y-112500000D03*
D19*
X96945000Y-103610000D03*
X95675000Y-106150000D03*
X94405000Y-103610000D03*
X93135000Y-106150000D03*
X91865000Y-103610000D03*
X90595000Y-106150000D03*
X89325000Y-103610000D03*
X88055000Y-106150000D03*
D18*
X112500000Y-64285000D03*
X112500000Y-75715000D03*
D19*
X103610000Y-65555000D03*
X106150000Y-66825000D03*
X103610000Y-68095000D03*
X106150000Y-69365000D03*
X103610000Y-70635000D03*
X106150000Y-71905000D03*
X103610000Y-73175000D03*
X106150000Y-74445000D03*
D18*
X112500000Y-80535000D03*
X112500000Y-91965000D03*
D19*
X103610000Y-81805000D03*
X106150000Y-83075000D03*
X103610000Y-84345000D03*
X106150000Y-85615000D03*
X103610000Y-86885000D03*
X106150000Y-88155000D03*
X103610000Y-89425000D03*
X106150000Y-90695000D03*
D18*
X81965000Y-112500000D03*
X70535000Y-112500000D03*
D19*
X80695000Y-103610000D03*
X79425000Y-106150000D03*
X78155000Y-103610000D03*
X76885000Y-106150000D03*
X75615000Y-103610000D03*
X74345000Y-106150000D03*
X73075000Y-103610000D03*
X71805000Y-106150000D03*
D18*
X112500000Y-48035000D03*
X112500000Y-59465000D03*
D19*
X103610000Y-49305000D03*
X106150000Y-50575000D03*
X103610000Y-51845000D03*
X106150000Y-53115000D03*
X103610000Y-54385000D03*
X106150000Y-55655000D03*
X103610000Y-56925000D03*
X106150000Y-58195000D03*
D18*
X112500000Y-31785000D03*
X112500000Y-43215000D03*
D19*
X103610000Y-33055000D03*
X106150000Y-34325000D03*
X103610000Y-35595000D03*
X106150000Y-36865000D03*
X103610000Y-38135000D03*
X106150000Y-39405000D03*
X103610000Y-40675000D03*
X106150000Y-41945000D03*
D18*
X70535000Y-27500000D03*
X81965000Y-27500000D03*
D19*
X71805000Y-36390000D03*
X73075000Y-33850000D03*
X74345000Y-36390000D03*
X75615000Y-33850000D03*
X76885000Y-36390000D03*
X78155000Y-33850000D03*
X79425000Y-36390000D03*
X80695000Y-33850000D03*
D18*
X86785000Y-27500000D03*
X98215000Y-27500000D03*
D19*
X88055000Y-36390000D03*
X89325000Y-33850000D03*
X90595000Y-36390000D03*
X91865000Y-33850000D03*
X93135000Y-36390000D03*
X94405000Y-33850000D03*
X95675000Y-36390000D03*
X96945000Y-33850000D03*
D20*
X36000000Y-72000000D03*
D21*
X36000000Y-69460000D03*
X38540000Y-72000000D03*
X38540000Y-69460000D03*
X41080000Y-72000000D03*
X41080000Y-69460000D03*
D22*
X115000000Y-25000000D03*
X25000000Y-25000000D03*
X25000000Y-115000000D03*
X115000000Y-115000000D03*
M02*
