M48
;DRILL file {KiCad 4.0.7-e2-6376~58~ubuntu17.04.1} date Sun Oct 29 20:56:22 2017
;FORMAT={-:-/ absolute / inch / decimal}
FMAT,2
INCH,TZ
T1C0.016
T2C0.024
T3C0.031
T4C0.039
T5C0.040
T6C0.063
%
G90
G05
M72
T1
X1.7717Y-2.7953
X1.9291Y-2.5591
X2.0079Y-1.2205
X2.0079Y-1.8898
X2.0079Y-2.5197
X2.0079Y-3.5433
X2.0079Y-4.252
X2.0472Y-1.2992
X2.0472Y-3.622
X2.0866Y-2.8346
X2.126Y-3.5827
X2.1654Y-1.2992
X2.1654Y-2.4803
X2.1654Y-3.6614
X2.2441Y-1.2205
X2.2441Y-4.252
X2.3622Y-1.4173
X2.3622Y-2.9134
X2.3622Y-3.7402
X2.4409Y-1.6929
X2.4409Y-2.7559
X2.4409Y-4.0551
X2.874Y-3.6614
X2.9921Y-3.6614
X3.2283Y-1.6535
X3.2283Y-3.7402
X3.2677Y-1.6535
X3.2677Y-1.7717
X3.2677Y-1.8504
X3.3071Y-3.6614
X3.5039Y-3.8583
X3.5433Y-3.8583
X3.5827Y-1.8504
X3.5827Y-3.7402
X3.6614Y-1.7717
X3.6614Y-1.8504
X3.6614Y-2.0472
X3.6614Y-2.6772
X3.6614Y-3.3071
X3.6614Y-3.6614
X3.7402Y-1.6535
X3.7402Y-1.8504
X3.7402Y-2.126
X3.7402Y-2.7559
X3.7402Y-3.4252
X3.7402Y-3.7402
X3.7795Y-1.6535
X3.8189Y-3.8583
X3.8583Y-1.8504
X3.8583Y-1.8898
X3.8583Y-2.2441
X3.8583Y-2.2835
X3.8583Y-2.874
X3.8583Y-2.9134
X3.8583Y-3.5039
X3.8583Y-3.5433
X3.8583Y-3.8583
T2
X2.827Y-1.4327
X2.827Y-4.1791
X2.877Y-1.3327
X2.877Y-4.0791
X2.927Y-1.4327
X2.927Y-4.1791
X2.977Y-1.3327
X2.977Y-4.0791
X3.027Y-1.4327
X3.027Y-4.1791
X3.077Y-1.3327
X3.077Y-4.0791
X3.127Y-1.4327
X3.127Y-4.1791
X3.177Y-1.3327
X3.177Y-4.0791
X3.4667Y-1.4327
X3.4667Y-4.1791
X3.5167Y-1.3327
X3.5167Y-4.0791
X3.5667Y-1.4327
X3.5667Y-4.1791
X3.6167Y-1.3327
X3.6167Y-4.0791
X3.6667Y-1.4327
X3.6667Y-4.1791
X3.7167Y-1.3327
X3.7167Y-4.0791
X3.7667Y-1.4327
X3.7667Y-4.1791
X3.8167Y-1.3327
X3.8167Y-4.0791
X4.0791Y-1.3014
X4.0791Y-1.4014
X4.0791Y-1.5014
X4.0791Y-1.6014
X4.0791Y-1.9411
X4.0791Y-2.0411
X4.0791Y-2.1411
X4.0791Y-2.2411
X4.0791Y-2.5809
X4.0791Y-2.6809
X4.0791Y-2.7809
X4.0791Y-2.8809
X4.0791Y-3.2207
X4.0791Y-3.3207
X4.0791Y-3.4207
X4.0791Y-3.5207
X4.0791Y-3.8604
X4.0791Y-3.9604
X4.0791Y-4.0604
X4.0791Y-4.1604
X4.1791Y-1.3514
X4.1791Y-1.4514
X4.1791Y-1.5514
X4.1791Y-1.6514
X4.1791Y-1.9911
X4.1791Y-2.0911
X4.1791Y-2.1911
X4.1791Y-2.2911
X4.1791Y-2.6309
X4.1791Y-2.7309
X4.1791Y-2.8309
X4.1791Y-2.9309
X4.1791Y-3.2707
X4.1791Y-3.3707
X4.1791Y-3.4707
X4.1791Y-3.5707
X4.1791Y-3.9104
X4.1791Y-4.0104
X4.1791Y-4.1104
X4.1791Y-4.2104
T3
X2.5984Y-2.7559
X2.5984Y-2.8543
X3.1102Y-1.9291
X3.1102Y-3.5827
X3.2087Y-1.9291
X3.2087Y-3.5827
T4
X1.4173Y-2.7346
X1.4173Y-2.8346
X1.5173Y-2.7346
X1.5173Y-2.8346
X1.6173Y-2.7346
X1.6173Y-2.8346
T5
X0.9843Y-1.4654
X0.9843Y-1.5654
X0.9843Y-1.6654
X0.9843Y-1.7654
X0.9843Y-1.8654
X0.9843Y-1.9654
X0.9843Y-2.0654
X0.9843Y-2.1654
X0.9843Y-2.6528
X0.9843Y-2.7528
X0.9843Y-2.8528
X0.9843Y-2.9528
X0.9843Y-3.3354
X0.9843Y-3.4354
X0.9843Y-3.5354
X0.9843Y-3.6354
X0.9843Y-3.7354
X0.9843Y-3.8354
X0.9843Y-3.9354
X0.9843Y-4.0354
X1.4764Y-0.9843
X1.5146Y-4.5276
X1.5764Y-0.9843
X1.6146Y-4.5276
X1.6764Y-0.9843
X1.7146Y-4.5276
X1.7764Y-0.9843
X1.8146Y-4.5276
X1.8764Y-0.9843
X1.9146Y-4.5276
X1.9764Y-0.9843
X2.0146Y-4.5276
X2.0764Y-0.9843
X2.1146Y-4.5276
X2.1764Y-0.9843
X2.2146Y-4.5276
T6
X3.1102Y-2.4559
X3.1102Y-2.6559
X3.1102Y-2.8559
X3.1102Y-3.0559
T0
M30
