G04 #@! TF.FileFunction,Copper,L1,Top,Signal*
%FSLAX46Y46*%
G04 Gerber Fmt 4.6, Leading zero omitted, Abs format (unit mm)*
G04 Created by KiCad (PCBNEW 4.0.7-e2-6376~58~ubuntu17.04.1) date Sun Oct 29 20:56:10 2017*
%MOMM*%
%LPD*%
G01*
G04 APERTURE LIST*
%ADD10C,0.100000*%
%ADD11R,0.750000X1.200000*%
%ADD12R,0.508000X1.143000*%
%ADD13R,0.600000X2.000000*%
%ADD14R,2.032000X1.727200*%
%ADD15O,2.032000X1.727200*%
%ADD16R,1.727200X2.032000*%
%ADD17O,1.727200X2.032000*%
%ADD18R,1.300000X1.500000*%
%ADD19C,1.300000*%
%ADD20R,1.300000X1.300000*%
%ADD21O,6.000000X3.000000*%
%ADD22C,3.250000*%
%ADD23C,1.500000*%
%ADD24R,1.700000X1.700000*%
%ADD25O,1.700000X1.700000*%
%ADD26C,1.000000*%
%ADD27C,0.635000*%
%ADD28C,1.270000*%
%ADD29C,2.540000*%
%ADD30C,0.381000*%
G04 APERTURE END LIST*
D10*
D11*
X57000000Y-102950000D03*
X57000000Y-101050000D03*
X60000000Y-70050000D03*
X60000000Y-71950000D03*
X57000000Y-42950000D03*
X57000000Y-41050000D03*
D12*
X56810000Y-67698000D03*
X55540000Y-67698000D03*
X54270000Y-67698000D03*
X53000000Y-67698000D03*
X51730000Y-67698000D03*
X50460000Y-67698000D03*
X49190000Y-67698000D03*
X49190000Y-74048000D03*
X50460000Y-74048000D03*
X53000000Y-74048000D03*
X54270000Y-74048000D03*
X55540000Y-74048000D03*
X56810000Y-74048000D03*
X51730000Y-74048000D03*
D13*
X54485000Y-95300000D03*
X53215000Y-95300000D03*
X51945000Y-95300000D03*
X50675000Y-95300000D03*
X49405000Y-95300000D03*
X48135000Y-95300000D03*
X46865000Y-95300000D03*
X45595000Y-95300000D03*
X44325000Y-95300000D03*
X43055000Y-95300000D03*
X41785000Y-95300000D03*
X40515000Y-95300000D03*
X40515000Y-104700000D03*
X41785000Y-104700000D03*
X43055000Y-104700000D03*
X44325000Y-104700000D03*
X45595000Y-104700000D03*
X46865000Y-104700000D03*
X48135000Y-104700000D03*
X49405000Y-104700000D03*
X50675000Y-104700000D03*
X51945000Y-104700000D03*
X53215000Y-104700000D03*
X54485000Y-104700000D03*
X54485000Y-35300000D03*
X53215000Y-35300000D03*
X51945000Y-35300000D03*
X50675000Y-35300000D03*
X49405000Y-35300000D03*
X48135000Y-35300000D03*
X46865000Y-35300000D03*
X45595000Y-35300000D03*
X44325000Y-35300000D03*
X43055000Y-35300000D03*
X41785000Y-35300000D03*
X40515000Y-35300000D03*
X40515000Y-44700000D03*
X41785000Y-44700000D03*
X43055000Y-44700000D03*
X44325000Y-44700000D03*
X45595000Y-44700000D03*
X46865000Y-44700000D03*
X48135000Y-44700000D03*
X49405000Y-44700000D03*
X50675000Y-44700000D03*
X51945000Y-44700000D03*
X53215000Y-44700000D03*
X54485000Y-44700000D03*
D14*
X25000000Y-102500000D03*
D15*
X25000000Y-99960000D03*
X25000000Y-97420000D03*
X25000000Y-94880000D03*
X25000000Y-92340000D03*
X25000000Y-89800000D03*
X25000000Y-87260000D03*
X25000000Y-84720000D03*
D16*
X56250000Y-115000000D03*
D17*
X53710000Y-115000000D03*
X51170000Y-115000000D03*
X48630000Y-115000000D03*
X46090000Y-115000000D03*
X43550000Y-115000000D03*
X41010000Y-115000000D03*
X38470000Y-115000000D03*
D16*
X37500000Y-25000000D03*
D17*
X40040000Y-25000000D03*
X42580000Y-25000000D03*
X45120000Y-25000000D03*
X47660000Y-25000000D03*
X50200000Y-25000000D03*
X52740000Y-25000000D03*
X55280000Y-25000000D03*
D14*
X25000000Y-75000000D03*
D15*
X25000000Y-72460000D03*
X25000000Y-69920000D03*
X25000000Y-67380000D03*
D14*
X25000000Y-55000000D03*
D15*
X25000000Y-52460000D03*
X25000000Y-49920000D03*
X25000000Y-47380000D03*
X25000000Y-44840000D03*
X25000000Y-42300000D03*
X25000000Y-39760000D03*
X25000000Y-37220000D03*
D18*
X58000000Y-94650000D03*
X58000000Y-97350000D03*
X58000000Y-35650000D03*
X58000000Y-38350000D03*
D19*
X81500000Y-91000000D03*
D20*
X79000000Y-91000000D03*
D19*
X81500000Y-49000000D03*
D20*
X79000000Y-49000000D03*
D21*
X79000000Y-67460000D03*
X79000000Y-62380000D03*
X79000000Y-72540000D03*
X79000000Y-77620000D03*
D19*
X66000000Y-72500000D03*
D20*
X66000000Y-70000000D03*
D22*
X112500000Y-96785000D03*
X112500000Y-108215000D03*
D23*
X103610000Y-98055000D03*
X106150000Y-99325000D03*
X103610000Y-100595000D03*
X106150000Y-101865000D03*
X103610000Y-103135000D03*
X106150000Y-104405000D03*
X103610000Y-105675000D03*
X106150000Y-106945000D03*
D22*
X98215000Y-112500000D03*
X86785000Y-112500000D03*
D23*
X96945000Y-103610000D03*
X95675000Y-106150000D03*
X94405000Y-103610000D03*
X93135000Y-106150000D03*
X91865000Y-103610000D03*
X90595000Y-106150000D03*
X89325000Y-103610000D03*
X88055000Y-106150000D03*
D22*
X112500000Y-64285000D03*
X112500000Y-75715000D03*
D23*
X103610000Y-65555000D03*
X106150000Y-66825000D03*
X103610000Y-68095000D03*
X106150000Y-69365000D03*
X103610000Y-70635000D03*
X106150000Y-71905000D03*
X103610000Y-73175000D03*
X106150000Y-74445000D03*
D22*
X112500000Y-80535000D03*
X112500000Y-91965000D03*
D23*
X103610000Y-81805000D03*
X106150000Y-83075000D03*
X103610000Y-84345000D03*
X106150000Y-85615000D03*
X103610000Y-86885000D03*
X106150000Y-88155000D03*
X103610000Y-89425000D03*
X106150000Y-90695000D03*
D22*
X81965000Y-112500000D03*
X70535000Y-112500000D03*
D23*
X80695000Y-103610000D03*
X79425000Y-106150000D03*
X78155000Y-103610000D03*
X76885000Y-106150000D03*
X75615000Y-103610000D03*
X74345000Y-106150000D03*
X73075000Y-103610000D03*
X71805000Y-106150000D03*
D22*
X112500000Y-48035000D03*
X112500000Y-59465000D03*
D23*
X103610000Y-49305000D03*
X106150000Y-50575000D03*
X103610000Y-51845000D03*
X106150000Y-53115000D03*
X103610000Y-54385000D03*
X106150000Y-55655000D03*
X103610000Y-56925000D03*
X106150000Y-58195000D03*
D22*
X112500000Y-31785000D03*
X112500000Y-43215000D03*
D23*
X103610000Y-33055000D03*
X106150000Y-34325000D03*
X103610000Y-35595000D03*
X106150000Y-36865000D03*
X103610000Y-38135000D03*
X106150000Y-39405000D03*
X103610000Y-40675000D03*
X106150000Y-41945000D03*
D22*
X70535000Y-27500000D03*
X81965000Y-27500000D03*
D23*
X71805000Y-36390000D03*
X73075000Y-33850000D03*
X74345000Y-36390000D03*
X75615000Y-33850000D03*
X76885000Y-36390000D03*
X78155000Y-33850000D03*
X79425000Y-36390000D03*
X80695000Y-33850000D03*
D22*
X86785000Y-27500000D03*
X98215000Y-27500000D03*
D23*
X88055000Y-36390000D03*
X89325000Y-33850000D03*
X90595000Y-36390000D03*
X91865000Y-33850000D03*
X93135000Y-36390000D03*
X94405000Y-33850000D03*
X95675000Y-36390000D03*
X96945000Y-33850000D03*
D24*
X36000000Y-72000000D03*
D25*
X36000000Y-69460000D03*
X38540000Y-72000000D03*
X38540000Y-69460000D03*
X41080000Y-72000000D03*
X41080000Y-69460000D03*
D26*
X62000000Y-43000000D03*
X62000000Y-103000000D03*
X98000000Y-90000000D03*
X98000000Y-89000000D03*
X62000000Y-70000000D03*
X89000000Y-98000000D03*
X90000000Y-98000000D03*
X97000000Y-98000000D03*
X98000000Y-98000000D03*
X98000000Y-74000000D03*
X98000000Y-73000000D03*
X98000000Y-58000000D03*
X98000000Y-57000000D03*
X98000000Y-48000000D03*
X98000000Y-47000000D03*
X95000000Y-42000000D03*
X96000000Y-42000000D03*
X83000000Y-42000000D03*
X82000000Y-42000000D03*
X55000000Y-93000000D03*
X55000000Y-33000000D03*
X60000000Y-74000000D03*
X60000000Y-36000000D03*
X60000000Y-95000000D03*
X45000000Y-71000000D03*
X49000000Y-65000000D03*
X51000000Y-108000000D03*
X51000000Y-48000000D03*
X51000000Y-64000000D03*
X51000000Y-90000000D03*
X51000000Y-31000000D03*
X54000000Y-91000000D03*
X55000000Y-63000000D03*
X53000000Y-72000000D03*
X52000000Y-33000000D03*
X52000000Y-92000000D03*
X73000000Y-93000000D03*
X82000000Y-95000000D03*
X91000000Y-95000000D03*
X95000000Y-95000000D03*
X95000000Y-87000000D03*
X95000000Y-70000000D03*
X95000000Y-54000000D03*
X95000000Y-47000000D03*
X93000000Y-45000000D03*
X83000000Y-45000000D03*
X76000000Y-93000000D03*
X84000000Y-93000000D03*
X93000000Y-93000000D03*
X93000000Y-84000000D03*
X93000000Y-68000000D03*
X93000000Y-52000000D03*
X93000000Y-47000000D03*
X83000000Y-47000000D03*
X91000000Y-47000000D03*
X57000000Y-31000000D03*
X57000000Y-108000000D03*
D27*
X62000000Y-43000000D02*
X59000000Y-43000000D01*
X59000000Y-103000000D02*
X57050000Y-103000000D01*
X57050000Y-103000000D02*
X57000000Y-102950000D01*
X58950000Y-102950000D02*
X59000000Y-103000000D01*
X62000000Y-103000000D02*
X59000000Y-103000000D01*
D28*
X66000000Y-70000000D02*
X71000000Y-70000000D01*
X75620000Y-77620000D02*
X79000000Y-77620000D01*
X73000000Y-75000000D02*
X75620000Y-77620000D01*
X73000000Y-72000000D02*
X73000000Y-75000000D01*
X71000000Y-70000000D02*
X73000000Y-72000000D01*
X62000000Y-70000000D02*
X66000000Y-70000000D01*
D29*
X79000000Y-91000000D02*
X79000000Y-98000000D01*
D27*
X57000000Y-42950000D02*
X58950000Y-42950000D01*
X58950000Y-42950000D02*
X59000000Y-43000000D01*
X54485000Y-44700000D02*
X56300000Y-44700000D01*
X57000000Y-44000000D02*
X57000000Y-42950000D01*
X56300000Y-44700000D02*
X57000000Y-44000000D01*
X54485000Y-104700000D02*
X56300000Y-104700000D01*
X56300000Y-104700000D02*
X57000000Y-104000000D01*
X57000000Y-104000000D02*
X57000000Y-102950000D01*
X58000000Y-65000000D02*
X58000000Y-64000000D01*
X58000000Y-68000000D02*
X58000000Y-65000000D01*
X36000000Y-67000000D02*
X36000000Y-69460000D01*
X42000000Y-61000000D02*
X54000000Y-61000000D01*
X36000000Y-67000000D02*
X42000000Y-61000000D01*
X56000000Y-61000000D02*
X54000000Y-61000000D01*
X58000000Y-63000000D02*
X56000000Y-61000000D01*
X58000000Y-64000000D02*
X58000000Y-63000000D01*
D30*
X56810000Y-67698000D02*
X57698000Y-67698000D01*
X57698000Y-67698000D02*
X58000000Y-68000000D01*
D27*
X60000000Y-70050000D02*
X60000000Y-70000000D01*
X60000000Y-70000000D02*
X58000000Y-68000000D01*
X62000000Y-70000000D02*
X60050000Y-70000000D01*
X60050000Y-70000000D02*
X60000000Y-70050000D01*
D28*
X73075000Y-103610000D02*
X73075000Y-98000000D01*
X73075000Y-98000000D02*
X73000000Y-98000000D01*
D29*
X79000000Y-98000000D02*
X73000000Y-98000000D01*
D28*
X98000000Y-98000000D02*
X98078998Y-98000000D01*
D29*
X98000000Y-75000000D02*
X98000000Y-74000000D01*
X79000000Y-98000000D02*
X89000000Y-98000000D01*
X90000000Y-98000000D02*
X97000000Y-98000000D01*
X97000000Y-98000000D02*
X98078998Y-98000000D01*
X98078998Y-98000000D02*
X98000000Y-97921002D01*
X98000000Y-97921002D02*
X98000000Y-90000000D01*
X98000000Y-89000000D02*
X98000000Y-75000000D01*
D28*
X95000000Y-42000000D02*
X95078998Y-41921002D01*
X95078998Y-41921002D02*
X95000000Y-42000000D01*
X95000000Y-42000000D02*
X95000000Y-41921002D01*
X96000000Y-42000000D02*
X96000000Y-41921002D01*
X96000000Y-41921002D02*
X96000000Y-42000000D01*
X96000000Y-42000000D02*
X96000000Y-41921002D01*
X82000000Y-42000000D02*
X82000000Y-41921002D01*
X82078998Y-42000000D02*
X82000000Y-41921002D01*
X82078998Y-42000000D02*
X83000000Y-42000000D01*
X83000000Y-42000000D02*
X84000000Y-42000000D01*
D29*
X79000000Y-77620000D02*
X79000000Y-91000000D01*
X98000000Y-73000000D02*
X98000000Y-58000000D01*
X98000000Y-57000000D02*
X98000000Y-48000000D01*
X98000000Y-47000000D02*
X98000000Y-41921002D01*
X98000000Y-41921002D02*
X95000000Y-41921002D01*
X95000000Y-41921002D02*
X96000000Y-41921002D01*
X96000000Y-41921002D02*
X82000000Y-41921002D01*
D30*
X54485000Y-95300000D02*
X55700000Y-95300000D01*
X56350000Y-94650000D02*
X58000000Y-94650000D01*
X55700000Y-95300000D02*
X56350000Y-94650000D01*
D27*
X54485000Y-95300000D02*
X54485000Y-93515000D01*
X54485000Y-93515000D02*
X55000000Y-93000000D01*
D30*
X58000000Y-35650000D02*
X54835000Y-35650000D01*
X54835000Y-35650000D02*
X54485000Y-35300000D01*
D27*
X54485000Y-35300000D02*
X54485000Y-33515000D01*
X54485000Y-33515000D02*
X55000000Y-33000000D01*
X60000000Y-71950000D02*
X60000000Y-74000000D01*
X59650000Y-94650000D02*
X60000000Y-95000000D01*
X60000000Y-95000000D02*
X60000000Y-99000000D01*
X60000000Y-99000000D02*
X57950000Y-101050000D01*
X57950000Y-101050000D02*
X57000000Y-101050000D01*
X58000000Y-94650000D02*
X59650000Y-94650000D01*
X57000000Y-41050000D02*
X58950000Y-41050000D01*
X59650000Y-35650000D02*
X58000000Y-35650000D01*
X60000000Y-36000000D02*
X59650000Y-35650000D01*
X60000000Y-40000000D02*
X60000000Y-36000000D01*
X58950000Y-41050000D02*
X60000000Y-40000000D01*
X60000000Y-71950000D02*
X61950000Y-71950000D01*
D28*
X62500000Y-72500000D02*
X62000000Y-72000000D01*
X62500000Y-72500000D02*
X66000000Y-72500000D01*
D27*
X61950000Y-71950000D02*
X62000000Y-72000000D01*
X57952000Y-72948000D02*
X57952000Y-74048000D01*
D30*
X56810000Y-74048000D02*
X57952000Y-74048000D01*
D27*
X57952000Y-72948000D02*
X58950000Y-71950000D01*
X57000000Y-70000000D02*
X58950000Y-71950000D01*
X46000000Y-70000000D02*
X57000000Y-70000000D01*
X45000000Y-71000000D02*
X46000000Y-70000000D01*
X58950000Y-71950000D02*
X60000000Y-71950000D01*
X60000000Y-72000000D02*
X60000000Y-71950000D01*
D30*
X50460000Y-67698000D02*
X50460000Y-65460000D01*
X50000000Y-65000000D02*
X49000000Y-65000000D01*
X50460000Y-65460000D02*
X50000000Y-65000000D01*
X50675000Y-107675000D02*
X51000000Y-108000000D01*
X50675000Y-104700000D02*
X50675000Y-107675000D01*
X50675000Y-47675000D02*
X51000000Y-48000000D01*
X50675000Y-47675000D02*
X50675000Y-44700000D01*
X55540000Y-67698000D02*
X55540000Y-65540000D01*
X54000000Y-64000000D02*
X51000000Y-64000000D01*
X55540000Y-65540000D02*
X54000000Y-64000000D01*
X50675000Y-90325000D02*
X51000000Y-90000000D01*
X50675000Y-95300000D02*
X50675000Y-90325000D01*
X50675000Y-31325000D02*
X51000000Y-31000000D01*
X50675000Y-31325000D02*
X50675000Y-35300000D01*
X53000000Y-67698000D02*
X53000000Y-69000000D01*
X44080000Y-69000000D02*
X41080000Y-72000000D01*
X48000000Y-69000000D02*
X44080000Y-69000000D01*
X48000000Y-69000000D02*
X48000000Y-69000000D01*
X51000000Y-69000000D02*
X48000000Y-69000000D01*
X53000000Y-69000000D02*
X51000000Y-69000000D01*
X53215000Y-95300000D02*
X53215000Y-91785000D01*
X53215000Y-91785000D02*
X54000000Y-91000000D01*
X47000000Y-64000000D02*
X47000000Y-67000000D01*
X49000000Y-62000000D02*
X47000000Y-64000000D01*
X51000000Y-62000000D02*
X49000000Y-62000000D01*
X52000000Y-63000000D02*
X51000000Y-62000000D01*
X55000000Y-63000000D02*
X52000000Y-63000000D01*
X38540000Y-69460000D02*
X38540000Y-68460000D01*
X48492000Y-67000000D02*
X49190000Y-67698000D01*
X40000000Y-67000000D02*
X47000000Y-67000000D01*
X47000000Y-67000000D02*
X48492000Y-67000000D01*
X38540000Y-68460000D02*
X40000000Y-67000000D01*
X36000000Y-72000000D02*
X36000000Y-73000000D01*
X48238000Y-75000000D02*
X49190000Y-74048000D01*
X38000000Y-75000000D02*
X48238000Y-75000000D01*
X36000000Y-73000000D02*
X38000000Y-75000000D01*
X50460000Y-74048000D02*
X50460000Y-72000000D01*
X50460000Y-72000000D02*
X50000000Y-72000000D01*
X38540000Y-72000000D02*
X38540000Y-72540000D01*
X38540000Y-72540000D02*
X40000000Y-74000000D01*
X40000000Y-74000000D02*
X46000000Y-74000000D01*
X46000000Y-74000000D02*
X48000000Y-72000000D01*
X48000000Y-72000000D02*
X50000000Y-72000000D01*
X50000000Y-72000000D02*
X53000000Y-72000000D01*
X51945000Y-35300000D02*
X51945000Y-33055000D01*
X52000000Y-33000000D02*
X51945000Y-33055000D01*
X51945000Y-92055000D02*
X52000000Y-92000000D01*
X51945000Y-92055000D02*
X51945000Y-95300000D01*
X53000000Y-74048000D02*
X53000000Y-76000000D01*
X53000000Y-76000000D02*
X70000000Y-93000000D01*
X70000000Y-93000000D02*
X73000000Y-93000000D01*
D27*
X82000000Y-95000000D02*
X91000000Y-95000000D01*
X95000000Y-95000000D02*
X92000000Y-95000000D01*
X92000000Y-95000000D02*
X91000000Y-95000000D01*
X95000000Y-87000000D02*
X95000000Y-95000000D01*
X95000000Y-70000000D02*
X95000000Y-87000000D01*
X95000000Y-70000000D02*
X95000000Y-54000000D01*
X95000000Y-50000000D02*
X95000000Y-54000000D01*
X95000000Y-47000000D02*
X95000000Y-50000000D01*
X93000000Y-45000000D02*
X95000000Y-45000000D01*
X95000000Y-45000000D02*
X95000000Y-47000000D01*
X93000000Y-45000000D02*
X83000000Y-45000000D01*
D30*
X76000000Y-93000000D02*
X74000000Y-95000000D01*
X51730000Y-76730000D02*
X51730000Y-74048000D01*
X51730000Y-76730000D02*
X70000000Y-95000000D01*
X70000000Y-95000000D02*
X74000000Y-95000000D01*
X74000000Y-95000000D02*
X74000000Y-95000000D01*
D27*
X84000000Y-93000000D02*
X93000000Y-93000000D01*
X93000000Y-84000000D02*
X93000000Y-93000000D01*
X93000000Y-84000000D02*
X93000000Y-68000000D01*
X93000000Y-52000000D02*
X93000000Y-68000000D01*
X93000000Y-52000000D02*
X93000000Y-47000000D01*
X91000000Y-47000000D02*
X93000000Y-47000000D01*
X83000000Y-47000000D02*
X91000000Y-47000000D01*
D30*
X49405000Y-95300000D02*
X49405000Y-85655000D01*
X48470000Y-84720000D02*
X25000000Y-84720000D01*
X49405000Y-85655000D02*
X48470000Y-84720000D01*
X48135000Y-95300000D02*
X48135000Y-86885000D01*
X30240000Y-87260000D02*
X25000000Y-87260000D01*
X31250000Y-86250000D02*
X30240000Y-87260000D01*
X47500000Y-86250000D02*
X31250000Y-86250000D01*
X48135000Y-86885000D02*
X47500000Y-86250000D01*
X46865000Y-95300000D02*
X46865000Y-88115000D01*
X31450000Y-89800000D02*
X25000000Y-89800000D01*
X33750000Y-87500000D02*
X31450000Y-89800000D01*
X46250000Y-87500000D02*
X33750000Y-87500000D01*
X46865000Y-88115000D02*
X46250000Y-87500000D01*
X45595000Y-95300000D02*
X45595000Y-89345000D01*
X31410000Y-92340000D02*
X25000000Y-92340000D01*
X35000000Y-88750000D02*
X31410000Y-92340000D01*
X45000000Y-88750000D02*
X35000000Y-88750000D01*
X45595000Y-89345000D02*
X45000000Y-88750000D01*
X44325000Y-95300000D02*
X44325000Y-90575000D01*
X31370000Y-94880000D02*
X25000000Y-94880000D01*
X36250000Y-90000000D02*
X31370000Y-94880000D01*
X43750000Y-90000000D02*
X36250000Y-90000000D01*
X44325000Y-90575000D02*
X43750000Y-90000000D01*
X43055000Y-95300000D02*
X43055000Y-91805000D01*
X31330000Y-97420000D02*
X25000000Y-97420000D01*
X37500000Y-91250000D02*
X31330000Y-97420000D01*
X42500000Y-91250000D02*
X37500000Y-91250000D01*
X43055000Y-91805000D02*
X42500000Y-91250000D01*
X41785000Y-95300000D02*
X41785000Y-93035000D01*
X31290000Y-99960000D02*
X25000000Y-99960000D01*
X38750000Y-92500000D02*
X31290000Y-99960000D01*
X41250000Y-92500000D02*
X38750000Y-92500000D01*
X41785000Y-93035000D02*
X41250000Y-92500000D01*
X40515000Y-95300000D02*
X40515000Y-98235000D01*
X36250000Y-102500000D02*
X25000000Y-102500000D01*
X40515000Y-98235000D02*
X36250000Y-102500000D01*
X40515000Y-104700000D02*
X40515000Y-109485000D01*
X40515000Y-109485000D02*
X40000000Y-110000000D01*
X40515000Y-107200000D02*
X40515000Y-109485000D01*
X38470000Y-111530000D02*
X38470000Y-115000000D01*
X40515000Y-109485000D02*
X40000000Y-110000000D01*
X40000000Y-110000000D02*
X38470000Y-111530000D01*
X41785000Y-104700000D02*
X41785000Y-110715000D01*
X41785000Y-110715000D02*
X41250000Y-111250000D01*
X41785000Y-107200000D02*
X41785000Y-110715000D01*
X41010000Y-111490000D02*
X41010000Y-115000000D01*
X41785000Y-110715000D02*
X41250000Y-111250000D01*
X41250000Y-111250000D02*
X41010000Y-111490000D01*
X43055000Y-104700000D02*
X43055000Y-114505000D01*
X43055000Y-114505000D02*
X43550000Y-115000000D01*
X43055000Y-107200000D02*
X43055000Y-114505000D01*
X43055000Y-114505000D02*
X43550000Y-115000000D01*
X44325000Y-104700000D02*
X44325000Y-111825000D01*
X44325000Y-111825000D02*
X45000000Y-112500000D01*
X44325000Y-107200000D02*
X44325000Y-111825000D01*
X46090000Y-113590000D02*
X46090000Y-115000000D01*
X44325000Y-111825000D02*
X45000000Y-112500000D01*
X45000000Y-112500000D02*
X46090000Y-113590000D01*
X45595000Y-104700000D02*
X45595000Y-110595000D01*
X45595000Y-110595000D02*
X46250000Y-111250000D01*
X45595000Y-107200000D02*
X45595000Y-110595000D01*
X48630000Y-113630000D02*
X48630000Y-115000000D01*
X45595000Y-110595000D02*
X46250000Y-111250000D01*
X46250000Y-111250000D02*
X48630000Y-113630000D01*
X46865000Y-109000000D02*
X46865000Y-109865000D01*
X46865000Y-109865000D02*
X51170000Y-114170000D01*
X51170000Y-114170000D02*
X51170000Y-115000000D01*
X46865000Y-104700000D02*
X46865000Y-109000000D01*
X46865000Y-109000000D02*
X46865000Y-109365000D01*
X46865000Y-107200000D02*
X46865000Y-109365000D01*
X48135000Y-104700000D02*
X48135000Y-109135000D01*
X53710000Y-114710000D02*
X53710000Y-115000000D01*
X48135000Y-109135000D02*
X53710000Y-114710000D01*
X49405000Y-104700000D02*
X49405000Y-108405000D01*
X56250000Y-115250000D02*
X56250000Y-115000000D01*
X49405000Y-108405000D02*
X56250000Y-115250000D01*
X53215000Y-32000000D02*
X53215000Y-31785000D01*
X53215000Y-31785000D02*
X54000000Y-31000000D01*
X57000000Y-31000000D02*
X54000000Y-31000000D01*
X51945000Y-106945000D02*
X53000000Y-108000000D01*
X51945000Y-104700000D02*
X51945000Y-106945000D01*
X57000000Y-108000000D02*
X53000000Y-108000000D01*
X53215000Y-35300000D02*
X53215000Y-32000000D01*
X53215000Y-32000000D02*
X53215000Y-31785000D01*
X53215000Y-104700000D02*
X53215000Y-102135000D01*
X53215000Y-102135000D02*
X58000000Y-97350000D01*
X49405000Y-35300000D02*
X49405000Y-30845000D01*
X49405000Y-30845000D02*
X55280000Y-24970000D01*
X55280000Y-24970000D02*
X55280000Y-25000000D01*
X48135000Y-35300000D02*
X48135000Y-29615000D01*
X48135000Y-29615000D02*
X52740000Y-25010000D01*
X52740000Y-25010000D02*
X52740000Y-25000000D01*
X46865000Y-35300000D02*
X46865000Y-29385000D01*
X50200000Y-26050000D02*
X50200000Y-25000000D01*
X46865000Y-29385000D02*
X50200000Y-26050000D01*
X45595000Y-35300000D02*
X45595000Y-28155000D01*
X47660000Y-26090000D02*
X47660000Y-25000000D01*
X45595000Y-28155000D02*
X47660000Y-26090000D01*
X44325000Y-35300000D02*
X44325000Y-26925000D01*
X45120000Y-26130000D02*
X45120000Y-25000000D01*
X44325000Y-26925000D02*
X45120000Y-26130000D01*
X43055000Y-35300000D02*
X43055000Y-30555000D01*
X42580000Y-30080000D02*
X42580000Y-25000000D01*
X43055000Y-30555000D02*
X42580000Y-30080000D01*
X41785000Y-35300000D02*
X41785000Y-31785000D01*
X40040000Y-30040000D02*
X40040000Y-25000000D01*
X41785000Y-31785000D02*
X40040000Y-30040000D01*
X40515000Y-35300000D02*
X40515000Y-33015000D01*
X37500000Y-30000000D02*
X37500000Y-25000000D01*
X40515000Y-33015000D02*
X37500000Y-30000000D01*
X40515000Y-44700000D02*
X40515000Y-43015000D01*
X34720000Y-37220000D02*
X25000000Y-37220000D01*
X40515000Y-43015000D02*
X34720000Y-37220000D01*
X41785000Y-44700000D02*
X41785000Y-46965000D01*
X31010000Y-39760000D02*
X25000000Y-39760000D01*
X38750000Y-47500000D02*
X31010000Y-39760000D01*
X41250000Y-47500000D02*
X38750000Y-47500000D01*
X41785000Y-46965000D02*
X41250000Y-47500000D01*
X43055000Y-44700000D02*
X43055000Y-48195000D01*
X29800000Y-42300000D02*
X25000000Y-42300000D01*
X36250000Y-48750000D02*
X29800000Y-42300000D01*
X42500000Y-48750000D02*
X36250000Y-48750000D01*
X43055000Y-48195000D02*
X42500000Y-48750000D01*
X44325000Y-44700000D02*
X44325000Y-49425000D01*
X29840000Y-44840000D02*
X25000000Y-44840000D01*
X35000000Y-50000000D02*
X29840000Y-44840000D01*
X43750000Y-50000000D02*
X35000000Y-50000000D01*
X44325000Y-49425000D02*
X43750000Y-50000000D01*
X45595000Y-44700000D02*
X45595000Y-50655000D01*
X29880000Y-47380000D02*
X25000000Y-47380000D01*
X33750000Y-51250000D02*
X29880000Y-47380000D01*
X45000000Y-51250000D02*
X33750000Y-51250000D01*
X45595000Y-50655000D02*
X45000000Y-51250000D01*
X46865000Y-44700000D02*
X46865000Y-51885000D01*
X29920000Y-49920000D02*
X25000000Y-49920000D01*
X32500000Y-52500000D02*
X29920000Y-49920000D01*
X46250000Y-52500000D02*
X32500000Y-52500000D01*
X46865000Y-51885000D02*
X46250000Y-52500000D01*
X48135000Y-44700000D02*
X48135000Y-53115000D01*
X28710000Y-52460000D02*
X25000000Y-52460000D01*
X30000000Y-53750000D02*
X28710000Y-52460000D01*
X47500000Y-53750000D02*
X30000000Y-53750000D01*
X48135000Y-53115000D02*
X47500000Y-53750000D01*
X49405000Y-44700000D02*
X49405000Y-54345000D01*
X48750000Y-55000000D02*
X25000000Y-55000000D01*
X49405000Y-54345000D02*
X48750000Y-55000000D01*
X53215000Y-44700000D02*
X53215000Y-40785000D01*
X55650000Y-38350000D02*
X58000000Y-38350000D01*
X53215000Y-40785000D02*
X55650000Y-38350000D01*
D29*
X25000000Y-67380000D02*
X25000000Y-65000000D01*
X75000000Y-49000000D02*
X79000000Y-49000000D01*
X66000000Y-58000000D02*
X75000000Y-49000000D01*
X32000000Y-58000000D02*
X66000000Y-58000000D01*
X25000000Y-65000000D02*
X32000000Y-58000000D01*
X25000000Y-69920000D02*
X25000000Y-67380000D01*
X25000000Y-72460000D02*
X25000000Y-69920000D01*
X25000000Y-75000000D02*
X25000000Y-72460000D01*
D28*
X71805000Y-36390000D02*
X71805000Y-38805000D01*
D29*
X72000000Y-39000000D02*
X79000000Y-39000000D01*
D28*
X71805000Y-38805000D02*
X72000000Y-39000000D01*
X88055000Y-36390000D02*
X88055000Y-39000000D01*
X88055000Y-39000000D02*
X88000000Y-39000000D01*
X103610000Y-33055000D02*
X101945000Y-33055000D01*
X101000000Y-34000000D02*
X101000000Y-39000000D01*
X101945000Y-33055000D02*
X101000000Y-34000000D01*
X103610000Y-49305000D02*
X101000000Y-49305000D01*
X102000000Y-49000000D02*
X101000000Y-49000000D01*
X101305000Y-49000000D02*
X102000000Y-49000000D01*
X101000000Y-49305000D02*
X101305000Y-49000000D01*
X103610000Y-65555000D02*
X101000000Y-65555000D01*
X101000000Y-65555000D02*
X101000000Y-65000000D01*
X103610000Y-81805000D02*
X101000000Y-81805000D01*
X101000000Y-81805000D02*
X101000000Y-82000000D01*
X103610000Y-98055000D02*
X101000000Y-98055000D01*
X101000000Y-98055000D02*
X101000000Y-98000000D01*
X96945000Y-103610000D02*
X96945000Y-101000000D01*
X96945000Y-101000000D02*
X97000000Y-101000000D01*
X80695000Y-103610000D02*
X80695000Y-101305000D01*
D29*
X101000000Y-101000000D02*
X97000000Y-101000000D01*
X97000000Y-101000000D02*
X82000000Y-101000000D01*
X82000000Y-101000000D02*
X81000000Y-101000000D01*
X101000000Y-39000000D02*
X88000000Y-39000000D01*
X88000000Y-39000000D02*
X79000000Y-39000000D01*
X101000000Y-39000000D02*
X101000000Y-49000000D01*
X101000000Y-49000000D02*
X101000000Y-65000000D01*
X101000000Y-65000000D02*
X101000000Y-82000000D01*
X101000000Y-82000000D02*
X101000000Y-98000000D01*
X101000000Y-98000000D02*
X101000000Y-101000000D01*
D28*
X80695000Y-101305000D02*
X81000000Y-101000000D01*
D29*
X79000000Y-39000000D02*
X79000000Y-49000000D01*
X79000000Y-62380000D02*
X79000000Y-49000000D01*
M02*
