G04 #@! TF.FileFunction,Copper,L2,Bot,Signal*
%FSLAX46Y46*%
G04 Gerber Fmt 4.6, Leading zero omitted, Abs format (unit mm)*
G04 Created by KiCad (PCBNEW 4.0.7-e2-6376~58~ubuntu17.04.1) date Sun Oct 29 20:56:10 2017*
%MOMM*%
%LPD*%
G01*
G04 APERTURE LIST*
%ADD10C,0.100000*%
%ADD11R,2.032000X1.727200*%
%ADD12O,2.032000X1.727200*%
%ADD13R,1.727200X2.032000*%
%ADD14O,1.727200X2.032000*%
%ADD15C,1.300000*%
%ADD16R,1.300000X1.300000*%
%ADD17O,6.000000X3.000000*%
%ADD18C,3.250000*%
%ADD19C,1.500000*%
%ADD20R,1.700000X1.700000*%
%ADD21O,1.700000X1.700000*%
%ADD22C,1.000000*%
%ADD23C,0.635000*%
%ADD24C,1.270000*%
%ADD25C,0.381000*%
%ADD26C,0.250000*%
G04 APERTURE END LIST*
D10*
D11*
X25000000Y-102500000D03*
D12*
X25000000Y-99960000D03*
X25000000Y-97420000D03*
X25000000Y-94880000D03*
X25000000Y-92340000D03*
X25000000Y-89800000D03*
X25000000Y-87260000D03*
X25000000Y-84720000D03*
D13*
X56250000Y-115000000D03*
D14*
X53710000Y-115000000D03*
X51170000Y-115000000D03*
X48630000Y-115000000D03*
X46090000Y-115000000D03*
X43550000Y-115000000D03*
X41010000Y-115000000D03*
X38470000Y-115000000D03*
D13*
X37500000Y-25000000D03*
D14*
X40040000Y-25000000D03*
X42580000Y-25000000D03*
X45120000Y-25000000D03*
X47660000Y-25000000D03*
X50200000Y-25000000D03*
X52740000Y-25000000D03*
X55280000Y-25000000D03*
D11*
X25000000Y-75000000D03*
D12*
X25000000Y-72460000D03*
X25000000Y-69920000D03*
X25000000Y-67380000D03*
D11*
X25000000Y-55000000D03*
D12*
X25000000Y-52460000D03*
X25000000Y-49920000D03*
X25000000Y-47380000D03*
X25000000Y-44840000D03*
X25000000Y-42300000D03*
X25000000Y-39760000D03*
X25000000Y-37220000D03*
D15*
X81500000Y-91000000D03*
D16*
X79000000Y-91000000D03*
D15*
X81500000Y-49000000D03*
D16*
X79000000Y-49000000D03*
D17*
X79000000Y-67460000D03*
X79000000Y-62380000D03*
X79000000Y-72540000D03*
X79000000Y-77620000D03*
D15*
X66000000Y-72500000D03*
D16*
X66000000Y-70000000D03*
D18*
X112500000Y-96785000D03*
X112500000Y-108215000D03*
D19*
X103610000Y-98055000D03*
X106150000Y-99325000D03*
X103610000Y-100595000D03*
X106150000Y-101865000D03*
X103610000Y-103135000D03*
X106150000Y-104405000D03*
X103610000Y-105675000D03*
X106150000Y-106945000D03*
D18*
X98215000Y-112500000D03*
X86785000Y-112500000D03*
D19*
X96945000Y-103610000D03*
X95675000Y-106150000D03*
X94405000Y-103610000D03*
X93135000Y-106150000D03*
X91865000Y-103610000D03*
X90595000Y-106150000D03*
X89325000Y-103610000D03*
X88055000Y-106150000D03*
D18*
X112500000Y-64285000D03*
X112500000Y-75715000D03*
D19*
X103610000Y-65555000D03*
X106150000Y-66825000D03*
X103610000Y-68095000D03*
X106150000Y-69365000D03*
X103610000Y-70635000D03*
X106150000Y-71905000D03*
X103610000Y-73175000D03*
X106150000Y-74445000D03*
D18*
X112500000Y-80535000D03*
X112500000Y-91965000D03*
D19*
X103610000Y-81805000D03*
X106150000Y-83075000D03*
X103610000Y-84345000D03*
X106150000Y-85615000D03*
X103610000Y-86885000D03*
X106150000Y-88155000D03*
X103610000Y-89425000D03*
X106150000Y-90695000D03*
D18*
X81965000Y-112500000D03*
X70535000Y-112500000D03*
D19*
X80695000Y-103610000D03*
X79425000Y-106150000D03*
X78155000Y-103610000D03*
X76885000Y-106150000D03*
X75615000Y-103610000D03*
X74345000Y-106150000D03*
X73075000Y-103610000D03*
X71805000Y-106150000D03*
D18*
X112500000Y-48035000D03*
X112500000Y-59465000D03*
D19*
X103610000Y-49305000D03*
X106150000Y-50575000D03*
X103610000Y-51845000D03*
X106150000Y-53115000D03*
X103610000Y-54385000D03*
X106150000Y-55655000D03*
X103610000Y-56925000D03*
X106150000Y-58195000D03*
D18*
X112500000Y-31785000D03*
X112500000Y-43215000D03*
D19*
X103610000Y-33055000D03*
X106150000Y-34325000D03*
X103610000Y-35595000D03*
X106150000Y-36865000D03*
X103610000Y-38135000D03*
X106150000Y-39405000D03*
X103610000Y-40675000D03*
X106150000Y-41945000D03*
D18*
X70535000Y-27500000D03*
X81965000Y-27500000D03*
D19*
X71805000Y-36390000D03*
X73075000Y-33850000D03*
X74345000Y-36390000D03*
X75615000Y-33850000D03*
X76885000Y-36390000D03*
X78155000Y-33850000D03*
X79425000Y-36390000D03*
X80695000Y-33850000D03*
D18*
X86785000Y-27500000D03*
X98215000Y-27500000D03*
D19*
X88055000Y-36390000D03*
X89325000Y-33850000D03*
X90595000Y-36390000D03*
X91865000Y-33850000D03*
X93135000Y-36390000D03*
X94405000Y-33850000D03*
X95675000Y-36390000D03*
X96945000Y-33850000D03*
D20*
X36000000Y-72000000D03*
D21*
X36000000Y-69460000D03*
X38540000Y-72000000D03*
X38540000Y-69460000D03*
X41080000Y-72000000D03*
X41080000Y-69460000D03*
D22*
X62000000Y-43000000D03*
X62000000Y-103000000D03*
X98000000Y-90000000D03*
X98000000Y-89000000D03*
X62000000Y-70000000D03*
X89000000Y-98000000D03*
X90000000Y-98000000D03*
X97000000Y-98000000D03*
X98000000Y-98000000D03*
X98000000Y-74000000D03*
X98000000Y-73000000D03*
X98000000Y-58000000D03*
X98000000Y-57000000D03*
X98000000Y-48000000D03*
X98000000Y-47000000D03*
X95000000Y-42000000D03*
X96000000Y-42000000D03*
X83000000Y-42000000D03*
X82000000Y-42000000D03*
X55000000Y-93000000D03*
X55000000Y-33000000D03*
X60000000Y-74000000D03*
X60000000Y-36000000D03*
X60000000Y-95000000D03*
X45000000Y-71000000D03*
X49000000Y-65000000D03*
X51000000Y-108000000D03*
X51000000Y-48000000D03*
X51000000Y-64000000D03*
X51000000Y-90000000D03*
X51000000Y-31000000D03*
X54000000Y-91000000D03*
X55000000Y-63000000D03*
X53000000Y-72000000D03*
X52000000Y-33000000D03*
X52000000Y-92000000D03*
X73000000Y-93000000D03*
X82000000Y-95000000D03*
X91000000Y-95000000D03*
X95000000Y-95000000D03*
X95000000Y-87000000D03*
X95000000Y-70000000D03*
X95000000Y-54000000D03*
X95000000Y-47000000D03*
X93000000Y-45000000D03*
X83000000Y-45000000D03*
X76000000Y-93000000D03*
X84000000Y-93000000D03*
X93000000Y-93000000D03*
X93000000Y-84000000D03*
X93000000Y-68000000D03*
X93000000Y-52000000D03*
X93000000Y-47000000D03*
X83000000Y-47000000D03*
X91000000Y-47000000D03*
X57000000Y-31000000D03*
X57000000Y-108000000D03*
D23*
X62000000Y-46000000D02*
X62000000Y-43000000D01*
X62000000Y-100000000D02*
X62000000Y-103000000D01*
X62000000Y-70000000D02*
X62000000Y-100000000D01*
D24*
X98000000Y-89000000D02*
X98000000Y-90000000D01*
X103610000Y-89425000D02*
X98425000Y-89425000D01*
X98425000Y-89425000D02*
X98000000Y-89000000D01*
D23*
X62000000Y-46000000D02*
X62000000Y-70000000D01*
D24*
X90000000Y-98000000D02*
X89000000Y-98000000D01*
X89325000Y-103610000D02*
X89325000Y-98675000D01*
X89325000Y-98675000D02*
X90000000Y-98000000D01*
X98000000Y-98000000D02*
X97000000Y-98000000D01*
X103610000Y-105675000D02*
X102675000Y-105675000D01*
X98000000Y-101000000D02*
X98000000Y-98000000D01*
X102675000Y-105675000D02*
X98000000Y-101000000D01*
X98000000Y-73000000D02*
X98000000Y-74000000D01*
X103610000Y-73175000D02*
X98175000Y-73175000D01*
X98175000Y-73175000D02*
X98000000Y-73000000D01*
X98000000Y-57000000D02*
X98000000Y-58000000D01*
X103610000Y-56925000D02*
X98075000Y-56925000D01*
X98075000Y-56925000D02*
X98000000Y-57000000D01*
X98000000Y-47000000D02*
X98000000Y-48000000D01*
X103610000Y-40675000D02*
X103610000Y-41390000D01*
X103610000Y-41390000D02*
X98000000Y-47000000D01*
X96000000Y-42000000D02*
X95000000Y-42000000D01*
X95675000Y-36390000D02*
X95675000Y-41675000D01*
X95675000Y-41675000D02*
X96000000Y-42000000D01*
X82000000Y-42000000D02*
X83000000Y-42000000D01*
X79425000Y-36390000D02*
X79425000Y-39425000D01*
X79425000Y-39425000D02*
X82000000Y-42000000D01*
D23*
X42000000Y-69460000D02*
X43460000Y-69460000D01*
X43460000Y-69460000D02*
X45000000Y-71000000D01*
X41080000Y-69460000D02*
X42000000Y-69460000D01*
X42000000Y-69460000D02*
X42460000Y-69460000D01*
D25*
X51000000Y-108000000D02*
X50000000Y-107000000D01*
X49000000Y-50000000D02*
X51000000Y-48000000D01*
X49000000Y-106000000D02*
X49000000Y-74000000D01*
X49000000Y-74000000D02*
X49000000Y-65000000D01*
X49000000Y-65000000D02*
X49000000Y-50000000D01*
X50000000Y-107000000D02*
X49000000Y-106000000D01*
X51000000Y-31000000D02*
X50000000Y-32000000D01*
X51000000Y-53000000D02*
X51000000Y-64000000D01*
X51000000Y-64000000D02*
X51000000Y-74000000D01*
X51000000Y-74000000D02*
X51000000Y-79000000D01*
X51000000Y-79000000D02*
X51000000Y-90000000D01*
X53000000Y-51000000D02*
X51000000Y-53000000D01*
X53000000Y-37000000D02*
X53000000Y-51000000D01*
X50000000Y-34000000D02*
X53000000Y-37000000D01*
X50000000Y-32000000D02*
X50000000Y-34000000D01*
X55000000Y-79000000D02*
X55000000Y-63000000D01*
X55000000Y-90000000D02*
X55000000Y-79000000D01*
X54000000Y-91000000D02*
X55000000Y-90000000D01*
X53000000Y-54000000D02*
X53000000Y-53000000D01*
X54000000Y-35000000D02*
X53000000Y-34000000D01*
X54000000Y-52000000D02*
X54000000Y-35000000D01*
X53000000Y-53000000D02*
X54000000Y-52000000D01*
X52000000Y-92000000D02*
X52000000Y-91000000D01*
X53000000Y-34000000D02*
X52000000Y-33000000D01*
X53000000Y-90000000D02*
X53000000Y-72000000D01*
X53000000Y-72000000D02*
X53000000Y-67000000D01*
X53000000Y-67000000D02*
X53000000Y-54000000D01*
X52000000Y-91000000D02*
X53000000Y-90000000D01*
D23*
X75615000Y-101385000D02*
X75615000Y-95000000D01*
X75615000Y-103610000D02*
X75615000Y-102000000D01*
X75615000Y-101385000D02*
X75615000Y-102000000D01*
X75615000Y-95000000D02*
X76000000Y-95000000D01*
X73000000Y-93000000D02*
X75000000Y-95000000D01*
X82000000Y-95000000D02*
X77000000Y-95000000D01*
X75000000Y-95000000D02*
X76000000Y-95000000D01*
X76000000Y-95000000D02*
X77000000Y-95000000D01*
X91865000Y-95865000D02*
X91865000Y-103610000D01*
X91000000Y-95000000D02*
X91865000Y-95865000D01*
X100000000Y-99525000D02*
X103610000Y-103135000D01*
X100000000Y-97000000D02*
X100000000Y-99525000D01*
X99000000Y-96000000D02*
X100000000Y-97000000D01*
X96000000Y-96000000D02*
X99000000Y-96000000D01*
X95000000Y-95000000D02*
X96000000Y-96000000D01*
X95115000Y-86885000D02*
X103610000Y-86885000D01*
X95000000Y-87000000D02*
X95115000Y-86885000D01*
X103610000Y-70635000D02*
X95635000Y-70635000D01*
X95635000Y-70635000D02*
X95000000Y-70000000D01*
X95385000Y-54385000D02*
X103610000Y-54385000D01*
X95000000Y-54000000D02*
X95385000Y-54385000D01*
X103610000Y-38135000D02*
X103610000Y-38390000D01*
X103610000Y-38390000D02*
X95000000Y-47000000D01*
X93135000Y-44865000D02*
X93000000Y-45000000D01*
X93135000Y-36390000D02*
X93135000Y-44865000D01*
X76885000Y-38885000D02*
X76885000Y-36390000D01*
X83000000Y-45000000D02*
X76885000Y-38885000D01*
X84000000Y-93000000D02*
X76000000Y-93000000D01*
X84000000Y-95000000D02*
X84000000Y-93000000D01*
X84000000Y-95000000D02*
X78155000Y-100845000D01*
X78155000Y-103610000D02*
X78155000Y-100845000D01*
X94405000Y-103610000D02*
X94405000Y-97405000D01*
X93000000Y-96000000D02*
X93000000Y-93000000D01*
X94405000Y-97405000D02*
X93000000Y-96000000D01*
X100000000Y-95000000D02*
X102000000Y-97000000D01*
X93000000Y-93000000D02*
X98000000Y-93000000D01*
X98000000Y-93000000D02*
X100000000Y-95000000D01*
X102000000Y-98985000D02*
X103610000Y-100595000D01*
X102000000Y-97000000D02*
X102000000Y-98985000D01*
X103610000Y-84345000D02*
X93345000Y-84345000D01*
X93345000Y-84345000D02*
X93000000Y-84000000D01*
X93095000Y-68095000D02*
X103610000Y-68095000D01*
X93000000Y-68000000D02*
X93095000Y-68095000D01*
X103610000Y-51845000D02*
X93155000Y-51845000D01*
X93155000Y-51845000D02*
X93000000Y-52000000D01*
X101405000Y-35595000D02*
X103610000Y-35595000D01*
X99000000Y-38000000D02*
X101405000Y-35595000D01*
X99000000Y-41000000D02*
X99000000Y-38000000D01*
X93000000Y-47000000D02*
X99000000Y-41000000D01*
X74345000Y-38345000D02*
X83000000Y-47000000D01*
X74345000Y-36390000D02*
X74345000Y-38345000D01*
X90595000Y-46595000D02*
X90595000Y-36390000D01*
X91000000Y-47000000D02*
X90595000Y-46595000D01*
D25*
X57000000Y-104000000D02*
X57000000Y-35000000D01*
X57000000Y-31000000D02*
X57000000Y-35000000D01*
X57000000Y-104000000D02*
X57000000Y-108000000D01*
D26*
G36*
X119300000Y-119300000D02*
X20700000Y-119300000D01*
X20700000Y-115440638D01*
X22774615Y-115440638D01*
X23112637Y-116258715D01*
X23737993Y-116885163D01*
X24555479Y-117224613D01*
X25440638Y-117225385D01*
X26258715Y-116887363D01*
X26885163Y-116262007D01*
X27224613Y-115444521D01*
X27225161Y-114815451D01*
X36981400Y-114815451D01*
X36981400Y-115184549D01*
X37094713Y-115754212D01*
X37417401Y-116237148D01*
X37900337Y-116559836D01*
X38470000Y-116673149D01*
X39039663Y-116559836D01*
X39522599Y-116237148D01*
X39740000Y-115911785D01*
X39957401Y-116237148D01*
X40440337Y-116559836D01*
X41010000Y-116673149D01*
X41579663Y-116559836D01*
X42062599Y-116237148D01*
X42280000Y-115911785D01*
X42497401Y-116237148D01*
X42980337Y-116559836D01*
X43550000Y-116673149D01*
X44119663Y-116559836D01*
X44602599Y-116237148D01*
X44820000Y-115911785D01*
X45037401Y-116237148D01*
X45520337Y-116559836D01*
X46090000Y-116673149D01*
X46659663Y-116559836D01*
X47142599Y-116237148D01*
X47360000Y-115911785D01*
X47577401Y-116237148D01*
X48060337Y-116559836D01*
X48630000Y-116673149D01*
X49199663Y-116559836D01*
X49682599Y-116237148D01*
X49900000Y-115911785D01*
X50117401Y-116237148D01*
X50600337Y-116559836D01*
X51170000Y-116673149D01*
X51739663Y-116559836D01*
X52222599Y-116237148D01*
X52440000Y-115911785D01*
X52657401Y-116237148D01*
X53140337Y-116559836D01*
X53710000Y-116673149D01*
X54279663Y-116559836D01*
X54762599Y-116237148D01*
X54784579Y-116204253D01*
X54792737Y-116247611D01*
X54929619Y-116460332D01*
X55138476Y-116603038D01*
X55386400Y-116653244D01*
X57113600Y-116653244D01*
X57345211Y-116609663D01*
X57557932Y-116472781D01*
X57700638Y-116263924D01*
X57750844Y-116016000D01*
X57750844Y-115440638D01*
X112774615Y-115440638D01*
X113112637Y-116258715D01*
X113737993Y-116885163D01*
X114555479Y-117224613D01*
X115440638Y-117225385D01*
X116258715Y-116887363D01*
X116885163Y-116262007D01*
X117224613Y-115444521D01*
X117225385Y-114559362D01*
X116887363Y-113741285D01*
X116262007Y-113114837D01*
X115444521Y-112775387D01*
X114559362Y-112774615D01*
X113741285Y-113112637D01*
X113114837Y-113737993D01*
X112775387Y-114555479D01*
X112774615Y-115440638D01*
X57750844Y-115440638D01*
X57750844Y-113984000D01*
X57707263Y-113752389D01*
X57570381Y-113539668D01*
X57361524Y-113396962D01*
X57113600Y-113346756D01*
X55386400Y-113346756D01*
X55154789Y-113390337D01*
X54942068Y-113527219D01*
X54799362Y-113736076D01*
X54786650Y-113798847D01*
X54762599Y-113762852D01*
X54279663Y-113440164D01*
X53710000Y-113326851D01*
X53140337Y-113440164D01*
X52657401Y-113762852D01*
X52440000Y-114088215D01*
X52222599Y-113762852D01*
X51739663Y-113440164D01*
X51170000Y-113326851D01*
X50600337Y-113440164D01*
X50117401Y-113762852D01*
X49900000Y-114088215D01*
X49682599Y-113762852D01*
X49199663Y-113440164D01*
X48630000Y-113326851D01*
X48060337Y-113440164D01*
X47577401Y-113762852D01*
X47360000Y-114088215D01*
X47142599Y-113762852D01*
X46659663Y-113440164D01*
X46090000Y-113326851D01*
X45520337Y-113440164D01*
X45037401Y-113762852D01*
X44820000Y-114088215D01*
X44602599Y-113762852D01*
X44119663Y-113440164D01*
X43550000Y-113326851D01*
X42980337Y-113440164D01*
X42497401Y-113762852D01*
X42280000Y-114088215D01*
X42062599Y-113762852D01*
X41579663Y-113440164D01*
X41010000Y-113326851D01*
X40440337Y-113440164D01*
X39957401Y-113762852D01*
X39740000Y-114088215D01*
X39522599Y-113762852D01*
X39039663Y-113440164D01*
X38470000Y-113326851D01*
X37900337Y-113440164D01*
X37417401Y-113762852D01*
X37094713Y-114245788D01*
X36981400Y-114815451D01*
X27225161Y-114815451D01*
X27225385Y-114559362D01*
X26887363Y-113741285D01*
X26262007Y-113114837D01*
X25854413Y-112945589D01*
X68284610Y-112945589D01*
X68626431Y-113772858D01*
X69258813Y-114406345D01*
X70085484Y-114749608D01*
X70980589Y-114750390D01*
X71807858Y-114408569D01*
X72441345Y-113776187D01*
X72784608Y-112949516D01*
X72784611Y-112945589D01*
X79714610Y-112945589D01*
X80056431Y-113772858D01*
X80688813Y-114406345D01*
X81515484Y-114749608D01*
X82410589Y-114750390D01*
X83237858Y-114408569D01*
X83871345Y-113776187D01*
X84214608Y-112949516D01*
X84214611Y-112945589D01*
X84534610Y-112945589D01*
X84876431Y-113772858D01*
X85508813Y-114406345D01*
X86335484Y-114749608D01*
X87230589Y-114750390D01*
X88057858Y-114408569D01*
X88691345Y-113776187D01*
X89034608Y-112949516D01*
X89034611Y-112945589D01*
X95964610Y-112945589D01*
X96306431Y-113772858D01*
X96938813Y-114406345D01*
X97765484Y-114749608D01*
X98660589Y-114750390D01*
X99487858Y-114408569D01*
X100121345Y-113776187D01*
X100464608Y-112949516D01*
X100465390Y-112054411D01*
X100123569Y-111227142D01*
X99491187Y-110593655D01*
X98664516Y-110250392D01*
X97769411Y-110249610D01*
X96942142Y-110591431D01*
X96308655Y-111223813D01*
X95965392Y-112050484D01*
X95964610Y-112945589D01*
X89034611Y-112945589D01*
X89035390Y-112054411D01*
X88693569Y-111227142D01*
X88061187Y-110593655D01*
X87234516Y-110250392D01*
X86339411Y-110249610D01*
X85512142Y-110591431D01*
X84878655Y-111223813D01*
X84535392Y-112050484D01*
X84534610Y-112945589D01*
X84214611Y-112945589D01*
X84215390Y-112054411D01*
X83873569Y-111227142D01*
X83241187Y-110593655D01*
X82414516Y-110250392D01*
X81519411Y-110249610D01*
X80692142Y-110591431D01*
X80058655Y-111223813D01*
X79715392Y-112050484D01*
X79714610Y-112945589D01*
X72784611Y-112945589D01*
X72785390Y-112054411D01*
X72443569Y-111227142D01*
X71811187Y-110593655D01*
X70984516Y-110250392D01*
X70089411Y-110249610D01*
X69262142Y-110591431D01*
X68628655Y-111223813D01*
X68285392Y-112050484D01*
X68284610Y-112945589D01*
X25854413Y-112945589D01*
X25444521Y-112775387D01*
X24559362Y-112774615D01*
X23741285Y-113112637D01*
X23114837Y-113737993D01*
X22775387Y-114555479D01*
X22774615Y-115440638D01*
X20700000Y-115440638D01*
X20700000Y-84720000D01*
X23326851Y-84720000D01*
X23440164Y-85289663D01*
X23762852Y-85772599D01*
X24088215Y-85990000D01*
X23762852Y-86207401D01*
X23440164Y-86690337D01*
X23326851Y-87260000D01*
X23440164Y-87829663D01*
X23762852Y-88312599D01*
X24088215Y-88530000D01*
X23762852Y-88747401D01*
X23440164Y-89230337D01*
X23326851Y-89800000D01*
X23440164Y-90369663D01*
X23762852Y-90852599D01*
X24088215Y-91070000D01*
X23762852Y-91287401D01*
X23440164Y-91770337D01*
X23326851Y-92340000D01*
X23440164Y-92909663D01*
X23762852Y-93392599D01*
X24088215Y-93610000D01*
X23762852Y-93827401D01*
X23440164Y-94310337D01*
X23326851Y-94880000D01*
X23440164Y-95449663D01*
X23762852Y-95932599D01*
X24088215Y-96150000D01*
X23762852Y-96367401D01*
X23440164Y-96850337D01*
X23326851Y-97420000D01*
X23440164Y-97989663D01*
X23762852Y-98472599D01*
X24088215Y-98690000D01*
X23762852Y-98907401D01*
X23440164Y-99390337D01*
X23326851Y-99960000D01*
X23440164Y-100529663D01*
X23762852Y-101012599D01*
X23795747Y-101034579D01*
X23752389Y-101042737D01*
X23539668Y-101179619D01*
X23396962Y-101388476D01*
X23346756Y-101636400D01*
X23346756Y-103363600D01*
X23390337Y-103595211D01*
X23527219Y-103807932D01*
X23736076Y-103950638D01*
X23984000Y-104000844D01*
X26016000Y-104000844D01*
X26247611Y-103957263D01*
X26460332Y-103820381D01*
X26603038Y-103611524D01*
X26653244Y-103363600D01*
X26653244Y-101636400D01*
X26609663Y-101404789D01*
X26472781Y-101192068D01*
X26263924Y-101049362D01*
X26201153Y-101036650D01*
X26237148Y-101012599D01*
X26559836Y-100529663D01*
X26673149Y-99960000D01*
X26559836Y-99390337D01*
X26237148Y-98907401D01*
X25911785Y-98690000D01*
X26237148Y-98472599D01*
X26559836Y-97989663D01*
X26673149Y-97420000D01*
X26559836Y-96850337D01*
X26237148Y-96367401D01*
X25911785Y-96150000D01*
X26237148Y-95932599D01*
X26559836Y-95449663D01*
X26673149Y-94880000D01*
X26559836Y-94310337D01*
X26237148Y-93827401D01*
X25911785Y-93610000D01*
X26237148Y-93392599D01*
X26559836Y-92909663D01*
X26673149Y-92340000D01*
X26559836Y-91770337D01*
X26237148Y-91287401D01*
X25911785Y-91070000D01*
X26237148Y-90852599D01*
X26559836Y-90369663D01*
X26673149Y-89800000D01*
X26559836Y-89230337D01*
X26237148Y-88747401D01*
X25911785Y-88530000D01*
X26237148Y-88312599D01*
X26559836Y-87829663D01*
X26673149Y-87260000D01*
X26559836Y-86690337D01*
X26237148Y-86207401D01*
X25911785Y-85990000D01*
X26237148Y-85772599D01*
X26559836Y-85289663D01*
X26673149Y-84720000D01*
X26559836Y-84150337D01*
X26237148Y-83667401D01*
X25754212Y-83344713D01*
X25184549Y-83231400D01*
X24815451Y-83231400D01*
X24245788Y-83344713D01*
X23762852Y-83667401D01*
X23440164Y-84150337D01*
X23326851Y-84720000D01*
X20700000Y-84720000D01*
X20700000Y-67380000D01*
X23326851Y-67380000D01*
X23440164Y-67949663D01*
X23762852Y-68432599D01*
X24088215Y-68650000D01*
X23762852Y-68867401D01*
X23440164Y-69350337D01*
X23326851Y-69920000D01*
X23440164Y-70489663D01*
X23762852Y-70972599D01*
X24088215Y-71190000D01*
X23762852Y-71407401D01*
X23440164Y-71890337D01*
X23326851Y-72460000D01*
X23440164Y-73029663D01*
X23762852Y-73512599D01*
X23795747Y-73534579D01*
X23752389Y-73542737D01*
X23539668Y-73679619D01*
X23396962Y-73888476D01*
X23346756Y-74136400D01*
X23346756Y-75863600D01*
X23390337Y-76095211D01*
X23527219Y-76307932D01*
X23736076Y-76450638D01*
X23984000Y-76500844D01*
X26016000Y-76500844D01*
X26247611Y-76457263D01*
X26460332Y-76320381D01*
X26603038Y-76111524D01*
X26653244Y-75863600D01*
X26653244Y-74136400D01*
X26609663Y-73904789D01*
X26472781Y-73692068D01*
X26263924Y-73549362D01*
X26201153Y-73536650D01*
X26237148Y-73512599D01*
X26559836Y-73029663D01*
X26673149Y-72460000D01*
X26559836Y-71890337D01*
X26237148Y-71407401D01*
X25911785Y-71190000D01*
X25971649Y-71150000D01*
X34512756Y-71150000D01*
X34512756Y-72850000D01*
X34556337Y-73081611D01*
X34693219Y-73294332D01*
X34902076Y-73437038D01*
X35150000Y-73487244D01*
X36850000Y-73487244D01*
X37081611Y-73443663D01*
X37294332Y-73306781D01*
X37437038Y-73097924D01*
X37455035Y-73009050D01*
X37497017Y-73071880D01*
X37975542Y-73391619D01*
X38540000Y-73503897D01*
X39104458Y-73391619D01*
X39582983Y-73071880D01*
X39810000Y-72732124D01*
X40037017Y-73071880D01*
X40515542Y-73391619D01*
X41080000Y-73503897D01*
X41644458Y-73391619D01*
X42122983Y-73071880D01*
X42442722Y-72593355D01*
X42555000Y-72028897D01*
X42555000Y-71971103D01*
X42442722Y-71406645D01*
X42122983Y-70928120D01*
X41826358Y-70729922D01*
X41839304Y-70724560D01*
X42265432Y-70337728D01*
X42511088Y-69817270D01*
X42393108Y-69589000D01*
X41209000Y-69589000D01*
X41209000Y-69609000D01*
X40951000Y-69609000D01*
X40951000Y-69589000D01*
X40931000Y-69589000D01*
X40931000Y-69331000D01*
X40951000Y-69331000D01*
X40951000Y-68147575D01*
X41209000Y-68147575D01*
X41209000Y-69331000D01*
X42393108Y-69331000D01*
X42511088Y-69102730D01*
X42265432Y-68582272D01*
X41839304Y-68195440D01*
X41437268Y-68028922D01*
X41209000Y-68147575D01*
X40951000Y-68147575D01*
X40722732Y-68028922D01*
X40320696Y-68195440D01*
X39894568Y-68582272D01*
X39819284Y-68741771D01*
X39582983Y-68388120D01*
X39104458Y-68068381D01*
X38540000Y-67956103D01*
X37975542Y-68068381D01*
X37497017Y-68388120D01*
X37270000Y-68727876D01*
X37042983Y-68388120D01*
X36564458Y-68068381D01*
X36000000Y-67956103D01*
X35435542Y-68068381D01*
X34957017Y-68388120D01*
X34637278Y-68866645D01*
X34525000Y-69431103D01*
X34525000Y-69488897D01*
X34637278Y-70053355D01*
X34957017Y-70531880D01*
X34977089Y-70545292D01*
X34918389Y-70556337D01*
X34705668Y-70693219D01*
X34562962Y-70902076D01*
X34512756Y-71150000D01*
X25971649Y-71150000D01*
X26237148Y-70972599D01*
X26559836Y-70489663D01*
X26673149Y-69920000D01*
X26559836Y-69350337D01*
X26237148Y-68867401D01*
X25911785Y-68650000D01*
X26237148Y-68432599D01*
X26559836Y-67949663D01*
X26673149Y-67380000D01*
X26559836Y-66810337D01*
X26237148Y-66327401D01*
X25754212Y-66004713D01*
X25184549Y-65891400D01*
X24815451Y-65891400D01*
X24245788Y-66004713D01*
X23762852Y-66327401D01*
X23440164Y-66810337D01*
X23326851Y-67380000D01*
X20700000Y-67380000D01*
X20700000Y-65222795D01*
X47874805Y-65222795D01*
X48045715Y-65636429D01*
X48184500Y-65775456D01*
X48184500Y-105999995D01*
X48184499Y-106000000D01*
X48246576Y-106312079D01*
X48423354Y-106576646D01*
X49423352Y-107576643D01*
X49423354Y-107576646D01*
X49874975Y-108028266D01*
X49874805Y-108222795D01*
X50045715Y-108636429D01*
X50361907Y-108953172D01*
X50775242Y-109124804D01*
X51222795Y-109125195D01*
X51636429Y-108954285D01*
X51953172Y-108638093D01*
X52124804Y-108224758D01*
X52125195Y-107777205D01*
X51954285Y-107363571D01*
X51638093Y-107046828D01*
X51224758Y-106875196D01*
X51028316Y-106875024D01*
X50576646Y-106423354D01*
X50576643Y-106423352D01*
X49815500Y-105662208D01*
X49815500Y-91125000D01*
X50999305Y-91125000D01*
X51184500Y-91125162D01*
X51184500Y-91224474D01*
X51046828Y-91361907D01*
X50875196Y-91775242D01*
X50874805Y-92222795D01*
X51045715Y-92636429D01*
X51361907Y-92953172D01*
X51775242Y-93124804D01*
X52222795Y-93125195D01*
X52636429Y-92954285D01*
X52953172Y-92638093D01*
X53124804Y-92224758D01*
X53125195Y-91777205D01*
X53082079Y-91672856D01*
X53361907Y-91953172D01*
X53775242Y-92124804D01*
X54222795Y-92125195D01*
X54636429Y-91954285D01*
X54953172Y-91638093D01*
X55124804Y-91224758D01*
X55124891Y-91125000D01*
X56000000Y-91125000D01*
X56048632Y-91115152D01*
X56089601Y-91087159D01*
X56116451Y-91045432D01*
X56125000Y-91000000D01*
X56125000Y-63000409D01*
X56125195Y-62777205D01*
X56125000Y-62776733D01*
X56125000Y-48000000D01*
X56115152Y-47951368D01*
X56087159Y-47910399D01*
X56045432Y-47883549D01*
X56000000Y-47875000D01*
X54815500Y-47875000D01*
X54815500Y-35000005D01*
X54815501Y-35000000D01*
X54753424Y-34687922D01*
X54672078Y-34566179D01*
X54576646Y-34423354D01*
X54576643Y-34423352D01*
X53576646Y-33423354D01*
X53576643Y-33423352D01*
X53125025Y-32971734D01*
X53125195Y-32777205D01*
X52954285Y-32363571D01*
X52638093Y-32046828D01*
X52224758Y-31875196D01*
X51777205Y-31874805D01*
X51672856Y-31917921D01*
X51953172Y-31638093D01*
X52124804Y-31224758D01*
X52124805Y-31222795D01*
X55874805Y-31222795D01*
X56045715Y-31636429D01*
X56184500Y-31775456D01*
X56184500Y-107224474D01*
X56046828Y-107361907D01*
X55875196Y-107775242D01*
X55874805Y-108222795D01*
X56045715Y-108636429D01*
X56361907Y-108953172D01*
X56775242Y-109124804D01*
X57222795Y-109125195D01*
X57636429Y-108954285D01*
X57930636Y-108660589D01*
X110249610Y-108660589D01*
X110591431Y-109487858D01*
X111223813Y-110121345D01*
X112050484Y-110464608D01*
X112945589Y-110465390D01*
X113772858Y-110123569D01*
X114406345Y-109491187D01*
X114749608Y-108664516D01*
X114750390Y-107769411D01*
X114408569Y-106942142D01*
X113776187Y-106308655D01*
X112949516Y-105965392D01*
X112054411Y-105964610D01*
X111227142Y-106306431D01*
X110593655Y-106938813D01*
X110250392Y-107765484D01*
X110249610Y-108660589D01*
X57930636Y-108660589D01*
X57953172Y-108638093D01*
X58124804Y-108224758D01*
X58125076Y-107912316D01*
X105365118Y-107912316D01*
X105433821Y-108150204D01*
X105949549Y-108332534D01*
X106495794Y-108303624D01*
X106866179Y-108150204D01*
X106934882Y-107912316D01*
X106150000Y-107127434D01*
X105365118Y-107912316D01*
X58125076Y-107912316D01*
X58125195Y-107777205D01*
X57954285Y-107363571D01*
X57815500Y-107224544D01*
X57815500Y-107117316D01*
X71020118Y-107117316D01*
X71088821Y-107355204D01*
X71604549Y-107537534D01*
X72150794Y-107508624D01*
X72521179Y-107355204D01*
X72589882Y-107117316D01*
X73560118Y-107117316D01*
X73628821Y-107355204D01*
X74144549Y-107537534D01*
X74690794Y-107508624D01*
X75061179Y-107355204D01*
X75129882Y-107117316D01*
X76100118Y-107117316D01*
X76168821Y-107355204D01*
X76684549Y-107537534D01*
X77230794Y-107508624D01*
X77601179Y-107355204D01*
X77669882Y-107117316D01*
X78640118Y-107117316D01*
X78708821Y-107355204D01*
X79224549Y-107537534D01*
X79770794Y-107508624D01*
X80141179Y-107355204D01*
X80209882Y-107117316D01*
X87270118Y-107117316D01*
X87338821Y-107355204D01*
X87854549Y-107537534D01*
X88400794Y-107508624D01*
X88771179Y-107355204D01*
X88839882Y-107117316D01*
X89810118Y-107117316D01*
X89878821Y-107355204D01*
X90394549Y-107537534D01*
X90940794Y-107508624D01*
X91311179Y-107355204D01*
X91379882Y-107117316D01*
X92350118Y-107117316D01*
X92418821Y-107355204D01*
X92934549Y-107537534D01*
X93480794Y-107508624D01*
X93851179Y-107355204D01*
X93919882Y-107117316D01*
X94890118Y-107117316D01*
X94958821Y-107355204D01*
X95474549Y-107537534D01*
X96020794Y-107508624D01*
X96391179Y-107355204D01*
X96459882Y-107117316D01*
X95675000Y-106332434D01*
X94890118Y-107117316D01*
X93919882Y-107117316D01*
X93135000Y-106332434D01*
X92350118Y-107117316D01*
X91379882Y-107117316D01*
X90595000Y-106332434D01*
X89810118Y-107117316D01*
X88839882Y-107117316D01*
X88055000Y-106332434D01*
X87270118Y-107117316D01*
X80209882Y-107117316D01*
X79425000Y-106332434D01*
X78640118Y-107117316D01*
X77669882Y-107117316D01*
X76885000Y-106332434D01*
X76100118Y-107117316D01*
X75129882Y-107117316D01*
X74345000Y-106332434D01*
X73560118Y-107117316D01*
X72589882Y-107117316D01*
X71805000Y-106332434D01*
X71020118Y-107117316D01*
X57815500Y-107117316D01*
X57815500Y-105949549D01*
X70417466Y-105949549D01*
X70446376Y-106495794D01*
X70599796Y-106866179D01*
X70837684Y-106934882D01*
X71622566Y-106150000D01*
X71987434Y-106150000D01*
X72772316Y-106934882D01*
X73010204Y-106866179D01*
X73069879Y-106697386D01*
X73139796Y-106866179D01*
X73377684Y-106934882D01*
X74162566Y-106150000D01*
X74527434Y-106150000D01*
X75312316Y-106934882D01*
X75550204Y-106866179D01*
X75609879Y-106697386D01*
X75679796Y-106866179D01*
X75917684Y-106934882D01*
X76702566Y-106150000D01*
X77067434Y-106150000D01*
X77852316Y-106934882D01*
X78090204Y-106866179D01*
X78149879Y-106697386D01*
X78219796Y-106866179D01*
X78457684Y-106934882D01*
X79242566Y-106150000D01*
X79607434Y-106150000D01*
X80392316Y-106934882D01*
X80630204Y-106866179D01*
X80812534Y-106350451D01*
X80791317Y-105949549D01*
X86667466Y-105949549D01*
X86696376Y-106495794D01*
X86849796Y-106866179D01*
X87087684Y-106934882D01*
X87872566Y-106150000D01*
X88237434Y-106150000D01*
X89022316Y-106934882D01*
X89260204Y-106866179D01*
X89319879Y-106697386D01*
X89389796Y-106866179D01*
X89627684Y-106934882D01*
X90412566Y-106150000D01*
X90777434Y-106150000D01*
X91562316Y-106934882D01*
X91800204Y-106866179D01*
X91859879Y-106697386D01*
X91929796Y-106866179D01*
X92167684Y-106934882D01*
X92952566Y-106150000D01*
X93317434Y-106150000D01*
X94102316Y-106934882D01*
X94340204Y-106866179D01*
X94399879Y-106697386D01*
X94469796Y-106866179D01*
X94707684Y-106934882D01*
X95492566Y-106150000D01*
X95857434Y-106150000D01*
X96642316Y-106934882D01*
X96880204Y-106866179D01*
X97062534Y-106350451D01*
X97033624Y-105804206D01*
X96880204Y-105433821D01*
X96642316Y-105365118D01*
X95857434Y-106150000D01*
X95492566Y-106150000D01*
X94707684Y-105365118D01*
X94469796Y-105433821D01*
X94410121Y-105602614D01*
X94340204Y-105433821D01*
X94102316Y-105365118D01*
X93317434Y-106150000D01*
X92952566Y-106150000D01*
X92167684Y-105365118D01*
X91929796Y-105433821D01*
X91870121Y-105602614D01*
X91800204Y-105433821D01*
X91562316Y-105365118D01*
X90777434Y-106150000D01*
X90412566Y-106150000D01*
X89627684Y-105365118D01*
X89389796Y-105433821D01*
X89330121Y-105602614D01*
X89260204Y-105433821D01*
X89022316Y-105365118D01*
X88237434Y-106150000D01*
X87872566Y-106150000D01*
X87087684Y-105365118D01*
X86849796Y-105433821D01*
X86667466Y-105949549D01*
X80791317Y-105949549D01*
X80783624Y-105804206D01*
X80630204Y-105433821D01*
X80392316Y-105365118D01*
X79607434Y-106150000D01*
X79242566Y-106150000D01*
X78457684Y-105365118D01*
X78219796Y-105433821D01*
X78160121Y-105602614D01*
X78090204Y-105433821D01*
X77852316Y-105365118D01*
X77067434Y-106150000D01*
X76702566Y-106150000D01*
X75917684Y-105365118D01*
X75679796Y-105433821D01*
X75620121Y-105602614D01*
X75550204Y-105433821D01*
X75312316Y-105365118D01*
X74527434Y-106150000D01*
X74162566Y-106150000D01*
X73377684Y-105365118D01*
X73139796Y-105433821D01*
X73080121Y-105602614D01*
X73010204Y-105433821D01*
X72772316Y-105365118D01*
X71987434Y-106150000D01*
X71622566Y-106150000D01*
X70837684Y-105365118D01*
X70599796Y-105433821D01*
X70417466Y-105949549D01*
X57815500Y-105949549D01*
X57815500Y-105182684D01*
X71020118Y-105182684D01*
X71805000Y-105967566D01*
X72589882Y-105182684D01*
X73560118Y-105182684D01*
X74345000Y-105967566D01*
X75129882Y-105182684D01*
X76100118Y-105182684D01*
X76885000Y-105967566D01*
X77669882Y-105182684D01*
X78640118Y-105182684D01*
X79425000Y-105967566D01*
X80209882Y-105182684D01*
X87270118Y-105182684D01*
X88055000Y-105967566D01*
X88839882Y-105182684D01*
X89810118Y-105182684D01*
X90595000Y-105967566D01*
X91379882Y-105182684D01*
X92350118Y-105182684D01*
X93135000Y-105967566D01*
X93919882Y-105182684D01*
X94890118Y-105182684D01*
X95675000Y-105967566D01*
X96459882Y-105182684D01*
X96391179Y-104944796D01*
X95875451Y-104762466D01*
X95329206Y-104791376D01*
X94958821Y-104944796D01*
X94890118Y-105182684D01*
X93919882Y-105182684D01*
X93851179Y-104944796D01*
X93335451Y-104762466D01*
X92789206Y-104791376D01*
X92418821Y-104944796D01*
X92350118Y-105182684D01*
X91379882Y-105182684D01*
X91311179Y-104944796D01*
X90795451Y-104762466D01*
X90249206Y-104791376D01*
X89878821Y-104944796D01*
X89810118Y-105182684D01*
X88839882Y-105182684D01*
X88771179Y-104944796D01*
X88255451Y-104762466D01*
X87709206Y-104791376D01*
X87338821Y-104944796D01*
X87270118Y-105182684D01*
X80209882Y-105182684D01*
X80141179Y-104944796D01*
X79625451Y-104762466D01*
X79079206Y-104791376D01*
X78708821Y-104944796D01*
X78640118Y-105182684D01*
X77669882Y-105182684D01*
X77601179Y-104944796D01*
X77085451Y-104762466D01*
X76539206Y-104791376D01*
X76168821Y-104944796D01*
X76100118Y-105182684D01*
X75129882Y-105182684D01*
X75061179Y-104944796D01*
X74545451Y-104762466D01*
X73999206Y-104791376D01*
X73628821Y-104944796D01*
X73560118Y-105182684D01*
X72589882Y-105182684D01*
X72521179Y-104944796D01*
X72005451Y-104762466D01*
X71459206Y-104791376D01*
X71088821Y-104944796D01*
X71020118Y-105182684D01*
X57815500Y-105182684D01*
X57815500Y-43222795D01*
X60874805Y-43222795D01*
X61045715Y-43636429D01*
X61057500Y-43648235D01*
X61057500Y-69351254D01*
X61046828Y-69361907D01*
X60875196Y-69775242D01*
X60874805Y-70222795D01*
X61045715Y-70636429D01*
X61057500Y-70648235D01*
X61057500Y-102351254D01*
X61046828Y-102361907D01*
X60875196Y-102775242D01*
X60874805Y-103222795D01*
X61045715Y-103636429D01*
X61361907Y-103953172D01*
X61775242Y-104124804D01*
X62222795Y-104125195D01*
X62636429Y-103954285D01*
X62708534Y-103882305D01*
X71699762Y-103882305D01*
X71908652Y-104387857D01*
X72295108Y-104774989D01*
X72800296Y-104984761D01*
X73347305Y-104985238D01*
X73852857Y-104776348D01*
X74239989Y-104389892D01*
X74344999Y-104136999D01*
X74448652Y-104387857D01*
X74835108Y-104774989D01*
X75340296Y-104984761D01*
X75887305Y-104985238D01*
X76392857Y-104776348D01*
X76779989Y-104389892D01*
X76884999Y-104136999D01*
X76988652Y-104387857D01*
X77375108Y-104774989D01*
X77880296Y-104984761D01*
X78427305Y-104985238D01*
X78932857Y-104776348D01*
X79319989Y-104389892D01*
X79424999Y-104136999D01*
X79528652Y-104387857D01*
X79915108Y-104774989D01*
X80420296Y-104984761D01*
X80967305Y-104985238D01*
X81472857Y-104776348D01*
X81859989Y-104389892D01*
X82069761Y-103884704D01*
X82070238Y-103337695D01*
X81861348Y-102832143D01*
X81474892Y-102445011D01*
X80969704Y-102235239D01*
X80422695Y-102234762D01*
X79917143Y-102443652D01*
X79530011Y-102830108D01*
X79425001Y-103083001D01*
X79321348Y-102832143D01*
X79097500Y-102607903D01*
X79097500Y-101235396D01*
X82332896Y-98000000D01*
X87740000Y-98000000D01*
X87835912Y-98482181D01*
X88065000Y-98825037D01*
X88065000Y-103058920D01*
X87950239Y-103335296D01*
X87949762Y-103882305D01*
X88158652Y-104387857D01*
X88545108Y-104774989D01*
X89050296Y-104984761D01*
X89597305Y-104985238D01*
X90102857Y-104776348D01*
X90489989Y-104389892D01*
X90594999Y-104136999D01*
X90698652Y-104387857D01*
X91085108Y-104774989D01*
X91590296Y-104984761D01*
X92137305Y-104985238D01*
X92642857Y-104776348D01*
X93029989Y-104389892D01*
X93134999Y-104136999D01*
X93238652Y-104387857D01*
X93625108Y-104774989D01*
X94130296Y-104984761D01*
X94677305Y-104985238D01*
X95182857Y-104776348D01*
X95569989Y-104389892D01*
X95674999Y-104136999D01*
X95778652Y-104387857D01*
X96165108Y-104774989D01*
X96670296Y-104984761D01*
X97217305Y-104985238D01*
X97722857Y-104776348D01*
X98109989Y-104389892D01*
X98319761Y-103884704D01*
X98320238Y-103337695D01*
X98154381Y-102936291D01*
X101784043Y-106565952D01*
X101784045Y-106565955D01*
X102157517Y-106815500D01*
X102192819Y-106839088D01*
X102675000Y-106935000D01*
X103058920Y-106935000D01*
X103335296Y-107049761D01*
X103882305Y-107050238D01*
X104387857Y-106841348D01*
X104484825Y-106744549D01*
X104762466Y-106744549D01*
X104791376Y-107290794D01*
X104944796Y-107661179D01*
X105182684Y-107729882D01*
X105967566Y-106945000D01*
X106332434Y-106945000D01*
X107117316Y-107729882D01*
X107355204Y-107661179D01*
X107537534Y-107145451D01*
X107508624Y-106599206D01*
X107355204Y-106228821D01*
X107117316Y-106160118D01*
X106332434Y-106945000D01*
X105967566Y-106945000D01*
X105182684Y-106160118D01*
X104944796Y-106228821D01*
X104762466Y-106744549D01*
X104484825Y-106744549D01*
X104774989Y-106454892D01*
X104984761Y-105949704D01*
X104985238Y-105402695D01*
X104972686Y-105372316D01*
X105365118Y-105372316D01*
X105433821Y-105610204D01*
X105602614Y-105669879D01*
X105433821Y-105739796D01*
X105365118Y-105977684D01*
X106150000Y-106762566D01*
X106934882Y-105977684D01*
X106866179Y-105739796D01*
X106697386Y-105680121D01*
X106866179Y-105610204D01*
X106934882Y-105372316D01*
X106150000Y-104587434D01*
X105365118Y-105372316D01*
X104972686Y-105372316D01*
X104776348Y-104897143D01*
X104389892Y-104510011D01*
X104136999Y-104405001D01*
X104387857Y-104301348D01*
X104484825Y-104204549D01*
X104762466Y-104204549D01*
X104791376Y-104750794D01*
X104944796Y-105121179D01*
X105182684Y-105189882D01*
X105967566Y-104405000D01*
X106332434Y-104405000D01*
X107117316Y-105189882D01*
X107355204Y-105121179D01*
X107537534Y-104605451D01*
X107508624Y-104059206D01*
X107355204Y-103688821D01*
X107117316Y-103620118D01*
X106332434Y-104405000D01*
X105967566Y-104405000D01*
X105182684Y-103620118D01*
X104944796Y-103688821D01*
X104762466Y-104204549D01*
X104484825Y-104204549D01*
X104774989Y-103914892D01*
X104984761Y-103409704D01*
X104985238Y-102862695D01*
X104972686Y-102832316D01*
X105365118Y-102832316D01*
X105433821Y-103070204D01*
X105602614Y-103129879D01*
X105433821Y-103199796D01*
X105365118Y-103437684D01*
X106150000Y-104222566D01*
X106934882Y-103437684D01*
X106866179Y-103199796D01*
X106697386Y-103140121D01*
X106866179Y-103070204D01*
X106934882Y-102832316D01*
X106150000Y-102047434D01*
X105365118Y-102832316D01*
X104972686Y-102832316D01*
X104776348Y-102357143D01*
X104389892Y-101970011D01*
X104136999Y-101865001D01*
X104387857Y-101761348D01*
X104484825Y-101664549D01*
X104762466Y-101664549D01*
X104791376Y-102210794D01*
X104944796Y-102581179D01*
X105182684Y-102649882D01*
X105967566Y-101865000D01*
X106332434Y-101865000D01*
X107117316Y-102649882D01*
X107355204Y-102581179D01*
X107537534Y-102065451D01*
X107508624Y-101519206D01*
X107355204Y-101148821D01*
X107117316Y-101080118D01*
X106332434Y-101865000D01*
X105967566Y-101865000D01*
X105182684Y-101080118D01*
X104944796Y-101148821D01*
X104762466Y-101664549D01*
X104484825Y-101664549D01*
X104774989Y-101374892D01*
X104984761Y-100869704D01*
X104985238Y-100322695D01*
X104972686Y-100292316D01*
X105365118Y-100292316D01*
X105433821Y-100530204D01*
X105602614Y-100589879D01*
X105433821Y-100659796D01*
X105365118Y-100897684D01*
X106150000Y-101682566D01*
X106934882Y-100897684D01*
X106866179Y-100659796D01*
X106697386Y-100600121D01*
X106866179Y-100530204D01*
X106934882Y-100292316D01*
X106150000Y-99507434D01*
X105365118Y-100292316D01*
X104972686Y-100292316D01*
X104776348Y-99817143D01*
X104389892Y-99430011D01*
X104136999Y-99325001D01*
X104387857Y-99221348D01*
X104484825Y-99124549D01*
X104762466Y-99124549D01*
X104791376Y-99670794D01*
X104944796Y-100041179D01*
X105182684Y-100109882D01*
X105967566Y-99325000D01*
X106332434Y-99325000D01*
X107117316Y-100109882D01*
X107355204Y-100041179D01*
X107537534Y-99525451D01*
X107508624Y-98979206D01*
X107355204Y-98608821D01*
X107117316Y-98540118D01*
X106332434Y-99325000D01*
X105967566Y-99325000D01*
X105182684Y-98540118D01*
X104944796Y-98608821D01*
X104762466Y-99124549D01*
X104484825Y-99124549D01*
X104774989Y-98834892D01*
X104973142Y-98357684D01*
X105365118Y-98357684D01*
X106150000Y-99142566D01*
X106934882Y-98357684D01*
X106866179Y-98119796D01*
X106350451Y-97937466D01*
X105804206Y-97966376D01*
X105433821Y-98119796D01*
X105365118Y-98357684D01*
X104973142Y-98357684D01*
X104984761Y-98329704D01*
X104985238Y-97782695D01*
X104776348Y-97277143D01*
X104729876Y-97230589D01*
X110249610Y-97230589D01*
X110591431Y-98057858D01*
X111223813Y-98691345D01*
X112050484Y-99034608D01*
X112945589Y-99035390D01*
X113772858Y-98693569D01*
X114406345Y-98061187D01*
X114749608Y-97234516D01*
X114750390Y-96339411D01*
X114408569Y-95512142D01*
X113776187Y-94878655D01*
X112949516Y-94535392D01*
X112054411Y-94534610D01*
X111227142Y-94876431D01*
X110593655Y-95508813D01*
X110250392Y-96335484D01*
X110249610Y-97230589D01*
X104729876Y-97230589D01*
X104389892Y-96890011D01*
X103884704Y-96680239D01*
X103337695Y-96679762D01*
X102913652Y-96854973D01*
X102870756Y-96639321D01*
X102666448Y-96333552D01*
X98743485Y-92410589D01*
X110249610Y-92410589D01*
X110591431Y-93237858D01*
X111223813Y-93871345D01*
X112050484Y-94214608D01*
X112945589Y-94215390D01*
X113772858Y-93873569D01*
X114406345Y-93241187D01*
X114749608Y-92414516D01*
X114750390Y-91519411D01*
X114408569Y-90692142D01*
X113776187Y-90058655D01*
X112949516Y-89715392D01*
X112054411Y-89714610D01*
X111227142Y-90056431D01*
X110593655Y-90688813D01*
X110250392Y-91515484D01*
X110249610Y-92410589D01*
X98743485Y-92410589D01*
X98666448Y-92333552D01*
X98360679Y-92129244D01*
X98000000Y-92057500D01*
X93648746Y-92057500D01*
X93638093Y-92046828D01*
X93224758Y-91875196D01*
X92777205Y-91874805D01*
X92363571Y-92045715D01*
X92046828Y-92361907D01*
X91875196Y-92775242D01*
X91874805Y-93222795D01*
X92045715Y-93636429D01*
X92057500Y-93648235D01*
X92057500Y-94613371D01*
X91954285Y-94363571D01*
X91638093Y-94046828D01*
X91224758Y-93875196D01*
X90777205Y-93874805D01*
X90363571Y-94045715D01*
X90046828Y-94361907D01*
X89875196Y-94775242D01*
X89874805Y-95222795D01*
X90045715Y-95636429D01*
X90361907Y-95953172D01*
X90775242Y-96124804D01*
X90791923Y-96124819D01*
X90922500Y-96255396D01*
X90922500Y-97156256D01*
X90890955Y-97109045D01*
X90482181Y-96835912D01*
X90000000Y-96739999D01*
X89999995Y-96740000D01*
X89000000Y-96740000D01*
X88517819Y-96835912D01*
X88109045Y-97109045D01*
X87835912Y-97517819D01*
X87740000Y-98000000D01*
X82332896Y-98000000D01*
X84666448Y-95666448D01*
X84870756Y-95360679D01*
X84942500Y-95000000D01*
X84942500Y-93648746D01*
X84953172Y-93638093D01*
X85124804Y-93224758D01*
X85125195Y-92777205D01*
X84954285Y-92363571D01*
X84638093Y-92046828D01*
X84224758Y-91875196D01*
X83777205Y-91874805D01*
X83363571Y-92045715D01*
X83351765Y-92057500D01*
X82172042Y-92057500D01*
X82212361Y-91894795D01*
X81500000Y-91182434D01*
X80787639Y-91894795D01*
X80827958Y-92057500D01*
X80128004Y-92057500D01*
X80237038Y-91897924D01*
X80287244Y-91650000D01*
X80287244Y-91437687D01*
X80377661Y-91655974D01*
X80605205Y-91712361D01*
X81317566Y-91000000D01*
X81682434Y-91000000D01*
X82394795Y-91712361D01*
X82596746Y-91662316D01*
X105365118Y-91662316D01*
X105433821Y-91900204D01*
X105949549Y-92082534D01*
X106495794Y-92053624D01*
X106866179Y-91900204D01*
X106934882Y-91662316D01*
X106150000Y-90877434D01*
X105365118Y-91662316D01*
X82596746Y-91662316D01*
X82622339Y-91655974D01*
X82787936Y-91176540D01*
X82757456Y-90670229D01*
X82622339Y-90344026D01*
X82394795Y-90287639D01*
X81682434Y-91000000D01*
X81317566Y-91000000D01*
X80605205Y-90287639D01*
X80377661Y-90344026D01*
X80287244Y-90605800D01*
X80287244Y-90350000D01*
X80243663Y-90118389D01*
X80235180Y-90105205D01*
X80787639Y-90105205D01*
X81500000Y-90817566D01*
X82212361Y-90105205D01*
X82155974Y-89877661D01*
X81676540Y-89712064D01*
X81170229Y-89742544D01*
X80844026Y-89877661D01*
X80787639Y-90105205D01*
X80235180Y-90105205D01*
X80106781Y-89905668D01*
X79897924Y-89762962D01*
X79650000Y-89712756D01*
X78350000Y-89712756D01*
X78118389Y-89756337D01*
X77905668Y-89893219D01*
X77762962Y-90102076D01*
X77712756Y-90350000D01*
X77712756Y-91650000D01*
X77756337Y-91881611D01*
X77869518Y-92057500D01*
X76648746Y-92057500D01*
X76638093Y-92046828D01*
X76224758Y-91875196D01*
X75777205Y-91874805D01*
X75363571Y-92045715D01*
X75046828Y-92361907D01*
X74875196Y-92775242D01*
X74874805Y-93222795D01*
X75045715Y-93636429D01*
X75361907Y-93953172D01*
X75613156Y-94057500D01*
X75390396Y-94057500D01*
X74125182Y-92792286D01*
X74125195Y-92777205D01*
X73954285Y-92363571D01*
X73638093Y-92046828D01*
X73224758Y-91875196D01*
X72777205Y-91874805D01*
X72363571Y-92045715D01*
X72046828Y-92361907D01*
X71875196Y-92775242D01*
X71874805Y-93222795D01*
X72045715Y-93636429D01*
X72361907Y-93953172D01*
X72775242Y-94124804D01*
X72791923Y-94124819D01*
X74333552Y-95666448D01*
X74639321Y-95870756D01*
X74672500Y-95877356D01*
X74672500Y-102608008D01*
X74450011Y-102830108D01*
X74345001Y-103083001D01*
X74241348Y-102832143D01*
X73854892Y-102445011D01*
X73349704Y-102235239D01*
X72802695Y-102234762D01*
X72297143Y-102443652D01*
X71910011Y-102830108D01*
X71700239Y-103335296D01*
X71699762Y-103882305D01*
X62708534Y-103882305D01*
X62953172Y-103638093D01*
X63124804Y-103224758D01*
X63125195Y-102777205D01*
X62954285Y-102363571D01*
X62942500Y-102351765D01*
X62942500Y-84222795D01*
X91874805Y-84222795D01*
X92045715Y-84636429D01*
X92361907Y-84953172D01*
X92775242Y-85124804D01*
X92848297Y-85124868D01*
X92984321Y-85215756D01*
X93345000Y-85287500D01*
X102608008Y-85287500D01*
X102830108Y-85509989D01*
X103083001Y-85614999D01*
X102832143Y-85718652D01*
X102607903Y-85942500D01*
X95386844Y-85942500D01*
X95224758Y-85875196D01*
X94777205Y-85874805D01*
X94363571Y-86045715D01*
X94046828Y-86361907D01*
X93875196Y-86775242D01*
X93874805Y-87222795D01*
X94045715Y-87636429D01*
X94361907Y-87953172D01*
X94775242Y-88124804D01*
X95222795Y-88125195D01*
X95636429Y-87954285D01*
X95763435Y-87827500D01*
X97560108Y-87827500D01*
X97517819Y-87835912D01*
X97109045Y-88109045D01*
X96835912Y-88517819D01*
X96739999Y-89000000D01*
X96740000Y-89000005D01*
X96740000Y-90000000D01*
X96835912Y-90482181D01*
X97109045Y-90890955D01*
X97517819Y-91164088D01*
X98000000Y-91260000D01*
X98482181Y-91164088D01*
X98890955Y-90890955D01*
X99028569Y-90685000D01*
X103058920Y-90685000D01*
X103335296Y-90799761D01*
X103882305Y-90800238D01*
X104387857Y-90591348D01*
X104484825Y-90494549D01*
X104762466Y-90494549D01*
X104791376Y-91040794D01*
X104944796Y-91411179D01*
X105182684Y-91479882D01*
X105967566Y-90695000D01*
X106332434Y-90695000D01*
X107117316Y-91479882D01*
X107355204Y-91411179D01*
X107537534Y-90895451D01*
X107508624Y-90349206D01*
X107355204Y-89978821D01*
X107117316Y-89910118D01*
X106332434Y-90695000D01*
X105967566Y-90695000D01*
X105182684Y-89910118D01*
X104944796Y-89978821D01*
X104762466Y-90494549D01*
X104484825Y-90494549D01*
X104774989Y-90204892D01*
X104984761Y-89699704D01*
X104985238Y-89152695D01*
X104972686Y-89122316D01*
X105365118Y-89122316D01*
X105433821Y-89360204D01*
X105602614Y-89419879D01*
X105433821Y-89489796D01*
X105365118Y-89727684D01*
X106150000Y-90512566D01*
X106934882Y-89727684D01*
X106866179Y-89489796D01*
X106697386Y-89430121D01*
X106866179Y-89360204D01*
X106934882Y-89122316D01*
X106150000Y-88337434D01*
X105365118Y-89122316D01*
X104972686Y-89122316D01*
X104776348Y-88647143D01*
X104389892Y-88260011D01*
X104136999Y-88155001D01*
X104387857Y-88051348D01*
X104484825Y-87954549D01*
X104762466Y-87954549D01*
X104791376Y-88500794D01*
X104944796Y-88871179D01*
X105182684Y-88939882D01*
X105967566Y-88155000D01*
X106332434Y-88155000D01*
X107117316Y-88939882D01*
X107355204Y-88871179D01*
X107537534Y-88355451D01*
X107508624Y-87809206D01*
X107355204Y-87438821D01*
X107117316Y-87370118D01*
X106332434Y-88155000D01*
X105967566Y-88155000D01*
X105182684Y-87370118D01*
X104944796Y-87438821D01*
X104762466Y-87954549D01*
X104484825Y-87954549D01*
X104774989Y-87664892D01*
X104984761Y-87159704D01*
X104985238Y-86612695D01*
X104972686Y-86582316D01*
X105365118Y-86582316D01*
X105433821Y-86820204D01*
X105602614Y-86879879D01*
X105433821Y-86949796D01*
X105365118Y-87187684D01*
X106150000Y-87972566D01*
X106934882Y-87187684D01*
X106866179Y-86949796D01*
X106697386Y-86890121D01*
X106866179Y-86820204D01*
X106934882Y-86582316D01*
X106150000Y-85797434D01*
X105365118Y-86582316D01*
X104972686Y-86582316D01*
X104776348Y-86107143D01*
X104389892Y-85720011D01*
X104136999Y-85615001D01*
X104387857Y-85511348D01*
X104484825Y-85414549D01*
X104762466Y-85414549D01*
X104791376Y-85960794D01*
X104944796Y-86331179D01*
X105182684Y-86399882D01*
X105967566Y-85615000D01*
X106332434Y-85615000D01*
X107117316Y-86399882D01*
X107355204Y-86331179D01*
X107537534Y-85815451D01*
X107508624Y-85269206D01*
X107355204Y-84898821D01*
X107117316Y-84830118D01*
X106332434Y-85615000D01*
X105967566Y-85615000D01*
X105182684Y-84830118D01*
X104944796Y-84898821D01*
X104762466Y-85414549D01*
X104484825Y-85414549D01*
X104774989Y-85124892D01*
X104984761Y-84619704D01*
X104985238Y-84072695D01*
X104972686Y-84042316D01*
X105365118Y-84042316D01*
X105433821Y-84280204D01*
X105602614Y-84339879D01*
X105433821Y-84409796D01*
X105365118Y-84647684D01*
X106150000Y-85432566D01*
X106934882Y-84647684D01*
X106866179Y-84409796D01*
X106697386Y-84350121D01*
X106866179Y-84280204D01*
X106934882Y-84042316D01*
X106150000Y-83257434D01*
X105365118Y-84042316D01*
X104972686Y-84042316D01*
X104776348Y-83567143D01*
X104389892Y-83180011D01*
X104136999Y-83075001D01*
X104387857Y-82971348D01*
X104484825Y-82874549D01*
X104762466Y-82874549D01*
X104791376Y-83420794D01*
X104944796Y-83791179D01*
X105182684Y-83859882D01*
X105967566Y-83075000D01*
X106332434Y-83075000D01*
X107117316Y-83859882D01*
X107355204Y-83791179D01*
X107537534Y-83275451D01*
X107508624Y-82729206D01*
X107355204Y-82358821D01*
X107117316Y-82290118D01*
X106332434Y-83075000D01*
X105967566Y-83075000D01*
X105182684Y-82290118D01*
X104944796Y-82358821D01*
X104762466Y-82874549D01*
X104484825Y-82874549D01*
X104774989Y-82584892D01*
X104973142Y-82107684D01*
X105365118Y-82107684D01*
X106150000Y-82892566D01*
X106934882Y-82107684D01*
X106866179Y-81869796D01*
X106350451Y-81687466D01*
X105804206Y-81716376D01*
X105433821Y-81869796D01*
X105365118Y-82107684D01*
X104973142Y-82107684D01*
X104984761Y-82079704D01*
X104985238Y-81532695D01*
X104776348Y-81027143D01*
X104729876Y-80980589D01*
X110249610Y-80980589D01*
X110591431Y-81807858D01*
X111223813Y-82441345D01*
X112050484Y-82784608D01*
X112945589Y-82785390D01*
X113772858Y-82443569D01*
X114406345Y-81811187D01*
X114749608Y-80984516D01*
X114750390Y-80089411D01*
X114408569Y-79262142D01*
X113776187Y-78628655D01*
X112949516Y-78285392D01*
X112054411Y-78284610D01*
X111227142Y-78626431D01*
X110593655Y-79258813D01*
X110250392Y-80085484D01*
X110249610Y-80980589D01*
X104729876Y-80980589D01*
X104389892Y-80640011D01*
X103884704Y-80430239D01*
X103337695Y-80429762D01*
X102832143Y-80638652D01*
X102445011Y-81025108D01*
X102235239Y-81530296D01*
X102234762Y-82077305D01*
X102443652Y-82582857D01*
X102830108Y-82969989D01*
X103083001Y-83074999D01*
X102832143Y-83178652D01*
X102607903Y-83402500D01*
X93970370Y-83402500D01*
X93954285Y-83363571D01*
X93638093Y-83046828D01*
X93224758Y-82875196D01*
X92777205Y-82874805D01*
X92363571Y-83045715D01*
X92046828Y-83361907D01*
X91875196Y-83775242D01*
X91874805Y-84222795D01*
X62942500Y-84222795D01*
X62942500Y-77620000D01*
X75303982Y-77620000D01*
X75465738Y-78433202D01*
X75926380Y-79122602D01*
X76615780Y-79583244D01*
X77428982Y-79745000D01*
X80571018Y-79745000D01*
X81384220Y-79583244D01*
X82073620Y-79122602D01*
X82534262Y-78433202D01*
X82696018Y-77620000D01*
X82534262Y-76806798D01*
X82102480Y-76160589D01*
X110249610Y-76160589D01*
X110591431Y-76987858D01*
X111223813Y-77621345D01*
X112050484Y-77964608D01*
X112945589Y-77965390D01*
X113772858Y-77623569D01*
X114406345Y-76991187D01*
X114749608Y-76164516D01*
X114750390Y-75269411D01*
X114408569Y-74442142D01*
X113776187Y-73808655D01*
X112949516Y-73465392D01*
X112054411Y-73464610D01*
X111227142Y-73806431D01*
X110593655Y-74438813D01*
X110250392Y-75265484D01*
X110249610Y-76160589D01*
X82102480Y-76160589D01*
X82073620Y-76117398D01*
X81384220Y-75656756D01*
X80571018Y-75495000D01*
X77428982Y-75495000D01*
X76615780Y-75656756D01*
X75926380Y-76117398D01*
X75465738Y-76806798D01*
X75303982Y-77620000D01*
X62942500Y-77620000D01*
X62942500Y-75412316D01*
X105365118Y-75412316D01*
X105433821Y-75650204D01*
X105949549Y-75832534D01*
X106495794Y-75803624D01*
X106866179Y-75650204D01*
X106934882Y-75412316D01*
X106150000Y-74627434D01*
X105365118Y-75412316D01*
X62942500Y-75412316D01*
X62942500Y-73394795D01*
X65287639Y-73394795D01*
X65344026Y-73622339D01*
X65823460Y-73787936D01*
X66329771Y-73757456D01*
X66655974Y-73622339D01*
X66712361Y-73394795D01*
X66000000Y-72682434D01*
X65287639Y-73394795D01*
X62942500Y-73394795D01*
X62942500Y-72323460D01*
X64712064Y-72323460D01*
X64742544Y-72829771D01*
X64877661Y-73155974D01*
X65105205Y-73212361D01*
X65817566Y-72500000D01*
X66182434Y-72500000D01*
X66894795Y-73212361D01*
X67122339Y-73155974D01*
X67176481Y-72999222D01*
X75425213Y-72999222D01*
X75487390Y-73234022D01*
X75906181Y-73951385D01*
X76567617Y-74453878D01*
X77371000Y-74665000D01*
X78871000Y-74665000D01*
X78871000Y-72669000D01*
X79129000Y-72669000D01*
X79129000Y-74665000D01*
X80629000Y-74665000D01*
X81432383Y-74453878D01*
X82093819Y-73951385D01*
X82512610Y-73234022D01*
X82574787Y-72999222D01*
X82464519Y-72669000D01*
X79129000Y-72669000D01*
X78871000Y-72669000D01*
X75535481Y-72669000D01*
X75425213Y-72999222D01*
X67176481Y-72999222D01*
X67287936Y-72676540D01*
X67257456Y-72170229D01*
X67220405Y-72080778D01*
X75425213Y-72080778D01*
X75535481Y-72411000D01*
X78871000Y-72411000D01*
X78871000Y-70415000D01*
X79129000Y-70415000D01*
X79129000Y-72411000D01*
X82464519Y-72411000D01*
X82574787Y-72080778D01*
X82512610Y-71845978D01*
X82093819Y-71128615D01*
X81432383Y-70626122D01*
X80629000Y-70415000D01*
X79129000Y-70415000D01*
X78871000Y-70415000D01*
X77371000Y-70415000D01*
X76567617Y-70626122D01*
X75906181Y-71128615D01*
X75487390Y-71845978D01*
X75425213Y-72080778D01*
X67220405Y-72080778D01*
X67122339Y-71844026D01*
X66894795Y-71787639D01*
X66182434Y-72500000D01*
X65817566Y-72500000D01*
X65105205Y-71787639D01*
X64877661Y-71844026D01*
X64712064Y-72323460D01*
X62942500Y-72323460D01*
X62942500Y-70648746D01*
X62953172Y-70638093D01*
X63124804Y-70224758D01*
X63125195Y-69777205D01*
X62954285Y-69363571D01*
X62942500Y-69351765D01*
X62942500Y-69350000D01*
X64712756Y-69350000D01*
X64712756Y-70650000D01*
X64756337Y-70881611D01*
X64893219Y-71094332D01*
X65102076Y-71237038D01*
X65350000Y-71287244D01*
X65562313Y-71287244D01*
X65344026Y-71377661D01*
X65287639Y-71605205D01*
X66000000Y-72317566D01*
X66712361Y-71605205D01*
X66655974Y-71377661D01*
X66394200Y-71287244D01*
X66650000Y-71287244D01*
X66881611Y-71243663D01*
X67094332Y-71106781D01*
X67237038Y-70897924D01*
X67287244Y-70650000D01*
X67287244Y-69350000D01*
X67243663Y-69118389D01*
X67106781Y-68905668D01*
X66897924Y-68762962D01*
X66650000Y-68712756D01*
X65350000Y-68712756D01*
X65118389Y-68756337D01*
X64905668Y-68893219D01*
X64762962Y-69102076D01*
X64712756Y-69350000D01*
X62942500Y-69350000D01*
X62942500Y-67919222D01*
X75425213Y-67919222D01*
X75487390Y-68154022D01*
X75906181Y-68871385D01*
X76567617Y-69373878D01*
X77371000Y-69585000D01*
X78871000Y-69585000D01*
X78871000Y-67589000D01*
X79129000Y-67589000D01*
X79129000Y-69585000D01*
X80629000Y-69585000D01*
X81432383Y-69373878D01*
X82093819Y-68871385D01*
X82472460Y-68222795D01*
X91874805Y-68222795D01*
X92045715Y-68636429D01*
X92361907Y-68953172D01*
X92775242Y-69124804D01*
X93222795Y-69125195D01*
X93435033Y-69037500D01*
X94383453Y-69037500D01*
X94363571Y-69045715D01*
X94046828Y-69361907D01*
X93875196Y-69775242D01*
X93874805Y-70222795D01*
X94045715Y-70636429D01*
X94361907Y-70953172D01*
X94775242Y-71124804D01*
X94791923Y-71124819D01*
X94968552Y-71301448D01*
X95274321Y-71505756D01*
X95635000Y-71577500D01*
X102608008Y-71577500D01*
X102830108Y-71799989D01*
X103083001Y-71904999D01*
X103058798Y-71915000D01*
X98600545Y-71915000D01*
X98482181Y-71835912D01*
X98000000Y-71739999D01*
X97517819Y-71835912D01*
X97109045Y-72109045D01*
X96835912Y-72517819D01*
X96739999Y-73000000D01*
X96740000Y-73000005D01*
X96740000Y-74000000D01*
X96835912Y-74482181D01*
X97109045Y-74890955D01*
X97517819Y-75164088D01*
X98000000Y-75260000D01*
X98482181Y-75164088D01*
X98890955Y-74890955D01*
X99164088Y-74482181D01*
X99173473Y-74435000D01*
X103058920Y-74435000D01*
X103335296Y-74549761D01*
X103882305Y-74550238D01*
X104387857Y-74341348D01*
X104484825Y-74244549D01*
X104762466Y-74244549D01*
X104791376Y-74790794D01*
X104944796Y-75161179D01*
X105182684Y-75229882D01*
X105967566Y-74445000D01*
X106332434Y-74445000D01*
X107117316Y-75229882D01*
X107355204Y-75161179D01*
X107537534Y-74645451D01*
X107508624Y-74099206D01*
X107355204Y-73728821D01*
X107117316Y-73660118D01*
X106332434Y-74445000D01*
X105967566Y-74445000D01*
X105182684Y-73660118D01*
X104944796Y-73728821D01*
X104762466Y-74244549D01*
X104484825Y-74244549D01*
X104774989Y-73954892D01*
X104984761Y-73449704D01*
X104985238Y-72902695D01*
X104972686Y-72872316D01*
X105365118Y-72872316D01*
X105433821Y-73110204D01*
X105602614Y-73169879D01*
X105433821Y-73239796D01*
X105365118Y-73477684D01*
X106150000Y-74262566D01*
X106934882Y-73477684D01*
X106866179Y-73239796D01*
X106697386Y-73180121D01*
X106866179Y-73110204D01*
X106934882Y-72872316D01*
X106150000Y-72087434D01*
X105365118Y-72872316D01*
X104972686Y-72872316D01*
X104776348Y-72397143D01*
X104389892Y-72010011D01*
X104136999Y-71905001D01*
X104387857Y-71801348D01*
X104484825Y-71704549D01*
X104762466Y-71704549D01*
X104791376Y-72250794D01*
X104944796Y-72621179D01*
X105182684Y-72689882D01*
X105967566Y-71905000D01*
X106332434Y-71905000D01*
X107117316Y-72689882D01*
X107355204Y-72621179D01*
X107537534Y-72105451D01*
X107508624Y-71559206D01*
X107355204Y-71188821D01*
X107117316Y-71120118D01*
X106332434Y-71905000D01*
X105967566Y-71905000D01*
X105182684Y-71120118D01*
X104944796Y-71188821D01*
X104762466Y-71704549D01*
X104484825Y-71704549D01*
X104774989Y-71414892D01*
X104984761Y-70909704D01*
X104985238Y-70362695D01*
X104972686Y-70332316D01*
X105365118Y-70332316D01*
X105433821Y-70570204D01*
X105602614Y-70629879D01*
X105433821Y-70699796D01*
X105365118Y-70937684D01*
X106150000Y-71722566D01*
X106934882Y-70937684D01*
X106866179Y-70699796D01*
X106697386Y-70640121D01*
X106866179Y-70570204D01*
X106934882Y-70332316D01*
X106150000Y-69547434D01*
X105365118Y-70332316D01*
X104972686Y-70332316D01*
X104776348Y-69857143D01*
X104389892Y-69470011D01*
X104136999Y-69365001D01*
X104387857Y-69261348D01*
X104484825Y-69164549D01*
X104762466Y-69164549D01*
X104791376Y-69710794D01*
X104944796Y-70081179D01*
X105182684Y-70149882D01*
X105967566Y-69365000D01*
X106332434Y-69365000D01*
X107117316Y-70149882D01*
X107355204Y-70081179D01*
X107537534Y-69565451D01*
X107508624Y-69019206D01*
X107355204Y-68648821D01*
X107117316Y-68580118D01*
X106332434Y-69365000D01*
X105967566Y-69365000D01*
X105182684Y-68580118D01*
X104944796Y-68648821D01*
X104762466Y-69164549D01*
X104484825Y-69164549D01*
X104774989Y-68874892D01*
X104984761Y-68369704D01*
X104985238Y-67822695D01*
X104972686Y-67792316D01*
X105365118Y-67792316D01*
X105433821Y-68030204D01*
X105602614Y-68089879D01*
X105433821Y-68159796D01*
X105365118Y-68397684D01*
X106150000Y-69182566D01*
X106934882Y-68397684D01*
X106866179Y-68159796D01*
X106697386Y-68100121D01*
X106866179Y-68030204D01*
X106934882Y-67792316D01*
X106150000Y-67007434D01*
X105365118Y-67792316D01*
X104972686Y-67792316D01*
X104776348Y-67317143D01*
X104389892Y-66930011D01*
X104136999Y-66825001D01*
X104387857Y-66721348D01*
X104484825Y-66624549D01*
X104762466Y-66624549D01*
X104791376Y-67170794D01*
X104944796Y-67541179D01*
X105182684Y-67609882D01*
X105967566Y-66825000D01*
X106332434Y-66825000D01*
X107117316Y-67609882D01*
X107355204Y-67541179D01*
X107537534Y-67025451D01*
X107508624Y-66479206D01*
X107355204Y-66108821D01*
X107117316Y-66040118D01*
X106332434Y-66825000D01*
X105967566Y-66825000D01*
X105182684Y-66040118D01*
X104944796Y-66108821D01*
X104762466Y-66624549D01*
X104484825Y-66624549D01*
X104774989Y-66334892D01*
X104973142Y-65857684D01*
X105365118Y-65857684D01*
X106150000Y-66642566D01*
X106934882Y-65857684D01*
X106866179Y-65619796D01*
X106350451Y-65437466D01*
X105804206Y-65466376D01*
X105433821Y-65619796D01*
X105365118Y-65857684D01*
X104973142Y-65857684D01*
X104984761Y-65829704D01*
X104985238Y-65282695D01*
X104776348Y-64777143D01*
X104729876Y-64730589D01*
X110249610Y-64730589D01*
X110591431Y-65557858D01*
X111223813Y-66191345D01*
X112050484Y-66534608D01*
X112945589Y-66535390D01*
X113772858Y-66193569D01*
X114406345Y-65561187D01*
X114749608Y-64734516D01*
X114750390Y-63839411D01*
X114408569Y-63012142D01*
X113776187Y-62378655D01*
X112949516Y-62035392D01*
X112054411Y-62034610D01*
X111227142Y-62376431D01*
X110593655Y-63008813D01*
X110250392Y-63835484D01*
X110249610Y-64730589D01*
X104729876Y-64730589D01*
X104389892Y-64390011D01*
X103884704Y-64180239D01*
X103337695Y-64179762D01*
X102832143Y-64388652D01*
X102445011Y-64775108D01*
X102235239Y-65280296D01*
X102234762Y-65827305D01*
X102443652Y-66332857D01*
X102830108Y-66719989D01*
X103083001Y-66824999D01*
X102832143Y-66928652D01*
X102607903Y-67152500D01*
X93743581Y-67152500D01*
X93638093Y-67046828D01*
X93224758Y-66875196D01*
X92777205Y-66874805D01*
X92363571Y-67045715D01*
X92046828Y-67361907D01*
X91875196Y-67775242D01*
X91874805Y-68222795D01*
X82472460Y-68222795D01*
X82512610Y-68154022D01*
X82574787Y-67919222D01*
X82464519Y-67589000D01*
X79129000Y-67589000D01*
X78871000Y-67589000D01*
X75535481Y-67589000D01*
X75425213Y-67919222D01*
X62942500Y-67919222D01*
X62942500Y-67000778D01*
X75425213Y-67000778D01*
X75535481Y-67331000D01*
X78871000Y-67331000D01*
X78871000Y-65335000D01*
X79129000Y-65335000D01*
X79129000Y-67331000D01*
X82464519Y-67331000D01*
X82574787Y-67000778D01*
X82512610Y-66765978D01*
X82093819Y-66048615D01*
X81432383Y-65546122D01*
X80629000Y-65335000D01*
X79129000Y-65335000D01*
X78871000Y-65335000D01*
X77371000Y-65335000D01*
X76567617Y-65546122D01*
X75906181Y-66048615D01*
X75487390Y-66765978D01*
X75425213Y-67000778D01*
X62942500Y-67000778D01*
X62942500Y-62380000D01*
X75303982Y-62380000D01*
X75465738Y-63193202D01*
X75926380Y-63882602D01*
X76615780Y-64343244D01*
X77428982Y-64505000D01*
X80571018Y-64505000D01*
X81384220Y-64343244D01*
X82073620Y-63882602D01*
X82534262Y-63193202D01*
X82696018Y-62380000D01*
X82534262Y-61566798D01*
X82073620Y-60877398D01*
X81384220Y-60416756D01*
X80571018Y-60255000D01*
X77428982Y-60255000D01*
X76615780Y-60416756D01*
X75926380Y-60877398D01*
X75465738Y-61566798D01*
X75303982Y-62380000D01*
X62942500Y-62380000D01*
X62942500Y-59910589D01*
X110249610Y-59910589D01*
X110591431Y-60737858D01*
X111223813Y-61371345D01*
X112050484Y-61714608D01*
X112945589Y-61715390D01*
X113772858Y-61373569D01*
X114406345Y-60741187D01*
X114749608Y-59914516D01*
X114750390Y-59019411D01*
X114408569Y-58192142D01*
X113776187Y-57558655D01*
X112949516Y-57215392D01*
X112054411Y-57214610D01*
X111227142Y-57556431D01*
X110593655Y-58188813D01*
X110250392Y-59015484D01*
X110249610Y-59910589D01*
X62942500Y-59910589D01*
X62942500Y-52222795D01*
X91874805Y-52222795D01*
X92045715Y-52636429D01*
X92361907Y-52953172D01*
X92775242Y-53124804D01*
X93222795Y-53125195D01*
X93636429Y-52954285D01*
X93803505Y-52787500D01*
X102608008Y-52787500D01*
X102830108Y-53009989D01*
X103083001Y-53114999D01*
X102832143Y-53218652D01*
X102607903Y-53442500D01*
X95986898Y-53442500D01*
X95954285Y-53363571D01*
X95638093Y-53046828D01*
X95224758Y-52875196D01*
X94777205Y-52874805D01*
X94363571Y-53045715D01*
X94046828Y-53361907D01*
X93875196Y-53775242D01*
X93874805Y-54222795D01*
X94045715Y-54636429D01*
X94361907Y-54953172D01*
X94775242Y-55124804D01*
X94828407Y-55124850D01*
X95024321Y-55255756D01*
X95385000Y-55327500D01*
X102608008Y-55327500D01*
X102830108Y-55549989D01*
X103083001Y-55654999D01*
X103058798Y-55665000D01*
X98075005Y-55665000D01*
X98075000Y-55664999D01*
X97592819Y-55760912D01*
X97184045Y-56034045D01*
X97109045Y-56109045D01*
X96835912Y-56517819D01*
X96739999Y-57000000D01*
X96740000Y-57000005D01*
X96740000Y-58000000D01*
X96835912Y-58482181D01*
X97109045Y-58890955D01*
X97517819Y-59164088D01*
X98000000Y-59260000D01*
X98482181Y-59164088D01*
X98484832Y-59162316D01*
X105365118Y-59162316D01*
X105433821Y-59400204D01*
X105949549Y-59582534D01*
X106495794Y-59553624D01*
X106866179Y-59400204D01*
X106934882Y-59162316D01*
X106150000Y-58377434D01*
X105365118Y-59162316D01*
X98484832Y-59162316D01*
X98890955Y-58890955D01*
X99164088Y-58482181D01*
X99223201Y-58185000D01*
X103058920Y-58185000D01*
X103335296Y-58299761D01*
X103882305Y-58300238D01*
X104387857Y-58091348D01*
X104484825Y-57994549D01*
X104762466Y-57994549D01*
X104791376Y-58540794D01*
X104944796Y-58911179D01*
X105182684Y-58979882D01*
X105967566Y-58195000D01*
X106332434Y-58195000D01*
X107117316Y-58979882D01*
X107355204Y-58911179D01*
X107537534Y-58395451D01*
X107508624Y-57849206D01*
X107355204Y-57478821D01*
X107117316Y-57410118D01*
X106332434Y-58195000D01*
X105967566Y-58195000D01*
X105182684Y-57410118D01*
X104944796Y-57478821D01*
X104762466Y-57994549D01*
X104484825Y-57994549D01*
X104774989Y-57704892D01*
X104984761Y-57199704D01*
X104985238Y-56652695D01*
X104972686Y-56622316D01*
X105365118Y-56622316D01*
X105433821Y-56860204D01*
X105602614Y-56919879D01*
X105433821Y-56989796D01*
X105365118Y-57227684D01*
X106150000Y-58012566D01*
X106934882Y-57227684D01*
X106866179Y-56989796D01*
X106697386Y-56930121D01*
X106866179Y-56860204D01*
X106934882Y-56622316D01*
X106150000Y-55837434D01*
X105365118Y-56622316D01*
X104972686Y-56622316D01*
X104776348Y-56147143D01*
X104389892Y-55760011D01*
X104136999Y-55655001D01*
X104387857Y-55551348D01*
X104484825Y-55454549D01*
X104762466Y-55454549D01*
X104791376Y-56000794D01*
X104944796Y-56371179D01*
X105182684Y-56439882D01*
X105967566Y-55655000D01*
X106332434Y-55655000D01*
X107117316Y-56439882D01*
X107355204Y-56371179D01*
X107537534Y-55855451D01*
X107508624Y-55309206D01*
X107355204Y-54938821D01*
X107117316Y-54870118D01*
X106332434Y-55655000D01*
X105967566Y-55655000D01*
X105182684Y-54870118D01*
X104944796Y-54938821D01*
X104762466Y-55454549D01*
X104484825Y-55454549D01*
X104774989Y-55164892D01*
X104984761Y-54659704D01*
X104985238Y-54112695D01*
X104972686Y-54082316D01*
X105365118Y-54082316D01*
X105433821Y-54320204D01*
X105602614Y-54379879D01*
X105433821Y-54449796D01*
X105365118Y-54687684D01*
X106150000Y-55472566D01*
X106934882Y-54687684D01*
X106866179Y-54449796D01*
X106697386Y-54390121D01*
X106866179Y-54320204D01*
X106934882Y-54082316D01*
X106150000Y-53297434D01*
X105365118Y-54082316D01*
X104972686Y-54082316D01*
X104776348Y-53607143D01*
X104389892Y-53220011D01*
X104136999Y-53115001D01*
X104387857Y-53011348D01*
X104484825Y-52914549D01*
X104762466Y-52914549D01*
X104791376Y-53460794D01*
X104944796Y-53831179D01*
X105182684Y-53899882D01*
X105967566Y-53115000D01*
X106332434Y-53115000D01*
X107117316Y-53899882D01*
X107355204Y-53831179D01*
X107537534Y-53315451D01*
X107508624Y-52769206D01*
X107355204Y-52398821D01*
X107117316Y-52330118D01*
X106332434Y-53115000D01*
X105967566Y-53115000D01*
X105182684Y-52330118D01*
X104944796Y-52398821D01*
X104762466Y-52914549D01*
X104484825Y-52914549D01*
X104774989Y-52624892D01*
X104984761Y-52119704D01*
X104985238Y-51572695D01*
X104972686Y-51542316D01*
X105365118Y-51542316D01*
X105433821Y-51780204D01*
X105602614Y-51839879D01*
X105433821Y-51909796D01*
X105365118Y-52147684D01*
X106150000Y-52932566D01*
X106934882Y-52147684D01*
X106866179Y-51909796D01*
X106697386Y-51850121D01*
X106866179Y-51780204D01*
X106934882Y-51542316D01*
X106150000Y-50757434D01*
X105365118Y-51542316D01*
X104972686Y-51542316D01*
X104776348Y-51067143D01*
X104389892Y-50680011D01*
X104136999Y-50575001D01*
X104387857Y-50471348D01*
X104484825Y-50374549D01*
X104762466Y-50374549D01*
X104791376Y-50920794D01*
X104944796Y-51291179D01*
X105182684Y-51359882D01*
X105967566Y-50575000D01*
X106332434Y-50575000D01*
X107117316Y-51359882D01*
X107355204Y-51291179D01*
X107537534Y-50775451D01*
X107508624Y-50229206D01*
X107355204Y-49858821D01*
X107117316Y-49790118D01*
X106332434Y-50575000D01*
X105967566Y-50575000D01*
X105182684Y-49790118D01*
X104944796Y-49858821D01*
X104762466Y-50374549D01*
X104484825Y-50374549D01*
X104774989Y-50084892D01*
X104973142Y-49607684D01*
X105365118Y-49607684D01*
X106150000Y-50392566D01*
X106934882Y-49607684D01*
X106866179Y-49369796D01*
X106350451Y-49187466D01*
X105804206Y-49216376D01*
X105433821Y-49369796D01*
X105365118Y-49607684D01*
X104973142Y-49607684D01*
X104984761Y-49579704D01*
X104985238Y-49032695D01*
X104776348Y-48527143D01*
X104729876Y-48480589D01*
X110249610Y-48480589D01*
X110591431Y-49307858D01*
X111223813Y-49941345D01*
X112050484Y-50284608D01*
X112945589Y-50285390D01*
X113772858Y-49943569D01*
X114406345Y-49311187D01*
X114749608Y-48484516D01*
X114750390Y-47589411D01*
X114408569Y-46762142D01*
X113776187Y-46128655D01*
X112949516Y-45785392D01*
X112054411Y-45784610D01*
X111227142Y-46126431D01*
X110593655Y-46758813D01*
X110250392Y-47585484D01*
X110249610Y-48480589D01*
X104729876Y-48480589D01*
X104389892Y-48140011D01*
X103884704Y-47930239D01*
X103337695Y-47929762D01*
X102832143Y-48138652D01*
X102445011Y-48525108D01*
X102235239Y-49030296D01*
X102234762Y-49577305D01*
X102443652Y-50082857D01*
X102830108Y-50469989D01*
X103083001Y-50574999D01*
X102832143Y-50678652D01*
X102607903Y-50902500D01*
X93290513Y-50902500D01*
X93224758Y-50875196D01*
X92777205Y-50874805D01*
X92363571Y-51045715D01*
X92046828Y-51361907D01*
X91875196Y-51775242D01*
X91874805Y-52222795D01*
X62942500Y-52222795D01*
X62942500Y-48350000D01*
X77712756Y-48350000D01*
X77712756Y-49650000D01*
X77756337Y-49881611D01*
X77893219Y-50094332D01*
X78102076Y-50237038D01*
X78350000Y-50287244D01*
X79650000Y-50287244D01*
X79881611Y-50243663D01*
X80094332Y-50106781D01*
X80237038Y-49897924D01*
X80237671Y-49894795D01*
X80787639Y-49894795D01*
X80844026Y-50122339D01*
X81323460Y-50287936D01*
X81829771Y-50257456D01*
X82155974Y-50122339D01*
X82212361Y-49894795D01*
X81500000Y-49182434D01*
X80787639Y-49894795D01*
X80237671Y-49894795D01*
X80287244Y-49650000D01*
X80287244Y-49437687D01*
X80377661Y-49655974D01*
X80605205Y-49712361D01*
X81317566Y-49000000D01*
X81682434Y-49000000D01*
X82394795Y-49712361D01*
X82622339Y-49655974D01*
X82787936Y-49176540D01*
X82757456Y-48670229D01*
X82622339Y-48344026D01*
X82394795Y-48287639D01*
X81682434Y-49000000D01*
X81317566Y-49000000D01*
X80605205Y-48287639D01*
X80377661Y-48344026D01*
X80287244Y-48605800D01*
X80287244Y-48350000D01*
X80243663Y-48118389D01*
X80235180Y-48105205D01*
X80787639Y-48105205D01*
X81500000Y-48817566D01*
X82212361Y-48105205D01*
X82155974Y-47877661D01*
X81676540Y-47712064D01*
X81170229Y-47742544D01*
X80844026Y-47877661D01*
X80787639Y-48105205D01*
X80235180Y-48105205D01*
X80106781Y-47905668D01*
X79897924Y-47762962D01*
X79650000Y-47712756D01*
X78350000Y-47712756D01*
X78118389Y-47756337D01*
X77905668Y-47893219D01*
X77762962Y-48102076D01*
X77712756Y-48350000D01*
X62942500Y-48350000D01*
X62942500Y-43648746D01*
X62953172Y-43638093D01*
X63124804Y-43224758D01*
X63125195Y-42777205D01*
X62954285Y-42363571D01*
X62638093Y-42046828D01*
X62224758Y-41875196D01*
X61777205Y-41874805D01*
X61363571Y-42045715D01*
X61046828Y-42361907D01*
X60875196Y-42775242D01*
X60874805Y-43222795D01*
X57815500Y-43222795D01*
X57815500Y-36662305D01*
X70429762Y-36662305D01*
X70638652Y-37167857D01*
X71025108Y-37554989D01*
X71530296Y-37764761D01*
X72077305Y-37765238D01*
X72582857Y-37556348D01*
X72969989Y-37169892D01*
X73074999Y-36916999D01*
X73178652Y-37167857D01*
X73402500Y-37392097D01*
X73402500Y-38345000D01*
X73474244Y-38705679D01*
X73678552Y-39011448D01*
X81874818Y-47207714D01*
X81874805Y-47222795D01*
X82045715Y-47636429D01*
X82361907Y-47953172D01*
X82775242Y-48124804D01*
X83222795Y-48125195D01*
X83636429Y-47954285D01*
X83953172Y-47638093D01*
X84124804Y-47224758D01*
X84125195Y-46777205D01*
X83954285Y-46363571D01*
X83638093Y-46046828D01*
X83525554Y-46000098D01*
X83636429Y-45954285D01*
X83953172Y-45638093D01*
X84124804Y-45224758D01*
X84125195Y-44777205D01*
X83954285Y-44363571D01*
X83638093Y-44046828D01*
X83224758Y-43875196D01*
X83208077Y-43875181D01*
X82592896Y-43260000D01*
X83000000Y-43260000D01*
X83482181Y-43164088D01*
X83890955Y-42890955D01*
X84164088Y-42482181D01*
X84260000Y-42000000D01*
X84164088Y-41517819D01*
X83890955Y-41109045D01*
X83482181Y-40835912D01*
X83000000Y-40740000D01*
X82521909Y-40740000D01*
X80685000Y-38903090D01*
X80685000Y-36941080D01*
X80799761Y-36664704D01*
X80799763Y-36662305D01*
X86679762Y-36662305D01*
X86888652Y-37167857D01*
X87275108Y-37554989D01*
X87780296Y-37764761D01*
X88327305Y-37765238D01*
X88832857Y-37556348D01*
X89219989Y-37169892D01*
X89324999Y-36916999D01*
X89428652Y-37167857D01*
X89652500Y-37392097D01*
X89652500Y-46595000D01*
X89724244Y-46955679D01*
X89874841Y-47181064D01*
X89874805Y-47222795D01*
X90045715Y-47636429D01*
X90361907Y-47953172D01*
X90775242Y-48124804D01*
X91222795Y-48125195D01*
X91636429Y-47954285D01*
X91953172Y-47638093D01*
X91999902Y-47525554D01*
X92045715Y-47636429D01*
X92361907Y-47953172D01*
X92775242Y-48124804D01*
X93222795Y-48125195D01*
X93636429Y-47954285D01*
X93953172Y-47638093D01*
X93999902Y-47525554D01*
X94045715Y-47636429D01*
X94361907Y-47953172D01*
X94775242Y-48124804D01*
X95222795Y-48125195D01*
X95636429Y-47954285D01*
X95953172Y-47638093D01*
X96124804Y-47224758D01*
X96124819Y-47208077D01*
X96877866Y-46455030D01*
X96835912Y-46517819D01*
X96739999Y-47000000D01*
X96740000Y-47000005D01*
X96740000Y-48000000D01*
X96835912Y-48482181D01*
X97109045Y-48890955D01*
X97517819Y-49164088D01*
X98000000Y-49260000D01*
X98482181Y-49164088D01*
X98890955Y-48890955D01*
X99164088Y-48482181D01*
X99260000Y-48000000D01*
X99260000Y-47521910D01*
X103121320Y-43660589D01*
X110249610Y-43660589D01*
X110591431Y-44487858D01*
X111223813Y-45121345D01*
X112050484Y-45464608D01*
X112945589Y-45465390D01*
X113772858Y-45123569D01*
X114406345Y-44491187D01*
X114749608Y-43664516D01*
X114750390Y-42769411D01*
X114408569Y-41942142D01*
X113776187Y-41308655D01*
X112949516Y-40965392D01*
X112054411Y-40964610D01*
X111227142Y-41306431D01*
X110593655Y-41938813D01*
X110250392Y-42765484D01*
X110249610Y-43660589D01*
X103121320Y-43660589D01*
X103869593Y-42912316D01*
X105365118Y-42912316D01*
X105433821Y-43150204D01*
X105949549Y-43332534D01*
X106495794Y-43303624D01*
X106866179Y-43150204D01*
X106934882Y-42912316D01*
X106150000Y-42127434D01*
X105365118Y-42912316D01*
X103869593Y-42912316D01*
X104500952Y-42280957D01*
X104500955Y-42280955D01*
X104769578Y-41878931D01*
X104791376Y-42290794D01*
X104944796Y-42661179D01*
X105182684Y-42729882D01*
X105967566Y-41945000D01*
X106332434Y-41945000D01*
X107117316Y-42729882D01*
X107355204Y-42661179D01*
X107537534Y-42145451D01*
X107508624Y-41599206D01*
X107355204Y-41228821D01*
X107117316Y-41160118D01*
X106332434Y-41945000D01*
X105967566Y-41945000D01*
X105182684Y-41160118D01*
X104944796Y-41228821D01*
X104847087Y-41505195D01*
X104870001Y-41390000D01*
X104870000Y-41389995D01*
X104870000Y-41226080D01*
X104984761Y-40949704D01*
X104985238Y-40402695D01*
X104972686Y-40372316D01*
X105365118Y-40372316D01*
X105433821Y-40610204D01*
X105602614Y-40669879D01*
X105433821Y-40739796D01*
X105365118Y-40977684D01*
X106150000Y-41762566D01*
X106934882Y-40977684D01*
X106866179Y-40739796D01*
X106697386Y-40680121D01*
X106866179Y-40610204D01*
X106934882Y-40372316D01*
X106150000Y-39587434D01*
X105365118Y-40372316D01*
X104972686Y-40372316D01*
X104776348Y-39897143D01*
X104389892Y-39510011D01*
X104136999Y-39405001D01*
X104387857Y-39301348D01*
X104484825Y-39204549D01*
X104762466Y-39204549D01*
X104791376Y-39750794D01*
X104944796Y-40121179D01*
X105182684Y-40189882D01*
X105967566Y-39405000D01*
X106332434Y-39405000D01*
X107117316Y-40189882D01*
X107355204Y-40121179D01*
X107537534Y-39605451D01*
X107508624Y-39059206D01*
X107355204Y-38688821D01*
X107117316Y-38620118D01*
X106332434Y-39405000D01*
X105967566Y-39405000D01*
X105182684Y-38620118D01*
X104944796Y-38688821D01*
X104762466Y-39204549D01*
X104484825Y-39204549D01*
X104774989Y-38914892D01*
X104984761Y-38409704D01*
X104985238Y-37862695D01*
X104972686Y-37832316D01*
X105365118Y-37832316D01*
X105433821Y-38070204D01*
X105602614Y-38129879D01*
X105433821Y-38199796D01*
X105365118Y-38437684D01*
X106150000Y-39222566D01*
X106934882Y-38437684D01*
X106866179Y-38199796D01*
X106697386Y-38140121D01*
X106866179Y-38070204D01*
X106934882Y-37832316D01*
X106150000Y-37047434D01*
X105365118Y-37832316D01*
X104972686Y-37832316D01*
X104776348Y-37357143D01*
X104389892Y-36970011D01*
X104136999Y-36865001D01*
X104387857Y-36761348D01*
X104484825Y-36664549D01*
X104762466Y-36664549D01*
X104791376Y-37210794D01*
X104944796Y-37581179D01*
X105182684Y-37649882D01*
X105967566Y-36865000D01*
X106332434Y-36865000D01*
X107117316Y-37649882D01*
X107355204Y-37581179D01*
X107537534Y-37065451D01*
X107508624Y-36519206D01*
X107355204Y-36148821D01*
X107117316Y-36080118D01*
X106332434Y-36865000D01*
X105967566Y-36865000D01*
X105182684Y-36080118D01*
X104944796Y-36148821D01*
X104762466Y-36664549D01*
X104484825Y-36664549D01*
X104774989Y-36374892D01*
X104984761Y-35869704D01*
X104985238Y-35322695D01*
X104972686Y-35292316D01*
X105365118Y-35292316D01*
X105433821Y-35530204D01*
X105602614Y-35589879D01*
X105433821Y-35659796D01*
X105365118Y-35897684D01*
X106150000Y-36682566D01*
X106934882Y-35897684D01*
X106866179Y-35659796D01*
X106697386Y-35600121D01*
X106866179Y-35530204D01*
X106934882Y-35292316D01*
X106150000Y-34507434D01*
X105365118Y-35292316D01*
X104972686Y-35292316D01*
X104776348Y-34817143D01*
X104389892Y-34430011D01*
X104136999Y-34325001D01*
X104387857Y-34221348D01*
X104484825Y-34124549D01*
X104762466Y-34124549D01*
X104791376Y-34670794D01*
X104944796Y-35041179D01*
X105182684Y-35109882D01*
X105967566Y-34325000D01*
X106332434Y-34325000D01*
X107117316Y-35109882D01*
X107355204Y-35041179D01*
X107537534Y-34525451D01*
X107508624Y-33979206D01*
X107355204Y-33608821D01*
X107117316Y-33540118D01*
X106332434Y-34325000D01*
X105967566Y-34325000D01*
X105182684Y-33540118D01*
X104944796Y-33608821D01*
X104762466Y-34124549D01*
X104484825Y-34124549D01*
X104774989Y-33834892D01*
X104973142Y-33357684D01*
X105365118Y-33357684D01*
X106150000Y-34142566D01*
X106934882Y-33357684D01*
X106866179Y-33119796D01*
X106350451Y-32937466D01*
X105804206Y-32966376D01*
X105433821Y-33119796D01*
X105365118Y-33357684D01*
X104973142Y-33357684D01*
X104984761Y-33329704D01*
X104985238Y-32782695D01*
X104776348Y-32277143D01*
X104729876Y-32230589D01*
X110249610Y-32230589D01*
X110591431Y-33057858D01*
X111223813Y-33691345D01*
X112050484Y-34034608D01*
X112945589Y-34035390D01*
X113772858Y-33693569D01*
X114406345Y-33061187D01*
X114749608Y-32234516D01*
X114750390Y-31339411D01*
X114408569Y-30512142D01*
X113776187Y-29878655D01*
X112949516Y-29535392D01*
X112054411Y-29534610D01*
X111227142Y-29876431D01*
X110593655Y-30508813D01*
X110250392Y-31335484D01*
X110249610Y-32230589D01*
X104729876Y-32230589D01*
X104389892Y-31890011D01*
X103884704Y-31680239D01*
X103337695Y-31679762D01*
X102832143Y-31888652D01*
X102445011Y-32275108D01*
X102235239Y-32780296D01*
X102234762Y-33327305D01*
X102443652Y-33832857D01*
X102830108Y-34219989D01*
X103083001Y-34324999D01*
X102832143Y-34428652D01*
X102607903Y-34652500D01*
X101405000Y-34652500D01*
X101044321Y-34724244D01*
X100738552Y-34928552D01*
X98333552Y-37333552D01*
X98129244Y-37639321D01*
X98057500Y-38000000D01*
X98057500Y-40609604D01*
X97158159Y-41508945D01*
X96935000Y-41174963D01*
X96935000Y-36941080D01*
X97049761Y-36664704D01*
X97050238Y-36117695D01*
X96841348Y-35612143D01*
X96454892Y-35225011D01*
X95949704Y-35015239D01*
X95402695Y-35014762D01*
X94897143Y-35223652D01*
X94510011Y-35610108D01*
X94405001Y-35863001D01*
X94301348Y-35612143D01*
X93914892Y-35225011D01*
X93409704Y-35015239D01*
X92862695Y-35014762D01*
X92357143Y-35223652D01*
X91970011Y-35610108D01*
X91865001Y-35863001D01*
X91761348Y-35612143D01*
X91374892Y-35225011D01*
X90869704Y-35015239D01*
X90322695Y-35014762D01*
X89817143Y-35223652D01*
X89430011Y-35610108D01*
X89325001Y-35863001D01*
X89221348Y-35612143D01*
X88834892Y-35225011D01*
X88329704Y-35015239D01*
X87782695Y-35014762D01*
X87277143Y-35223652D01*
X86890011Y-35610108D01*
X86680239Y-36115296D01*
X86679762Y-36662305D01*
X80799763Y-36662305D01*
X80800238Y-36117695D01*
X80591348Y-35612143D01*
X80204892Y-35225011D01*
X79699704Y-35015239D01*
X79152695Y-35014762D01*
X78647143Y-35223652D01*
X78260011Y-35610108D01*
X78155001Y-35863001D01*
X78051348Y-35612143D01*
X77664892Y-35225011D01*
X77159704Y-35015239D01*
X76612695Y-35014762D01*
X76107143Y-35223652D01*
X75720011Y-35610108D01*
X75615001Y-35863001D01*
X75511348Y-35612143D01*
X75124892Y-35225011D01*
X74619704Y-35015239D01*
X74072695Y-35014762D01*
X73567143Y-35223652D01*
X73180011Y-35610108D01*
X73075001Y-35863001D01*
X72971348Y-35612143D01*
X72584892Y-35225011D01*
X72079704Y-35015239D01*
X71532695Y-35014762D01*
X71027143Y-35223652D01*
X70640011Y-35610108D01*
X70430239Y-36115296D01*
X70429762Y-36662305D01*
X57815500Y-36662305D01*
X57815500Y-34817316D01*
X72290118Y-34817316D01*
X72358821Y-35055204D01*
X72874549Y-35237534D01*
X73420794Y-35208624D01*
X73791179Y-35055204D01*
X73859882Y-34817316D01*
X74830118Y-34817316D01*
X74898821Y-35055204D01*
X75414549Y-35237534D01*
X75960794Y-35208624D01*
X76331179Y-35055204D01*
X76399882Y-34817316D01*
X77370118Y-34817316D01*
X77438821Y-35055204D01*
X77954549Y-35237534D01*
X78500794Y-35208624D01*
X78871179Y-35055204D01*
X78939882Y-34817316D01*
X79910118Y-34817316D01*
X79978821Y-35055204D01*
X80494549Y-35237534D01*
X81040794Y-35208624D01*
X81411179Y-35055204D01*
X81479882Y-34817316D01*
X88540118Y-34817316D01*
X88608821Y-35055204D01*
X89124549Y-35237534D01*
X89670794Y-35208624D01*
X90041179Y-35055204D01*
X90109882Y-34817316D01*
X91080118Y-34817316D01*
X91148821Y-35055204D01*
X91664549Y-35237534D01*
X92210794Y-35208624D01*
X92581179Y-35055204D01*
X92649882Y-34817316D01*
X93620118Y-34817316D01*
X93688821Y-35055204D01*
X94204549Y-35237534D01*
X94750794Y-35208624D01*
X95121179Y-35055204D01*
X95189882Y-34817316D01*
X96160118Y-34817316D01*
X96228821Y-35055204D01*
X96744549Y-35237534D01*
X97290794Y-35208624D01*
X97661179Y-35055204D01*
X97729882Y-34817316D01*
X96945000Y-34032434D01*
X96160118Y-34817316D01*
X95189882Y-34817316D01*
X94405000Y-34032434D01*
X93620118Y-34817316D01*
X92649882Y-34817316D01*
X91865000Y-34032434D01*
X91080118Y-34817316D01*
X90109882Y-34817316D01*
X89325000Y-34032434D01*
X88540118Y-34817316D01*
X81479882Y-34817316D01*
X80695000Y-34032434D01*
X79910118Y-34817316D01*
X78939882Y-34817316D01*
X78155000Y-34032434D01*
X77370118Y-34817316D01*
X76399882Y-34817316D01*
X75615000Y-34032434D01*
X74830118Y-34817316D01*
X73859882Y-34817316D01*
X73075000Y-34032434D01*
X72290118Y-34817316D01*
X57815500Y-34817316D01*
X57815500Y-33649549D01*
X71687466Y-33649549D01*
X71716376Y-34195794D01*
X71869796Y-34566179D01*
X72107684Y-34634882D01*
X72892566Y-33850000D01*
X73257434Y-33850000D01*
X74042316Y-34634882D01*
X74280204Y-34566179D01*
X74339879Y-34397386D01*
X74409796Y-34566179D01*
X74647684Y-34634882D01*
X75432566Y-33850000D01*
X75797434Y-33850000D01*
X76582316Y-34634882D01*
X76820204Y-34566179D01*
X76879879Y-34397386D01*
X76949796Y-34566179D01*
X77187684Y-34634882D01*
X77972566Y-33850000D01*
X78337434Y-33850000D01*
X79122316Y-34634882D01*
X79360204Y-34566179D01*
X79419879Y-34397386D01*
X79489796Y-34566179D01*
X79727684Y-34634882D01*
X80512566Y-33850000D01*
X80877434Y-33850000D01*
X81662316Y-34634882D01*
X81900204Y-34566179D01*
X82082534Y-34050451D01*
X82061317Y-33649549D01*
X87937466Y-33649549D01*
X87966376Y-34195794D01*
X88119796Y-34566179D01*
X88357684Y-34634882D01*
X89142566Y-33850000D01*
X89507434Y-33850000D01*
X90292316Y-34634882D01*
X90530204Y-34566179D01*
X90589879Y-34397386D01*
X90659796Y-34566179D01*
X90897684Y-34634882D01*
X91682566Y-33850000D01*
X92047434Y-33850000D01*
X92832316Y-34634882D01*
X93070204Y-34566179D01*
X93129879Y-34397386D01*
X93199796Y-34566179D01*
X93437684Y-34634882D01*
X94222566Y-33850000D01*
X94587434Y-33850000D01*
X95372316Y-34634882D01*
X95610204Y-34566179D01*
X95669879Y-34397386D01*
X95739796Y-34566179D01*
X95977684Y-34634882D01*
X96762566Y-33850000D01*
X97127434Y-33850000D01*
X97912316Y-34634882D01*
X98150204Y-34566179D01*
X98332534Y-34050451D01*
X98303624Y-33504206D01*
X98150204Y-33133821D01*
X97912316Y-33065118D01*
X97127434Y-33850000D01*
X96762566Y-33850000D01*
X95977684Y-33065118D01*
X95739796Y-33133821D01*
X95680121Y-33302614D01*
X95610204Y-33133821D01*
X95372316Y-33065118D01*
X94587434Y-33850000D01*
X94222566Y-33850000D01*
X93437684Y-33065118D01*
X93199796Y-33133821D01*
X93140121Y-33302614D01*
X93070204Y-33133821D01*
X92832316Y-33065118D01*
X92047434Y-33850000D01*
X91682566Y-33850000D01*
X90897684Y-33065118D01*
X90659796Y-33133821D01*
X90600121Y-33302614D01*
X90530204Y-33133821D01*
X90292316Y-33065118D01*
X89507434Y-33850000D01*
X89142566Y-33850000D01*
X88357684Y-33065118D01*
X88119796Y-33133821D01*
X87937466Y-33649549D01*
X82061317Y-33649549D01*
X82053624Y-33504206D01*
X81900204Y-33133821D01*
X81662316Y-33065118D01*
X80877434Y-33850000D01*
X80512566Y-33850000D01*
X79727684Y-33065118D01*
X79489796Y-33133821D01*
X79430121Y-33302614D01*
X79360204Y-33133821D01*
X79122316Y-33065118D01*
X78337434Y-33850000D01*
X77972566Y-33850000D01*
X77187684Y-33065118D01*
X76949796Y-33133821D01*
X76890121Y-33302614D01*
X76820204Y-33133821D01*
X76582316Y-33065118D01*
X75797434Y-33850000D01*
X75432566Y-33850000D01*
X74647684Y-33065118D01*
X74409796Y-33133821D01*
X74350121Y-33302614D01*
X74280204Y-33133821D01*
X74042316Y-33065118D01*
X73257434Y-33850000D01*
X72892566Y-33850000D01*
X72107684Y-33065118D01*
X71869796Y-33133821D01*
X71687466Y-33649549D01*
X57815500Y-33649549D01*
X57815500Y-32882684D01*
X72290118Y-32882684D01*
X73075000Y-33667566D01*
X73859882Y-32882684D01*
X74830118Y-32882684D01*
X75615000Y-33667566D01*
X76399882Y-32882684D01*
X77370118Y-32882684D01*
X78155000Y-33667566D01*
X78939882Y-32882684D01*
X79910118Y-32882684D01*
X80695000Y-33667566D01*
X81479882Y-32882684D01*
X88540118Y-32882684D01*
X89325000Y-33667566D01*
X90109882Y-32882684D01*
X91080118Y-32882684D01*
X91865000Y-33667566D01*
X92649882Y-32882684D01*
X93620118Y-32882684D01*
X94405000Y-33667566D01*
X95189882Y-32882684D01*
X96160118Y-32882684D01*
X96945000Y-33667566D01*
X97729882Y-32882684D01*
X97661179Y-32644796D01*
X97145451Y-32462466D01*
X96599206Y-32491376D01*
X96228821Y-32644796D01*
X96160118Y-32882684D01*
X95189882Y-32882684D01*
X95121179Y-32644796D01*
X94605451Y-32462466D01*
X94059206Y-32491376D01*
X93688821Y-32644796D01*
X93620118Y-32882684D01*
X92649882Y-32882684D01*
X92581179Y-32644796D01*
X92065451Y-32462466D01*
X91519206Y-32491376D01*
X91148821Y-32644796D01*
X91080118Y-32882684D01*
X90109882Y-32882684D01*
X90041179Y-32644796D01*
X89525451Y-32462466D01*
X88979206Y-32491376D01*
X88608821Y-32644796D01*
X88540118Y-32882684D01*
X81479882Y-32882684D01*
X81411179Y-32644796D01*
X80895451Y-32462466D01*
X80349206Y-32491376D01*
X79978821Y-32644796D01*
X79910118Y-32882684D01*
X78939882Y-32882684D01*
X78871179Y-32644796D01*
X78355451Y-32462466D01*
X77809206Y-32491376D01*
X77438821Y-32644796D01*
X77370118Y-32882684D01*
X76399882Y-32882684D01*
X76331179Y-32644796D01*
X75815451Y-32462466D01*
X75269206Y-32491376D01*
X74898821Y-32644796D01*
X74830118Y-32882684D01*
X73859882Y-32882684D01*
X73791179Y-32644796D01*
X73275451Y-32462466D01*
X72729206Y-32491376D01*
X72358821Y-32644796D01*
X72290118Y-32882684D01*
X57815500Y-32882684D01*
X57815500Y-31775526D01*
X57953172Y-31638093D01*
X58124804Y-31224758D01*
X58125195Y-30777205D01*
X57954285Y-30363571D01*
X57638093Y-30046828D01*
X57224758Y-29875196D01*
X56777205Y-29874805D01*
X56363571Y-30045715D01*
X56046828Y-30361907D01*
X55875196Y-30775242D01*
X55874805Y-31222795D01*
X52124805Y-31222795D01*
X52125195Y-30777205D01*
X51954285Y-30363571D01*
X51638093Y-30046828D01*
X51224758Y-29875196D01*
X50777205Y-29874805D01*
X50363571Y-30045715D01*
X50046828Y-30361907D01*
X49875196Y-30775242D01*
X49875024Y-30971684D01*
X49423354Y-31423354D01*
X49246576Y-31687921D01*
X49184499Y-32000000D01*
X49184500Y-32000005D01*
X49184500Y-33999995D01*
X49184499Y-34000000D01*
X49246576Y-34312079D01*
X49423354Y-34576646D01*
X52184500Y-37337791D01*
X52184500Y-47875000D01*
X52125110Y-47875000D01*
X52125195Y-47777205D01*
X51954285Y-47363571D01*
X51638093Y-47046828D01*
X51224758Y-46875196D01*
X50777205Y-46874805D01*
X50363571Y-47045715D01*
X50046828Y-47361907D01*
X49875196Y-47775242D01*
X49875024Y-47971684D01*
X48423354Y-49423354D01*
X48246576Y-49687921D01*
X48184499Y-50000000D01*
X48184500Y-50000005D01*
X48184500Y-64224474D01*
X48046828Y-64361907D01*
X47875196Y-64775242D01*
X47874805Y-65222795D01*
X20700000Y-65222795D01*
X20700000Y-37220000D01*
X23326851Y-37220000D01*
X23440164Y-37789663D01*
X23762852Y-38272599D01*
X24088215Y-38490000D01*
X23762852Y-38707401D01*
X23440164Y-39190337D01*
X23326851Y-39760000D01*
X23440164Y-40329663D01*
X23762852Y-40812599D01*
X24088215Y-41030000D01*
X23762852Y-41247401D01*
X23440164Y-41730337D01*
X23326851Y-42300000D01*
X23440164Y-42869663D01*
X23762852Y-43352599D01*
X24088215Y-43570000D01*
X23762852Y-43787401D01*
X23440164Y-44270337D01*
X23326851Y-44840000D01*
X23440164Y-45409663D01*
X23762852Y-45892599D01*
X24088215Y-46110000D01*
X23762852Y-46327401D01*
X23440164Y-46810337D01*
X23326851Y-47380000D01*
X23440164Y-47949663D01*
X23762852Y-48432599D01*
X24088215Y-48650000D01*
X23762852Y-48867401D01*
X23440164Y-49350337D01*
X23326851Y-49920000D01*
X23440164Y-50489663D01*
X23762852Y-50972599D01*
X24088215Y-51190000D01*
X23762852Y-51407401D01*
X23440164Y-51890337D01*
X23326851Y-52460000D01*
X23440164Y-53029663D01*
X23762852Y-53512599D01*
X23795747Y-53534579D01*
X23752389Y-53542737D01*
X23539668Y-53679619D01*
X23396962Y-53888476D01*
X23346756Y-54136400D01*
X23346756Y-55863600D01*
X23390337Y-56095211D01*
X23527219Y-56307932D01*
X23736076Y-56450638D01*
X23984000Y-56500844D01*
X26016000Y-56500844D01*
X26247611Y-56457263D01*
X26460332Y-56320381D01*
X26603038Y-56111524D01*
X26653244Y-55863600D01*
X26653244Y-54136400D01*
X26609663Y-53904789D01*
X26472781Y-53692068D01*
X26263924Y-53549362D01*
X26201153Y-53536650D01*
X26237148Y-53512599D01*
X26559836Y-53029663D01*
X26673149Y-52460000D01*
X26559836Y-51890337D01*
X26237148Y-51407401D01*
X25911785Y-51190000D01*
X26237148Y-50972599D01*
X26559836Y-50489663D01*
X26673149Y-49920000D01*
X26559836Y-49350337D01*
X26237148Y-48867401D01*
X25911785Y-48650000D01*
X26237148Y-48432599D01*
X26559836Y-47949663D01*
X26673149Y-47380000D01*
X26559836Y-46810337D01*
X26237148Y-46327401D01*
X25911785Y-46110000D01*
X26237148Y-45892599D01*
X26559836Y-45409663D01*
X26673149Y-44840000D01*
X26559836Y-44270337D01*
X26237148Y-43787401D01*
X25911785Y-43570000D01*
X26237148Y-43352599D01*
X26559836Y-42869663D01*
X26673149Y-42300000D01*
X26559836Y-41730337D01*
X26237148Y-41247401D01*
X25911785Y-41030000D01*
X26237148Y-40812599D01*
X26559836Y-40329663D01*
X26673149Y-39760000D01*
X26559836Y-39190337D01*
X26237148Y-38707401D01*
X25911785Y-38490000D01*
X26237148Y-38272599D01*
X26559836Y-37789663D01*
X26673149Y-37220000D01*
X26559836Y-36650337D01*
X26237148Y-36167401D01*
X25754212Y-35844713D01*
X25184549Y-35731400D01*
X24815451Y-35731400D01*
X24245788Y-35844713D01*
X23762852Y-36167401D01*
X23440164Y-36650337D01*
X23326851Y-37220000D01*
X20700000Y-37220000D01*
X20700000Y-27945589D01*
X68284610Y-27945589D01*
X68626431Y-28772858D01*
X69258813Y-29406345D01*
X70085484Y-29749608D01*
X70980589Y-29750390D01*
X71807858Y-29408569D01*
X72441345Y-28776187D01*
X72784608Y-27949516D01*
X72784611Y-27945589D01*
X79714610Y-27945589D01*
X80056431Y-28772858D01*
X80688813Y-29406345D01*
X81515484Y-29749608D01*
X82410589Y-29750390D01*
X83237858Y-29408569D01*
X83871345Y-28776187D01*
X84214608Y-27949516D01*
X84214611Y-27945589D01*
X84534610Y-27945589D01*
X84876431Y-28772858D01*
X85508813Y-29406345D01*
X86335484Y-29749608D01*
X87230589Y-29750390D01*
X88057858Y-29408569D01*
X88691345Y-28776187D01*
X89034608Y-27949516D01*
X89034611Y-27945589D01*
X95964610Y-27945589D01*
X96306431Y-28772858D01*
X96938813Y-29406345D01*
X97765484Y-29749608D01*
X98660589Y-29750390D01*
X99487858Y-29408569D01*
X100121345Y-28776187D01*
X100464608Y-27949516D01*
X100465390Y-27054411D01*
X100123569Y-26227142D01*
X99491187Y-25593655D01*
X99122681Y-25440638D01*
X112774615Y-25440638D01*
X113112637Y-26258715D01*
X113737993Y-26885163D01*
X114555479Y-27224613D01*
X115440638Y-27225385D01*
X116258715Y-26887363D01*
X116885163Y-26262007D01*
X117224613Y-25444521D01*
X117225385Y-24559362D01*
X116887363Y-23741285D01*
X116262007Y-23114837D01*
X115444521Y-22775387D01*
X114559362Y-22774615D01*
X113741285Y-23112637D01*
X113114837Y-23737993D01*
X112775387Y-24555479D01*
X112774615Y-25440638D01*
X99122681Y-25440638D01*
X98664516Y-25250392D01*
X97769411Y-25249610D01*
X96942142Y-25591431D01*
X96308655Y-26223813D01*
X95965392Y-27050484D01*
X95964610Y-27945589D01*
X89034611Y-27945589D01*
X89035390Y-27054411D01*
X88693569Y-26227142D01*
X88061187Y-25593655D01*
X87234516Y-25250392D01*
X86339411Y-25249610D01*
X85512142Y-25591431D01*
X84878655Y-26223813D01*
X84535392Y-27050484D01*
X84534610Y-27945589D01*
X84214611Y-27945589D01*
X84215390Y-27054411D01*
X83873569Y-26227142D01*
X83241187Y-25593655D01*
X82414516Y-25250392D01*
X81519411Y-25249610D01*
X80692142Y-25591431D01*
X80058655Y-26223813D01*
X79715392Y-27050484D01*
X79714610Y-27945589D01*
X72784611Y-27945589D01*
X72785390Y-27054411D01*
X72443569Y-26227142D01*
X71811187Y-25593655D01*
X70984516Y-25250392D01*
X70089411Y-25249610D01*
X69262142Y-25591431D01*
X68628655Y-26223813D01*
X68285392Y-27050484D01*
X68284610Y-27945589D01*
X20700000Y-27945589D01*
X20700000Y-25440638D01*
X22774615Y-25440638D01*
X23112637Y-26258715D01*
X23737993Y-26885163D01*
X24555479Y-27224613D01*
X25440638Y-27225385D01*
X26258715Y-26887363D01*
X26885163Y-26262007D01*
X27224613Y-25444521D01*
X27225385Y-24559362D01*
X26987651Y-23984000D01*
X35999156Y-23984000D01*
X35999156Y-26016000D01*
X36042737Y-26247611D01*
X36179619Y-26460332D01*
X36388476Y-26603038D01*
X36636400Y-26653244D01*
X38363600Y-26653244D01*
X38595211Y-26609663D01*
X38807932Y-26472781D01*
X38950638Y-26263924D01*
X38963350Y-26201153D01*
X38987401Y-26237148D01*
X39470337Y-26559836D01*
X40040000Y-26673149D01*
X40609663Y-26559836D01*
X41092599Y-26237148D01*
X41310000Y-25911785D01*
X41527401Y-26237148D01*
X42010337Y-26559836D01*
X42580000Y-26673149D01*
X43149663Y-26559836D01*
X43632599Y-26237148D01*
X43850000Y-25911785D01*
X44067401Y-26237148D01*
X44550337Y-26559836D01*
X45120000Y-26673149D01*
X45689663Y-26559836D01*
X46172599Y-26237148D01*
X46390000Y-25911785D01*
X46607401Y-26237148D01*
X47090337Y-26559836D01*
X47660000Y-26673149D01*
X48229663Y-26559836D01*
X48712599Y-26237148D01*
X48930000Y-25911785D01*
X49147401Y-26237148D01*
X49630337Y-26559836D01*
X50200000Y-26673149D01*
X50769663Y-26559836D01*
X51252599Y-26237148D01*
X51470000Y-25911785D01*
X51687401Y-26237148D01*
X52170337Y-26559836D01*
X52740000Y-26673149D01*
X53309663Y-26559836D01*
X53792599Y-26237148D01*
X54010000Y-25911785D01*
X54227401Y-26237148D01*
X54710337Y-26559836D01*
X55280000Y-26673149D01*
X55849663Y-26559836D01*
X56332599Y-26237148D01*
X56655287Y-25754212D01*
X56768600Y-25184549D01*
X56768600Y-24815451D01*
X56655287Y-24245788D01*
X56332599Y-23762852D01*
X55849663Y-23440164D01*
X55280000Y-23326851D01*
X54710337Y-23440164D01*
X54227401Y-23762852D01*
X54010000Y-24088215D01*
X53792599Y-23762852D01*
X53309663Y-23440164D01*
X52740000Y-23326851D01*
X52170337Y-23440164D01*
X51687401Y-23762852D01*
X51470000Y-24088215D01*
X51252599Y-23762852D01*
X50769663Y-23440164D01*
X50200000Y-23326851D01*
X49630337Y-23440164D01*
X49147401Y-23762852D01*
X48930000Y-24088215D01*
X48712599Y-23762852D01*
X48229663Y-23440164D01*
X47660000Y-23326851D01*
X47090337Y-23440164D01*
X46607401Y-23762852D01*
X46390000Y-24088215D01*
X46172599Y-23762852D01*
X45689663Y-23440164D01*
X45120000Y-23326851D01*
X44550337Y-23440164D01*
X44067401Y-23762852D01*
X43850000Y-24088215D01*
X43632599Y-23762852D01*
X43149663Y-23440164D01*
X42580000Y-23326851D01*
X42010337Y-23440164D01*
X41527401Y-23762852D01*
X41310000Y-24088215D01*
X41092599Y-23762852D01*
X40609663Y-23440164D01*
X40040000Y-23326851D01*
X39470337Y-23440164D01*
X38987401Y-23762852D01*
X38965421Y-23795747D01*
X38957263Y-23752389D01*
X38820381Y-23539668D01*
X38611524Y-23396962D01*
X38363600Y-23346756D01*
X36636400Y-23346756D01*
X36404789Y-23390337D01*
X36192068Y-23527219D01*
X36049362Y-23736076D01*
X35999156Y-23984000D01*
X26987651Y-23984000D01*
X26887363Y-23741285D01*
X26262007Y-23114837D01*
X25444521Y-22775387D01*
X24559362Y-22774615D01*
X23741285Y-23112637D01*
X23114837Y-23737993D01*
X22775387Y-24555479D01*
X22774615Y-25440638D01*
X20700000Y-25440638D01*
X20700000Y-20700000D01*
X119300000Y-20700000D01*
X119300000Y-119300000D01*
X119300000Y-119300000D01*
G37*
X119300000Y-119300000D02*
X20700000Y-119300000D01*
X20700000Y-115440638D01*
X22774615Y-115440638D01*
X23112637Y-116258715D01*
X23737993Y-116885163D01*
X24555479Y-117224613D01*
X25440638Y-117225385D01*
X26258715Y-116887363D01*
X26885163Y-116262007D01*
X27224613Y-115444521D01*
X27225161Y-114815451D01*
X36981400Y-114815451D01*
X36981400Y-115184549D01*
X37094713Y-115754212D01*
X37417401Y-116237148D01*
X37900337Y-116559836D01*
X38470000Y-116673149D01*
X39039663Y-116559836D01*
X39522599Y-116237148D01*
X39740000Y-115911785D01*
X39957401Y-116237148D01*
X40440337Y-116559836D01*
X41010000Y-116673149D01*
X41579663Y-116559836D01*
X42062599Y-116237148D01*
X42280000Y-115911785D01*
X42497401Y-116237148D01*
X42980337Y-116559836D01*
X43550000Y-116673149D01*
X44119663Y-116559836D01*
X44602599Y-116237148D01*
X44820000Y-115911785D01*
X45037401Y-116237148D01*
X45520337Y-116559836D01*
X46090000Y-116673149D01*
X46659663Y-116559836D01*
X47142599Y-116237148D01*
X47360000Y-115911785D01*
X47577401Y-116237148D01*
X48060337Y-116559836D01*
X48630000Y-116673149D01*
X49199663Y-116559836D01*
X49682599Y-116237148D01*
X49900000Y-115911785D01*
X50117401Y-116237148D01*
X50600337Y-116559836D01*
X51170000Y-116673149D01*
X51739663Y-116559836D01*
X52222599Y-116237148D01*
X52440000Y-115911785D01*
X52657401Y-116237148D01*
X53140337Y-116559836D01*
X53710000Y-116673149D01*
X54279663Y-116559836D01*
X54762599Y-116237148D01*
X54784579Y-116204253D01*
X54792737Y-116247611D01*
X54929619Y-116460332D01*
X55138476Y-116603038D01*
X55386400Y-116653244D01*
X57113600Y-116653244D01*
X57345211Y-116609663D01*
X57557932Y-116472781D01*
X57700638Y-116263924D01*
X57750844Y-116016000D01*
X57750844Y-115440638D01*
X112774615Y-115440638D01*
X113112637Y-116258715D01*
X113737993Y-116885163D01*
X114555479Y-117224613D01*
X115440638Y-117225385D01*
X116258715Y-116887363D01*
X116885163Y-116262007D01*
X117224613Y-115444521D01*
X117225385Y-114559362D01*
X116887363Y-113741285D01*
X116262007Y-113114837D01*
X115444521Y-112775387D01*
X114559362Y-112774615D01*
X113741285Y-113112637D01*
X113114837Y-113737993D01*
X112775387Y-114555479D01*
X112774615Y-115440638D01*
X57750844Y-115440638D01*
X57750844Y-113984000D01*
X57707263Y-113752389D01*
X57570381Y-113539668D01*
X57361524Y-113396962D01*
X57113600Y-113346756D01*
X55386400Y-113346756D01*
X55154789Y-113390337D01*
X54942068Y-113527219D01*
X54799362Y-113736076D01*
X54786650Y-113798847D01*
X54762599Y-113762852D01*
X54279663Y-113440164D01*
X53710000Y-113326851D01*
X53140337Y-113440164D01*
X52657401Y-113762852D01*
X52440000Y-114088215D01*
X52222599Y-113762852D01*
X51739663Y-113440164D01*
X51170000Y-113326851D01*
X50600337Y-113440164D01*
X50117401Y-113762852D01*
X49900000Y-114088215D01*
X49682599Y-113762852D01*
X49199663Y-113440164D01*
X48630000Y-113326851D01*
X48060337Y-113440164D01*
X47577401Y-113762852D01*
X47360000Y-114088215D01*
X47142599Y-113762852D01*
X46659663Y-113440164D01*
X46090000Y-113326851D01*
X45520337Y-113440164D01*
X45037401Y-113762852D01*
X44820000Y-114088215D01*
X44602599Y-113762852D01*
X44119663Y-113440164D01*
X43550000Y-113326851D01*
X42980337Y-113440164D01*
X42497401Y-113762852D01*
X42280000Y-114088215D01*
X42062599Y-113762852D01*
X41579663Y-113440164D01*
X41010000Y-113326851D01*
X40440337Y-113440164D01*
X39957401Y-113762852D01*
X39740000Y-114088215D01*
X39522599Y-113762852D01*
X39039663Y-113440164D01*
X38470000Y-113326851D01*
X37900337Y-113440164D01*
X37417401Y-113762852D01*
X37094713Y-114245788D01*
X36981400Y-114815451D01*
X27225161Y-114815451D01*
X27225385Y-114559362D01*
X26887363Y-113741285D01*
X26262007Y-113114837D01*
X25854413Y-112945589D01*
X68284610Y-112945589D01*
X68626431Y-113772858D01*
X69258813Y-114406345D01*
X70085484Y-114749608D01*
X70980589Y-114750390D01*
X71807858Y-114408569D01*
X72441345Y-113776187D01*
X72784608Y-112949516D01*
X72784611Y-112945589D01*
X79714610Y-112945589D01*
X80056431Y-113772858D01*
X80688813Y-114406345D01*
X81515484Y-114749608D01*
X82410589Y-114750390D01*
X83237858Y-114408569D01*
X83871345Y-113776187D01*
X84214608Y-112949516D01*
X84214611Y-112945589D01*
X84534610Y-112945589D01*
X84876431Y-113772858D01*
X85508813Y-114406345D01*
X86335484Y-114749608D01*
X87230589Y-114750390D01*
X88057858Y-114408569D01*
X88691345Y-113776187D01*
X89034608Y-112949516D01*
X89034611Y-112945589D01*
X95964610Y-112945589D01*
X96306431Y-113772858D01*
X96938813Y-114406345D01*
X97765484Y-114749608D01*
X98660589Y-114750390D01*
X99487858Y-114408569D01*
X100121345Y-113776187D01*
X100464608Y-112949516D01*
X100465390Y-112054411D01*
X100123569Y-111227142D01*
X99491187Y-110593655D01*
X98664516Y-110250392D01*
X97769411Y-110249610D01*
X96942142Y-110591431D01*
X96308655Y-111223813D01*
X95965392Y-112050484D01*
X95964610Y-112945589D01*
X89034611Y-112945589D01*
X89035390Y-112054411D01*
X88693569Y-111227142D01*
X88061187Y-110593655D01*
X87234516Y-110250392D01*
X86339411Y-110249610D01*
X85512142Y-110591431D01*
X84878655Y-111223813D01*
X84535392Y-112050484D01*
X84534610Y-112945589D01*
X84214611Y-112945589D01*
X84215390Y-112054411D01*
X83873569Y-111227142D01*
X83241187Y-110593655D01*
X82414516Y-110250392D01*
X81519411Y-110249610D01*
X80692142Y-110591431D01*
X80058655Y-111223813D01*
X79715392Y-112050484D01*
X79714610Y-112945589D01*
X72784611Y-112945589D01*
X72785390Y-112054411D01*
X72443569Y-111227142D01*
X71811187Y-110593655D01*
X70984516Y-110250392D01*
X70089411Y-110249610D01*
X69262142Y-110591431D01*
X68628655Y-111223813D01*
X68285392Y-112050484D01*
X68284610Y-112945589D01*
X25854413Y-112945589D01*
X25444521Y-112775387D01*
X24559362Y-112774615D01*
X23741285Y-113112637D01*
X23114837Y-113737993D01*
X22775387Y-114555479D01*
X22774615Y-115440638D01*
X20700000Y-115440638D01*
X20700000Y-84720000D01*
X23326851Y-84720000D01*
X23440164Y-85289663D01*
X23762852Y-85772599D01*
X24088215Y-85990000D01*
X23762852Y-86207401D01*
X23440164Y-86690337D01*
X23326851Y-87260000D01*
X23440164Y-87829663D01*
X23762852Y-88312599D01*
X24088215Y-88530000D01*
X23762852Y-88747401D01*
X23440164Y-89230337D01*
X23326851Y-89800000D01*
X23440164Y-90369663D01*
X23762852Y-90852599D01*
X24088215Y-91070000D01*
X23762852Y-91287401D01*
X23440164Y-91770337D01*
X23326851Y-92340000D01*
X23440164Y-92909663D01*
X23762852Y-93392599D01*
X24088215Y-93610000D01*
X23762852Y-93827401D01*
X23440164Y-94310337D01*
X23326851Y-94880000D01*
X23440164Y-95449663D01*
X23762852Y-95932599D01*
X24088215Y-96150000D01*
X23762852Y-96367401D01*
X23440164Y-96850337D01*
X23326851Y-97420000D01*
X23440164Y-97989663D01*
X23762852Y-98472599D01*
X24088215Y-98690000D01*
X23762852Y-98907401D01*
X23440164Y-99390337D01*
X23326851Y-99960000D01*
X23440164Y-100529663D01*
X23762852Y-101012599D01*
X23795747Y-101034579D01*
X23752389Y-101042737D01*
X23539668Y-101179619D01*
X23396962Y-101388476D01*
X23346756Y-101636400D01*
X23346756Y-103363600D01*
X23390337Y-103595211D01*
X23527219Y-103807932D01*
X23736076Y-103950638D01*
X23984000Y-104000844D01*
X26016000Y-104000844D01*
X26247611Y-103957263D01*
X26460332Y-103820381D01*
X26603038Y-103611524D01*
X26653244Y-103363600D01*
X26653244Y-101636400D01*
X26609663Y-101404789D01*
X26472781Y-101192068D01*
X26263924Y-101049362D01*
X26201153Y-101036650D01*
X26237148Y-101012599D01*
X26559836Y-100529663D01*
X26673149Y-99960000D01*
X26559836Y-99390337D01*
X26237148Y-98907401D01*
X25911785Y-98690000D01*
X26237148Y-98472599D01*
X26559836Y-97989663D01*
X26673149Y-97420000D01*
X26559836Y-96850337D01*
X26237148Y-96367401D01*
X25911785Y-96150000D01*
X26237148Y-95932599D01*
X26559836Y-95449663D01*
X26673149Y-94880000D01*
X26559836Y-94310337D01*
X26237148Y-93827401D01*
X25911785Y-93610000D01*
X26237148Y-93392599D01*
X26559836Y-92909663D01*
X26673149Y-92340000D01*
X26559836Y-91770337D01*
X26237148Y-91287401D01*
X25911785Y-91070000D01*
X26237148Y-90852599D01*
X26559836Y-90369663D01*
X26673149Y-89800000D01*
X26559836Y-89230337D01*
X26237148Y-88747401D01*
X25911785Y-88530000D01*
X26237148Y-88312599D01*
X26559836Y-87829663D01*
X26673149Y-87260000D01*
X26559836Y-86690337D01*
X26237148Y-86207401D01*
X25911785Y-85990000D01*
X26237148Y-85772599D01*
X26559836Y-85289663D01*
X26673149Y-84720000D01*
X26559836Y-84150337D01*
X26237148Y-83667401D01*
X25754212Y-83344713D01*
X25184549Y-83231400D01*
X24815451Y-83231400D01*
X24245788Y-83344713D01*
X23762852Y-83667401D01*
X23440164Y-84150337D01*
X23326851Y-84720000D01*
X20700000Y-84720000D01*
X20700000Y-67380000D01*
X23326851Y-67380000D01*
X23440164Y-67949663D01*
X23762852Y-68432599D01*
X24088215Y-68650000D01*
X23762852Y-68867401D01*
X23440164Y-69350337D01*
X23326851Y-69920000D01*
X23440164Y-70489663D01*
X23762852Y-70972599D01*
X24088215Y-71190000D01*
X23762852Y-71407401D01*
X23440164Y-71890337D01*
X23326851Y-72460000D01*
X23440164Y-73029663D01*
X23762852Y-73512599D01*
X23795747Y-73534579D01*
X23752389Y-73542737D01*
X23539668Y-73679619D01*
X23396962Y-73888476D01*
X23346756Y-74136400D01*
X23346756Y-75863600D01*
X23390337Y-76095211D01*
X23527219Y-76307932D01*
X23736076Y-76450638D01*
X23984000Y-76500844D01*
X26016000Y-76500844D01*
X26247611Y-76457263D01*
X26460332Y-76320381D01*
X26603038Y-76111524D01*
X26653244Y-75863600D01*
X26653244Y-74136400D01*
X26609663Y-73904789D01*
X26472781Y-73692068D01*
X26263924Y-73549362D01*
X26201153Y-73536650D01*
X26237148Y-73512599D01*
X26559836Y-73029663D01*
X26673149Y-72460000D01*
X26559836Y-71890337D01*
X26237148Y-71407401D01*
X25911785Y-71190000D01*
X25971649Y-71150000D01*
X34512756Y-71150000D01*
X34512756Y-72850000D01*
X34556337Y-73081611D01*
X34693219Y-73294332D01*
X34902076Y-73437038D01*
X35150000Y-73487244D01*
X36850000Y-73487244D01*
X37081611Y-73443663D01*
X37294332Y-73306781D01*
X37437038Y-73097924D01*
X37455035Y-73009050D01*
X37497017Y-73071880D01*
X37975542Y-73391619D01*
X38540000Y-73503897D01*
X39104458Y-73391619D01*
X39582983Y-73071880D01*
X39810000Y-72732124D01*
X40037017Y-73071880D01*
X40515542Y-73391619D01*
X41080000Y-73503897D01*
X41644458Y-73391619D01*
X42122983Y-73071880D01*
X42442722Y-72593355D01*
X42555000Y-72028897D01*
X42555000Y-71971103D01*
X42442722Y-71406645D01*
X42122983Y-70928120D01*
X41826358Y-70729922D01*
X41839304Y-70724560D01*
X42265432Y-70337728D01*
X42511088Y-69817270D01*
X42393108Y-69589000D01*
X41209000Y-69589000D01*
X41209000Y-69609000D01*
X40951000Y-69609000D01*
X40951000Y-69589000D01*
X40931000Y-69589000D01*
X40931000Y-69331000D01*
X40951000Y-69331000D01*
X40951000Y-68147575D01*
X41209000Y-68147575D01*
X41209000Y-69331000D01*
X42393108Y-69331000D01*
X42511088Y-69102730D01*
X42265432Y-68582272D01*
X41839304Y-68195440D01*
X41437268Y-68028922D01*
X41209000Y-68147575D01*
X40951000Y-68147575D01*
X40722732Y-68028922D01*
X40320696Y-68195440D01*
X39894568Y-68582272D01*
X39819284Y-68741771D01*
X39582983Y-68388120D01*
X39104458Y-68068381D01*
X38540000Y-67956103D01*
X37975542Y-68068381D01*
X37497017Y-68388120D01*
X37270000Y-68727876D01*
X37042983Y-68388120D01*
X36564458Y-68068381D01*
X36000000Y-67956103D01*
X35435542Y-68068381D01*
X34957017Y-68388120D01*
X34637278Y-68866645D01*
X34525000Y-69431103D01*
X34525000Y-69488897D01*
X34637278Y-70053355D01*
X34957017Y-70531880D01*
X34977089Y-70545292D01*
X34918389Y-70556337D01*
X34705668Y-70693219D01*
X34562962Y-70902076D01*
X34512756Y-71150000D01*
X25971649Y-71150000D01*
X26237148Y-70972599D01*
X26559836Y-70489663D01*
X26673149Y-69920000D01*
X26559836Y-69350337D01*
X26237148Y-68867401D01*
X25911785Y-68650000D01*
X26237148Y-68432599D01*
X26559836Y-67949663D01*
X26673149Y-67380000D01*
X26559836Y-66810337D01*
X26237148Y-66327401D01*
X25754212Y-66004713D01*
X25184549Y-65891400D01*
X24815451Y-65891400D01*
X24245788Y-66004713D01*
X23762852Y-66327401D01*
X23440164Y-66810337D01*
X23326851Y-67380000D01*
X20700000Y-67380000D01*
X20700000Y-65222795D01*
X47874805Y-65222795D01*
X48045715Y-65636429D01*
X48184500Y-65775456D01*
X48184500Y-105999995D01*
X48184499Y-106000000D01*
X48246576Y-106312079D01*
X48423354Y-106576646D01*
X49423352Y-107576643D01*
X49423354Y-107576646D01*
X49874975Y-108028266D01*
X49874805Y-108222795D01*
X50045715Y-108636429D01*
X50361907Y-108953172D01*
X50775242Y-109124804D01*
X51222795Y-109125195D01*
X51636429Y-108954285D01*
X51953172Y-108638093D01*
X52124804Y-108224758D01*
X52125195Y-107777205D01*
X51954285Y-107363571D01*
X51638093Y-107046828D01*
X51224758Y-106875196D01*
X51028316Y-106875024D01*
X50576646Y-106423354D01*
X50576643Y-106423352D01*
X49815500Y-105662208D01*
X49815500Y-91125000D01*
X50999305Y-91125000D01*
X51184500Y-91125162D01*
X51184500Y-91224474D01*
X51046828Y-91361907D01*
X50875196Y-91775242D01*
X50874805Y-92222795D01*
X51045715Y-92636429D01*
X51361907Y-92953172D01*
X51775242Y-93124804D01*
X52222795Y-93125195D01*
X52636429Y-92954285D01*
X52953172Y-92638093D01*
X53124804Y-92224758D01*
X53125195Y-91777205D01*
X53082079Y-91672856D01*
X53361907Y-91953172D01*
X53775242Y-92124804D01*
X54222795Y-92125195D01*
X54636429Y-91954285D01*
X54953172Y-91638093D01*
X55124804Y-91224758D01*
X55124891Y-91125000D01*
X56000000Y-91125000D01*
X56048632Y-91115152D01*
X56089601Y-91087159D01*
X56116451Y-91045432D01*
X56125000Y-91000000D01*
X56125000Y-63000409D01*
X56125195Y-62777205D01*
X56125000Y-62776733D01*
X56125000Y-48000000D01*
X56115152Y-47951368D01*
X56087159Y-47910399D01*
X56045432Y-47883549D01*
X56000000Y-47875000D01*
X54815500Y-47875000D01*
X54815500Y-35000005D01*
X54815501Y-35000000D01*
X54753424Y-34687922D01*
X54672078Y-34566179D01*
X54576646Y-34423354D01*
X54576643Y-34423352D01*
X53576646Y-33423354D01*
X53576643Y-33423352D01*
X53125025Y-32971734D01*
X53125195Y-32777205D01*
X52954285Y-32363571D01*
X52638093Y-32046828D01*
X52224758Y-31875196D01*
X51777205Y-31874805D01*
X51672856Y-31917921D01*
X51953172Y-31638093D01*
X52124804Y-31224758D01*
X52124805Y-31222795D01*
X55874805Y-31222795D01*
X56045715Y-31636429D01*
X56184500Y-31775456D01*
X56184500Y-107224474D01*
X56046828Y-107361907D01*
X55875196Y-107775242D01*
X55874805Y-108222795D01*
X56045715Y-108636429D01*
X56361907Y-108953172D01*
X56775242Y-109124804D01*
X57222795Y-109125195D01*
X57636429Y-108954285D01*
X57930636Y-108660589D01*
X110249610Y-108660589D01*
X110591431Y-109487858D01*
X111223813Y-110121345D01*
X112050484Y-110464608D01*
X112945589Y-110465390D01*
X113772858Y-110123569D01*
X114406345Y-109491187D01*
X114749608Y-108664516D01*
X114750390Y-107769411D01*
X114408569Y-106942142D01*
X113776187Y-106308655D01*
X112949516Y-105965392D01*
X112054411Y-105964610D01*
X111227142Y-106306431D01*
X110593655Y-106938813D01*
X110250392Y-107765484D01*
X110249610Y-108660589D01*
X57930636Y-108660589D01*
X57953172Y-108638093D01*
X58124804Y-108224758D01*
X58125076Y-107912316D01*
X105365118Y-107912316D01*
X105433821Y-108150204D01*
X105949549Y-108332534D01*
X106495794Y-108303624D01*
X106866179Y-108150204D01*
X106934882Y-107912316D01*
X106150000Y-107127434D01*
X105365118Y-107912316D01*
X58125076Y-107912316D01*
X58125195Y-107777205D01*
X57954285Y-107363571D01*
X57815500Y-107224544D01*
X57815500Y-107117316D01*
X71020118Y-107117316D01*
X71088821Y-107355204D01*
X71604549Y-107537534D01*
X72150794Y-107508624D01*
X72521179Y-107355204D01*
X72589882Y-107117316D01*
X73560118Y-107117316D01*
X73628821Y-107355204D01*
X74144549Y-107537534D01*
X74690794Y-107508624D01*
X75061179Y-107355204D01*
X75129882Y-107117316D01*
X76100118Y-107117316D01*
X76168821Y-107355204D01*
X76684549Y-107537534D01*
X77230794Y-107508624D01*
X77601179Y-107355204D01*
X77669882Y-107117316D01*
X78640118Y-107117316D01*
X78708821Y-107355204D01*
X79224549Y-107537534D01*
X79770794Y-107508624D01*
X80141179Y-107355204D01*
X80209882Y-107117316D01*
X87270118Y-107117316D01*
X87338821Y-107355204D01*
X87854549Y-107537534D01*
X88400794Y-107508624D01*
X88771179Y-107355204D01*
X88839882Y-107117316D01*
X89810118Y-107117316D01*
X89878821Y-107355204D01*
X90394549Y-107537534D01*
X90940794Y-107508624D01*
X91311179Y-107355204D01*
X91379882Y-107117316D01*
X92350118Y-107117316D01*
X92418821Y-107355204D01*
X92934549Y-107537534D01*
X93480794Y-107508624D01*
X93851179Y-107355204D01*
X93919882Y-107117316D01*
X94890118Y-107117316D01*
X94958821Y-107355204D01*
X95474549Y-107537534D01*
X96020794Y-107508624D01*
X96391179Y-107355204D01*
X96459882Y-107117316D01*
X95675000Y-106332434D01*
X94890118Y-107117316D01*
X93919882Y-107117316D01*
X93135000Y-106332434D01*
X92350118Y-107117316D01*
X91379882Y-107117316D01*
X90595000Y-106332434D01*
X89810118Y-107117316D01*
X88839882Y-107117316D01*
X88055000Y-106332434D01*
X87270118Y-107117316D01*
X80209882Y-107117316D01*
X79425000Y-106332434D01*
X78640118Y-107117316D01*
X77669882Y-107117316D01*
X76885000Y-106332434D01*
X76100118Y-107117316D01*
X75129882Y-107117316D01*
X74345000Y-106332434D01*
X73560118Y-107117316D01*
X72589882Y-107117316D01*
X71805000Y-106332434D01*
X71020118Y-107117316D01*
X57815500Y-107117316D01*
X57815500Y-105949549D01*
X70417466Y-105949549D01*
X70446376Y-106495794D01*
X70599796Y-106866179D01*
X70837684Y-106934882D01*
X71622566Y-106150000D01*
X71987434Y-106150000D01*
X72772316Y-106934882D01*
X73010204Y-106866179D01*
X73069879Y-106697386D01*
X73139796Y-106866179D01*
X73377684Y-106934882D01*
X74162566Y-106150000D01*
X74527434Y-106150000D01*
X75312316Y-106934882D01*
X75550204Y-106866179D01*
X75609879Y-106697386D01*
X75679796Y-106866179D01*
X75917684Y-106934882D01*
X76702566Y-106150000D01*
X77067434Y-106150000D01*
X77852316Y-106934882D01*
X78090204Y-106866179D01*
X78149879Y-106697386D01*
X78219796Y-106866179D01*
X78457684Y-106934882D01*
X79242566Y-106150000D01*
X79607434Y-106150000D01*
X80392316Y-106934882D01*
X80630204Y-106866179D01*
X80812534Y-106350451D01*
X80791317Y-105949549D01*
X86667466Y-105949549D01*
X86696376Y-106495794D01*
X86849796Y-106866179D01*
X87087684Y-106934882D01*
X87872566Y-106150000D01*
X88237434Y-106150000D01*
X89022316Y-106934882D01*
X89260204Y-106866179D01*
X89319879Y-106697386D01*
X89389796Y-106866179D01*
X89627684Y-106934882D01*
X90412566Y-106150000D01*
X90777434Y-106150000D01*
X91562316Y-106934882D01*
X91800204Y-106866179D01*
X91859879Y-106697386D01*
X91929796Y-106866179D01*
X92167684Y-106934882D01*
X92952566Y-106150000D01*
X93317434Y-106150000D01*
X94102316Y-106934882D01*
X94340204Y-106866179D01*
X94399879Y-106697386D01*
X94469796Y-106866179D01*
X94707684Y-106934882D01*
X95492566Y-106150000D01*
X95857434Y-106150000D01*
X96642316Y-106934882D01*
X96880204Y-106866179D01*
X97062534Y-106350451D01*
X97033624Y-105804206D01*
X96880204Y-105433821D01*
X96642316Y-105365118D01*
X95857434Y-106150000D01*
X95492566Y-106150000D01*
X94707684Y-105365118D01*
X94469796Y-105433821D01*
X94410121Y-105602614D01*
X94340204Y-105433821D01*
X94102316Y-105365118D01*
X93317434Y-106150000D01*
X92952566Y-106150000D01*
X92167684Y-105365118D01*
X91929796Y-105433821D01*
X91870121Y-105602614D01*
X91800204Y-105433821D01*
X91562316Y-105365118D01*
X90777434Y-106150000D01*
X90412566Y-106150000D01*
X89627684Y-105365118D01*
X89389796Y-105433821D01*
X89330121Y-105602614D01*
X89260204Y-105433821D01*
X89022316Y-105365118D01*
X88237434Y-106150000D01*
X87872566Y-106150000D01*
X87087684Y-105365118D01*
X86849796Y-105433821D01*
X86667466Y-105949549D01*
X80791317Y-105949549D01*
X80783624Y-105804206D01*
X80630204Y-105433821D01*
X80392316Y-105365118D01*
X79607434Y-106150000D01*
X79242566Y-106150000D01*
X78457684Y-105365118D01*
X78219796Y-105433821D01*
X78160121Y-105602614D01*
X78090204Y-105433821D01*
X77852316Y-105365118D01*
X77067434Y-106150000D01*
X76702566Y-106150000D01*
X75917684Y-105365118D01*
X75679796Y-105433821D01*
X75620121Y-105602614D01*
X75550204Y-105433821D01*
X75312316Y-105365118D01*
X74527434Y-106150000D01*
X74162566Y-106150000D01*
X73377684Y-105365118D01*
X73139796Y-105433821D01*
X73080121Y-105602614D01*
X73010204Y-105433821D01*
X72772316Y-105365118D01*
X71987434Y-106150000D01*
X71622566Y-106150000D01*
X70837684Y-105365118D01*
X70599796Y-105433821D01*
X70417466Y-105949549D01*
X57815500Y-105949549D01*
X57815500Y-105182684D01*
X71020118Y-105182684D01*
X71805000Y-105967566D01*
X72589882Y-105182684D01*
X73560118Y-105182684D01*
X74345000Y-105967566D01*
X75129882Y-105182684D01*
X76100118Y-105182684D01*
X76885000Y-105967566D01*
X77669882Y-105182684D01*
X78640118Y-105182684D01*
X79425000Y-105967566D01*
X80209882Y-105182684D01*
X87270118Y-105182684D01*
X88055000Y-105967566D01*
X88839882Y-105182684D01*
X89810118Y-105182684D01*
X90595000Y-105967566D01*
X91379882Y-105182684D01*
X92350118Y-105182684D01*
X93135000Y-105967566D01*
X93919882Y-105182684D01*
X94890118Y-105182684D01*
X95675000Y-105967566D01*
X96459882Y-105182684D01*
X96391179Y-104944796D01*
X95875451Y-104762466D01*
X95329206Y-104791376D01*
X94958821Y-104944796D01*
X94890118Y-105182684D01*
X93919882Y-105182684D01*
X93851179Y-104944796D01*
X93335451Y-104762466D01*
X92789206Y-104791376D01*
X92418821Y-104944796D01*
X92350118Y-105182684D01*
X91379882Y-105182684D01*
X91311179Y-104944796D01*
X90795451Y-104762466D01*
X90249206Y-104791376D01*
X89878821Y-104944796D01*
X89810118Y-105182684D01*
X88839882Y-105182684D01*
X88771179Y-104944796D01*
X88255451Y-104762466D01*
X87709206Y-104791376D01*
X87338821Y-104944796D01*
X87270118Y-105182684D01*
X80209882Y-105182684D01*
X80141179Y-104944796D01*
X79625451Y-104762466D01*
X79079206Y-104791376D01*
X78708821Y-104944796D01*
X78640118Y-105182684D01*
X77669882Y-105182684D01*
X77601179Y-104944796D01*
X77085451Y-104762466D01*
X76539206Y-104791376D01*
X76168821Y-104944796D01*
X76100118Y-105182684D01*
X75129882Y-105182684D01*
X75061179Y-104944796D01*
X74545451Y-104762466D01*
X73999206Y-104791376D01*
X73628821Y-104944796D01*
X73560118Y-105182684D01*
X72589882Y-105182684D01*
X72521179Y-104944796D01*
X72005451Y-104762466D01*
X71459206Y-104791376D01*
X71088821Y-104944796D01*
X71020118Y-105182684D01*
X57815500Y-105182684D01*
X57815500Y-43222795D01*
X60874805Y-43222795D01*
X61045715Y-43636429D01*
X61057500Y-43648235D01*
X61057500Y-69351254D01*
X61046828Y-69361907D01*
X60875196Y-69775242D01*
X60874805Y-70222795D01*
X61045715Y-70636429D01*
X61057500Y-70648235D01*
X61057500Y-102351254D01*
X61046828Y-102361907D01*
X60875196Y-102775242D01*
X60874805Y-103222795D01*
X61045715Y-103636429D01*
X61361907Y-103953172D01*
X61775242Y-104124804D01*
X62222795Y-104125195D01*
X62636429Y-103954285D01*
X62708534Y-103882305D01*
X71699762Y-103882305D01*
X71908652Y-104387857D01*
X72295108Y-104774989D01*
X72800296Y-104984761D01*
X73347305Y-104985238D01*
X73852857Y-104776348D01*
X74239989Y-104389892D01*
X74344999Y-104136999D01*
X74448652Y-104387857D01*
X74835108Y-104774989D01*
X75340296Y-104984761D01*
X75887305Y-104985238D01*
X76392857Y-104776348D01*
X76779989Y-104389892D01*
X76884999Y-104136999D01*
X76988652Y-104387857D01*
X77375108Y-104774989D01*
X77880296Y-104984761D01*
X78427305Y-104985238D01*
X78932857Y-104776348D01*
X79319989Y-104389892D01*
X79424999Y-104136999D01*
X79528652Y-104387857D01*
X79915108Y-104774989D01*
X80420296Y-104984761D01*
X80967305Y-104985238D01*
X81472857Y-104776348D01*
X81859989Y-104389892D01*
X82069761Y-103884704D01*
X82070238Y-103337695D01*
X81861348Y-102832143D01*
X81474892Y-102445011D01*
X80969704Y-102235239D01*
X80422695Y-102234762D01*
X79917143Y-102443652D01*
X79530011Y-102830108D01*
X79425001Y-103083001D01*
X79321348Y-102832143D01*
X79097500Y-102607903D01*
X79097500Y-101235396D01*
X82332896Y-98000000D01*
X87740000Y-98000000D01*
X87835912Y-98482181D01*
X88065000Y-98825037D01*
X88065000Y-103058920D01*
X87950239Y-103335296D01*
X87949762Y-103882305D01*
X88158652Y-104387857D01*
X88545108Y-104774989D01*
X89050296Y-104984761D01*
X89597305Y-104985238D01*
X90102857Y-104776348D01*
X90489989Y-104389892D01*
X90594999Y-104136999D01*
X90698652Y-104387857D01*
X91085108Y-104774989D01*
X91590296Y-104984761D01*
X92137305Y-104985238D01*
X92642857Y-104776348D01*
X93029989Y-104389892D01*
X93134999Y-104136999D01*
X93238652Y-104387857D01*
X93625108Y-104774989D01*
X94130296Y-104984761D01*
X94677305Y-104985238D01*
X95182857Y-104776348D01*
X95569989Y-104389892D01*
X95674999Y-104136999D01*
X95778652Y-104387857D01*
X96165108Y-104774989D01*
X96670296Y-104984761D01*
X97217305Y-104985238D01*
X97722857Y-104776348D01*
X98109989Y-104389892D01*
X98319761Y-103884704D01*
X98320238Y-103337695D01*
X98154381Y-102936291D01*
X101784043Y-106565952D01*
X101784045Y-106565955D01*
X102157517Y-106815500D01*
X102192819Y-106839088D01*
X102675000Y-106935000D01*
X103058920Y-106935000D01*
X103335296Y-107049761D01*
X103882305Y-107050238D01*
X104387857Y-106841348D01*
X104484825Y-106744549D01*
X104762466Y-106744549D01*
X104791376Y-107290794D01*
X104944796Y-107661179D01*
X105182684Y-107729882D01*
X105967566Y-106945000D01*
X106332434Y-106945000D01*
X107117316Y-107729882D01*
X107355204Y-107661179D01*
X107537534Y-107145451D01*
X107508624Y-106599206D01*
X107355204Y-106228821D01*
X107117316Y-106160118D01*
X106332434Y-106945000D01*
X105967566Y-106945000D01*
X105182684Y-106160118D01*
X104944796Y-106228821D01*
X104762466Y-106744549D01*
X104484825Y-106744549D01*
X104774989Y-106454892D01*
X104984761Y-105949704D01*
X104985238Y-105402695D01*
X104972686Y-105372316D01*
X105365118Y-105372316D01*
X105433821Y-105610204D01*
X105602614Y-105669879D01*
X105433821Y-105739796D01*
X105365118Y-105977684D01*
X106150000Y-106762566D01*
X106934882Y-105977684D01*
X106866179Y-105739796D01*
X106697386Y-105680121D01*
X106866179Y-105610204D01*
X106934882Y-105372316D01*
X106150000Y-104587434D01*
X105365118Y-105372316D01*
X104972686Y-105372316D01*
X104776348Y-104897143D01*
X104389892Y-104510011D01*
X104136999Y-104405001D01*
X104387857Y-104301348D01*
X104484825Y-104204549D01*
X104762466Y-104204549D01*
X104791376Y-104750794D01*
X104944796Y-105121179D01*
X105182684Y-105189882D01*
X105967566Y-104405000D01*
X106332434Y-104405000D01*
X107117316Y-105189882D01*
X107355204Y-105121179D01*
X107537534Y-104605451D01*
X107508624Y-104059206D01*
X107355204Y-103688821D01*
X107117316Y-103620118D01*
X106332434Y-104405000D01*
X105967566Y-104405000D01*
X105182684Y-103620118D01*
X104944796Y-103688821D01*
X104762466Y-104204549D01*
X104484825Y-104204549D01*
X104774989Y-103914892D01*
X104984761Y-103409704D01*
X104985238Y-102862695D01*
X104972686Y-102832316D01*
X105365118Y-102832316D01*
X105433821Y-103070204D01*
X105602614Y-103129879D01*
X105433821Y-103199796D01*
X105365118Y-103437684D01*
X106150000Y-104222566D01*
X106934882Y-103437684D01*
X106866179Y-103199796D01*
X106697386Y-103140121D01*
X106866179Y-103070204D01*
X106934882Y-102832316D01*
X106150000Y-102047434D01*
X105365118Y-102832316D01*
X104972686Y-102832316D01*
X104776348Y-102357143D01*
X104389892Y-101970011D01*
X104136999Y-101865001D01*
X104387857Y-101761348D01*
X104484825Y-101664549D01*
X104762466Y-101664549D01*
X104791376Y-102210794D01*
X104944796Y-102581179D01*
X105182684Y-102649882D01*
X105967566Y-101865000D01*
X106332434Y-101865000D01*
X107117316Y-102649882D01*
X107355204Y-102581179D01*
X107537534Y-102065451D01*
X107508624Y-101519206D01*
X107355204Y-101148821D01*
X107117316Y-101080118D01*
X106332434Y-101865000D01*
X105967566Y-101865000D01*
X105182684Y-101080118D01*
X104944796Y-101148821D01*
X104762466Y-101664549D01*
X104484825Y-101664549D01*
X104774989Y-101374892D01*
X104984761Y-100869704D01*
X104985238Y-100322695D01*
X104972686Y-100292316D01*
X105365118Y-100292316D01*
X105433821Y-100530204D01*
X105602614Y-100589879D01*
X105433821Y-100659796D01*
X105365118Y-100897684D01*
X106150000Y-101682566D01*
X106934882Y-100897684D01*
X106866179Y-100659796D01*
X106697386Y-100600121D01*
X106866179Y-100530204D01*
X106934882Y-100292316D01*
X106150000Y-99507434D01*
X105365118Y-100292316D01*
X104972686Y-100292316D01*
X104776348Y-99817143D01*
X104389892Y-99430011D01*
X104136999Y-99325001D01*
X104387857Y-99221348D01*
X104484825Y-99124549D01*
X104762466Y-99124549D01*
X104791376Y-99670794D01*
X104944796Y-100041179D01*
X105182684Y-100109882D01*
X105967566Y-99325000D01*
X106332434Y-99325000D01*
X107117316Y-100109882D01*
X107355204Y-100041179D01*
X107537534Y-99525451D01*
X107508624Y-98979206D01*
X107355204Y-98608821D01*
X107117316Y-98540118D01*
X106332434Y-99325000D01*
X105967566Y-99325000D01*
X105182684Y-98540118D01*
X104944796Y-98608821D01*
X104762466Y-99124549D01*
X104484825Y-99124549D01*
X104774989Y-98834892D01*
X104973142Y-98357684D01*
X105365118Y-98357684D01*
X106150000Y-99142566D01*
X106934882Y-98357684D01*
X106866179Y-98119796D01*
X106350451Y-97937466D01*
X105804206Y-97966376D01*
X105433821Y-98119796D01*
X105365118Y-98357684D01*
X104973142Y-98357684D01*
X104984761Y-98329704D01*
X104985238Y-97782695D01*
X104776348Y-97277143D01*
X104729876Y-97230589D01*
X110249610Y-97230589D01*
X110591431Y-98057858D01*
X111223813Y-98691345D01*
X112050484Y-99034608D01*
X112945589Y-99035390D01*
X113772858Y-98693569D01*
X114406345Y-98061187D01*
X114749608Y-97234516D01*
X114750390Y-96339411D01*
X114408569Y-95512142D01*
X113776187Y-94878655D01*
X112949516Y-94535392D01*
X112054411Y-94534610D01*
X111227142Y-94876431D01*
X110593655Y-95508813D01*
X110250392Y-96335484D01*
X110249610Y-97230589D01*
X104729876Y-97230589D01*
X104389892Y-96890011D01*
X103884704Y-96680239D01*
X103337695Y-96679762D01*
X102913652Y-96854973D01*
X102870756Y-96639321D01*
X102666448Y-96333552D01*
X98743485Y-92410589D01*
X110249610Y-92410589D01*
X110591431Y-93237858D01*
X111223813Y-93871345D01*
X112050484Y-94214608D01*
X112945589Y-94215390D01*
X113772858Y-93873569D01*
X114406345Y-93241187D01*
X114749608Y-92414516D01*
X114750390Y-91519411D01*
X114408569Y-90692142D01*
X113776187Y-90058655D01*
X112949516Y-89715392D01*
X112054411Y-89714610D01*
X111227142Y-90056431D01*
X110593655Y-90688813D01*
X110250392Y-91515484D01*
X110249610Y-92410589D01*
X98743485Y-92410589D01*
X98666448Y-92333552D01*
X98360679Y-92129244D01*
X98000000Y-92057500D01*
X93648746Y-92057500D01*
X93638093Y-92046828D01*
X93224758Y-91875196D01*
X92777205Y-91874805D01*
X92363571Y-92045715D01*
X92046828Y-92361907D01*
X91875196Y-92775242D01*
X91874805Y-93222795D01*
X92045715Y-93636429D01*
X92057500Y-93648235D01*
X92057500Y-94613371D01*
X91954285Y-94363571D01*
X91638093Y-94046828D01*
X91224758Y-93875196D01*
X90777205Y-93874805D01*
X90363571Y-94045715D01*
X90046828Y-94361907D01*
X89875196Y-94775242D01*
X89874805Y-95222795D01*
X90045715Y-95636429D01*
X90361907Y-95953172D01*
X90775242Y-96124804D01*
X90791923Y-96124819D01*
X90922500Y-96255396D01*
X90922500Y-97156256D01*
X90890955Y-97109045D01*
X90482181Y-96835912D01*
X90000000Y-96739999D01*
X89999995Y-96740000D01*
X89000000Y-96740000D01*
X88517819Y-96835912D01*
X88109045Y-97109045D01*
X87835912Y-97517819D01*
X87740000Y-98000000D01*
X82332896Y-98000000D01*
X84666448Y-95666448D01*
X84870756Y-95360679D01*
X84942500Y-95000000D01*
X84942500Y-93648746D01*
X84953172Y-93638093D01*
X85124804Y-93224758D01*
X85125195Y-92777205D01*
X84954285Y-92363571D01*
X84638093Y-92046828D01*
X84224758Y-91875196D01*
X83777205Y-91874805D01*
X83363571Y-92045715D01*
X83351765Y-92057500D01*
X82172042Y-92057500D01*
X82212361Y-91894795D01*
X81500000Y-91182434D01*
X80787639Y-91894795D01*
X80827958Y-92057500D01*
X80128004Y-92057500D01*
X80237038Y-91897924D01*
X80287244Y-91650000D01*
X80287244Y-91437687D01*
X80377661Y-91655974D01*
X80605205Y-91712361D01*
X81317566Y-91000000D01*
X81682434Y-91000000D01*
X82394795Y-91712361D01*
X82596746Y-91662316D01*
X105365118Y-91662316D01*
X105433821Y-91900204D01*
X105949549Y-92082534D01*
X106495794Y-92053624D01*
X106866179Y-91900204D01*
X106934882Y-91662316D01*
X106150000Y-90877434D01*
X105365118Y-91662316D01*
X82596746Y-91662316D01*
X82622339Y-91655974D01*
X82787936Y-91176540D01*
X82757456Y-90670229D01*
X82622339Y-90344026D01*
X82394795Y-90287639D01*
X81682434Y-91000000D01*
X81317566Y-91000000D01*
X80605205Y-90287639D01*
X80377661Y-90344026D01*
X80287244Y-90605800D01*
X80287244Y-90350000D01*
X80243663Y-90118389D01*
X80235180Y-90105205D01*
X80787639Y-90105205D01*
X81500000Y-90817566D01*
X82212361Y-90105205D01*
X82155974Y-89877661D01*
X81676540Y-89712064D01*
X81170229Y-89742544D01*
X80844026Y-89877661D01*
X80787639Y-90105205D01*
X80235180Y-90105205D01*
X80106781Y-89905668D01*
X79897924Y-89762962D01*
X79650000Y-89712756D01*
X78350000Y-89712756D01*
X78118389Y-89756337D01*
X77905668Y-89893219D01*
X77762962Y-90102076D01*
X77712756Y-90350000D01*
X77712756Y-91650000D01*
X77756337Y-91881611D01*
X77869518Y-92057500D01*
X76648746Y-92057500D01*
X76638093Y-92046828D01*
X76224758Y-91875196D01*
X75777205Y-91874805D01*
X75363571Y-92045715D01*
X75046828Y-92361907D01*
X74875196Y-92775242D01*
X74874805Y-93222795D01*
X75045715Y-93636429D01*
X75361907Y-93953172D01*
X75613156Y-94057500D01*
X75390396Y-94057500D01*
X74125182Y-92792286D01*
X74125195Y-92777205D01*
X73954285Y-92363571D01*
X73638093Y-92046828D01*
X73224758Y-91875196D01*
X72777205Y-91874805D01*
X72363571Y-92045715D01*
X72046828Y-92361907D01*
X71875196Y-92775242D01*
X71874805Y-93222795D01*
X72045715Y-93636429D01*
X72361907Y-93953172D01*
X72775242Y-94124804D01*
X72791923Y-94124819D01*
X74333552Y-95666448D01*
X74639321Y-95870756D01*
X74672500Y-95877356D01*
X74672500Y-102608008D01*
X74450011Y-102830108D01*
X74345001Y-103083001D01*
X74241348Y-102832143D01*
X73854892Y-102445011D01*
X73349704Y-102235239D01*
X72802695Y-102234762D01*
X72297143Y-102443652D01*
X71910011Y-102830108D01*
X71700239Y-103335296D01*
X71699762Y-103882305D01*
X62708534Y-103882305D01*
X62953172Y-103638093D01*
X63124804Y-103224758D01*
X63125195Y-102777205D01*
X62954285Y-102363571D01*
X62942500Y-102351765D01*
X62942500Y-84222795D01*
X91874805Y-84222795D01*
X92045715Y-84636429D01*
X92361907Y-84953172D01*
X92775242Y-85124804D01*
X92848297Y-85124868D01*
X92984321Y-85215756D01*
X93345000Y-85287500D01*
X102608008Y-85287500D01*
X102830108Y-85509989D01*
X103083001Y-85614999D01*
X102832143Y-85718652D01*
X102607903Y-85942500D01*
X95386844Y-85942500D01*
X95224758Y-85875196D01*
X94777205Y-85874805D01*
X94363571Y-86045715D01*
X94046828Y-86361907D01*
X93875196Y-86775242D01*
X93874805Y-87222795D01*
X94045715Y-87636429D01*
X94361907Y-87953172D01*
X94775242Y-88124804D01*
X95222795Y-88125195D01*
X95636429Y-87954285D01*
X95763435Y-87827500D01*
X97560108Y-87827500D01*
X97517819Y-87835912D01*
X97109045Y-88109045D01*
X96835912Y-88517819D01*
X96739999Y-89000000D01*
X96740000Y-89000005D01*
X96740000Y-90000000D01*
X96835912Y-90482181D01*
X97109045Y-90890955D01*
X97517819Y-91164088D01*
X98000000Y-91260000D01*
X98482181Y-91164088D01*
X98890955Y-90890955D01*
X99028569Y-90685000D01*
X103058920Y-90685000D01*
X103335296Y-90799761D01*
X103882305Y-90800238D01*
X104387857Y-90591348D01*
X104484825Y-90494549D01*
X104762466Y-90494549D01*
X104791376Y-91040794D01*
X104944796Y-91411179D01*
X105182684Y-91479882D01*
X105967566Y-90695000D01*
X106332434Y-90695000D01*
X107117316Y-91479882D01*
X107355204Y-91411179D01*
X107537534Y-90895451D01*
X107508624Y-90349206D01*
X107355204Y-89978821D01*
X107117316Y-89910118D01*
X106332434Y-90695000D01*
X105967566Y-90695000D01*
X105182684Y-89910118D01*
X104944796Y-89978821D01*
X104762466Y-90494549D01*
X104484825Y-90494549D01*
X104774989Y-90204892D01*
X104984761Y-89699704D01*
X104985238Y-89152695D01*
X104972686Y-89122316D01*
X105365118Y-89122316D01*
X105433821Y-89360204D01*
X105602614Y-89419879D01*
X105433821Y-89489796D01*
X105365118Y-89727684D01*
X106150000Y-90512566D01*
X106934882Y-89727684D01*
X106866179Y-89489796D01*
X106697386Y-89430121D01*
X106866179Y-89360204D01*
X106934882Y-89122316D01*
X106150000Y-88337434D01*
X105365118Y-89122316D01*
X104972686Y-89122316D01*
X104776348Y-88647143D01*
X104389892Y-88260011D01*
X104136999Y-88155001D01*
X104387857Y-88051348D01*
X104484825Y-87954549D01*
X104762466Y-87954549D01*
X104791376Y-88500794D01*
X104944796Y-88871179D01*
X105182684Y-88939882D01*
X105967566Y-88155000D01*
X106332434Y-88155000D01*
X107117316Y-88939882D01*
X107355204Y-88871179D01*
X107537534Y-88355451D01*
X107508624Y-87809206D01*
X107355204Y-87438821D01*
X107117316Y-87370118D01*
X106332434Y-88155000D01*
X105967566Y-88155000D01*
X105182684Y-87370118D01*
X104944796Y-87438821D01*
X104762466Y-87954549D01*
X104484825Y-87954549D01*
X104774989Y-87664892D01*
X104984761Y-87159704D01*
X104985238Y-86612695D01*
X104972686Y-86582316D01*
X105365118Y-86582316D01*
X105433821Y-86820204D01*
X105602614Y-86879879D01*
X105433821Y-86949796D01*
X105365118Y-87187684D01*
X106150000Y-87972566D01*
X106934882Y-87187684D01*
X106866179Y-86949796D01*
X106697386Y-86890121D01*
X106866179Y-86820204D01*
X106934882Y-86582316D01*
X106150000Y-85797434D01*
X105365118Y-86582316D01*
X104972686Y-86582316D01*
X104776348Y-86107143D01*
X104389892Y-85720011D01*
X104136999Y-85615001D01*
X104387857Y-85511348D01*
X104484825Y-85414549D01*
X104762466Y-85414549D01*
X104791376Y-85960794D01*
X104944796Y-86331179D01*
X105182684Y-86399882D01*
X105967566Y-85615000D01*
X106332434Y-85615000D01*
X107117316Y-86399882D01*
X107355204Y-86331179D01*
X107537534Y-85815451D01*
X107508624Y-85269206D01*
X107355204Y-84898821D01*
X107117316Y-84830118D01*
X106332434Y-85615000D01*
X105967566Y-85615000D01*
X105182684Y-84830118D01*
X104944796Y-84898821D01*
X104762466Y-85414549D01*
X104484825Y-85414549D01*
X104774989Y-85124892D01*
X104984761Y-84619704D01*
X104985238Y-84072695D01*
X104972686Y-84042316D01*
X105365118Y-84042316D01*
X105433821Y-84280204D01*
X105602614Y-84339879D01*
X105433821Y-84409796D01*
X105365118Y-84647684D01*
X106150000Y-85432566D01*
X106934882Y-84647684D01*
X106866179Y-84409796D01*
X106697386Y-84350121D01*
X106866179Y-84280204D01*
X106934882Y-84042316D01*
X106150000Y-83257434D01*
X105365118Y-84042316D01*
X104972686Y-84042316D01*
X104776348Y-83567143D01*
X104389892Y-83180011D01*
X104136999Y-83075001D01*
X104387857Y-82971348D01*
X104484825Y-82874549D01*
X104762466Y-82874549D01*
X104791376Y-83420794D01*
X104944796Y-83791179D01*
X105182684Y-83859882D01*
X105967566Y-83075000D01*
X106332434Y-83075000D01*
X107117316Y-83859882D01*
X107355204Y-83791179D01*
X107537534Y-83275451D01*
X107508624Y-82729206D01*
X107355204Y-82358821D01*
X107117316Y-82290118D01*
X106332434Y-83075000D01*
X105967566Y-83075000D01*
X105182684Y-82290118D01*
X104944796Y-82358821D01*
X104762466Y-82874549D01*
X104484825Y-82874549D01*
X104774989Y-82584892D01*
X104973142Y-82107684D01*
X105365118Y-82107684D01*
X106150000Y-82892566D01*
X106934882Y-82107684D01*
X106866179Y-81869796D01*
X106350451Y-81687466D01*
X105804206Y-81716376D01*
X105433821Y-81869796D01*
X105365118Y-82107684D01*
X104973142Y-82107684D01*
X104984761Y-82079704D01*
X104985238Y-81532695D01*
X104776348Y-81027143D01*
X104729876Y-80980589D01*
X110249610Y-80980589D01*
X110591431Y-81807858D01*
X111223813Y-82441345D01*
X112050484Y-82784608D01*
X112945589Y-82785390D01*
X113772858Y-82443569D01*
X114406345Y-81811187D01*
X114749608Y-80984516D01*
X114750390Y-80089411D01*
X114408569Y-79262142D01*
X113776187Y-78628655D01*
X112949516Y-78285392D01*
X112054411Y-78284610D01*
X111227142Y-78626431D01*
X110593655Y-79258813D01*
X110250392Y-80085484D01*
X110249610Y-80980589D01*
X104729876Y-80980589D01*
X104389892Y-80640011D01*
X103884704Y-80430239D01*
X103337695Y-80429762D01*
X102832143Y-80638652D01*
X102445011Y-81025108D01*
X102235239Y-81530296D01*
X102234762Y-82077305D01*
X102443652Y-82582857D01*
X102830108Y-82969989D01*
X103083001Y-83074999D01*
X102832143Y-83178652D01*
X102607903Y-83402500D01*
X93970370Y-83402500D01*
X93954285Y-83363571D01*
X93638093Y-83046828D01*
X93224758Y-82875196D01*
X92777205Y-82874805D01*
X92363571Y-83045715D01*
X92046828Y-83361907D01*
X91875196Y-83775242D01*
X91874805Y-84222795D01*
X62942500Y-84222795D01*
X62942500Y-77620000D01*
X75303982Y-77620000D01*
X75465738Y-78433202D01*
X75926380Y-79122602D01*
X76615780Y-79583244D01*
X77428982Y-79745000D01*
X80571018Y-79745000D01*
X81384220Y-79583244D01*
X82073620Y-79122602D01*
X82534262Y-78433202D01*
X82696018Y-77620000D01*
X82534262Y-76806798D01*
X82102480Y-76160589D01*
X110249610Y-76160589D01*
X110591431Y-76987858D01*
X111223813Y-77621345D01*
X112050484Y-77964608D01*
X112945589Y-77965390D01*
X113772858Y-77623569D01*
X114406345Y-76991187D01*
X114749608Y-76164516D01*
X114750390Y-75269411D01*
X114408569Y-74442142D01*
X113776187Y-73808655D01*
X112949516Y-73465392D01*
X112054411Y-73464610D01*
X111227142Y-73806431D01*
X110593655Y-74438813D01*
X110250392Y-75265484D01*
X110249610Y-76160589D01*
X82102480Y-76160589D01*
X82073620Y-76117398D01*
X81384220Y-75656756D01*
X80571018Y-75495000D01*
X77428982Y-75495000D01*
X76615780Y-75656756D01*
X75926380Y-76117398D01*
X75465738Y-76806798D01*
X75303982Y-77620000D01*
X62942500Y-77620000D01*
X62942500Y-75412316D01*
X105365118Y-75412316D01*
X105433821Y-75650204D01*
X105949549Y-75832534D01*
X106495794Y-75803624D01*
X106866179Y-75650204D01*
X106934882Y-75412316D01*
X106150000Y-74627434D01*
X105365118Y-75412316D01*
X62942500Y-75412316D01*
X62942500Y-73394795D01*
X65287639Y-73394795D01*
X65344026Y-73622339D01*
X65823460Y-73787936D01*
X66329771Y-73757456D01*
X66655974Y-73622339D01*
X66712361Y-73394795D01*
X66000000Y-72682434D01*
X65287639Y-73394795D01*
X62942500Y-73394795D01*
X62942500Y-72323460D01*
X64712064Y-72323460D01*
X64742544Y-72829771D01*
X64877661Y-73155974D01*
X65105205Y-73212361D01*
X65817566Y-72500000D01*
X66182434Y-72500000D01*
X66894795Y-73212361D01*
X67122339Y-73155974D01*
X67176481Y-72999222D01*
X75425213Y-72999222D01*
X75487390Y-73234022D01*
X75906181Y-73951385D01*
X76567617Y-74453878D01*
X77371000Y-74665000D01*
X78871000Y-74665000D01*
X78871000Y-72669000D01*
X79129000Y-72669000D01*
X79129000Y-74665000D01*
X80629000Y-74665000D01*
X81432383Y-74453878D01*
X82093819Y-73951385D01*
X82512610Y-73234022D01*
X82574787Y-72999222D01*
X82464519Y-72669000D01*
X79129000Y-72669000D01*
X78871000Y-72669000D01*
X75535481Y-72669000D01*
X75425213Y-72999222D01*
X67176481Y-72999222D01*
X67287936Y-72676540D01*
X67257456Y-72170229D01*
X67220405Y-72080778D01*
X75425213Y-72080778D01*
X75535481Y-72411000D01*
X78871000Y-72411000D01*
X78871000Y-70415000D01*
X79129000Y-70415000D01*
X79129000Y-72411000D01*
X82464519Y-72411000D01*
X82574787Y-72080778D01*
X82512610Y-71845978D01*
X82093819Y-71128615D01*
X81432383Y-70626122D01*
X80629000Y-70415000D01*
X79129000Y-70415000D01*
X78871000Y-70415000D01*
X77371000Y-70415000D01*
X76567617Y-70626122D01*
X75906181Y-71128615D01*
X75487390Y-71845978D01*
X75425213Y-72080778D01*
X67220405Y-72080778D01*
X67122339Y-71844026D01*
X66894795Y-71787639D01*
X66182434Y-72500000D01*
X65817566Y-72500000D01*
X65105205Y-71787639D01*
X64877661Y-71844026D01*
X64712064Y-72323460D01*
X62942500Y-72323460D01*
X62942500Y-70648746D01*
X62953172Y-70638093D01*
X63124804Y-70224758D01*
X63125195Y-69777205D01*
X62954285Y-69363571D01*
X62942500Y-69351765D01*
X62942500Y-69350000D01*
X64712756Y-69350000D01*
X64712756Y-70650000D01*
X64756337Y-70881611D01*
X64893219Y-71094332D01*
X65102076Y-71237038D01*
X65350000Y-71287244D01*
X65562313Y-71287244D01*
X65344026Y-71377661D01*
X65287639Y-71605205D01*
X66000000Y-72317566D01*
X66712361Y-71605205D01*
X66655974Y-71377661D01*
X66394200Y-71287244D01*
X66650000Y-71287244D01*
X66881611Y-71243663D01*
X67094332Y-71106781D01*
X67237038Y-70897924D01*
X67287244Y-70650000D01*
X67287244Y-69350000D01*
X67243663Y-69118389D01*
X67106781Y-68905668D01*
X66897924Y-68762962D01*
X66650000Y-68712756D01*
X65350000Y-68712756D01*
X65118389Y-68756337D01*
X64905668Y-68893219D01*
X64762962Y-69102076D01*
X64712756Y-69350000D01*
X62942500Y-69350000D01*
X62942500Y-67919222D01*
X75425213Y-67919222D01*
X75487390Y-68154022D01*
X75906181Y-68871385D01*
X76567617Y-69373878D01*
X77371000Y-69585000D01*
X78871000Y-69585000D01*
X78871000Y-67589000D01*
X79129000Y-67589000D01*
X79129000Y-69585000D01*
X80629000Y-69585000D01*
X81432383Y-69373878D01*
X82093819Y-68871385D01*
X82472460Y-68222795D01*
X91874805Y-68222795D01*
X92045715Y-68636429D01*
X92361907Y-68953172D01*
X92775242Y-69124804D01*
X93222795Y-69125195D01*
X93435033Y-69037500D01*
X94383453Y-69037500D01*
X94363571Y-69045715D01*
X94046828Y-69361907D01*
X93875196Y-69775242D01*
X93874805Y-70222795D01*
X94045715Y-70636429D01*
X94361907Y-70953172D01*
X94775242Y-71124804D01*
X94791923Y-71124819D01*
X94968552Y-71301448D01*
X95274321Y-71505756D01*
X95635000Y-71577500D01*
X102608008Y-71577500D01*
X102830108Y-71799989D01*
X103083001Y-71904999D01*
X103058798Y-71915000D01*
X98600545Y-71915000D01*
X98482181Y-71835912D01*
X98000000Y-71739999D01*
X97517819Y-71835912D01*
X97109045Y-72109045D01*
X96835912Y-72517819D01*
X96739999Y-73000000D01*
X96740000Y-73000005D01*
X96740000Y-74000000D01*
X96835912Y-74482181D01*
X97109045Y-74890955D01*
X97517819Y-75164088D01*
X98000000Y-75260000D01*
X98482181Y-75164088D01*
X98890955Y-74890955D01*
X99164088Y-74482181D01*
X99173473Y-74435000D01*
X103058920Y-74435000D01*
X103335296Y-74549761D01*
X103882305Y-74550238D01*
X104387857Y-74341348D01*
X104484825Y-74244549D01*
X104762466Y-74244549D01*
X104791376Y-74790794D01*
X104944796Y-75161179D01*
X105182684Y-75229882D01*
X105967566Y-74445000D01*
X106332434Y-74445000D01*
X107117316Y-75229882D01*
X107355204Y-75161179D01*
X107537534Y-74645451D01*
X107508624Y-74099206D01*
X107355204Y-73728821D01*
X107117316Y-73660118D01*
X106332434Y-74445000D01*
X105967566Y-74445000D01*
X105182684Y-73660118D01*
X104944796Y-73728821D01*
X104762466Y-74244549D01*
X104484825Y-74244549D01*
X104774989Y-73954892D01*
X104984761Y-73449704D01*
X104985238Y-72902695D01*
X104972686Y-72872316D01*
X105365118Y-72872316D01*
X105433821Y-73110204D01*
X105602614Y-73169879D01*
X105433821Y-73239796D01*
X105365118Y-73477684D01*
X106150000Y-74262566D01*
X106934882Y-73477684D01*
X106866179Y-73239796D01*
X106697386Y-73180121D01*
X106866179Y-73110204D01*
X106934882Y-72872316D01*
X106150000Y-72087434D01*
X105365118Y-72872316D01*
X104972686Y-72872316D01*
X104776348Y-72397143D01*
X104389892Y-72010011D01*
X104136999Y-71905001D01*
X104387857Y-71801348D01*
X104484825Y-71704549D01*
X104762466Y-71704549D01*
X104791376Y-72250794D01*
X104944796Y-72621179D01*
X105182684Y-72689882D01*
X105967566Y-71905000D01*
X106332434Y-71905000D01*
X107117316Y-72689882D01*
X107355204Y-72621179D01*
X107537534Y-72105451D01*
X107508624Y-71559206D01*
X107355204Y-71188821D01*
X107117316Y-71120118D01*
X106332434Y-71905000D01*
X105967566Y-71905000D01*
X105182684Y-71120118D01*
X104944796Y-71188821D01*
X104762466Y-71704549D01*
X104484825Y-71704549D01*
X104774989Y-71414892D01*
X104984761Y-70909704D01*
X104985238Y-70362695D01*
X104972686Y-70332316D01*
X105365118Y-70332316D01*
X105433821Y-70570204D01*
X105602614Y-70629879D01*
X105433821Y-70699796D01*
X105365118Y-70937684D01*
X106150000Y-71722566D01*
X106934882Y-70937684D01*
X106866179Y-70699796D01*
X106697386Y-70640121D01*
X106866179Y-70570204D01*
X106934882Y-70332316D01*
X106150000Y-69547434D01*
X105365118Y-70332316D01*
X104972686Y-70332316D01*
X104776348Y-69857143D01*
X104389892Y-69470011D01*
X104136999Y-69365001D01*
X104387857Y-69261348D01*
X104484825Y-69164549D01*
X104762466Y-69164549D01*
X104791376Y-69710794D01*
X104944796Y-70081179D01*
X105182684Y-70149882D01*
X105967566Y-69365000D01*
X106332434Y-69365000D01*
X107117316Y-70149882D01*
X107355204Y-70081179D01*
X107537534Y-69565451D01*
X107508624Y-69019206D01*
X107355204Y-68648821D01*
X107117316Y-68580118D01*
X106332434Y-69365000D01*
X105967566Y-69365000D01*
X105182684Y-68580118D01*
X104944796Y-68648821D01*
X104762466Y-69164549D01*
X104484825Y-69164549D01*
X104774989Y-68874892D01*
X104984761Y-68369704D01*
X104985238Y-67822695D01*
X104972686Y-67792316D01*
X105365118Y-67792316D01*
X105433821Y-68030204D01*
X105602614Y-68089879D01*
X105433821Y-68159796D01*
X105365118Y-68397684D01*
X106150000Y-69182566D01*
X106934882Y-68397684D01*
X106866179Y-68159796D01*
X106697386Y-68100121D01*
X106866179Y-68030204D01*
X106934882Y-67792316D01*
X106150000Y-67007434D01*
X105365118Y-67792316D01*
X104972686Y-67792316D01*
X104776348Y-67317143D01*
X104389892Y-66930011D01*
X104136999Y-66825001D01*
X104387857Y-66721348D01*
X104484825Y-66624549D01*
X104762466Y-66624549D01*
X104791376Y-67170794D01*
X104944796Y-67541179D01*
X105182684Y-67609882D01*
X105967566Y-66825000D01*
X106332434Y-66825000D01*
X107117316Y-67609882D01*
X107355204Y-67541179D01*
X107537534Y-67025451D01*
X107508624Y-66479206D01*
X107355204Y-66108821D01*
X107117316Y-66040118D01*
X106332434Y-66825000D01*
X105967566Y-66825000D01*
X105182684Y-66040118D01*
X104944796Y-66108821D01*
X104762466Y-66624549D01*
X104484825Y-66624549D01*
X104774989Y-66334892D01*
X104973142Y-65857684D01*
X105365118Y-65857684D01*
X106150000Y-66642566D01*
X106934882Y-65857684D01*
X106866179Y-65619796D01*
X106350451Y-65437466D01*
X105804206Y-65466376D01*
X105433821Y-65619796D01*
X105365118Y-65857684D01*
X104973142Y-65857684D01*
X104984761Y-65829704D01*
X104985238Y-65282695D01*
X104776348Y-64777143D01*
X104729876Y-64730589D01*
X110249610Y-64730589D01*
X110591431Y-65557858D01*
X111223813Y-66191345D01*
X112050484Y-66534608D01*
X112945589Y-66535390D01*
X113772858Y-66193569D01*
X114406345Y-65561187D01*
X114749608Y-64734516D01*
X114750390Y-63839411D01*
X114408569Y-63012142D01*
X113776187Y-62378655D01*
X112949516Y-62035392D01*
X112054411Y-62034610D01*
X111227142Y-62376431D01*
X110593655Y-63008813D01*
X110250392Y-63835484D01*
X110249610Y-64730589D01*
X104729876Y-64730589D01*
X104389892Y-64390011D01*
X103884704Y-64180239D01*
X103337695Y-64179762D01*
X102832143Y-64388652D01*
X102445011Y-64775108D01*
X102235239Y-65280296D01*
X102234762Y-65827305D01*
X102443652Y-66332857D01*
X102830108Y-66719989D01*
X103083001Y-66824999D01*
X102832143Y-66928652D01*
X102607903Y-67152500D01*
X93743581Y-67152500D01*
X93638093Y-67046828D01*
X93224758Y-66875196D01*
X92777205Y-66874805D01*
X92363571Y-67045715D01*
X92046828Y-67361907D01*
X91875196Y-67775242D01*
X91874805Y-68222795D01*
X82472460Y-68222795D01*
X82512610Y-68154022D01*
X82574787Y-67919222D01*
X82464519Y-67589000D01*
X79129000Y-67589000D01*
X78871000Y-67589000D01*
X75535481Y-67589000D01*
X75425213Y-67919222D01*
X62942500Y-67919222D01*
X62942500Y-67000778D01*
X75425213Y-67000778D01*
X75535481Y-67331000D01*
X78871000Y-67331000D01*
X78871000Y-65335000D01*
X79129000Y-65335000D01*
X79129000Y-67331000D01*
X82464519Y-67331000D01*
X82574787Y-67000778D01*
X82512610Y-66765978D01*
X82093819Y-66048615D01*
X81432383Y-65546122D01*
X80629000Y-65335000D01*
X79129000Y-65335000D01*
X78871000Y-65335000D01*
X77371000Y-65335000D01*
X76567617Y-65546122D01*
X75906181Y-66048615D01*
X75487390Y-66765978D01*
X75425213Y-67000778D01*
X62942500Y-67000778D01*
X62942500Y-62380000D01*
X75303982Y-62380000D01*
X75465738Y-63193202D01*
X75926380Y-63882602D01*
X76615780Y-64343244D01*
X77428982Y-64505000D01*
X80571018Y-64505000D01*
X81384220Y-64343244D01*
X82073620Y-63882602D01*
X82534262Y-63193202D01*
X82696018Y-62380000D01*
X82534262Y-61566798D01*
X82073620Y-60877398D01*
X81384220Y-60416756D01*
X80571018Y-60255000D01*
X77428982Y-60255000D01*
X76615780Y-60416756D01*
X75926380Y-60877398D01*
X75465738Y-61566798D01*
X75303982Y-62380000D01*
X62942500Y-62380000D01*
X62942500Y-59910589D01*
X110249610Y-59910589D01*
X110591431Y-60737858D01*
X111223813Y-61371345D01*
X112050484Y-61714608D01*
X112945589Y-61715390D01*
X113772858Y-61373569D01*
X114406345Y-60741187D01*
X114749608Y-59914516D01*
X114750390Y-59019411D01*
X114408569Y-58192142D01*
X113776187Y-57558655D01*
X112949516Y-57215392D01*
X112054411Y-57214610D01*
X111227142Y-57556431D01*
X110593655Y-58188813D01*
X110250392Y-59015484D01*
X110249610Y-59910589D01*
X62942500Y-59910589D01*
X62942500Y-52222795D01*
X91874805Y-52222795D01*
X92045715Y-52636429D01*
X92361907Y-52953172D01*
X92775242Y-53124804D01*
X93222795Y-53125195D01*
X93636429Y-52954285D01*
X93803505Y-52787500D01*
X102608008Y-52787500D01*
X102830108Y-53009989D01*
X103083001Y-53114999D01*
X102832143Y-53218652D01*
X102607903Y-53442500D01*
X95986898Y-53442500D01*
X95954285Y-53363571D01*
X95638093Y-53046828D01*
X95224758Y-52875196D01*
X94777205Y-52874805D01*
X94363571Y-53045715D01*
X94046828Y-53361907D01*
X93875196Y-53775242D01*
X93874805Y-54222795D01*
X94045715Y-54636429D01*
X94361907Y-54953172D01*
X94775242Y-55124804D01*
X94828407Y-55124850D01*
X95024321Y-55255756D01*
X95385000Y-55327500D01*
X102608008Y-55327500D01*
X102830108Y-55549989D01*
X103083001Y-55654999D01*
X103058798Y-55665000D01*
X98075005Y-55665000D01*
X98075000Y-55664999D01*
X97592819Y-55760912D01*
X97184045Y-56034045D01*
X97109045Y-56109045D01*
X96835912Y-56517819D01*
X96739999Y-57000000D01*
X96740000Y-57000005D01*
X96740000Y-58000000D01*
X96835912Y-58482181D01*
X97109045Y-58890955D01*
X97517819Y-59164088D01*
X98000000Y-59260000D01*
X98482181Y-59164088D01*
X98484832Y-59162316D01*
X105365118Y-59162316D01*
X105433821Y-59400204D01*
X105949549Y-59582534D01*
X106495794Y-59553624D01*
X106866179Y-59400204D01*
X106934882Y-59162316D01*
X106150000Y-58377434D01*
X105365118Y-59162316D01*
X98484832Y-59162316D01*
X98890955Y-58890955D01*
X99164088Y-58482181D01*
X99223201Y-58185000D01*
X103058920Y-58185000D01*
X103335296Y-58299761D01*
X103882305Y-58300238D01*
X104387857Y-58091348D01*
X104484825Y-57994549D01*
X104762466Y-57994549D01*
X104791376Y-58540794D01*
X104944796Y-58911179D01*
X105182684Y-58979882D01*
X105967566Y-58195000D01*
X106332434Y-58195000D01*
X107117316Y-58979882D01*
X107355204Y-58911179D01*
X107537534Y-58395451D01*
X107508624Y-57849206D01*
X107355204Y-57478821D01*
X107117316Y-57410118D01*
X106332434Y-58195000D01*
X105967566Y-58195000D01*
X105182684Y-57410118D01*
X104944796Y-57478821D01*
X104762466Y-57994549D01*
X104484825Y-57994549D01*
X104774989Y-57704892D01*
X104984761Y-57199704D01*
X104985238Y-56652695D01*
X104972686Y-56622316D01*
X105365118Y-56622316D01*
X105433821Y-56860204D01*
X105602614Y-56919879D01*
X105433821Y-56989796D01*
X105365118Y-57227684D01*
X106150000Y-58012566D01*
X106934882Y-57227684D01*
X106866179Y-56989796D01*
X106697386Y-56930121D01*
X106866179Y-56860204D01*
X106934882Y-56622316D01*
X106150000Y-55837434D01*
X105365118Y-56622316D01*
X104972686Y-56622316D01*
X104776348Y-56147143D01*
X104389892Y-55760011D01*
X104136999Y-55655001D01*
X104387857Y-55551348D01*
X104484825Y-55454549D01*
X104762466Y-55454549D01*
X104791376Y-56000794D01*
X104944796Y-56371179D01*
X105182684Y-56439882D01*
X105967566Y-55655000D01*
X106332434Y-55655000D01*
X107117316Y-56439882D01*
X107355204Y-56371179D01*
X107537534Y-55855451D01*
X107508624Y-55309206D01*
X107355204Y-54938821D01*
X107117316Y-54870118D01*
X106332434Y-55655000D01*
X105967566Y-55655000D01*
X105182684Y-54870118D01*
X104944796Y-54938821D01*
X104762466Y-55454549D01*
X104484825Y-55454549D01*
X104774989Y-55164892D01*
X104984761Y-54659704D01*
X104985238Y-54112695D01*
X104972686Y-54082316D01*
X105365118Y-54082316D01*
X105433821Y-54320204D01*
X105602614Y-54379879D01*
X105433821Y-54449796D01*
X105365118Y-54687684D01*
X106150000Y-55472566D01*
X106934882Y-54687684D01*
X106866179Y-54449796D01*
X106697386Y-54390121D01*
X106866179Y-54320204D01*
X106934882Y-54082316D01*
X106150000Y-53297434D01*
X105365118Y-54082316D01*
X104972686Y-54082316D01*
X104776348Y-53607143D01*
X104389892Y-53220011D01*
X104136999Y-53115001D01*
X104387857Y-53011348D01*
X104484825Y-52914549D01*
X104762466Y-52914549D01*
X104791376Y-53460794D01*
X104944796Y-53831179D01*
X105182684Y-53899882D01*
X105967566Y-53115000D01*
X106332434Y-53115000D01*
X107117316Y-53899882D01*
X107355204Y-53831179D01*
X107537534Y-53315451D01*
X107508624Y-52769206D01*
X107355204Y-52398821D01*
X107117316Y-52330118D01*
X106332434Y-53115000D01*
X105967566Y-53115000D01*
X105182684Y-52330118D01*
X104944796Y-52398821D01*
X104762466Y-52914549D01*
X104484825Y-52914549D01*
X104774989Y-52624892D01*
X104984761Y-52119704D01*
X104985238Y-51572695D01*
X104972686Y-51542316D01*
X105365118Y-51542316D01*
X105433821Y-51780204D01*
X105602614Y-51839879D01*
X105433821Y-51909796D01*
X105365118Y-52147684D01*
X106150000Y-52932566D01*
X106934882Y-52147684D01*
X106866179Y-51909796D01*
X106697386Y-51850121D01*
X106866179Y-51780204D01*
X106934882Y-51542316D01*
X106150000Y-50757434D01*
X105365118Y-51542316D01*
X104972686Y-51542316D01*
X104776348Y-51067143D01*
X104389892Y-50680011D01*
X104136999Y-50575001D01*
X104387857Y-50471348D01*
X104484825Y-50374549D01*
X104762466Y-50374549D01*
X104791376Y-50920794D01*
X104944796Y-51291179D01*
X105182684Y-51359882D01*
X105967566Y-50575000D01*
X106332434Y-50575000D01*
X107117316Y-51359882D01*
X107355204Y-51291179D01*
X107537534Y-50775451D01*
X107508624Y-50229206D01*
X107355204Y-49858821D01*
X107117316Y-49790118D01*
X106332434Y-50575000D01*
X105967566Y-50575000D01*
X105182684Y-49790118D01*
X104944796Y-49858821D01*
X104762466Y-50374549D01*
X104484825Y-50374549D01*
X104774989Y-50084892D01*
X104973142Y-49607684D01*
X105365118Y-49607684D01*
X106150000Y-50392566D01*
X106934882Y-49607684D01*
X106866179Y-49369796D01*
X106350451Y-49187466D01*
X105804206Y-49216376D01*
X105433821Y-49369796D01*
X105365118Y-49607684D01*
X104973142Y-49607684D01*
X104984761Y-49579704D01*
X104985238Y-49032695D01*
X104776348Y-48527143D01*
X104729876Y-48480589D01*
X110249610Y-48480589D01*
X110591431Y-49307858D01*
X111223813Y-49941345D01*
X112050484Y-50284608D01*
X112945589Y-50285390D01*
X113772858Y-49943569D01*
X114406345Y-49311187D01*
X114749608Y-48484516D01*
X114750390Y-47589411D01*
X114408569Y-46762142D01*
X113776187Y-46128655D01*
X112949516Y-45785392D01*
X112054411Y-45784610D01*
X111227142Y-46126431D01*
X110593655Y-46758813D01*
X110250392Y-47585484D01*
X110249610Y-48480589D01*
X104729876Y-48480589D01*
X104389892Y-48140011D01*
X103884704Y-47930239D01*
X103337695Y-47929762D01*
X102832143Y-48138652D01*
X102445011Y-48525108D01*
X102235239Y-49030296D01*
X102234762Y-49577305D01*
X102443652Y-50082857D01*
X102830108Y-50469989D01*
X103083001Y-50574999D01*
X102832143Y-50678652D01*
X102607903Y-50902500D01*
X93290513Y-50902500D01*
X93224758Y-50875196D01*
X92777205Y-50874805D01*
X92363571Y-51045715D01*
X92046828Y-51361907D01*
X91875196Y-51775242D01*
X91874805Y-52222795D01*
X62942500Y-52222795D01*
X62942500Y-48350000D01*
X77712756Y-48350000D01*
X77712756Y-49650000D01*
X77756337Y-49881611D01*
X77893219Y-50094332D01*
X78102076Y-50237038D01*
X78350000Y-50287244D01*
X79650000Y-50287244D01*
X79881611Y-50243663D01*
X80094332Y-50106781D01*
X80237038Y-49897924D01*
X80237671Y-49894795D01*
X80787639Y-49894795D01*
X80844026Y-50122339D01*
X81323460Y-50287936D01*
X81829771Y-50257456D01*
X82155974Y-50122339D01*
X82212361Y-49894795D01*
X81500000Y-49182434D01*
X80787639Y-49894795D01*
X80237671Y-49894795D01*
X80287244Y-49650000D01*
X80287244Y-49437687D01*
X80377661Y-49655974D01*
X80605205Y-49712361D01*
X81317566Y-49000000D01*
X81682434Y-49000000D01*
X82394795Y-49712361D01*
X82622339Y-49655974D01*
X82787936Y-49176540D01*
X82757456Y-48670229D01*
X82622339Y-48344026D01*
X82394795Y-48287639D01*
X81682434Y-49000000D01*
X81317566Y-49000000D01*
X80605205Y-48287639D01*
X80377661Y-48344026D01*
X80287244Y-48605800D01*
X80287244Y-48350000D01*
X80243663Y-48118389D01*
X80235180Y-48105205D01*
X80787639Y-48105205D01*
X81500000Y-48817566D01*
X82212361Y-48105205D01*
X82155974Y-47877661D01*
X81676540Y-47712064D01*
X81170229Y-47742544D01*
X80844026Y-47877661D01*
X80787639Y-48105205D01*
X80235180Y-48105205D01*
X80106781Y-47905668D01*
X79897924Y-47762962D01*
X79650000Y-47712756D01*
X78350000Y-47712756D01*
X78118389Y-47756337D01*
X77905668Y-47893219D01*
X77762962Y-48102076D01*
X77712756Y-48350000D01*
X62942500Y-48350000D01*
X62942500Y-43648746D01*
X62953172Y-43638093D01*
X63124804Y-43224758D01*
X63125195Y-42777205D01*
X62954285Y-42363571D01*
X62638093Y-42046828D01*
X62224758Y-41875196D01*
X61777205Y-41874805D01*
X61363571Y-42045715D01*
X61046828Y-42361907D01*
X60875196Y-42775242D01*
X60874805Y-43222795D01*
X57815500Y-43222795D01*
X57815500Y-36662305D01*
X70429762Y-36662305D01*
X70638652Y-37167857D01*
X71025108Y-37554989D01*
X71530296Y-37764761D01*
X72077305Y-37765238D01*
X72582857Y-37556348D01*
X72969989Y-37169892D01*
X73074999Y-36916999D01*
X73178652Y-37167857D01*
X73402500Y-37392097D01*
X73402500Y-38345000D01*
X73474244Y-38705679D01*
X73678552Y-39011448D01*
X81874818Y-47207714D01*
X81874805Y-47222795D01*
X82045715Y-47636429D01*
X82361907Y-47953172D01*
X82775242Y-48124804D01*
X83222795Y-48125195D01*
X83636429Y-47954285D01*
X83953172Y-47638093D01*
X84124804Y-47224758D01*
X84125195Y-46777205D01*
X83954285Y-46363571D01*
X83638093Y-46046828D01*
X83525554Y-46000098D01*
X83636429Y-45954285D01*
X83953172Y-45638093D01*
X84124804Y-45224758D01*
X84125195Y-44777205D01*
X83954285Y-44363571D01*
X83638093Y-44046828D01*
X83224758Y-43875196D01*
X83208077Y-43875181D01*
X82592896Y-43260000D01*
X83000000Y-43260000D01*
X83482181Y-43164088D01*
X83890955Y-42890955D01*
X84164088Y-42482181D01*
X84260000Y-42000000D01*
X84164088Y-41517819D01*
X83890955Y-41109045D01*
X83482181Y-40835912D01*
X83000000Y-40740000D01*
X82521909Y-40740000D01*
X80685000Y-38903090D01*
X80685000Y-36941080D01*
X80799761Y-36664704D01*
X80799763Y-36662305D01*
X86679762Y-36662305D01*
X86888652Y-37167857D01*
X87275108Y-37554989D01*
X87780296Y-37764761D01*
X88327305Y-37765238D01*
X88832857Y-37556348D01*
X89219989Y-37169892D01*
X89324999Y-36916999D01*
X89428652Y-37167857D01*
X89652500Y-37392097D01*
X89652500Y-46595000D01*
X89724244Y-46955679D01*
X89874841Y-47181064D01*
X89874805Y-47222795D01*
X90045715Y-47636429D01*
X90361907Y-47953172D01*
X90775242Y-48124804D01*
X91222795Y-48125195D01*
X91636429Y-47954285D01*
X91953172Y-47638093D01*
X91999902Y-47525554D01*
X92045715Y-47636429D01*
X92361907Y-47953172D01*
X92775242Y-48124804D01*
X93222795Y-48125195D01*
X93636429Y-47954285D01*
X93953172Y-47638093D01*
X93999902Y-47525554D01*
X94045715Y-47636429D01*
X94361907Y-47953172D01*
X94775242Y-48124804D01*
X95222795Y-48125195D01*
X95636429Y-47954285D01*
X95953172Y-47638093D01*
X96124804Y-47224758D01*
X96124819Y-47208077D01*
X96877866Y-46455030D01*
X96835912Y-46517819D01*
X96739999Y-47000000D01*
X96740000Y-47000005D01*
X96740000Y-48000000D01*
X96835912Y-48482181D01*
X97109045Y-48890955D01*
X97517819Y-49164088D01*
X98000000Y-49260000D01*
X98482181Y-49164088D01*
X98890955Y-48890955D01*
X99164088Y-48482181D01*
X99260000Y-48000000D01*
X99260000Y-47521910D01*
X103121320Y-43660589D01*
X110249610Y-43660589D01*
X110591431Y-44487858D01*
X111223813Y-45121345D01*
X112050484Y-45464608D01*
X112945589Y-45465390D01*
X113772858Y-45123569D01*
X114406345Y-44491187D01*
X114749608Y-43664516D01*
X114750390Y-42769411D01*
X114408569Y-41942142D01*
X113776187Y-41308655D01*
X112949516Y-40965392D01*
X112054411Y-40964610D01*
X111227142Y-41306431D01*
X110593655Y-41938813D01*
X110250392Y-42765484D01*
X110249610Y-43660589D01*
X103121320Y-43660589D01*
X103869593Y-42912316D01*
X105365118Y-42912316D01*
X105433821Y-43150204D01*
X105949549Y-43332534D01*
X106495794Y-43303624D01*
X106866179Y-43150204D01*
X106934882Y-42912316D01*
X106150000Y-42127434D01*
X105365118Y-42912316D01*
X103869593Y-42912316D01*
X104500952Y-42280957D01*
X104500955Y-42280955D01*
X104769578Y-41878931D01*
X104791376Y-42290794D01*
X104944796Y-42661179D01*
X105182684Y-42729882D01*
X105967566Y-41945000D01*
X106332434Y-41945000D01*
X107117316Y-42729882D01*
X107355204Y-42661179D01*
X107537534Y-42145451D01*
X107508624Y-41599206D01*
X107355204Y-41228821D01*
X107117316Y-41160118D01*
X106332434Y-41945000D01*
X105967566Y-41945000D01*
X105182684Y-41160118D01*
X104944796Y-41228821D01*
X104847087Y-41505195D01*
X104870001Y-41390000D01*
X104870000Y-41389995D01*
X104870000Y-41226080D01*
X104984761Y-40949704D01*
X104985238Y-40402695D01*
X104972686Y-40372316D01*
X105365118Y-40372316D01*
X105433821Y-40610204D01*
X105602614Y-40669879D01*
X105433821Y-40739796D01*
X105365118Y-40977684D01*
X106150000Y-41762566D01*
X106934882Y-40977684D01*
X106866179Y-40739796D01*
X106697386Y-40680121D01*
X106866179Y-40610204D01*
X106934882Y-40372316D01*
X106150000Y-39587434D01*
X105365118Y-40372316D01*
X104972686Y-40372316D01*
X104776348Y-39897143D01*
X104389892Y-39510011D01*
X104136999Y-39405001D01*
X104387857Y-39301348D01*
X104484825Y-39204549D01*
X104762466Y-39204549D01*
X104791376Y-39750794D01*
X104944796Y-40121179D01*
X105182684Y-40189882D01*
X105967566Y-39405000D01*
X106332434Y-39405000D01*
X107117316Y-40189882D01*
X107355204Y-40121179D01*
X107537534Y-39605451D01*
X107508624Y-39059206D01*
X107355204Y-38688821D01*
X107117316Y-38620118D01*
X106332434Y-39405000D01*
X105967566Y-39405000D01*
X105182684Y-38620118D01*
X104944796Y-38688821D01*
X104762466Y-39204549D01*
X104484825Y-39204549D01*
X104774989Y-38914892D01*
X104984761Y-38409704D01*
X104985238Y-37862695D01*
X104972686Y-37832316D01*
X105365118Y-37832316D01*
X105433821Y-38070204D01*
X105602614Y-38129879D01*
X105433821Y-38199796D01*
X105365118Y-38437684D01*
X106150000Y-39222566D01*
X106934882Y-38437684D01*
X106866179Y-38199796D01*
X106697386Y-38140121D01*
X106866179Y-38070204D01*
X106934882Y-37832316D01*
X106150000Y-37047434D01*
X105365118Y-37832316D01*
X104972686Y-37832316D01*
X104776348Y-37357143D01*
X104389892Y-36970011D01*
X104136999Y-36865001D01*
X104387857Y-36761348D01*
X104484825Y-36664549D01*
X104762466Y-36664549D01*
X104791376Y-37210794D01*
X104944796Y-37581179D01*
X105182684Y-37649882D01*
X105967566Y-36865000D01*
X106332434Y-36865000D01*
X107117316Y-37649882D01*
X107355204Y-37581179D01*
X107537534Y-37065451D01*
X107508624Y-36519206D01*
X107355204Y-36148821D01*
X107117316Y-36080118D01*
X106332434Y-36865000D01*
X105967566Y-36865000D01*
X105182684Y-36080118D01*
X104944796Y-36148821D01*
X104762466Y-36664549D01*
X104484825Y-36664549D01*
X104774989Y-36374892D01*
X104984761Y-35869704D01*
X104985238Y-35322695D01*
X104972686Y-35292316D01*
X105365118Y-35292316D01*
X105433821Y-35530204D01*
X105602614Y-35589879D01*
X105433821Y-35659796D01*
X105365118Y-35897684D01*
X106150000Y-36682566D01*
X106934882Y-35897684D01*
X106866179Y-35659796D01*
X106697386Y-35600121D01*
X106866179Y-35530204D01*
X106934882Y-35292316D01*
X106150000Y-34507434D01*
X105365118Y-35292316D01*
X104972686Y-35292316D01*
X104776348Y-34817143D01*
X104389892Y-34430011D01*
X104136999Y-34325001D01*
X104387857Y-34221348D01*
X104484825Y-34124549D01*
X104762466Y-34124549D01*
X104791376Y-34670794D01*
X104944796Y-35041179D01*
X105182684Y-35109882D01*
X105967566Y-34325000D01*
X106332434Y-34325000D01*
X107117316Y-35109882D01*
X107355204Y-35041179D01*
X107537534Y-34525451D01*
X107508624Y-33979206D01*
X107355204Y-33608821D01*
X107117316Y-33540118D01*
X106332434Y-34325000D01*
X105967566Y-34325000D01*
X105182684Y-33540118D01*
X104944796Y-33608821D01*
X104762466Y-34124549D01*
X104484825Y-34124549D01*
X104774989Y-33834892D01*
X104973142Y-33357684D01*
X105365118Y-33357684D01*
X106150000Y-34142566D01*
X106934882Y-33357684D01*
X106866179Y-33119796D01*
X106350451Y-32937466D01*
X105804206Y-32966376D01*
X105433821Y-33119796D01*
X105365118Y-33357684D01*
X104973142Y-33357684D01*
X104984761Y-33329704D01*
X104985238Y-32782695D01*
X104776348Y-32277143D01*
X104729876Y-32230589D01*
X110249610Y-32230589D01*
X110591431Y-33057858D01*
X111223813Y-33691345D01*
X112050484Y-34034608D01*
X112945589Y-34035390D01*
X113772858Y-33693569D01*
X114406345Y-33061187D01*
X114749608Y-32234516D01*
X114750390Y-31339411D01*
X114408569Y-30512142D01*
X113776187Y-29878655D01*
X112949516Y-29535392D01*
X112054411Y-29534610D01*
X111227142Y-29876431D01*
X110593655Y-30508813D01*
X110250392Y-31335484D01*
X110249610Y-32230589D01*
X104729876Y-32230589D01*
X104389892Y-31890011D01*
X103884704Y-31680239D01*
X103337695Y-31679762D01*
X102832143Y-31888652D01*
X102445011Y-32275108D01*
X102235239Y-32780296D01*
X102234762Y-33327305D01*
X102443652Y-33832857D01*
X102830108Y-34219989D01*
X103083001Y-34324999D01*
X102832143Y-34428652D01*
X102607903Y-34652500D01*
X101405000Y-34652500D01*
X101044321Y-34724244D01*
X100738552Y-34928552D01*
X98333552Y-37333552D01*
X98129244Y-37639321D01*
X98057500Y-38000000D01*
X98057500Y-40609604D01*
X97158159Y-41508945D01*
X96935000Y-41174963D01*
X96935000Y-36941080D01*
X97049761Y-36664704D01*
X97050238Y-36117695D01*
X96841348Y-35612143D01*
X96454892Y-35225011D01*
X95949704Y-35015239D01*
X95402695Y-35014762D01*
X94897143Y-35223652D01*
X94510011Y-35610108D01*
X94405001Y-35863001D01*
X94301348Y-35612143D01*
X93914892Y-35225011D01*
X93409704Y-35015239D01*
X92862695Y-35014762D01*
X92357143Y-35223652D01*
X91970011Y-35610108D01*
X91865001Y-35863001D01*
X91761348Y-35612143D01*
X91374892Y-35225011D01*
X90869704Y-35015239D01*
X90322695Y-35014762D01*
X89817143Y-35223652D01*
X89430011Y-35610108D01*
X89325001Y-35863001D01*
X89221348Y-35612143D01*
X88834892Y-35225011D01*
X88329704Y-35015239D01*
X87782695Y-35014762D01*
X87277143Y-35223652D01*
X86890011Y-35610108D01*
X86680239Y-36115296D01*
X86679762Y-36662305D01*
X80799763Y-36662305D01*
X80800238Y-36117695D01*
X80591348Y-35612143D01*
X80204892Y-35225011D01*
X79699704Y-35015239D01*
X79152695Y-35014762D01*
X78647143Y-35223652D01*
X78260011Y-35610108D01*
X78155001Y-35863001D01*
X78051348Y-35612143D01*
X77664892Y-35225011D01*
X77159704Y-35015239D01*
X76612695Y-35014762D01*
X76107143Y-35223652D01*
X75720011Y-35610108D01*
X75615001Y-35863001D01*
X75511348Y-35612143D01*
X75124892Y-35225011D01*
X74619704Y-35015239D01*
X74072695Y-35014762D01*
X73567143Y-35223652D01*
X73180011Y-35610108D01*
X73075001Y-35863001D01*
X72971348Y-35612143D01*
X72584892Y-35225011D01*
X72079704Y-35015239D01*
X71532695Y-35014762D01*
X71027143Y-35223652D01*
X70640011Y-35610108D01*
X70430239Y-36115296D01*
X70429762Y-36662305D01*
X57815500Y-36662305D01*
X57815500Y-34817316D01*
X72290118Y-34817316D01*
X72358821Y-35055204D01*
X72874549Y-35237534D01*
X73420794Y-35208624D01*
X73791179Y-35055204D01*
X73859882Y-34817316D01*
X74830118Y-34817316D01*
X74898821Y-35055204D01*
X75414549Y-35237534D01*
X75960794Y-35208624D01*
X76331179Y-35055204D01*
X76399882Y-34817316D01*
X77370118Y-34817316D01*
X77438821Y-35055204D01*
X77954549Y-35237534D01*
X78500794Y-35208624D01*
X78871179Y-35055204D01*
X78939882Y-34817316D01*
X79910118Y-34817316D01*
X79978821Y-35055204D01*
X80494549Y-35237534D01*
X81040794Y-35208624D01*
X81411179Y-35055204D01*
X81479882Y-34817316D01*
X88540118Y-34817316D01*
X88608821Y-35055204D01*
X89124549Y-35237534D01*
X89670794Y-35208624D01*
X90041179Y-35055204D01*
X90109882Y-34817316D01*
X91080118Y-34817316D01*
X91148821Y-35055204D01*
X91664549Y-35237534D01*
X92210794Y-35208624D01*
X92581179Y-35055204D01*
X92649882Y-34817316D01*
X93620118Y-34817316D01*
X93688821Y-35055204D01*
X94204549Y-35237534D01*
X94750794Y-35208624D01*
X95121179Y-35055204D01*
X95189882Y-34817316D01*
X96160118Y-34817316D01*
X96228821Y-35055204D01*
X96744549Y-35237534D01*
X97290794Y-35208624D01*
X97661179Y-35055204D01*
X97729882Y-34817316D01*
X96945000Y-34032434D01*
X96160118Y-34817316D01*
X95189882Y-34817316D01*
X94405000Y-34032434D01*
X93620118Y-34817316D01*
X92649882Y-34817316D01*
X91865000Y-34032434D01*
X91080118Y-34817316D01*
X90109882Y-34817316D01*
X89325000Y-34032434D01*
X88540118Y-34817316D01*
X81479882Y-34817316D01*
X80695000Y-34032434D01*
X79910118Y-34817316D01*
X78939882Y-34817316D01*
X78155000Y-34032434D01*
X77370118Y-34817316D01*
X76399882Y-34817316D01*
X75615000Y-34032434D01*
X74830118Y-34817316D01*
X73859882Y-34817316D01*
X73075000Y-34032434D01*
X72290118Y-34817316D01*
X57815500Y-34817316D01*
X57815500Y-33649549D01*
X71687466Y-33649549D01*
X71716376Y-34195794D01*
X71869796Y-34566179D01*
X72107684Y-34634882D01*
X72892566Y-33850000D01*
X73257434Y-33850000D01*
X74042316Y-34634882D01*
X74280204Y-34566179D01*
X74339879Y-34397386D01*
X74409796Y-34566179D01*
X74647684Y-34634882D01*
X75432566Y-33850000D01*
X75797434Y-33850000D01*
X76582316Y-34634882D01*
X76820204Y-34566179D01*
X76879879Y-34397386D01*
X76949796Y-34566179D01*
X77187684Y-34634882D01*
X77972566Y-33850000D01*
X78337434Y-33850000D01*
X79122316Y-34634882D01*
X79360204Y-34566179D01*
X79419879Y-34397386D01*
X79489796Y-34566179D01*
X79727684Y-34634882D01*
X80512566Y-33850000D01*
X80877434Y-33850000D01*
X81662316Y-34634882D01*
X81900204Y-34566179D01*
X82082534Y-34050451D01*
X82061317Y-33649549D01*
X87937466Y-33649549D01*
X87966376Y-34195794D01*
X88119796Y-34566179D01*
X88357684Y-34634882D01*
X89142566Y-33850000D01*
X89507434Y-33850000D01*
X90292316Y-34634882D01*
X90530204Y-34566179D01*
X90589879Y-34397386D01*
X90659796Y-34566179D01*
X90897684Y-34634882D01*
X91682566Y-33850000D01*
X92047434Y-33850000D01*
X92832316Y-34634882D01*
X93070204Y-34566179D01*
X93129879Y-34397386D01*
X93199796Y-34566179D01*
X93437684Y-34634882D01*
X94222566Y-33850000D01*
X94587434Y-33850000D01*
X95372316Y-34634882D01*
X95610204Y-34566179D01*
X95669879Y-34397386D01*
X95739796Y-34566179D01*
X95977684Y-34634882D01*
X96762566Y-33850000D01*
X97127434Y-33850000D01*
X97912316Y-34634882D01*
X98150204Y-34566179D01*
X98332534Y-34050451D01*
X98303624Y-33504206D01*
X98150204Y-33133821D01*
X97912316Y-33065118D01*
X97127434Y-33850000D01*
X96762566Y-33850000D01*
X95977684Y-33065118D01*
X95739796Y-33133821D01*
X95680121Y-33302614D01*
X95610204Y-33133821D01*
X95372316Y-33065118D01*
X94587434Y-33850000D01*
X94222566Y-33850000D01*
X93437684Y-33065118D01*
X93199796Y-33133821D01*
X93140121Y-33302614D01*
X93070204Y-33133821D01*
X92832316Y-33065118D01*
X92047434Y-33850000D01*
X91682566Y-33850000D01*
X90897684Y-33065118D01*
X90659796Y-33133821D01*
X90600121Y-33302614D01*
X90530204Y-33133821D01*
X90292316Y-33065118D01*
X89507434Y-33850000D01*
X89142566Y-33850000D01*
X88357684Y-33065118D01*
X88119796Y-33133821D01*
X87937466Y-33649549D01*
X82061317Y-33649549D01*
X82053624Y-33504206D01*
X81900204Y-33133821D01*
X81662316Y-33065118D01*
X80877434Y-33850000D01*
X80512566Y-33850000D01*
X79727684Y-33065118D01*
X79489796Y-33133821D01*
X79430121Y-33302614D01*
X79360204Y-33133821D01*
X79122316Y-33065118D01*
X78337434Y-33850000D01*
X77972566Y-33850000D01*
X77187684Y-33065118D01*
X76949796Y-33133821D01*
X76890121Y-33302614D01*
X76820204Y-33133821D01*
X76582316Y-33065118D01*
X75797434Y-33850000D01*
X75432566Y-33850000D01*
X74647684Y-33065118D01*
X74409796Y-33133821D01*
X74350121Y-33302614D01*
X74280204Y-33133821D01*
X74042316Y-33065118D01*
X73257434Y-33850000D01*
X72892566Y-33850000D01*
X72107684Y-33065118D01*
X71869796Y-33133821D01*
X71687466Y-33649549D01*
X57815500Y-33649549D01*
X57815500Y-32882684D01*
X72290118Y-32882684D01*
X73075000Y-33667566D01*
X73859882Y-32882684D01*
X74830118Y-32882684D01*
X75615000Y-33667566D01*
X76399882Y-32882684D01*
X77370118Y-32882684D01*
X78155000Y-33667566D01*
X78939882Y-32882684D01*
X79910118Y-32882684D01*
X80695000Y-33667566D01*
X81479882Y-32882684D01*
X88540118Y-32882684D01*
X89325000Y-33667566D01*
X90109882Y-32882684D01*
X91080118Y-32882684D01*
X91865000Y-33667566D01*
X92649882Y-32882684D01*
X93620118Y-32882684D01*
X94405000Y-33667566D01*
X95189882Y-32882684D01*
X96160118Y-32882684D01*
X96945000Y-33667566D01*
X97729882Y-32882684D01*
X97661179Y-32644796D01*
X97145451Y-32462466D01*
X96599206Y-32491376D01*
X96228821Y-32644796D01*
X96160118Y-32882684D01*
X95189882Y-32882684D01*
X95121179Y-32644796D01*
X94605451Y-32462466D01*
X94059206Y-32491376D01*
X93688821Y-32644796D01*
X93620118Y-32882684D01*
X92649882Y-32882684D01*
X92581179Y-32644796D01*
X92065451Y-32462466D01*
X91519206Y-32491376D01*
X91148821Y-32644796D01*
X91080118Y-32882684D01*
X90109882Y-32882684D01*
X90041179Y-32644796D01*
X89525451Y-32462466D01*
X88979206Y-32491376D01*
X88608821Y-32644796D01*
X88540118Y-32882684D01*
X81479882Y-32882684D01*
X81411179Y-32644796D01*
X80895451Y-32462466D01*
X80349206Y-32491376D01*
X79978821Y-32644796D01*
X79910118Y-32882684D01*
X78939882Y-32882684D01*
X78871179Y-32644796D01*
X78355451Y-32462466D01*
X77809206Y-32491376D01*
X77438821Y-32644796D01*
X77370118Y-32882684D01*
X76399882Y-32882684D01*
X76331179Y-32644796D01*
X75815451Y-32462466D01*
X75269206Y-32491376D01*
X74898821Y-32644796D01*
X74830118Y-32882684D01*
X73859882Y-32882684D01*
X73791179Y-32644796D01*
X73275451Y-32462466D01*
X72729206Y-32491376D01*
X72358821Y-32644796D01*
X72290118Y-32882684D01*
X57815500Y-32882684D01*
X57815500Y-31775526D01*
X57953172Y-31638093D01*
X58124804Y-31224758D01*
X58125195Y-30777205D01*
X57954285Y-30363571D01*
X57638093Y-30046828D01*
X57224758Y-29875196D01*
X56777205Y-29874805D01*
X56363571Y-30045715D01*
X56046828Y-30361907D01*
X55875196Y-30775242D01*
X55874805Y-31222795D01*
X52124805Y-31222795D01*
X52125195Y-30777205D01*
X51954285Y-30363571D01*
X51638093Y-30046828D01*
X51224758Y-29875196D01*
X50777205Y-29874805D01*
X50363571Y-30045715D01*
X50046828Y-30361907D01*
X49875196Y-30775242D01*
X49875024Y-30971684D01*
X49423354Y-31423354D01*
X49246576Y-31687921D01*
X49184499Y-32000000D01*
X49184500Y-32000005D01*
X49184500Y-33999995D01*
X49184499Y-34000000D01*
X49246576Y-34312079D01*
X49423354Y-34576646D01*
X52184500Y-37337791D01*
X52184500Y-47875000D01*
X52125110Y-47875000D01*
X52125195Y-47777205D01*
X51954285Y-47363571D01*
X51638093Y-47046828D01*
X51224758Y-46875196D01*
X50777205Y-46874805D01*
X50363571Y-47045715D01*
X50046828Y-47361907D01*
X49875196Y-47775242D01*
X49875024Y-47971684D01*
X48423354Y-49423354D01*
X48246576Y-49687921D01*
X48184499Y-50000000D01*
X48184500Y-50000005D01*
X48184500Y-64224474D01*
X48046828Y-64361907D01*
X47875196Y-64775242D01*
X47874805Y-65222795D01*
X20700000Y-65222795D01*
X20700000Y-37220000D01*
X23326851Y-37220000D01*
X23440164Y-37789663D01*
X23762852Y-38272599D01*
X24088215Y-38490000D01*
X23762852Y-38707401D01*
X23440164Y-39190337D01*
X23326851Y-39760000D01*
X23440164Y-40329663D01*
X23762852Y-40812599D01*
X24088215Y-41030000D01*
X23762852Y-41247401D01*
X23440164Y-41730337D01*
X23326851Y-42300000D01*
X23440164Y-42869663D01*
X23762852Y-43352599D01*
X24088215Y-43570000D01*
X23762852Y-43787401D01*
X23440164Y-44270337D01*
X23326851Y-44840000D01*
X23440164Y-45409663D01*
X23762852Y-45892599D01*
X24088215Y-46110000D01*
X23762852Y-46327401D01*
X23440164Y-46810337D01*
X23326851Y-47380000D01*
X23440164Y-47949663D01*
X23762852Y-48432599D01*
X24088215Y-48650000D01*
X23762852Y-48867401D01*
X23440164Y-49350337D01*
X23326851Y-49920000D01*
X23440164Y-50489663D01*
X23762852Y-50972599D01*
X24088215Y-51190000D01*
X23762852Y-51407401D01*
X23440164Y-51890337D01*
X23326851Y-52460000D01*
X23440164Y-53029663D01*
X23762852Y-53512599D01*
X23795747Y-53534579D01*
X23752389Y-53542737D01*
X23539668Y-53679619D01*
X23396962Y-53888476D01*
X23346756Y-54136400D01*
X23346756Y-55863600D01*
X23390337Y-56095211D01*
X23527219Y-56307932D01*
X23736076Y-56450638D01*
X23984000Y-56500844D01*
X26016000Y-56500844D01*
X26247611Y-56457263D01*
X26460332Y-56320381D01*
X26603038Y-56111524D01*
X26653244Y-55863600D01*
X26653244Y-54136400D01*
X26609663Y-53904789D01*
X26472781Y-53692068D01*
X26263924Y-53549362D01*
X26201153Y-53536650D01*
X26237148Y-53512599D01*
X26559836Y-53029663D01*
X26673149Y-52460000D01*
X26559836Y-51890337D01*
X26237148Y-51407401D01*
X25911785Y-51190000D01*
X26237148Y-50972599D01*
X26559836Y-50489663D01*
X26673149Y-49920000D01*
X26559836Y-49350337D01*
X26237148Y-48867401D01*
X25911785Y-48650000D01*
X26237148Y-48432599D01*
X26559836Y-47949663D01*
X26673149Y-47380000D01*
X26559836Y-46810337D01*
X26237148Y-46327401D01*
X25911785Y-46110000D01*
X26237148Y-45892599D01*
X26559836Y-45409663D01*
X26673149Y-44840000D01*
X26559836Y-44270337D01*
X26237148Y-43787401D01*
X25911785Y-43570000D01*
X26237148Y-43352599D01*
X26559836Y-42869663D01*
X26673149Y-42300000D01*
X26559836Y-41730337D01*
X26237148Y-41247401D01*
X25911785Y-41030000D01*
X26237148Y-40812599D01*
X26559836Y-40329663D01*
X26673149Y-39760000D01*
X26559836Y-39190337D01*
X26237148Y-38707401D01*
X25911785Y-38490000D01*
X26237148Y-38272599D01*
X26559836Y-37789663D01*
X26673149Y-37220000D01*
X26559836Y-36650337D01*
X26237148Y-36167401D01*
X25754212Y-35844713D01*
X25184549Y-35731400D01*
X24815451Y-35731400D01*
X24245788Y-35844713D01*
X23762852Y-36167401D01*
X23440164Y-36650337D01*
X23326851Y-37220000D01*
X20700000Y-37220000D01*
X20700000Y-27945589D01*
X68284610Y-27945589D01*
X68626431Y-28772858D01*
X69258813Y-29406345D01*
X70085484Y-29749608D01*
X70980589Y-29750390D01*
X71807858Y-29408569D01*
X72441345Y-28776187D01*
X72784608Y-27949516D01*
X72784611Y-27945589D01*
X79714610Y-27945589D01*
X80056431Y-28772858D01*
X80688813Y-29406345D01*
X81515484Y-29749608D01*
X82410589Y-29750390D01*
X83237858Y-29408569D01*
X83871345Y-28776187D01*
X84214608Y-27949516D01*
X84214611Y-27945589D01*
X84534610Y-27945589D01*
X84876431Y-28772858D01*
X85508813Y-29406345D01*
X86335484Y-29749608D01*
X87230589Y-29750390D01*
X88057858Y-29408569D01*
X88691345Y-28776187D01*
X89034608Y-27949516D01*
X89034611Y-27945589D01*
X95964610Y-27945589D01*
X96306431Y-28772858D01*
X96938813Y-29406345D01*
X97765484Y-29749608D01*
X98660589Y-29750390D01*
X99487858Y-29408569D01*
X100121345Y-28776187D01*
X100464608Y-27949516D01*
X100465390Y-27054411D01*
X100123569Y-26227142D01*
X99491187Y-25593655D01*
X99122681Y-25440638D01*
X112774615Y-25440638D01*
X113112637Y-26258715D01*
X113737993Y-26885163D01*
X114555479Y-27224613D01*
X115440638Y-27225385D01*
X116258715Y-26887363D01*
X116885163Y-26262007D01*
X117224613Y-25444521D01*
X117225385Y-24559362D01*
X116887363Y-23741285D01*
X116262007Y-23114837D01*
X115444521Y-22775387D01*
X114559362Y-22774615D01*
X113741285Y-23112637D01*
X113114837Y-23737993D01*
X112775387Y-24555479D01*
X112774615Y-25440638D01*
X99122681Y-25440638D01*
X98664516Y-25250392D01*
X97769411Y-25249610D01*
X96942142Y-25591431D01*
X96308655Y-26223813D01*
X95965392Y-27050484D01*
X95964610Y-27945589D01*
X89034611Y-27945589D01*
X89035390Y-27054411D01*
X88693569Y-26227142D01*
X88061187Y-25593655D01*
X87234516Y-25250392D01*
X86339411Y-25249610D01*
X85512142Y-25591431D01*
X84878655Y-26223813D01*
X84535392Y-27050484D01*
X84534610Y-27945589D01*
X84214611Y-27945589D01*
X84215390Y-27054411D01*
X83873569Y-26227142D01*
X83241187Y-25593655D01*
X82414516Y-25250392D01*
X81519411Y-25249610D01*
X80692142Y-25591431D01*
X80058655Y-26223813D01*
X79715392Y-27050484D01*
X79714610Y-27945589D01*
X72784611Y-27945589D01*
X72785390Y-27054411D01*
X72443569Y-26227142D01*
X71811187Y-25593655D01*
X70984516Y-25250392D01*
X70089411Y-25249610D01*
X69262142Y-25591431D01*
X68628655Y-26223813D01*
X68285392Y-27050484D01*
X68284610Y-27945589D01*
X20700000Y-27945589D01*
X20700000Y-25440638D01*
X22774615Y-25440638D01*
X23112637Y-26258715D01*
X23737993Y-26885163D01*
X24555479Y-27224613D01*
X25440638Y-27225385D01*
X26258715Y-26887363D01*
X26885163Y-26262007D01*
X27224613Y-25444521D01*
X27225385Y-24559362D01*
X26987651Y-23984000D01*
X35999156Y-23984000D01*
X35999156Y-26016000D01*
X36042737Y-26247611D01*
X36179619Y-26460332D01*
X36388476Y-26603038D01*
X36636400Y-26653244D01*
X38363600Y-26653244D01*
X38595211Y-26609663D01*
X38807932Y-26472781D01*
X38950638Y-26263924D01*
X38963350Y-26201153D01*
X38987401Y-26237148D01*
X39470337Y-26559836D01*
X40040000Y-26673149D01*
X40609663Y-26559836D01*
X41092599Y-26237148D01*
X41310000Y-25911785D01*
X41527401Y-26237148D01*
X42010337Y-26559836D01*
X42580000Y-26673149D01*
X43149663Y-26559836D01*
X43632599Y-26237148D01*
X43850000Y-25911785D01*
X44067401Y-26237148D01*
X44550337Y-26559836D01*
X45120000Y-26673149D01*
X45689663Y-26559836D01*
X46172599Y-26237148D01*
X46390000Y-25911785D01*
X46607401Y-26237148D01*
X47090337Y-26559836D01*
X47660000Y-26673149D01*
X48229663Y-26559836D01*
X48712599Y-26237148D01*
X48930000Y-25911785D01*
X49147401Y-26237148D01*
X49630337Y-26559836D01*
X50200000Y-26673149D01*
X50769663Y-26559836D01*
X51252599Y-26237148D01*
X51470000Y-25911785D01*
X51687401Y-26237148D01*
X52170337Y-26559836D01*
X52740000Y-26673149D01*
X53309663Y-26559836D01*
X53792599Y-26237148D01*
X54010000Y-25911785D01*
X54227401Y-26237148D01*
X54710337Y-26559836D01*
X55280000Y-26673149D01*
X55849663Y-26559836D01*
X56332599Y-26237148D01*
X56655287Y-25754212D01*
X56768600Y-25184549D01*
X56768600Y-24815451D01*
X56655287Y-24245788D01*
X56332599Y-23762852D01*
X55849663Y-23440164D01*
X55280000Y-23326851D01*
X54710337Y-23440164D01*
X54227401Y-23762852D01*
X54010000Y-24088215D01*
X53792599Y-23762852D01*
X53309663Y-23440164D01*
X52740000Y-23326851D01*
X52170337Y-23440164D01*
X51687401Y-23762852D01*
X51470000Y-24088215D01*
X51252599Y-23762852D01*
X50769663Y-23440164D01*
X50200000Y-23326851D01*
X49630337Y-23440164D01*
X49147401Y-23762852D01*
X48930000Y-24088215D01*
X48712599Y-23762852D01*
X48229663Y-23440164D01*
X47660000Y-23326851D01*
X47090337Y-23440164D01*
X46607401Y-23762852D01*
X46390000Y-24088215D01*
X46172599Y-23762852D01*
X45689663Y-23440164D01*
X45120000Y-23326851D01*
X44550337Y-23440164D01*
X44067401Y-23762852D01*
X43850000Y-24088215D01*
X43632599Y-23762852D01*
X43149663Y-23440164D01*
X42580000Y-23326851D01*
X42010337Y-23440164D01*
X41527401Y-23762852D01*
X41310000Y-24088215D01*
X41092599Y-23762852D01*
X40609663Y-23440164D01*
X40040000Y-23326851D01*
X39470337Y-23440164D01*
X38987401Y-23762852D01*
X38965421Y-23795747D01*
X38957263Y-23752389D01*
X38820381Y-23539668D01*
X38611524Y-23396962D01*
X38363600Y-23346756D01*
X36636400Y-23346756D01*
X36404789Y-23390337D01*
X36192068Y-23527219D01*
X36049362Y-23736076D01*
X35999156Y-23984000D01*
X26987651Y-23984000D01*
X26887363Y-23741285D01*
X26262007Y-23114837D01*
X25444521Y-22775387D01*
X24559362Y-22774615D01*
X23741285Y-23112637D01*
X23114837Y-23737993D01*
X22775387Y-24555479D01*
X22774615Y-25440638D01*
X20700000Y-25440638D01*
X20700000Y-20700000D01*
X119300000Y-20700000D01*
X119300000Y-119300000D01*
M02*
