G04 #@! TF.FileFunction,Legend,Top*
%FSLAX46Y46*%
G04 Gerber Fmt 4.6, Leading zero omitted, Abs format (unit mm)*
G04 Created by KiCad (PCBNEW 4.0.7-e2-6376~58~ubuntu17.04.1) date Sun Oct 29 20:56:10 2017*
%MOMM*%
%LPD*%
G01*
G04 APERTURE LIST*
%ADD10C,0.100000*%
%ADD11C,0.150000*%
%ADD12C,0.120000*%
G04 APERTURE END LIST*
D10*
D11*
X56400000Y-102350000D02*
X56400000Y-101650000D01*
X57600000Y-101650000D02*
X57600000Y-102350000D01*
X60600000Y-70650000D02*
X60600000Y-71350000D01*
X59400000Y-71350000D02*
X59400000Y-70650000D01*
X56400000Y-42350000D02*
X56400000Y-41650000D01*
X57600000Y-41650000D02*
X57600000Y-42350000D01*
X47920000Y-73286000D02*
X47920000Y-68460000D01*
X47920000Y-68460000D02*
X58080000Y-68460000D01*
X58080000Y-68460000D02*
X58080000Y-73286000D01*
X58080000Y-73286000D02*
X47920000Y-73286000D01*
X58080000Y-71508000D02*
X57445000Y-71508000D01*
X57445000Y-71508000D02*
X57445000Y-70238000D01*
X57445000Y-70238000D02*
X58080000Y-70238000D01*
X55375000Y-96125000D02*
X55100000Y-96125000D01*
X55375000Y-103875000D02*
X55010000Y-103875000D01*
X39625000Y-103875000D02*
X39990000Y-103875000D01*
X39625000Y-96125000D02*
X39990000Y-96125000D01*
X55375000Y-96125000D02*
X55375000Y-103875000D01*
X39625000Y-96125000D02*
X39625000Y-103875000D01*
X55100000Y-96125000D02*
X55100000Y-94300000D01*
X55375000Y-36125000D02*
X55100000Y-36125000D01*
X55375000Y-43875000D02*
X55010000Y-43875000D01*
X39625000Y-43875000D02*
X39990000Y-43875000D01*
X39625000Y-36125000D02*
X39990000Y-36125000D01*
X55375000Y-36125000D02*
X55375000Y-43875000D01*
X39625000Y-36125000D02*
X39625000Y-43875000D01*
X55100000Y-36125000D02*
X55100000Y-34300000D01*
X26270000Y-101230000D02*
X26270000Y-83450000D01*
X26270000Y-83450000D02*
X23730000Y-83450000D01*
X23730000Y-83450000D02*
X23730000Y-101230000D01*
X26550000Y-104050000D02*
X26550000Y-102500000D01*
X26270000Y-101230000D02*
X23730000Y-101230000D01*
X23450000Y-102500000D02*
X23450000Y-104050000D01*
X23450000Y-104050000D02*
X26550000Y-104050000D01*
X54980000Y-113730000D02*
X37200000Y-113730000D01*
X37200000Y-113730000D02*
X37200000Y-116270000D01*
X37200000Y-116270000D02*
X54980000Y-116270000D01*
X57800000Y-113450000D02*
X56250000Y-113450000D01*
X54980000Y-113730000D02*
X54980000Y-116270000D01*
X56250000Y-116550000D02*
X57800000Y-116550000D01*
X57800000Y-116550000D02*
X57800000Y-113450000D01*
X38770000Y-26270000D02*
X56550000Y-26270000D01*
X56550000Y-26270000D02*
X56550000Y-23730000D01*
X56550000Y-23730000D02*
X38770000Y-23730000D01*
X35950000Y-26550000D02*
X37500000Y-26550000D01*
X38770000Y-26270000D02*
X38770000Y-23730000D01*
X37500000Y-23450000D02*
X35950000Y-23450000D01*
X35950000Y-23450000D02*
X35950000Y-26550000D01*
X23730000Y-73730000D02*
X23730000Y-66110000D01*
X26270000Y-73730000D02*
X26270000Y-66110000D01*
X26550000Y-76550000D02*
X26550000Y-75000000D01*
X23730000Y-66110000D02*
X26270000Y-66110000D01*
X26270000Y-73730000D02*
X23730000Y-73730000D01*
X23450000Y-75000000D02*
X23450000Y-76550000D01*
X23450000Y-76550000D02*
X26550000Y-76550000D01*
X26270000Y-53730000D02*
X26270000Y-35950000D01*
X26270000Y-35950000D02*
X23730000Y-35950000D01*
X23730000Y-35950000D02*
X23730000Y-53730000D01*
X26550000Y-56550000D02*
X26550000Y-55000000D01*
X26270000Y-53730000D02*
X23730000Y-53730000D01*
X23450000Y-55000000D02*
X23450000Y-56550000D01*
X23450000Y-56550000D02*
X26550000Y-56550000D01*
X57125000Y-96600000D02*
X57125000Y-95400000D01*
X58875000Y-95400000D02*
X58875000Y-96600000D01*
X57125000Y-37600000D02*
X57125000Y-36400000D01*
X58875000Y-36400000D02*
X58875000Y-37600000D01*
X80325000Y-87851000D02*
X80325000Y-94149000D01*
X80465000Y-87857000D02*
X80465000Y-94143000D01*
X80605000Y-87870000D02*
X80605000Y-90554000D01*
X80605000Y-91446000D02*
X80605000Y-94130000D01*
X80745000Y-87889000D02*
X80745000Y-90344000D01*
X80745000Y-91656000D02*
X80745000Y-94111000D01*
X80885000Y-87915000D02*
X80885000Y-90211000D01*
X80885000Y-91789000D02*
X80885000Y-94085000D01*
X81025000Y-87947000D02*
X81025000Y-90120000D01*
X81025000Y-91880000D02*
X81025000Y-94053000D01*
X81165000Y-87986000D02*
X81165000Y-90058000D01*
X81165000Y-91942000D02*
X81165000Y-94014000D01*
X81305000Y-88032000D02*
X81305000Y-90019000D01*
X81305000Y-91981000D02*
X81305000Y-93968000D01*
X81445000Y-88085000D02*
X81445000Y-90002000D01*
X81445000Y-91998000D02*
X81445000Y-93915000D01*
X81585000Y-88147000D02*
X81585000Y-90004000D01*
X81585000Y-91996000D02*
X81585000Y-93853000D01*
X81725000Y-88217000D02*
X81725000Y-90026000D01*
X81725000Y-91974000D02*
X81725000Y-93783000D01*
X81865000Y-88296000D02*
X81865000Y-90069000D01*
X81865000Y-91931000D02*
X81865000Y-93704000D01*
X82005000Y-88384000D02*
X82005000Y-90137000D01*
X82005000Y-91863000D02*
X82005000Y-93616000D01*
X82145000Y-88484000D02*
X82145000Y-90236000D01*
X82145000Y-91764000D02*
X82145000Y-93516000D01*
X82285000Y-88596000D02*
X82285000Y-90381000D01*
X82285000Y-91619000D02*
X82285000Y-93404000D01*
X82425000Y-88721000D02*
X82425000Y-90620000D01*
X82425000Y-91380000D02*
X82425000Y-93279000D01*
X82565000Y-88864000D02*
X82565000Y-93136000D01*
X82705000Y-89026000D02*
X82705000Y-92974000D01*
X82845000Y-89214000D02*
X82845000Y-92786000D01*
X82985000Y-89437000D02*
X82985000Y-92563000D01*
X83125000Y-89713000D02*
X83125000Y-92287000D01*
X83265000Y-90088000D02*
X83265000Y-91912000D01*
X82500000Y-91000000D02*
G75*
G03X82500000Y-91000000I-1000000J0D01*
G01*
X83437500Y-91000000D02*
G75*
G03X83437500Y-91000000I-3187500J0D01*
G01*
X80325000Y-45851000D02*
X80325000Y-52149000D01*
X80465000Y-45857000D02*
X80465000Y-52143000D01*
X80605000Y-45870000D02*
X80605000Y-48554000D01*
X80605000Y-49446000D02*
X80605000Y-52130000D01*
X80745000Y-45889000D02*
X80745000Y-48344000D01*
X80745000Y-49656000D02*
X80745000Y-52111000D01*
X80885000Y-45915000D02*
X80885000Y-48211000D01*
X80885000Y-49789000D02*
X80885000Y-52085000D01*
X81025000Y-45947000D02*
X81025000Y-48120000D01*
X81025000Y-49880000D02*
X81025000Y-52053000D01*
X81165000Y-45986000D02*
X81165000Y-48058000D01*
X81165000Y-49942000D02*
X81165000Y-52014000D01*
X81305000Y-46032000D02*
X81305000Y-48019000D01*
X81305000Y-49981000D02*
X81305000Y-51968000D01*
X81445000Y-46085000D02*
X81445000Y-48002000D01*
X81445000Y-49998000D02*
X81445000Y-51915000D01*
X81585000Y-46147000D02*
X81585000Y-48004000D01*
X81585000Y-49996000D02*
X81585000Y-51853000D01*
X81725000Y-46217000D02*
X81725000Y-48026000D01*
X81725000Y-49974000D02*
X81725000Y-51783000D01*
X81865000Y-46296000D02*
X81865000Y-48069000D01*
X81865000Y-49931000D02*
X81865000Y-51704000D01*
X82005000Y-46384000D02*
X82005000Y-48137000D01*
X82005000Y-49863000D02*
X82005000Y-51616000D01*
X82145000Y-46484000D02*
X82145000Y-48236000D01*
X82145000Y-49764000D02*
X82145000Y-51516000D01*
X82285000Y-46596000D02*
X82285000Y-48381000D01*
X82285000Y-49619000D02*
X82285000Y-51404000D01*
X82425000Y-46721000D02*
X82425000Y-48620000D01*
X82425000Y-49380000D02*
X82425000Y-51279000D01*
X82565000Y-46864000D02*
X82565000Y-51136000D01*
X82705000Y-47026000D02*
X82705000Y-50974000D01*
X82845000Y-47214000D02*
X82845000Y-50786000D01*
X82985000Y-47437000D02*
X82985000Y-50563000D01*
X83125000Y-47713000D02*
X83125000Y-50287000D01*
X83265000Y-48088000D02*
X83265000Y-49912000D01*
X82500000Y-49000000D02*
G75*
G03X82500000Y-49000000I-1000000J0D01*
G01*
X83437500Y-49000000D02*
G75*
G03X83437500Y-49000000I-3187500J0D01*
G01*
X83200000Y-81800000D02*
X83200000Y-58200000D01*
X83200000Y-58200000D02*
X76800000Y-58200000D01*
X76800000Y-58200000D02*
X74800000Y-60200000D01*
X74800000Y-60200000D02*
X74800000Y-79800000D01*
X74800000Y-79800000D02*
X76800000Y-81800000D01*
X76800000Y-81800000D02*
X83200000Y-81800000D01*
X69149000Y-71325000D02*
X62851000Y-71325000D01*
X69143000Y-71465000D02*
X62857000Y-71465000D01*
X69130000Y-71605000D02*
X66446000Y-71605000D01*
X65554000Y-71605000D02*
X62870000Y-71605000D01*
X69111000Y-71745000D02*
X66656000Y-71745000D01*
X65344000Y-71745000D02*
X62889000Y-71745000D01*
X69085000Y-71885000D02*
X66789000Y-71885000D01*
X65211000Y-71885000D02*
X62915000Y-71885000D01*
X69053000Y-72025000D02*
X66880000Y-72025000D01*
X65120000Y-72025000D02*
X62947000Y-72025000D01*
X69014000Y-72165000D02*
X66942000Y-72165000D01*
X65058000Y-72165000D02*
X62986000Y-72165000D01*
X68968000Y-72305000D02*
X66981000Y-72305000D01*
X65019000Y-72305000D02*
X63032000Y-72305000D01*
X68915000Y-72445000D02*
X66998000Y-72445000D01*
X65002000Y-72445000D02*
X63085000Y-72445000D01*
X68853000Y-72585000D02*
X66996000Y-72585000D01*
X65004000Y-72585000D02*
X63147000Y-72585000D01*
X68783000Y-72725000D02*
X66974000Y-72725000D01*
X65026000Y-72725000D02*
X63217000Y-72725000D01*
X68704000Y-72865000D02*
X66931000Y-72865000D01*
X65069000Y-72865000D02*
X63296000Y-72865000D01*
X68616000Y-73005000D02*
X66863000Y-73005000D01*
X65137000Y-73005000D02*
X63384000Y-73005000D01*
X68516000Y-73145000D02*
X66764000Y-73145000D01*
X65236000Y-73145000D02*
X63484000Y-73145000D01*
X68404000Y-73285000D02*
X66619000Y-73285000D01*
X65381000Y-73285000D02*
X63596000Y-73285000D01*
X68279000Y-73425000D02*
X66380000Y-73425000D01*
X65620000Y-73425000D02*
X63721000Y-73425000D01*
X68136000Y-73565000D02*
X63864000Y-73565000D01*
X67974000Y-73705000D02*
X64026000Y-73705000D01*
X67786000Y-73845000D02*
X64214000Y-73845000D01*
X67563000Y-73985000D02*
X64437000Y-73985000D01*
X67287000Y-74125000D02*
X64713000Y-74125000D01*
X66912000Y-74265000D02*
X65088000Y-74265000D01*
X67000000Y-72500000D02*
G75*
G03X67000000Y-72500000I-1000000J0D01*
G01*
X69187500Y-71250000D02*
G75*
G03X69187500Y-71250000I-3187500J0D01*
G01*
X120120000Y-110120000D02*
X120120000Y-105675000D01*
X120120000Y-99325000D02*
X120120000Y-94880000D01*
X120120000Y-105675000D02*
X118850000Y-105675000D01*
X118850000Y-105675000D02*
X118850000Y-99325000D01*
X118850000Y-99325000D02*
X120120000Y-99325000D01*
X120120000Y-110120000D02*
X102340000Y-110120000D01*
X102340000Y-110120000D02*
X102340000Y-94880000D01*
X102340000Y-94880000D02*
X120120000Y-94880000D01*
X84880000Y-120120000D02*
X89325000Y-120120000D01*
X95675000Y-120120000D02*
X100120000Y-120120000D01*
X89325000Y-120120000D02*
X89325000Y-118850000D01*
X89325000Y-118850000D02*
X95675000Y-118850000D01*
X95675000Y-118850000D02*
X95675000Y-120120000D01*
X84880000Y-120120000D02*
X84880000Y-102340000D01*
X84880000Y-102340000D02*
X100120000Y-102340000D01*
X100120000Y-102340000D02*
X100120000Y-120120000D01*
X120120000Y-77620000D02*
X120120000Y-73175000D01*
X120120000Y-66825000D02*
X120120000Y-62380000D01*
X120120000Y-73175000D02*
X118850000Y-73175000D01*
X118850000Y-73175000D02*
X118850000Y-66825000D01*
X118850000Y-66825000D02*
X120120000Y-66825000D01*
X120120000Y-77620000D02*
X102340000Y-77620000D01*
X102340000Y-77620000D02*
X102340000Y-62380000D01*
X102340000Y-62380000D02*
X120120000Y-62380000D01*
X120120000Y-93870000D02*
X120120000Y-89425000D01*
X120120000Y-83075000D02*
X120120000Y-78630000D01*
X120120000Y-89425000D02*
X118850000Y-89425000D01*
X118850000Y-89425000D02*
X118850000Y-83075000D01*
X118850000Y-83075000D02*
X120120000Y-83075000D01*
X120120000Y-93870000D02*
X102340000Y-93870000D01*
X102340000Y-93870000D02*
X102340000Y-78630000D01*
X102340000Y-78630000D02*
X120120000Y-78630000D01*
X68630000Y-120120000D02*
X73075000Y-120120000D01*
X79425000Y-120120000D02*
X83870000Y-120120000D01*
X73075000Y-120120000D02*
X73075000Y-118850000D01*
X73075000Y-118850000D02*
X79425000Y-118850000D01*
X79425000Y-118850000D02*
X79425000Y-120120000D01*
X68630000Y-120120000D02*
X68630000Y-102340000D01*
X68630000Y-102340000D02*
X83870000Y-102340000D01*
X83870000Y-102340000D02*
X83870000Y-120120000D01*
X120120000Y-61370000D02*
X120120000Y-56925000D01*
X120120000Y-50575000D02*
X120120000Y-46130000D01*
X120120000Y-56925000D02*
X118850000Y-56925000D01*
X118850000Y-56925000D02*
X118850000Y-50575000D01*
X118850000Y-50575000D02*
X120120000Y-50575000D01*
X120120000Y-61370000D02*
X102340000Y-61370000D01*
X102340000Y-61370000D02*
X102340000Y-46130000D01*
X102340000Y-46130000D02*
X120120000Y-46130000D01*
X120120000Y-45120000D02*
X120120000Y-40675000D01*
X120120000Y-34325000D02*
X120120000Y-29880000D01*
X120120000Y-40675000D02*
X118850000Y-40675000D01*
X118850000Y-40675000D02*
X118850000Y-34325000D01*
X118850000Y-34325000D02*
X120120000Y-34325000D01*
X120120000Y-45120000D02*
X102340000Y-45120000D01*
X102340000Y-45120000D02*
X102340000Y-29880000D01*
X102340000Y-29880000D02*
X120120000Y-29880000D01*
X83870000Y-19880000D02*
X79425000Y-19880000D01*
X73075000Y-19880000D02*
X68630000Y-19880000D01*
X79425000Y-19880000D02*
X79425000Y-21150000D01*
X79425000Y-21150000D02*
X73075000Y-21150000D01*
X73075000Y-21150000D02*
X73075000Y-19880000D01*
X83870000Y-19880000D02*
X83870000Y-37660000D01*
X83870000Y-37660000D02*
X68630000Y-37660000D01*
X68630000Y-37660000D02*
X68630000Y-19880000D01*
X100120000Y-19880000D02*
X95675000Y-19880000D01*
X89325000Y-19880000D02*
X84880000Y-19880000D01*
X95675000Y-19880000D02*
X95675000Y-21150000D01*
X95675000Y-21150000D02*
X89325000Y-21150000D01*
X89325000Y-21150000D02*
X89325000Y-19880000D01*
X100120000Y-19880000D02*
X100120000Y-37660000D01*
X100120000Y-37660000D02*
X84880000Y-37660000D01*
X84880000Y-37660000D02*
X84880000Y-19880000D01*
D12*
X42410000Y-73330000D02*
X42410000Y-68130000D01*
X37270000Y-73330000D02*
X42410000Y-73330000D01*
X34670000Y-68130000D02*
X42410000Y-68130000D01*
X37270000Y-73330000D02*
X37270000Y-70730000D01*
X37270000Y-70730000D02*
X34670000Y-70730000D01*
X34670000Y-70730000D02*
X34670000Y-68130000D01*
X36000000Y-73330000D02*
X34670000Y-73330000D01*
X34670000Y-73330000D02*
X34670000Y-72000000D01*
D11*
X59357143Y-102166666D02*
X59404762Y-102214285D01*
X59452381Y-102357142D01*
X59452381Y-102452380D01*
X59404762Y-102595238D01*
X59309524Y-102690476D01*
X59214286Y-102738095D01*
X59023810Y-102785714D01*
X58880952Y-102785714D01*
X58690476Y-102738095D01*
X58595238Y-102690476D01*
X58500000Y-102595238D01*
X58452381Y-102452380D01*
X58452381Y-102357142D01*
X58500000Y-102214285D01*
X58547619Y-102166666D01*
X59452381Y-101214285D02*
X59452381Y-101785714D01*
X59452381Y-101500000D02*
X58452381Y-101500000D01*
X58595238Y-101595238D01*
X58690476Y-101690476D01*
X58738095Y-101785714D01*
X62257143Y-71166666D02*
X62304762Y-71214285D01*
X62352381Y-71357142D01*
X62352381Y-71452380D01*
X62304762Y-71595238D01*
X62209524Y-71690476D01*
X62114286Y-71738095D01*
X61923810Y-71785714D01*
X61780952Y-71785714D01*
X61590476Y-71738095D01*
X61495238Y-71690476D01*
X61400000Y-71595238D01*
X61352381Y-71452380D01*
X61352381Y-71357142D01*
X61400000Y-71214285D01*
X61447619Y-71166666D01*
X61447619Y-70785714D02*
X61400000Y-70738095D01*
X61352381Y-70642857D01*
X61352381Y-70404761D01*
X61400000Y-70309523D01*
X61447619Y-70261904D01*
X61542857Y-70214285D01*
X61638095Y-70214285D01*
X61780952Y-70261904D01*
X62352381Y-70833333D01*
X62352381Y-70214285D01*
X59357143Y-42166666D02*
X59404762Y-42214285D01*
X59452381Y-42357142D01*
X59452381Y-42452380D01*
X59404762Y-42595238D01*
X59309524Y-42690476D01*
X59214286Y-42738095D01*
X59023810Y-42785714D01*
X58880952Y-42785714D01*
X58690476Y-42738095D01*
X58595238Y-42690476D01*
X58500000Y-42595238D01*
X58452381Y-42452380D01*
X58452381Y-42357142D01*
X58500000Y-42214285D01*
X58547619Y-42166666D01*
X58452381Y-41833333D02*
X58452381Y-41214285D01*
X58833333Y-41547619D01*
X58833333Y-41404761D01*
X58880952Y-41309523D01*
X58928571Y-41261904D01*
X59023810Y-41214285D01*
X59261905Y-41214285D01*
X59357143Y-41261904D01*
X59404762Y-41309523D01*
X59452381Y-41404761D01*
X59452381Y-41690476D01*
X59404762Y-41785714D01*
X59357143Y-41833333D01*
X52023810Y-72722381D02*
X52023810Y-71722381D01*
X53071429Y-72627143D02*
X53023810Y-72674762D01*
X52880953Y-72722381D01*
X52785715Y-72722381D01*
X52642857Y-72674762D01*
X52547619Y-72579524D01*
X52500000Y-72484286D01*
X52452381Y-72293810D01*
X52452381Y-72150952D01*
X52500000Y-71960476D01*
X52547619Y-71865238D01*
X52642857Y-71770000D01*
X52785715Y-71722381D01*
X52880953Y-71722381D01*
X53023810Y-71770000D01*
X53071429Y-71817619D01*
X54023810Y-72722381D02*
X53452381Y-72722381D01*
X53738095Y-72722381D02*
X53738095Y-71722381D01*
X53642857Y-71865238D01*
X53547619Y-71960476D01*
X53452381Y-72008095D01*
X47452381Y-100333333D02*
X48166667Y-100333333D01*
X48309524Y-100380953D01*
X48404762Y-100476191D01*
X48452381Y-100619048D01*
X48452381Y-100714286D01*
X48452381Y-99333333D02*
X48452381Y-99904762D01*
X48452381Y-99619048D02*
X47452381Y-99619048D01*
X47595238Y-99714286D01*
X47690476Y-99809524D01*
X47738095Y-99904762D01*
X46452381Y-40333333D02*
X47166667Y-40333333D01*
X47309524Y-40380953D01*
X47404762Y-40476191D01*
X47452381Y-40619048D01*
X47452381Y-40714286D01*
X46547619Y-39904762D02*
X46500000Y-39857143D01*
X46452381Y-39761905D01*
X46452381Y-39523809D01*
X46500000Y-39428571D01*
X46547619Y-39380952D01*
X46642857Y-39333333D01*
X46738095Y-39333333D01*
X46880952Y-39380952D01*
X47452381Y-39952381D01*
X47452381Y-39333333D01*
X60552381Y-96166666D02*
X60076190Y-96500000D01*
X60552381Y-96738095D02*
X59552381Y-96738095D01*
X59552381Y-96357142D01*
X59600000Y-96261904D01*
X59647619Y-96214285D01*
X59742857Y-96166666D01*
X59885714Y-96166666D01*
X59980952Y-96214285D01*
X60028571Y-96261904D01*
X60076190Y-96357142D01*
X60076190Y-96738095D01*
X60552381Y-95214285D02*
X60552381Y-95785714D01*
X60552381Y-95500000D02*
X59552381Y-95500000D01*
X59695238Y-95595238D01*
X59790476Y-95690476D01*
X59838095Y-95785714D01*
X60552381Y-37166666D02*
X60076190Y-37500000D01*
X60552381Y-37738095D02*
X59552381Y-37738095D01*
X59552381Y-37357142D01*
X59600000Y-37261904D01*
X59647619Y-37214285D01*
X59742857Y-37166666D01*
X59885714Y-37166666D01*
X59980952Y-37214285D01*
X60028571Y-37261904D01*
X60076190Y-37357142D01*
X60076190Y-37738095D01*
X59647619Y-36785714D02*
X59600000Y-36738095D01*
X59552381Y-36642857D01*
X59552381Y-36404761D01*
X59600000Y-36309523D01*
X59647619Y-36261904D01*
X59742857Y-36214285D01*
X59838095Y-36214285D01*
X59980952Y-36261904D01*
X60552381Y-36833333D01*
X60552381Y-36214285D01*
X80083334Y-86957143D02*
X80035715Y-87004762D01*
X79892858Y-87052381D01*
X79797620Y-87052381D01*
X79654762Y-87004762D01*
X79559524Y-86909524D01*
X79511905Y-86814286D01*
X79464286Y-86623810D01*
X79464286Y-86480952D01*
X79511905Y-86290476D01*
X79559524Y-86195238D01*
X79654762Y-86100000D01*
X79797620Y-86052381D01*
X79892858Y-86052381D01*
X80035715Y-86100000D01*
X80083334Y-86147619D01*
X80940477Y-86385714D02*
X80940477Y-87052381D01*
X80702381Y-86004762D02*
X80464286Y-86719048D01*
X81083334Y-86719048D01*
X80083334Y-44957143D02*
X80035715Y-45004762D01*
X79892858Y-45052381D01*
X79797620Y-45052381D01*
X79654762Y-45004762D01*
X79559524Y-44909524D01*
X79511905Y-44814286D01*
X79464286Y-44623810D01*
X79464286Y-44480952D01*
X79511905Y-44290476D01*
X79559524Y-44195238D01*
X79654762Y-44100000D01*
X79797620Y-44052381D01*
X79892858Y-44052381D01*
X80035715Y-44100000D01*
X80083334Y-44147619D01*
X80988096Y-44052381D02*
X80511905Y-44052381D01*
X80464286Y-44528571D01*
X80511905Y-44480952D01*
X80607143Y-44433333D01*
X80845239Y-44433333D01*
X80940477Y-44480952D01*
X80988096Y-44528571D01*
X81035715Y-44623810D01*
X81035715Y-44861905D01*
X80988096Y-44957143D01*
X80940477Y-45004762D01*
X80845239Y-45052381D01*
X80607143Y-45052381D01*
X80511905Y-45004762D01*
X80464286Y-44957143D01*
X79952381Y-70738095D02*
X78952381Y-70738095D01*
X78952381Y-70357142D01*
X79000000Y-70261904D01*
X79047619Y-70214285D01*
X79142857Y-70166666D01*
X79285714Y-70166666D01*
X79380952Y-70214285D01*
X79428571Y-70261904D01*
X79476190Y-70357142D01*
X79476190Y-70738095D01*
X78952381Y-69833333D02*
X78952381Y-69166666D01*
X79952381Y-69595238D01*
X70757143Y-71416666D02*
X70804762Y-71464285D01*
X70852381Y-71607142D01*
X70852381Y-71702380D01*
X70804762Y-71845238D01*
X70709524Y-71940476D01*
X70614286Y-71988095D01*
X70423810Y-72035714D01*
X70280952Y-72035714D01*
X70090476Y-71988095D01*
X69995238Y-71940476D01*
X69900000Y-71845238D01*
X69852381Y-71702380D01*
X69852381Y-71607142D01*
X69900000Y-71464285D01*
X69947619Y-71416666D01*
X69852381Y-70559523D02*
X69852381Y-70750000D01*
X69900000Y-70845238D01*
X69947619Y-70892857D01*
X70090476Y-70988095D01*
X70280952Y-71035714D01*
X70661905Y-71035714D01*
X70757143Y-70988095D01*
X70804762Y-70940476D01*
X70852381Y-70845238D01*
X70852381Y-70654761D01*
X70804762Y-70559523D01*
X70757143Y-70511904D01*
X70661905Y-70464285D01*
X70423810Y-70464285D01*
X70328571Y-70511904D01*
X70280952Y-70559523D01*
X70233333Y-70654761D01*
X70233333Y-70845238D01*
X70280952Y-70940476D01*
X70328571Y-70988095D01*
X70423810Y-71035714D01*
X112452381Y-103309523D02*
X113166667Y-103309523D01*
X113309524Y-103357143D01*
X113404762Y-103452381D01*
X113452381Y-103595238D01*
X113452381Y-103690476D01*
X113452381Y-102309523D02*
X113452381Y-102880952D01*
X113452381Y-102595238D02*
X112452381Y-102595238D01*
X112595238Y-102690476D01*
X112690476Y-102785714D01*
X112738095Y-102880952D01*
X112547619Y-101928571D02*
X112500000Y-101880952D01*
X112452381Y-101785714D01*
X112452381Y-101547618D01*
X112500000Y-101452380D01*
X112547619Y-101404761D01*
X112642857Y-101357142D01*
X112738095Y-101357142D01*
X112880952Y-101404761D01*
X113452381Y-101976190D01*
X113452381Y-101357142D01*
X91690477Y-112452381D02*
X91690477Y-113166667D01*
X91642857Y-113309524D01*
X91547619Y-113404762D01*
X91404762Y-113452381D01*
X91309524Y-113452381D01*
X92690477Y-113452381D02*
X92119048Y-113452381D01*
X92404762Y-113452381D02*
X92404762Y-112452381D01*
X92309524Y-112595238D01*
X92214286Y-112690476D01*
X92119048Y-112738095D01*
X93642858Y-113452381D02*
X93071429Y-113452381D01*
X93357143Y-113452381D02*
X93357143Y-112452381D01*
X93261905Y-112595238D01*
X93166667Y-112690476D01*
X93071429Y-112738095D01*
X112452381Y-70809523D02*
X113166667Y-70809523D01*
X113309524Y-70857143D01*
X113404762Y-70952381D01*
X113452381Y-71095238D01*
X113452381Y-71190476D01*
X113452381Y-69809523D02*
X113452381Y-70380952D01*
X113452381Y-70095238D02*
X112452381Y-70095238D01*
X112595238Y-70190476D01*
X112690476Y-70285714D01*
X112738095Y-70380952D01*
X112452381Y-69190476D02*
X112452381Y-69095237D01*
X112500000Y-68999999D01*
X112547619Y-68952380D01*
X112642857Y-68904761D01*
X112833333Y-68857142D01*
X113071429Y-68857142D01*
X113261905Y-68904761D01*
X113357143Y-68952380D01*
X113404762Y-68999999D01*
X113452381Y-69095237D01*
X113452381Y-69190476D01*
X113404762Y-69285714D01*
X113357143Y-69333333D01*
X113261905Y-69380952D01*
X113071429Y-69428571D01*
X112833333Y-69428571D01*
X112642857Y-69380952D01*
X112547619Y-69333333D01*
X112500000Y-69285714D01*
X112452381Y-69190476D01*
X112452381Y-86583333D02*
X113166667Y-86583333D01*
X113309524Y-86630953D01*
X113404762Y-86726191D01*
X113452381Y-86869048D01*
X113452381Y-86964286D01*
X113452381Y-86059524D02*
X113452381Y-85869048D01*
X113404762Y-85773809D01*
X113357143Y-85726190D01*
X113214286Y-85630952D01*
X113023810Y-85583333D01*
X112642857Y-85583333D01*
X112547619Y-85630952D01*
X112500000Y-85678571D01*
X112452381Y-85773809D01*
X112452381Y-85964286D01*
X112500000Y-86059524D01*
X112547619Y-86107143D01*
X112642857Y-86154762D01*
X112880952Y-86154762D01*
X112976190Y-86107143D01*
X113023810Y-86059524D01*
X113071429Y-85964286D01*
X113071429Y-85773809D01*
X113023810Y-85678571D01*
X112976190Y-85630952D01*
X112880952Y-85583333D01*
X75916667Y-112452381D02*
X75916667Y-113166667D01*
X75869047Y-113309524D01*
X75773809Y-113404762D01*
X75630952Y-113452381D01*
X75535714Y-113452381D01*
X76535714Y-112880952D02*
X76440476Y-112833333D01*
X76392857Y-112785714D01*
X76345238Y-112690476D01*
X76345238Y-112642857D01*
X76392857Y-112547619D01*
X76440476Y-112500000D01*
X76535714Y-112452381D01*
X76726191Y-112452381D01*
X76821429Y-112500000D01*
X76869048Y-112547619D01*
X76916667Y-112642857D01*
X76916667Y-112690476D01*
X76869048Y-112785714D01*
X76821429Y-112833333D01*
X76726191Y-112880952D01*
X76535714Y-112880952D01*
X76440476Y-112928571D01*
X76392857Y-112976190D01*
X76345238Y-113071429D01*
X76345238Y-113261905D01*
X76392857Y-113357143D01*
X76440476Y-113404762D01*
X76535714Y-113452381D01*
X76726191Y-113452381D01*
X76821429Y-113404762D01*
X76869048Y-113357143D01*
X76916667Y-113261905D01*
X76916667Y-113071429D01*
X76869048Y-112976190D01*
X76821429Y-112928571D01*
X76726191Y-112880952D01*
X112452381Y-54083333D02*
X113166667Y-54083333D01*
X113309524Y-54130953D01*
X113404762Y-54226191D01*
X113452381Y-54369048D01*
X113452381Y-54464286D01*
X112452381Y-53178571D02*
X112452381Y-53369048D01*
X112500000Y-53464286D01*
X112547619Y-53511905D01*
X112690476Y-53607143D01*
X112880952Y-53654762D01*
X113261905Y-53654762D01*
X113357143Y-53607143D01*
X113404762Y-53559524D01*
X113452381Y-53464286D01*
X113452381Y-53273809D01*
X113404762Y-53178571D01*
X113357143Y-53130952D01*
X113261905Y-53083333D01*
X113023810Y-53083333D01*
X112928571Y-53130952D01*
X112880952Y-53178571D01*
X112833333Y-53273809D01*
X112833333Y-53464286D01*
X112880952Y-53559524D01*
X112928571Y-53607143D01*
X113023810Y-53654762D01*
X112452381Y-37833333D02*
X113166667Y-37833333D01*
X113309524Y-37880953D01*
X113404762Y-37976191D01*
X113452381Y-38119048D01*
X113452381Y-38214286D01*
X112452381Y-36880952D02*
X112452381Y-37357143D01*
X112928571Y-37404762D01*
X112880952Y-37357143D01*
X112833333Y-37261905D01*
X112833333Y-37023809D01*
X112880952Y-36928571D01*
X112928571Y-36880952D01*
X113023810Y-36833333D01*
X113261905Y-36833333D01*
X113357143Y-36880952D01*
X113404762Y-36928571D01*
X113452381Y-37023809D01*
X113452381Y-37261905D01*
X113404762Y-37357143D01*
X113357143Y-37404762D01*
X75916667Y-26452381D02*
X75916667Y-27166667D01*
X75869047Y-27309524D01*
X75773809Y-27404762D01*
X75630952Y-27452381D01*
X75535714Y-27452381D01*
X76821429Y-26785714D02*
X76821429Y-27452381D01*
X76583333Y-26404762D02*
X76345238Y-27119048D01*
X76964286Y-27119048D01*
X92166667Y-26452381D02*
X92166667Y-27166667D01*
X92119047Y-27309524D01*
X92023809Y-27404762D01*
X91880952Y-27452381D01*
X91785714Y-27452381D01*
X92547619Y-26452381D02*
X93166667Y-26452381D01*
X92833333Y-26833333D01*
X92976191Y-26833333D01*
X93071429Y-26880952D01*
X93119048Y-26928571D01*
X93166667Y-27023810D01*
X93166667Y-27261905D01*
X93119048Y-27357143D01*
X93071429Y-27404762D01*
X92976191Y-27452381D01*
X92690476Y-27452381D01*
X92595238Y-27404762D01*
X92547619Y-27357143D01*
X34122381Y-71468095D02*
X33122381Y-71468095D01*
X33122381Y-71087142D01*
X33170000Y-70991904D01*
X33217619Y-70944285D01*
X33312857Y-70896666D01*
X33455714Y-70896666D01*
X33550952Y-70944285D01*
X33598571Y-70991904D01*
X33646190Y-71087142D01*
X33646190Y-71468095D01*
X33122381Y-70563333D02*
X33122381Y-69944285D01*
X33503333Y-70277619D01*
X33503333Y-70134761D01*
X33550952Y-70039523D01*
X33598571Y-69991904D01*
X33693810Y-69944285D01*
X33931905Y-69944285D01*
X34027143Y-69991904D01*
X34074762Y-70039523D01*
X34122381Y-70134761D01*
X34122381Y-70420476D01*
X34074762Y-70515714D01*
X34027143Y-70563333D01*
M02*
