G04 #@! TF.FileFunction,Copper,L2,Bot,Signal*
%FSLAX46Y46*%
G04 Gerber Fmt 4.6, Leading zero omitted, Abs format (unit mm)*
G04 Created by KiCad (PCBNEW 4.0.7-e2-6376~58~ubuntu17.04.1) date Mon Nov 20 17:12:01 2017*
%MOMM*%
%LPD*%
G01*
G04 APERTURE LIST*
%ADD10C,0.100000*%
%ADD11R,2.500000X1.250000*%
%ADD12R,2.000000X0.600000*%
%ADD13R,1.500000X1.300000*%
%ADD14R,3.000000X1.500000*%
%ADD15O,3.000000X1.500000*%
%ADD16R,1.200000X0.750000*%
%ADD17C,1.998980*%
%ADD18C,0.635000*%
%ADD19C,1.270000*%
%ADD20C,0.381000*%
G04 APERTURE END LIST*
D10*
D11*
X212500000Y-42500000D03*
X212500000Y-72500000D03*
X212500000Y-50000000D03*
X212500000Y-47500000D03*
X62500000Y-45000000D03*
X212500000Y-75000000D03*
X62500000Y-40000000D03*
X62500000Y-42500000D03*
X62500000Y-72500000D03*
X62500000Y-50000000D03*
X62500000Y-47500000D03*
X212500000Y-45000000D03*
X62500000Y-75000000D03*
X212500000Y-40000000D03*
D12*
X142200000Y-48515000D03*
X142200000Y-49785000D03*
X142200000Y-51055000D03*
X142200000Y-52325000D03*
X142200000Y-53595000D03*
X142200000Y-54865000D03*
X142200000Y-56135000D03*
X142200000Y-57405000D03*
X142200000Y-58675000D03*
X142200000Y-59945000D03*
X142200000Y-61215000D03*
X142200000Y-62485000D03*
X132800000Y-62485000D03*
X132800000Y-61215000D03*
X132800000Y-59945000D03*
X132800000Y-58675000D03*
X132800000Y-57405000D03*
X132800000Y-56135000D03*
X132800000Y-54865000D03*
X132800000Y-53595000D03*
X132800000Y-52325000D03*
X132800000Y-51055000D03*
X132800000Y-49785000D03*
X132800000Y-48515000D03*
D13*
X128850000Y-49500000D03*
X126150000Y-49500000D03*
D14*
X62500000Y-66230000D03*
D15*
X62500000Y-68770000D03*
D14*
X72500000Y-66230000D03*
D15*
X72500000Y-68770000D03*
D14*
X82500000Y-66230000D03*
D15*
X82500000Y-68770000D03*
D14*
X92500000Y-66230000D03*
D15*
X92500000Y-68770000D03*
D14*
X102500000Y-66230000D03*
D15*
X102500000Y-68770000D03*
D14*
X112500000Y-66230000D03*
D15*
X112500000Y-68770000D03*
D14*
X122500000Y-66230000D03*
D15*
X122500000Y-68770000D03*
D14*
X132500000Y-66230000D03*
D15*
X132500000Y-68770000D03*
D14*
X142500000Y-66230000D03*
D15*
X142500000Y-68770000D03*
D14*
X152500000Y-66230000D03*
D15*
X152500000Y-68770000D03*
D14*
X162500000Y-66230000D03*
D15*
X162500000Y-68770000D03*
D14*
X172500000Y-66230000D03*
D15*
X172500000Y-68770000D03*
D14*
X182500000Y-66230000D03*
D15*
X182500000Y-68770000D03*
D14*
X192500000Y-66230000D03*
D15*
X192500000Y-68770000D03*
D14*
X202500000Y-66230000D03*
D15*
X202500000Y-68770000D03*
D14*
X212500000Y-66230000D03*
D15*
X212500000Y-68770000D03*
D16*
X128450000Y-46500000D03*
X126550000Y-46500000D03*
D17*
X131500000Y-40000000D03*
X124000000Y-42500000D03*
X124000000Y-47000000D03*
X131500000Y-46500000D03*
D18*
X131500000Y-40000000D02*
X133500000Y-40000000D01*
X128450000Y-46500000D02*
X131500000Y-46500000D01*
X132800000Y-48515000D02*
X131015000Y-48515000D01*
X128450000Y-46950000D02*
X128450000Y-46500000D01*
X129000000Y-47500000D02*
X128450000Y-46950000D01*
X130000000Y-47500000D02*
X129000000Y-47500000D01*
X131015000Y-48515000D02*
X130000000Y-47500000D01*
D19*
X212500000Y-40000000D02*
X133500000Y-40000000D01*
X133500000Y-40000000D02*
X124500000Y-40000000D01*
X124500000Y-40000000D02*
X62500000Y-40000000D01*
D18*
X124000000Y-42500000D02*
X126000000Y-42500000D01*
X142200000Y-48515000D02*
X142200000Y-47300000D01*
X142200000Y-47300000D02*
X142500000Y-47000000D01*
X126550000Y-46500000D02*
X124500000Y-46500000D01*
X124500000Y-46500000D02*
X124000000Y-47000000D01*
X126150000Y-49500000D02*
X126150000Y-48350000D01*
X126550000Y-47950000D02*
X126550000Y-46500000D01*
X126150000Y-48350000D02*
X126550000Y-47950000D01*
X142200000Y-48515000D02*
X142200000Y-48300000D01*
X142200000Y-48300000D02*
X142500000Y-48000000D01*
D19*
X142500000Y-47000000D02*
X142500000Y-48000000D01*
X142500000Y-42500000D02*
X142500000Y-47000000D01*
X62500000Y-42500000D02*
X122000000Y-42500000D01*
X122000000Y-42500000D02*
X126000000Y-42500000D01*
X126000000Y-42500000D02*
X142500000Y-42500000D01*
X142500000Y-42500000D02*
X212500000Y-42500000D01*
D18*
X212500000Y-66230000D02*
X212500000Y-64000000D01*
X212500000Y-64000000D02*
X202095000Y-53595000D01*
X142200000Y-53595000D02*
X202095000Y-53595000D01*
D19*
X207500000Y-68770000D02*
X207500000Y-73000000D01*
X62500000Y-75000000D02*
X65500000Y-75000000D01*
X67500000Y-73000000D02*
X67500000Y-68770000D01*
X65500000Y-75000000D02*
X67500000Y-73000000D01*
X212500000Y-75000000D02*
X209500000Y-75000000D01*
X209500000Y-75000000D02*
X207500000Y-73000000D01*
X202500000Y-68770000D02*
X207500000Y-68770000D01*
X207500000Y-68770000D02*
X207000000Y-68770000D01*
X207000000Y-68770000D02*
X212500000Y-68770000D01*
X192500000Y-68770000D02*
X202500000Y-68770000D01*
X182500000Y-68770000D02*
X192500000Y-68770000D01*
X172500000Y-68770000D02*
X182500000Y-68770000D01*
X162500000Y-68770000D02*
X172500000Y-68770000D01*
X152500000Y-68770000D02*
X162500000Y-68770000D01*
X142500000Y-68770000D02*
X152500000Y-68770000D01*
X142500000Y-68770000D02*
X132500000Y-68770000D01*
X122500000Y-68770000D02*
X132500000Y-68770000D01*
X112500000Y-68770000D02*
X122500000Y-68770000D01*
X102500000Y-68770000D02*
X112500000Y-68770000D01*
X102500000Y-68770000D02*
X92690498Y-68770000D01*
X92690498Y-68770000D02*
X92500000Y-68579502D01*
X92500000Y-68579502D02*
X92500000Y-68770000D01*
X82500000Y-68770000D02*
X92500000Y-68770000D01*
D18*
X72500000Y-68770000D02*
X82500000Y-68770000D01*
D19*
X62500000Y-68770000D02*
X67500000Y-68770000D01*
X67500000Y-68770000D02*
X72500000Y-68770000D01*
D18*
X142200000Y-54865000D02*
X199365000Y-54865000D01*
X199365000Y-54865000D02*
X199500000Y-55000000D01*
X199500000Y-55000000D02*
X202500000Y-58000000D01*
X202500000Y-58000000D02*
X202500000Y-66230000D01*
X142200000Y-56135000D02*
X191135000Y-56135000D01*
X191135000Y-56135000D02*
X191500000Y-56500000D01*
X191500000Y-56500000D02*
X192500000Y-57500000D01*
X192500000Y-57500000D02*
X192500000Y-66230000D01*
X142200000Y-57405000D02*
X178905000Y-57405000D01*
X178905000Y-57405000D02*
X179000000Y-57500000D01*
X179000000Y-57500000D02*
X182500000Y-61000000D01*
X182500000Y-61000000D02*
X182500000Y-66230000D01*
X142200000Y-58675000D02*
X169675000Y-58675000D01*
X172500000Y-61500000D02*
X172500000Y-66230000D01*
X169675000Y-58675000D02*
X172500000Y-61500000D01*
X142200000Y-59945000D02*
X158945000Y-59945000D01*
X158945000Y-59945000D02*
X159000000Y-60000000D01*
X159000000Y-60000000D02*
X162500000Y-63500000D01*
X162500000Y-63500000D02*
X162500000Y-66230000D01*
X142200000Y-61215000D02*
X150215000Y-61215000D01*
X150215000Y-61215000D02*
X150500000Y-61500000D01*
X150500000Y-61500000D02*
X152500000Y-63500000D01*
X152500000Y-63500000D02*
X152500000Y-66230000D01*
X142200000Y-62485000D02*
X142200000Y-65930000D01*
X142200000Y-65930000D02*
X142500000Y-66230000D01*
X142200000Y-65930000D02*
X142500000Y-66230000D01*
X132800000Y-62485000D02*
X132800000Y-65930000D01*
X132800000Y-65930000D02*
X132500000Y-66230000D01*
X132800000Y-65930000D02*
X132500000Y-66230000D01*
X132800000Y-61215000D02*
X123785000Y-61215000D01*
X123785000Y-61215000D02*
X123500000Y-61500000D01*
X122500000Y-62500000D02*
X122500000Y-66230000D01*
X123500000Y-61500000D02*
X122500000Y-62500000D01*
X132800000Y-59945000D02*
X113555000Y-59945000D01*
X113555000Y-59945000D02*
X113500000Y-60000000D01*
X112500000Y-61000000D02*
X112500000Y-66230000D01*
X113500000Y-60000000D02*
X112500000Y-61000000D01*
X132800000Y-58675000D02*
X105325000Y-58675000D01*
X105325000Y-58675000D02*
X105000000Y-59000000D01*
X102500000Y-61500000D02*
X102500000Y-66737998D01*
X102500000Y-66737998D02*
X102500000Y-66230000D01*
X105000000Y-59000000D02*
X102500000Y-61500000D01*
X132800000Y-57405000D02*
X95095000Y-57405000D01*
X95095000Y-57405000D02*
X94000000Y-58500000D01*
X92500000Y-60000000D02*
X92500000Y-66230000D01*
X94000000Y-58500000D02*
X92500000Y-60000000D01*
X132800000Y-56135000D02*
X87365000Y-56135000D01*
X87365000Y-56135000D02*
X87000000Y-56500000D01*
X82500000Y-61000000D02*
X82500000Y-66230000D01*
X87000000Y-56500000D02*
X82500000Y-61000000D01*
X132800000Y-54865000D02*
X75635000Y-54865000D01*
X75635000Y-54865000D02*
X75000000Y-55500000D01*
X72500000Y-58000000D02*
X72500000Y-66230000D01*
X75000000Y-55500000D02*
X72500000Y-58000000D01*
X62500000Y-66230000D02*
X62500000Y-65500000D01*
X62500000Y-65500000D02*
X74405000Y-53595000D01*
X132800000Y-53595000D02*
X74405000Y-53595000D01*
D20*
X75000000Y-51055000D02*
X71945000Y-51055000D01*
X59500000Y-46000000D02*
X60500000Y-45000000D01*
X59500000Y-52000000D02*
X59500000Y-46000000D01*
X60000000Y-52500000D02*
X59500000Y-52000000D01*
X70500000Y-52500000D02*
X60000000Y-52500000D01*
X60500000Y-45000000D02*
X62500000Y-45000000D01*
X71945000Y-51055000D02*
X70500000Y-52500000D01*
X132800000Y-51055000D02*
X75000000Y-51055000D01*
X75000000Y-51055000D02*
X74945000Y-51055000D01*
X142200000Y-49785000D02*
X200215000Y-49785000D01*
X200215000Y-49785000D02*
X203500000Y-46500000D01*
X203215000Y-46785000D02*
X203500000Y-46500000D01*
X203500000Y-46500000D02*
X205000000Y-45000000D01*
X205000000Y-45000000D02*
X212500000Y-45000000D01*
X142200000Y-51055000D02*
X201945000Y-51055000D01*
X205500000Y-47500000D02*
X212500000Y-47500000D01*
X204945000Y-48055000D02*
X205500000Y-47500000D01*
X201945000Y-51055000D02*
X204945000Y-48055000D01*
X62500000Y-47500000D02*
X68500000Y-47500000D01*
X140055000Y-51055000D02*
X142200000Y-51055000D01*
X139000000Y-50000000D02*
X140055000Y-51055000D01*
X139000000Y-45500000D02*
X139000000Y-50000000D01*
X137500000Y-44000000D02*
X139000000Y-45500000D01*
X72000000Y-44000000D02*
X137500000Y-44000000D01*
X68500000Y-47500000D02*
X72000000Y-44000000D01*
X142200000Y-52325000D02*
X204175000Y-52325000D01*
X204175000Y-52325000D02*
X206500000Y-50000000D01*
X62500000Y-50000000D02*
X69500000Y-50000000D01*
X138825000Y-52325000D02*
X142200000Y-52325000D01*
X137500000Y-51000000D02*
X138825000Y-52325000D01*
X137500000Y-46500000D02*
X137500000Y-51000000D01*
X136000000Y-45000000D02*
X137500000Y-46500000D01*
X74500000Y-45000000D02*
X136000000Y-45000000D01*
X69500000Y-50000000D02*
X74500000Y-45000000D01*
X206500000Y-50000000D02*
X212500000Y-50000000D01*
X137500000Y-67500000D02*
X137500000Y-54000000D01*
X135825000Y-52325000D02*
X137500000Y-54000000D01*
X135825000Y-52325000D02*
X132800000Y-52325000D01*
X64000000Y-67500000D02*
X137500000Y-67500000D01*
X137500000Y-67500000D02*
X215000000Y-67500000D01*
X60000000Y-67500000D02*
X64000000Y-67500000D01*
X215000000Y-67500000D02*
X215500000Y-68000000D01*
X60500000Y-72500000D02*
X59500000Y-71500000D01*
X59500000Y-71500000D02*
X59500000Y-68000000D01*
X59500000Y-68000000D02*
X60000000Y-67500000D01*
X62500000Y-72500000D02*
X60500000Y-72500000D01*
X214500000Y-72500000D02*
X212500000Y-72500000D01*
X215500000Y-71500000D02*
X214500000Y-72500000D01*
X215500000Y-68000000D02*
X215500000Y-71500000D01*
D18*
X132800000Y-49785000D02*
X129135000Y-49785000D01*
X129135000Y-49785000D02*
X128850000Y-49500000D01*
M02*
