M48
;DRILL file {KiCad 4.0.7-e2-6376~58~ubuntu17.04.1} date Mon Nov 20 17:12:17 2017
;FORMAT={-:-/ absolute / inch / decimal}
FMAT,2
INCH,TZ
T1C0.032
T2C0.035
%
G90
G05
M72
T1
X4.8819Y-1.6732
X4.8819Y-1.8504
X5.1772Y-1.5748
X5.1772Y-1.8307
T2
X2.4606Y-2.6075
X2.4606Y-2.7075
X2.8543Y-2.6075
X2.8543Y-2.7075
X3.248Y-2.6075
X3.248Y-2.7075
X3.6417Y-2.6075
X3.6417Y-2.7075
X4.0354Y-2.6075
X4.0354Y-2.7075
X4.4291Y-2.6075
X4.4291Y-2.7075
X4.8228Y-2.6075
X4.8228Y-2.7075
X5.2165Y-2.6075
X5.2165Y-2.7075
X5.6102Y-2.6075
X5.6102Y-2.7075
X6.0039Y-2.6075
X6.0039Y-2.7075
X6.3976Y-2.6075
X6.3976Y-2.7075
X6.7913Y-2.6075
X6.7913Y-2.7075
X7.185Y-2.6075
X7.185Y-2.7075
X7.5787Y-2.6075
X7.5787Y-2.7075
X7.9724Y-2.6075
X7.9724Y-2.7075
X8.3661Y-2.6075
X8.3661Y-2.7075
T0
M30
