<?xml version="1.0" standalone="no"?>
 <!DOCTYPE svg PUBLIC "-//W3C//DTD SVG 1.1//EN" 
 "http://www.w3.org/Graphics/SVG/1.1/DTD/svg11.dtd"> 
<svg xmlns="http://www.w3.org/2000/svg" version="1.1" 
    width="29.7002cm" height="21.0007cm" viewBox="0 0 116930 82680 ">
<title>SVG Picture created as utrinek-kontroler-B.Cu.svg date 2016/09/21 16:36:47 </title>
  <desc>Picture generated by PCBNEW </desc>
<g style="fill:#000000; fill-opacity:1;stroke:#000000; stroke-opacity:1;
stroke-linecap:round; stroke-linejoin:round; "
 transform="translate(0 0) scale(1 1)">
</g>
<g style="fill:#000000; fill-opacity:0.0; 
stroke:#000000; stroke-width:-0.000393701; stroke-opacity:1; 
stroke-linecap:round; stroke-linejoin:round;">
</g>
<g style="fill:#000000; fill-opacity:0.0; 
stroke:#000000; stroke-width:196.85; stroke-opacity:1; 
stroke-linecap:round; stroke-linejoin:round;">
<path d="M83921 56534
L83921 55353
L83640 55353
L83471 55409
L83359 55521
L83302 55634
L83246 55859
L83246 56028
L83302 56253
L83359 56365
L83471 56478
L83640 56534
L83921 56534
" />
<path d="M82571 56534
L82684 56478
L82740 56421
L82796 56309
L82796 55971
L82740 55859
L82684 55803
L82571 55746
L82402 55746
L82290 55803
L82234 55859
L82178 55971
L82178 56309
L82234 56421
L82290 56478
L82402 56534
L82571 56534
" />
<path d="M81671 56534
L81671 55746
" />
<path d="M81671 55859
L81615 55803
L81503 55746
L81334 55746
L81221 55803
L81165 55915
L81165 56534
" />
<path d="M81165 55915
L81109 55803
L80996 55746
L80828 55746
L80715 55803
L80659 55915
L80659 56534
" />
<path d="M79647 56478
L79759 56534
L79984 56534
L80097 56478
L80153 56365
L80153 55915
L80097 55803
L79984 55746
L79759 55746
L79647 55803
L79590 55915
L79590 56028
L80153 56140
" />
<path d="M79084 55746
L79084 56534
" />
<path d="M79084 55859
L79028 55803
L78915 55746
L78747 55746
L78634 55803
L78578 55915
L78578 56534
" />
</g>
<g style="fill:#000000; fill-opacity:0.0; 
stroke:#000000; stroke-width:59.0551; stroke-opacity:1; 
stroke-linecap:round; stroke-linejoin:round;">
<path d="M75250 57000
L75250 38000
" />
<path d="M94250 57000
L75250 57000
" />
<path d="M94250 38000
L94250 57000
" />
<path d="M75250 38000
L94250 38000
" />
</g>
<g style="fill:#000000; fill-opacity:0.0; 
stroke:#000000; stroke-width:0; stroke-opacity:1; 
stroke-linecap:round; stroke-linejoin:round;">
</g>
<g style="fill:#000000; fill-opacity:1.0; 
stroke:#000000; stroke-width:0; stroke-opacity:1; 
stroke-linecap:round; stroke-linejoin:round;">
<polyline style="fill-rule:evenodd;"
points="89397,42610
89102,42610
89102,42137
89397,42137
89397,42610
" /> 
<polyline style="fill-rule:evenodd;"
points="89397,41862
89102,41862
89102,41389
89397,41389
89397,41862
" /> 
<circle cx="89000" cy="53872" r="255.906" /> 
</g>
<g style="fill:#000000; fill-opacity:1.0; 
stroke:#000000; stroke-width:39.3701; stroke-opacity:1; 
stroke-linecap:round; stroke-linejoin:round;">
</g>
<g style="fill:#000000; fill-opacity:1.0; 
stroke:#000000; stroke-width:0; stroke-opacity:1; 
stroke-linecap:round; stroke-linejoin:round;">
<polyline style="fill-rule:evenodd;"
points="89255,55505
88744,55505
88744,54994
89255,54994
89255,55505
" /> 
<circle cx="80122" cy="40250" r="255.906" /> 
</g>
<g style="fill:#000000; fill-opacity:1.0; 
stroke:#000000; stroke-width:39.3701; stroke-opacity:1; 
stroke-linecap:round; stroke-linejoin:round;">
</g>
<g style="fill:#000000; fill-opacity:1.0; 
stroke:#000000; stroke-width:0; stroke-opacity:1; 
stroke-linecap:round; stroke-linejoin:round;">
<polyline style="fill-rule:evenodd;"
points="81755,39994
81755,40505
81244,40505
81244,39994
81755,39994
" /> 
<polyline style="fill-rule:evenodd;"
points="88075,43150
88525,43150
88525,43350
88075,43350
88075,43150
" /> 
<polyline style="fill-rule:evenodd;"
points="88075,43650
88525,43650
88525,43850
88075,43850
88075,43650
" /> 
<polyline style="fill-rule:evenodd;"
points="88075,44150
88525,44150
88525,44350
88075,44350
88075,44150
" /> 
<polyline style="fill-rule:evenodd;"
points="88075,44650
88525,44650
88525,44850
88075,44850
88075,44650
" /> 
<polyline style="fill-rule:evenodd;"
points="88075,45150
88525,45150
88525,45350
88075,45350
88075,45150
" /> 
<polyline style="fill-rule:evenodd;"
points="88075,45650
88525,45650
88525,45850
88075,45850
88075,45650
" /> 
<polyline style="fill-rule:evenodd;"
points="88075,46150
88525,46150
88525,46350
88075,46350
88075,46150
" /> 
<polyline style="fill-rule:evenodd;"
points="85575,46150
86025,46150
86025,46350
85575,46350
85575,46150
" /> 
<polyline style="fill-rule:evenodd;"
points="85575,45650
86025,45650
86025,45850
85575,45850
85575,45650
" /> 
<polyline style="fill-rule:evenodd;"
points="85575,44650
86025,44650
86025,44850
85575,44850
85575,44650
" /> 
<polyline style="fill-rule:evenodd;"
points="85575,44150
86025,44150
86025,44350
85575,44350
85575,44150
" /> 
<polyline style="fill-rule:evenodd;"
points="85575,43650
86025,43650
86025,43850
85575,43850
85575,43650
" /> 
<polyline style="fill-rule:evenodd;"
points="85575,43150
86025,43150
86025,43350
85575,43350
85575,43150
" /> 
<polyline style="fill-rule:evenodd;"
points="85575,45150
86025,45150
86025,45350
85575,45350
85575,45150
" /> 
<circle cx="81750" cy="47000" r="295.276" /> 
</g>
<g style="fill:#000000; fill-opacity:1.0; 
stroke:#000000; stroke-width:39.3701; stroke-opacity:1; 
stroke-linecap:round; stroke-linejoin:round;">
</g>
<g style="fill:#000000; fill-opacity:1.0; 
stroke:#000000; stroke-width:0; stroke-opacity:1; 
stroke-linecap:round; stroke-linejoin:round;">
<circle cx="80750" cy="46500" r="295.276" /> 
</g>
<g style="fill:#000000; fill-opacity:1.0; 
stroke:#000000; stroke-width:39.3701; stroke-opacity:1; 
stroke-linecap:round; stroke-linejoin:round;">
</g>
<g style="fill:#000000; fill-opacity:1.0; 
stroke:#000000; stroke-width:0; stroke-opacity:1; 
stroke-linecap:round; stroke-linejoin:round;">
<circle cx="81750" cy="46000" r="295.276" /> 
</g>
<g style="fill:#000000; fill-opacity:1.0; 
stroke:#000000; stroke-width:39.3701; stroke-opacity:1; 
stroke-linecap:round; stroke-linejoin:round;">
</g>
<g style="fill:#000000; fill-opacity:1.0; 
stroke:#000000; stroke-width:0; stroke-opacity:1; 
stroke-linecap:round; stroke-linejoin:round;">
<circle cx="80750" cy="45500" r="295.276" /> 
</g>
<g style="fill:#000000; fill-opacity:1.0; 
stroke:#000000; stroke-width:39.3701; stroke-opacity:1; 
stroke-linecap:round; stroke-linejoin:round;">
</g>
<g style="fill:#000000; fill-opacity:1.0; 
stroke:#000000; stroke-width:0; stroke-opacity:1; 
stroke-linecap:round; stroke-linejoin:round;">
<circle cx="81750" cy="45000" r="295.276" /> 
</g>
<g style="fill:#000000; fill-opacity:1.0; 
stroke:#000000; stroke-width:39.3701; stroke-opacity:1; 
stroke-linecap:round; stroke-linejoin:round;">
</g>
<g style="fill:#000000; fill-opacity:1.0; 
stroke:#000000; stroke-width:0; stroke-opacity:1; 
stroke-linecap:round; stroke-linejoin:round;">
<circle cx="80750" cy="44500" r="295.276" /> 
</g>
<g style="fill:#000000; fill-opacity:1.0; 
stroke:#000000; stroke-width:39.3701; stroke-opacity:1; 
stroke-linecap:round; stroke-linejoin:round;">
</g>
<g style="fill:#000000; fill-opacity:1.0; 
stroke:#000000; stroke-width:0; stroke-opacity:1; 
stroke-linecap:round; stroke-linejoin:round;">
<circle cx="81750" cy="44000" r="295.276" /> 
</g>
<g style="fill:#000000; fill-opacity:1.0; 
stroke:#000000; stroke-width:39.3701; stroke-opacity:1; 
stroke-linecap:round; stroke-linejoin:round;">
</g>
<g style="fill:#000000; fill-opacity:1.0; 
stroke:#000000; stroke-width:0; stroke-opacity:1; 
stroke-linecap:round; stroke-linejoin:round;">
<circle cx="80750" cy="43500" r="295.276" /> 
</g>
<g style="fill:#000000; fill-opacity:1.0; 
stroke:#000000; stroke-width:39.3701; stroke-opacity:1; 
stroke-linecap:round; stroke-linejoin:round;">
</g>
<g style="fill:#000000; fill-opacity:1.0; 
stroke:#000000; stroke-width:0; stroke-opacity:1; 
stroke-linecap:round; stroke-linejoin:round;">
<polyline style="fill-rule:evenodd;"
points="91600,41840
91600,41160
92400,41160
92400,41840
91600,41840
" /> 
</g>
<g style="fill:#000000; fill-opacity:1.0; 
stroke:#000000; stroke-width:680; stroke-opacity:1; 
stroke-linecap:round; stroke-linejoin:round;">
</g>
<g style="fill:#000000; fill-opacity:0.0; 
stroke:#000000; stroke-width:680; stroke-opacity:1; 
stroke-linecap:round; stroke-linejoin:round;">
<path d="M91940 42500
L92060 42500
" />
<path d="M91940 43500
L92060 43500
" />
<path d="M91940 44500
L92060 44500
" />
<path d="M91940 45500
L92060 45500
" />
</g>
<g style="fill:#000000; fill-opacity:0.0; 
stroke:#000000; stroke-width:0; stroke-opacity:1; 
stroke-linecap:round; stroke-linejoin:round;">
</g>
<g style="fill:#000000; fill-opacity:1.0; 
stroke:#000000; stroke-width:0; stroke-opacity:1; 
stroke-linecap:round; stroke-linejoin:round;">
<polyline style="fill-rule:evenodd;"
points="91600,54650
91600,53850
92400,53850
92400,54650
91600,54650
" /> 
</g>
<g style="fill:#000000; fill-opacity:1.0; 
stroke:#000000; stroke-width:800; stroke-opacity:1; 
stroke-linecap:round; stroke-linejoin:round;">
</g>
<g style="fill:#000000; fill-opacity:0.0; 
stroke:#000000; stroke-width:800; stroke-opacity:1; 
stroke-linecap:round; stroke-linejoin:round;">
<path d="M92000 55250
L92000 55250
" />
</g>
<g style="fill:#000000; fill-opacity:1.0; 
stroke:#000000; stroke-width:0; stroke-opacity:1; 
stroke-linecap:round; stroke-linejoin:round;">
<circle cx="85750" cy="47250" r="300" /> 
</g>
<g style="fill:#000000; fill-opacity:1.0; 
stroke:#000000; stroke-width:39.3701; stroke-opacity:1; 
stroke-linecap:round; stroke-linejoin:round;">
</g>
<g style="fill:#000000; fill-opacity:1.0; 
stroke:#000000; stroke-width:0; stroke-opacity:1; 
stroke-linecap:round; stroke-linejoin:round;">
<circle cx="88250" cy="47250" r="300" /> 
</g>
<g style="fill:#000000; fill-opacity:1.0; 
stroke:#000000; stroke-width:39.3701; stroke-opacity:1; 
stroke-linecap:round; stroke-linejoin:round;">
</g>
<g style="fill:#000000; fill-opacity:1.0; 
stroke:#000000; stroke-width:0; stroke-opacity:1; 
stroke-linecap:round; stroke-linejoin:round;">
<circle cx="88250" cy="42250" r="300" /> 
</g>
<g style="fill:#000000; fill-opacity:1.0; 
stroke:#000000; stroke-width:39.3701; stroke-opacity:1; 
stroke-linecap:round; stroke-linejoin:round;">
</g>
<g style="fill:#000000; fill-opacity:1.0; 
stroke:#000000; stroke-width:0; stroke-opacity:1; 
stroke-linecap:round; stroke-linejoin:round;">
<circle cx="85750" cy="42250" r="300" /> 
</g>
<g style="fill:#000000; fill-opacity:1.0; 
stroke:#000000; stroke-width:39.3701; stroke-opacity:1; 
stroke-linecap:round; stroke-linejoin:round;">
</g>
<g style="fill:#000000; fill-opacity:1.0; 
stroke:#000000; stroke-width:0; stroke-opacity:1; 
stroke-linecap:round; stroke-linejoin:round;">
<circle cx="89500" cy="44750" r="300" /> 
</g>
<g style="fill:#000000; fill-opacity:1.0; 
stroke:#000000; stroke-width:39.3701; stroke-opacity:1; 
stroke-linecap:round; stroke-linejoin:round;">
</g>
<g style="fill:#000000; fill-opacity:1.0; 
stroke:#000000; stroke-width:0; stroke-opacity:1; 
stroke-linecap:round; stroke-linejoin:round;">
<circle cx="84500" cy="45750" r="300" /> 
</g>
<g style="fill:#000000; fill-opacity:1.0; 
stroke:#000000; stroke-width:39.3701; stroke-opacity:1; 
stroke-linecap:round; stroke-linejoin:round;">
</g>
<g style="fill:#000000; fill-opacity:1.0; 
stroke:#000000; stroke-width:0; stroke-opacity:1; 
stroke-linecap:round; stroke-linejoin:round;">
<circle cx="87000" cy="41500" r="295.276" /> 
</g>
<g style="fill:#000000; fill-opacity:1.0; 
stroke:#000000; stroke-width:39.3701; stroke-opacity:1; 
stroke-linecap:round; stroke-linejoin:round;">
</g>
<g style="fill:#000000; fill-opacity:1.0; 
stroke:#000000; stroke-width:0; stroke-opacity:1; 
stroke-linecap:round; stroke-linejoin:round;">
<circle cx="90250" cy="41500" r="295.276" /> 
</g>
<g style="fill:#000000; fill-opacity:1.0; 
stroke:#000000; stroke-width:39.3701; stroke-opacity:1; 
stroke-linecap:round; stroke-linejoin:round;">
</g>
<g style="fill:#000000; fill-opacity:1.0; 
stroke:#000000; stroke-width:500; stroke-opacity:1; 
stroke-linecap:round; stroke-linejoin:round;">
</g>
<g style="fill:#000000; fill-opacity:0.0; 
stroke:#000000; stroke-width:500; stroke-opacity:1; 
stroke-linecap:round; stroke-linejoin:round;">
<path d="M88250 42250
L88250 40250
" />
<path d="M86250 40250
L88250 40250
" />
<path d="M88250 40250
L90750 40250
" />
<path d="M90750 40250
L92000 41500
" />
<path d="M81500 40250
L86250 40250
" />
<path d="M86250 40250
L86250 40250
" />
<path d="M81750 44000
L81750 42000
" />
<path d="M81500 41750
L81500 40250
" />
<path d="M81750 42000
L81500 41750
" />
</g>
<g style="fill:#000000; fill-opacity:0.0; 
stroke:#000000; stroke-width:150; stroke-opacity:1; 
stroke-linecap:round; stroke-linejoin:round;">
<path d="M88300 43250
L88750 43250
" />
<path d="M89250 42750
L89250 42374
" />
<path d="M88750 43250
L89250 42750
" />
</g>
<g style="fill:#000000; fill-opacity:0.0; 
stroke:#000000; stroke-width:250; stroke-opacity:1; 
stroke-linecap:round; stroke-linejoin:round;">
<path d="M88250 42250
L88500 42250
" />
<path d="M88500 42250
L88624 42374
" />
<path d="M88624 42374
L89250 42374
" />
</g>
<g style="fill:#000000; fill-opacity:0.0; 
stroke:#000000; stroke-width:150; stroke-opacity:1; 
stroke-linecap:round; stroke-linejoin:round;">
<path d="M89250 41625
L90124 41625
" />
<path d="M86250 42250
L85750 42250
" />
<path d="M87000 41500
L86250 42250
" />
<path d="M90124 41625
L90250 41500
" />
</g>
<g style="fill:#000000; fill-opacity:0.0; 
stroke:#000000; stroke-width:500; stroke-opacity:1; 
stroke-linecap:round; stroke-linejoin:round;">
<path d="M92000 42500
L92750 42500
" />
<path d="M81750 47000
L81750 49750
" />
<path d="M87250 55250
L89000 55250
" />
<path d="M81750 49750
L87250 55250
" />
<path d="M92000 55250
L89000 55250
" />
</g>
<g style="fill:#000000; fill-opacity:0.0; 
stroke:#000000; stroke-width:150; stroke-opacity:1; 
stroke-linecap:round; stroke-linejoin:round;">
<path d="M88300 43750
L89000 43750
" />
<path d="M89250 43500
L92000 43500
" />
<path d="M89000 43750
L89250 43500
" />
<path d="M88300 44250
L89000 44250
" />
<path d="M90500 44500
L92000 44500
" />
<path d="M90000 44000
L90500 44500
" />
<path d="M89250 44000
L90000 44000
" />
<path d="M89000 44250
L89250 44000
" />
<path d="M88300 44750
L89500 44750
" />
<path d="M88300 45250
L89000 45250
" />
<path d="M89250 45500
L92000 45500
" />
<path d="M89000 45250
L89250 45500
" />
</g>
<g style="fill:#000000; fill-opacity:0.0; 
stroke:#000000; stroke-width:250; stroke-opacity:1; 
stroke-linecap:round; stroke-linejoin:round;">
<path d="M92000 54250
L90000 52250
" />
</g>
<g style="fill:#000000; fill-opacity:0.0; 
stroke:#000000; stroke-width:150; stroke-opacity:1; 
stroke-linecap:round; stroke-linejoin:round;">
<path d="M89000 45750
L89500 46250
" />
<path d="M89000 45750
L88300 45750
" />
</g>
<g style="fill:#000000; fill-opacity:0.0; 
stroke:#000000; stroke-width:250; stroke-opacity:1; 
stroke-linecap:round; stroke-linejoin:round;">
<path d="M89500 51750
L89500 46250
" />
<path d="M90000 52250
L89500 51750
" />
</g>
<g style="fill:#000000; fill-opacity:0.0; 
stroke:#000000; stroke-width:150; stroke-opacity:1; 
stroke-linecap:round; stroke-linejoin:round;">
<path d="M88300 46250
L88300 47200
" />
<path d="M88300 47200
L88250 47250
" />
<path d="M85800 46250
L85800 47200
" />
<path d="M85800 47200
L85750 47250
" />
<path d="M85800 45750
L84500 45750
" />
<path d="M85800 44750
L85000 44750
" />
<path d="M82750 45000
L81750 45000
" />
<path d="M83250 44500
L82750 45000
" />
<path d="M84750 44500
L83250 44500
" />
<path d="M85000 44750
L84750 44500
" />
<path d="M85800 45250
L85000 45250
" />
<path d="M82750 46000
L81750 46000
" />
<path d="M83750 45000
L82750 46000
" />
<path d="M84750 45000
L83750 45000
" />
<path d="M85000 45250
L84750 45000
" />
</g>
<g style="fill:#000000; fill-opacity:1.0; 
stroke:#000000; stroke-width:150; stroke-opacity:1; 
stroke-linecap:round; stroke-linejoin:round;">
<polyline style="fill-rule:evenodd;"
points="93830,56580
84592,56580
84592,54684
78180,54684
78081,54445
77806,54169
77445,54019
77055,54019
76695,54168
76419,54443
76269,54804
76269,55194
76418,55554
76693,55830
77054,55980
77444,55980
77804,55831
77907,55729
77907,56580
75669,56580
75669,47703
77220,47703
77376,48082
77665,48372
78044,48529
78453,48529
78832,48373
79122,48084
79279,47705
79279,47296
79123,46917
78834,46627
78455,46470
78046,46470
77667,46626
77377,46915
77220,47294
77220,47703
75669,47703
75669,46388
80179,46388
80180,46615
80265,46821
80370,46844
80714,46500
80370,46155
80265,46178
80179,46388
75669,46388
75669,45388
80179,45388
80180,45615
80265,45821
80370,45844
80714,45500
80370,45155
80265,45178
80179,45388
75669,45388
75669,44388
80179,44388
80180,44615
80265,44821
80370,44844
80714,44500
80370,44155
80265,44178
80179,44388
75669,44388
75669,43203
77220,43203
77376,43582
77665,43872
78044,44029
78453,44029
78832,43873
79122,43584
79203,43388
80179,43388
80180,43615
80265,43821
80370,43844
80714,43500
80370,43155
80265,43178
80179,43388
79203,43388
79279,43205
79279,43120
80405,43120
80750,43464
80755,43459
80790,43494
80785,43500
80790,43505
80755,43540
80750,43535
80405,43879
80428,43984
80466,43999
80428,44015
80405,44120
80750,44464
80755,44459
80790,44494
80785,44500
80790,44505
80755,44540
80750,44535
80405,44879
80428,44984
80466,44999
80428,45015
80405,45120
80750,45464
80755,45459
80790,45494
80785,45500
80790,45505
80755,45540
80750,45535
80405,45879
80428,45984
80466,45999
80428,46015
80405,46120
80750,46464
80755,46459
80790,46494
80785,46500
80790,46505
80755,46540
80750,46535
80405,46879
80428,46984
80638,47070
80865,47069
81064,46987
81064,47135
81110,47245
81110,49750
81158,49994
81297,50202
86797,55702
87005,55841
87250,55889
88677,55889
88744,55903
89255,55903
89327,55889
91547,55889
91682,55979
91984,56039
92015,56039
92317,55979
92574,55808
92745,55552
92805,55250
92745,54947
92707,54890
92766,54804
92797,54650
92797,53850
92770,53705
92685,53572
92554,53483
92400,53452
91930,53452
90014,51536
90014,50444
91019,50444
91168,50804
91443,51080
91804,51230
92194,51230
92554,51081
92830,50806
92980,50445
92980,50055
92831,49695
92556,49419
92195,49269
91805,49269
91445,49418
91169,49693
91019,50054
91019,50444
90014,50444
90014,46250
89975,46052
89916,45964
91374,45964
91408,46016
91645,46174
91924,46229
92075,46229
92354,46174
92591,46016
92749,45779
92805,45500
92749,45220
92602,45000
92749,44779
92805,44500
92749,44220
92602,44000
92749,43779
92805,43500
92749,43220
92591,42983
92502,42924
92512,42917
92637,42712
92663,42620
92605,42525
92025,42525
92025,42532
91975,42532
91975,42525
91394,42525
91336,42620
91362,42712
91487,42917
91497,42924
91408,42983
91374,43035
89608,43035
89679,42927
89690,42872
89763,42764
89795,42610
89795,42137
89768,41993
89682,41860
89672,41853
89672,41719
89603,41650
89275,41650
89275,41658
89225,41658
89225,41650
89217,41650
89217,41600
89225,41600
89225,41183
89275,41183
89275,41600
89603,41600
89672,41532
89672,41335
89630,41233
89553,41156
89452,41114
89343,41114
89275,41183
89225,41183
89156,41114
89047,41114
88946,41156
88889,41213
88889,40889
90484,40889
91202,41607
91202,41840
91229,41984
91314,42117
91421,42190
91362,42287
91336,42379
91394,42475
91975,42475
91975,42467
92025,42467
92025,42475
92605,42475
92663,42379
92637,42287
92577,42189
92677,42125
92766,41994
92797,41840
92797,41160
92770,41015
92685,40882
92554,40793
92400,40762
92167,40762
91202,39797
90994,39658
90750,39610
81822,39610
81755,39596
81244,39596
81099,39623
80966,39709
80877,39839
80846,39994
80846,40505
80860,40577
80860,41750
80908,41994
81047,42202
81110,42265
81110,43104
81094,43120
81071,43015
80861,42929
80634,42930
80428,43015
80405,43120
79279,43120
79279,42796
79123,42417
78834,42127
78455,41970
78046,41970
77667,42126
77377,42415
77220,42794
77220,43203
75669,43203
75669,40194
76269,40194
76418,40554
76693,40830
77054,40980
77444,40980
77804,40831
78035,40601
79806,40601
79824,40702
80020,40781
80231,40780
80419,40702
80438,40601
80122,40285
79806,40601
78035,40601
78080,40556
78230,40195
78230,40148
79590,40148
79591,40359
79669,40547
79770,40566
80086,40250
80157,40250
80473,40566
80574,40547
80653,40351
80652,40140
80574,39952
80473,39933
80157,40250
80086,40250
79770,39933
79669,39952
79590,40148
78230,40148
78230,39898
79806,39898
80122,40214
80438,39898
80419,39797
80223,39718
80012,39719
79824,39797
79806,39898
78230,39898
78230,39805
78081,39445
77806,39169
77445,39019
77055,39019
76695,39168
76419,39443
76269,39804
76269,40194
75669,40194
75669,38419
93830,38419
93830,56580
" /> 
<polyline style="fill-rule:evenodd;"
points="87610,41992
87560,42112
87559,42386
87664,42640
87853,42829
87797,42864
87708,42995
87677,43150
87677,43350
87704,43494
87707,43499
87677,43650
87677,43850
87704,43994
87707,43999
87677,44150
87677,44350
87704,44494
87707,44499
87677,44650
87677,44850
87704,44994
87707,44999
87677,45150
87677,45350
87704,45494
87707,45499
87677,45650
87677,45850
87704,45994
87707,45999
87677,46150
87677,46350
87704,46494
87789,46627
87835,46658
87835,46689
87665,46858
87560,47112
87559,47386
87664,47640
87858,47834
88112,47939
88386,47940
88640,47835
88834,47641
88939,47387
88940,47113
88835,46859
88764,46789
88764,46658
88802,46635
88891,46504
88922,46350
88922,46330
88985,46392
88985,51750
89024,51947
89135,52114
91202,54180
91202,54610
89322,54610
89255,54596
88744,54596
88672,54610
87515,54610
87128,54223
88683,54223
88702,54324
88898,54403
89109,54402
89297,54324
89316,54223
89000,53907
88683,54223
87128,54223
86675,53770
88468,53770
88469,53981
88547,54169
88648,54188
88964,53872
89035,53872
89351,54188
89452,54169
89531,53973
89530,53762
89452,53574
89351,53556
89035,53872
88964,53872
88648,53556
88547,53574
88468,53770
86675,53770
86425,53520
88683,53520
89000,53836
89316,53520
89297,53419
89101,53340
88890,53341
88702,53419
88683,53520
86425,53520
82389,49484
82389,47245
82435,47136
82435,46864
82331,46612
82219,46499
82254,46464
82750,46464
82927,46429
83078,46328
83820,45586
83810,45612
83809,45886
83914,46140
84108,46334
84362,46439
84636,46440
84890,46335
85010,46214
85177,46214
85177,46350
85204,46494
85289,46627
85335,46658
85335,46689
85165,46858
85060,47112
85059,47386
85164,47640
85358,47834
85612,47939
85886,47940
86140,47835
86334,47641
86439,47387
86440,47113
86335,46859
86264,46789
86264,46658
86302,46635
86391,46504
86422,46350
86422,46150
86395,46005
86392,46000
86422,45850
86422,45650
86395,45505
86392,45500
86422,45350
86422,45150
86395,45005
86392,45000
86422,44850
86422,44650
86395,44505
86392,44500
86422,44350
86422,44150
86395,44005
86392,44000
86422,43850
86422,43650
86395,43505
86310,43372
86300,43365
86300,43343
86231,43275
86136,43275
86025,43252
85575,43252
85454,43275
85368,43275
85300,43343
85300,43363
85297,43364
85208,43495
85177,43650
85177,43850
85204,43994
85207,43999
85177,44150
85177,44269
85078,44171
84927,44070
84750,44035
83250,44035
83072,44070
82921,44171
82557,44535
82254,44535
82219,44499
82330,44388
82435,44136
82435,43864
82389,43754
82389,43095
85300,43095
85300,43156
85368,43225
85775,43225
85775,42943
85825,42943
85825,43225
86231,43225
86300,43156
86300,43095
86258,42994
86180,42916
86079,42875
85893,42875
85825,42943
85775,42943
85706,42875
85520,42875
85419,42916
85341,42994
85300,43095
82389,43095
82389,42633
85402,42633
85425,42738
85637,42825
85866,42824
86074,42738
86097,42633
85750,42285
85402,42633
82389,42633
82389,42137
85174,42137
85175,42366
85261,42574
85366,42597
85714,42250
85785,42250
86133,42597
86238,42574
86325,42362
86324,42133
86238,41925
86133,41902
85785,42250
85714,42250
85366,41902
85261,41925
85174,42137
82389,42137
82389,42000
82363,41866
85402,41866
85750,42214
86097,41866
86074,41761
85862,41674
85633,41675
85425,41761
85402,41866
82363,41866
82341,41755
82202,41547
82139,41484
82139,40889
87610,40889
87610,41992
" /> 
</g>
<g style="fill:#FFFFFF; fill-opacity:1.0; 
stroke:#FFFFFF; stroke-width:150; stroke-opacity:1; 
stroke-linecap:round; stroke-linejoin:round;">
</g>
<g style="fill:#FFFFFF; fill-opacity:1.0; 
stroke:#FFFFFF; stroke-width:0; stroke-opacity:1; 
stroke-linecap:round; stroke-linejoin:round;">
<circle cx="87000" cy="41500" r="68.8976" /> 
</g>
<g style="fill:#FFFFFF; fill-opacity:1.0; 
stroke:#FFFFFF; stroke-width:39.3701; stroke-opacity:1; 
stroke-linecap:round; stroke-linejoin:round;">
</g>
<g style="fill:#FFFFFF; fill-opacity:1.0; 
stroke:#FFFFFF; stroke-width:0; stroke-opacity:1; 
stroke-linecap:round; stroke-linejoin:round;">
<circle cx="90250" cy="41500" r="68.8976" /> 
</g>
<g style="fill:#FFFFFF; fill-opacity:1.0; 
stroke:#FFFFFF; stroke-width:39.3701; stroke-opacity:1; 
stroke-linecap:round; stroke-linejoin:round;">
</g>
<g style="fill:#FFFFFF; fill-opacity:1.0; 
stroke:#FFFFFF; stroke-width:0; stroke-opacity:1; 
stroke-linecap:round; stroke-linejoin:round;">
<circle cx="92000" cy="50250" r="68.8976" /> 
</g>
<g style="fill:#FFFFFF; fill-opacity:1.0; 
stroke:#FFFFFF; stroke-width:39.3701; stroke-opacity:1; 
stroke-linecap:round; stroke-linejoin:round;">
</g>
<g style="fill:#FFFFFF; fill-opacity:1.0; 
stroke:#FFFFFF; stroke-width:0; stroke-opacity:1; 
stroke-linecap:round; stroke-linejoin:round;">
<circle cx="77250" cy="40000" r="68.8976" /> 
</g>
<g style="fill:#FFFFFF; fill-opacity:1.0; 
stroke:#FFFFFF; stroke-width:39.3701; stroke-opacity:1; 
stroke-linecap:round; stroke-linejoin:round;">
</g>
<g style="fill:#FFFFFF; fill-opacity:1.0; 
stroke:#FFFFFF; stroke-width:0; stroke-opacity:1; 
stroke-linecap:round; stroke-linejoin:round;">
<circle cx="89000" cy="53872" r="68.8976" /> 
</g>
<g style="fill:#FFFFFF; fill-opacity:1.0; 
stroke:#FFFFFF; stroke-width:39.3701; stroke-opacity:1; 
stroke-linecap:round; stroke-linejoin:round;">
</g>
<g style="fill:#FFFFFF; fill-opacity:1.0; 
stroke:#FFFFFF; stroke-width:0; stroke-opacity:1; 
stroke-linecap:round; stroke-linejoin:round;">
<circle cx="89000" cy="55250" r="68.8976" /> 
</g>
<g style="fill:#FFFFFF; fill-opacity:1.0; 
stroke:#FFFFFF; stroke-width:39.3701; stroke-opacity:1; 
stroke-linecap:round; stroke-linejoin:round;">
</g>
<g style="fill:#FFFFFF; fill-opacity:1.0; 
stroke:#FFFFFF; stroke-width:0; stroke-opacity:1; 
stroke-linecap:round; stroke-linejoin:round;">
<circle cx="80122" cy="40250" r="68.8976" /> 
</g>
<g style="fill:#FFFFFF; fill-opacity:1.0; 
stroke:#FFFFFF; stroke-width:39.3701; stroke-opacity:1; 
stroke-linecap:round; stroke-linejoin:round;">
</g>
<g style="fill:#FFFFFF; fill-opacity:1.0; 
stroke:#FFFFFF; stroke-width:0; stroke-opacity:1; 
stroke-linecap:round; stroke-linejoin:round;">
<circle cx="81500" cy="40250" r="68.8976" /> 
</g>
<g style="fill:#FFFFFF; fill-opacity:1.0; 
stroke:#FFFFFF; stroke-width:39.3701; stroke-opacity:1; 
stroke-linecap:round; stroke-linejoin:round;">
</g>
<g style="fill:#FFFFFF; fill-opacity:1.0; 
stroke:#FFFFFF; stroke-width:0; stroke-opacity:1; 
stroke-linecap:round; stroke-linejoin:round;">
<circle cx="78250" cy="47500" r="68.8976" /> 
</g>
<g style="fill:#FFFFFF; fill-opacity:1.0; 
stroke:#FFFFFF; stroke-width:39.3701; stroke-opacity:1; 
stroke-linecap:round; stroke-linejoin:round;">
</g>
<g style="fill:#FFFFFF; fill-opacity:1.0; 
stroke:#FFFFFF; stroke-width:0; stroke-opacity:1; 
stroke-linecap:round; stroke-linejoin:round;">
<circle cx="78250" cy="43000" r="68.8976" /> 
</g>
<g style="fill:#FFFFFF; fill-opacity:1.0; 
stroke:#FFFFFF; stroke-width:39.3701; stroke-opacity:1; 
stroke-linecap:round; stroke-linejoin:round;">
</g>
<g style="fill:#FFFFFF; fill-opacity:1.0; 
stroke:#FFFFFF; stroke-width:0; stroke-opacity:1; 
stroke-linecap:round; stroke-linejoin:round;">
<circle cx="81750" cy="47000" r="68.8976" /> 
</g>
<g style="fill:#FFFFFF; fill-opacity:1.0; 
stroke:#FFFFFF; stroke-width:39.3701; stroke-opacity:1; 
stroke-linecap:round; stroke-linejoin:round;">
</g>
<g style="fill:#FFFFFF; fill-opacity:1.0; 
stroke:#FFFFFF; stroke-width:0; stroke-opacity:1; 
stroke-linecap:round; stroke-linejoin:round;">
<circle cx="80750" cy="46500" r="68.8976" /> 
</g>
<g style="fill:#FFFFFF; fill-opacity:1.0; 
stroke:#FFFFFF; stroke-width:39.3701; stroke-opacity:1; 
stroke-linecap:round; stroke-linejoin:round;">
</g>
<g style="fill:#FFFFFF; fill-opacity:1.0; 
stroke:#FFFFFF; stroke-width:0; stroke-opacity:1; 
stroke-linecap:round; stroke-linejoin:round;">
<circle cx="81750" cy="46000" r="68.8976" /> 
</g>
<g style="fill:#FFFFFF; fill-opacity:1.0; 
stroke:#FFFFFF; stroke-width:39.3701; stroke-opacity:1; 
stroke-linecap:round; stroke-linejoin:round;">
</g>
<g style="fill:#FFFFFF; fill-opacity:1.0; 
stroke:#FFFFFF; stroke-width:0; stroke-opacity:1; 
stroke-linecap:round; stroke-linejoin:round;">
<circle cx="80750" cy="45500" r="68.8976" /> 
</g>
<g style="fill:#FFFFFF; fill-opacity:1.0; 
stroke:#FFFFFF; stroke-width:39.3701; stroke-opacity:1; 
stroke-linecap:round; stroke-linejoin:round;">
</g>
<g style="fill:#FFFFFF; fill-opacity:1.0; 
stroke:#FFFFFF; stroke-width:0; stroke-opacity:1; 
stroke-linecap:round; stroke-linejoin:round;">
<circle cx="81750" cy="45000" r="68.8976" /> 
</g>
<g style="fill:#FFFFFF; fill-opacity:1.0; 
stroke:#FFFFFF; stroke-width:39.3701; stroke-opacity:1; 
stroke-linecap:round; stroke-linejoin:round;">
</g>
<g style="fill:#FFFFFF; fill-opacity:1.0; 
stroke:#FFFFFF; stroke-width:0; stroke-opacity:1; 
stroke-linecap:round; stroke-linejoin:round;">
<circle cx="80750" cy="44500" r="68.8976" /> 
</g>
<g style="fill:#FFFFFF; fill-opacity:1.0; 
stroke:#FFFFFF; stroke-width:39.3701; stroke-opacity:1; 
stroke-linecap:round; stroke-linejoin:round;">
</g>
<g style="fill:#FFFFFF; fill-opacity:1.0; 
stroke:#FFFFFF; stroke-width:0; stroke-opacity:1; 
stroke-linecap:round; stroke-linejoin:round;">
<circle cx="81750" cy="44000" r="68.8976" /> 
</g>
<g style="fill:#FFFFFF; fill-opacity:1.0; 
stroke:#FFFFFF; stroke-width:39.3701; stroke-opacity:1; 
stroke-linecap:round; stroke-linejoin:round;">
</g>
<g style="fill:#FFFFFF; fill-opacity:1.0; 
stroke:#FFFFFF; stroke-width:0; stroke-opacity:1; 
stroke-linecap:round; stroke-linejoin:round;">
<circle cx="80750" cy="43500" r="68.8976" /> 
</g>
<g style="fill:#FFFFFF; fill-opacity:1.0; 
stroke:#FFFFFF; stroke-width:39.3701; stroke-opacity:1; 
stroke-linecap:round; stroke-linejoin:round;">
</g>
<g style="fill:#FFFFFF; fill-opacity:1.0; 
stroke:#FFFFFF; stroke-width:0; stroke-opacity:1; 
stroke-linecap:round; stroke-linejoin:round;">
<circle cx="92000" cy="41500" r="68.8976" /> 
</g>
<g style="fill:#FFFFFF; fill-opacity:1.0; 
stroke:#FFFFFF; stroke-width:39.3701; stroke-opacity:1; 
stroke-linecap:round; stroke-linejoin:round;">
</g>
<g style="fill:#FFFFFF; fill-opacity:1.0; 
stroke:#FFFFFF; stroke-width:0; stroke-opacity:1; 
stroke-linecap:round; stroke-linejoin:round;">
<circle cx="92000" cy="42500" r="68.8976" /> 
</g>
<g style="fill:#FFFFFF; fill-opacity:1.0; 
stroke:#FFFFFF; stroke-width:39.3701; stroke-opacity:1; 
stroke-linecap:round; stroke-linejoin:round;">
</g>
<g style="fill:#FFFFFF; fill-opacity:1.0; 
stroke:#FFFFFF; stroke-width:0; stroke-opacity:1; 
stroke-linecap:round; stroke-linejoin:round;">
<circle cx="92000" cy="43500" r="68.8976" /> 
</g>
<g style="fill:#FFFFFF; fill-opacity:1.0; 
stroke:#FFFFFF; stroke-width:39.3701; stroke-opacity:1; 
stroke-linecap:round; stroke-linejoin:round;">
</g>
<g style="fill:#FFFFFF; fill-opacity:1.0; 
stroke:#FFFFFF; stroke-width:0; stroke-opacity:1; 
stroke-linecap:round; stroke-linejoin:round;">
<circle cx="92000" cy="44500" r="68.8976" /> 
</g>
<g style="fill:#FFFFFF; fill-opacity:1.0; 
stroke:#FFFFFF; stroke-width:39.3701; stroke-opacity:1; 
stroke-linecap:round; stroke-linejoin:round;">
</g>
<g style="fill:#FFFFFF; fill-opacity:1.0; 
stroke:#FFFFFF; stroke-width:0; stroke-opacity:1; 
stroke-linecap:round; stroke-linejoin:round;">
<circle cx="92000" cy="45500" r="68.8976" /> 
</g>
<g style="fill:#FFFFFF; fill-opacity:1.0; 
stroke:#FFFFFF; stroke-width:39.3701; stroke-opacity:1; 
stroke-linecap:round; stroke-linejoin:round;">
</g>
<g style="fill:#FFFFFF; fill-opacity:1.0; 
stroke:#FFFFFF; stroke-width:0; stroke-opacity:1; 
stroke-linecap:round; stroke-linejoin:round;">
<circle cx="92000" cy="54250" r="68.8976" /> 
</g>
<g style="fill:#FFFFFF; fill-opacity:1.0; 
stroke:#FFFFFF; stroke-width:39.3701; stroke-opacity:1; 
stroke-linecap:round; stroke-linejoin:round;">
</g>
<g style="fill:#FFFFFF; fill-opacity:1.0; 
stroke:#FFFFFF; stroke-width:0; stroke-opacity:1; 
stroke-linecap:round; stroke-linejoin:round;">
<circle cx="92000" cy="55250" r="68.8976" /> 
</g>
<g style="fill:#FFFFFF; fill-opacity:1.0; 
stroke:#FFFFFF; stroke-width:39.3701; stroke-opacity:1; 
stroke-linecap:round; stroke-linejoin:round;">
</g>
<g style="fill:#FFFFFF; fill-opacity:1.0; 
stroke:#FFFFFF; stroke-width:0; stroke-opacity:1; 
stroke-linecap:round; stroke-linejoin:round;">
<circle cx="85750" cy="47250" r="68.8976" /> 
</g>
<g style="fill:#FFFFFF; fill-opacity:1.0; 
stroke:#FFFFFF; stroke-width:39.3701; stroke-opacity:1; 
stroke-linecap:round; stroke-linejoin:round;">
</g>
<g style="fill:#FFFFFF; fill-opacity:1.0; 
stroke:#FFFFFF; stroke-width:0; stroke-opacity:1; 
stroke-linecap:round; stroke-linejoin:round;">
<circle cx="88250" cy="47250" r="68.8976" /> 
</g>
<g style="fill:#FFFFFF; fill-opacity:1.0; 
stroke:#FFFFFF; stroke-width:39.3701; stroke-opacity:1; 
stroke-linecap:round; stroke-linejoin:round;">
</g>
<g style="fill:#FFFFFF; fill-opacity:1.0; 
stroke:#FFFFFF; stroke-width:0; stroke-opacity:1; 
stroke-linecap:round; stroke-linejoin:round;">
<circle cx="88250" cy="42250" r="68.8976" /> 
</g>
<g style="fill:#FFFFFF; fill-opacity:1.0; 
stroke:#FFFFFF; stroke-width:39.3701; stroke-opacity:1; 
stroke-linecap:round; stroke-linejoin:round;">
</g>
<g style="fill:#FFFFFF; fill-opacity:1.0; 
stroke:#FFFFFF; stroke-width:0; stroke-opacity:1; 
stroke-linecap:round; stroke-linejoin:round;">
<circle cx="85750" cy="42250" r="68.8976" /> 
</g>
<g style="fill:#FFFFFF; fill-opacity:1.0; 
stroke:#FFFFFF; stroke-width:39.3701; stroke-opacity:1; 
stroke-linecap:round; stroke-linejoin:round;">
</g>
<g style="fill:#FFFFFF; fill-opacity:1.0; 
stroke:#FFFFFF; stroke-width:0; stroke-opacity:1; 
stroke-linecap:round; stroke-linejoin:round;">
<circle cx="89500" cy="44750" r="68.8976" /> 
</g>
<g style="fill:#FFFFFF; fill-opacity:1.0; 
stroke:#FFFFFF; stroke-width:39.3701; stroke-opacity:1; 
stroke-linecap:round; stroke-linejoin:round;">
</g>
<g style="fill:#FFFFFF; fill-opacity:1.0; 
stroke:#FFFFFF; stroke-width:0; stroke-opacity:1; 
stroke-linecap:round; stroke-linejoin:round;">
<circle cx="84500" cy="45750" r="68.8976" /> 
</g>
<g style="fill:#FFFFFF; fill-opacity:1.0; 
stroke:#FFFFFF; stroke-width:39.3701; stroke-opacity:1; 
stroke-linecap:round; stroke-linejoin:round;">
</g>
<g style="fill:#FFFFFF; fill-opacity:1.0; 
stroke:#FFFFFF; stroke-width:0; stroke-opacity:1; 
stroke-linecap:round; stroke-linejoin:round;">
<circle cx="77250" cy="55000" r="68.8976" /> 
</g>
<g style="fill:#FFFFFF; fill-opacity:1.0; 
stroke:#FFFFFF; stroke-width:39.3701; stroke-opacity:1; 
stroke-linecap:round; stroke-linejoin:round;">
</g>
<g style="fill:#000000; fill-opacity:1.0; 
stroke:#000000; stroke-width:39.3701; stroke-opacity:1; 
stroke-linecap:round; stroke-linejoin:round;">
</g> 
</svg>
